<svg xmlns="http://www.w3.org/2000/svg" width="223.887" height="168.174" viewBox="0 0 223.887 168.174"><defs><style>.a,.i{fill:#e2e2e2;}.a{opacity:0.4;}.b{fill:#efc79c;}.c{fill:#1d3d63;}.d{fill:#f7c58d;}.e{fill:#f35;}.f{fill:#ff7190;}.g{fill:#333;}.h{fill:#ffecc5;}.j{fill:#a5a5a5;}.k{fill:#7f7f7f;}.l{fill:#ffa451;}.m{fill:#ffd2a8;}.n{fill:#efefef;}.o{fill:#ffb206;}.p{fill:#4c4c4c;}.q{fill:#efc100;}.r{fill:#21457a;}.s{fill:#353535;}.t{fill:#ffcf03;}.u{fill:#ffdaae;}.v{fill:#275389;}.w{fill:#52a5f6;}.x{fill:#67b7f9;}.y{fill:#bbe0ff;}.z{fill:#d2f0ff;opacity:0.49;}.aa{fill:#ea9c00;}</style></defs><g transform="translate(455.61 -55.704)"><g transform="translate(-455.61 55.704)"><g transform="translate(0)"><path class="a" d="M-234.352,601.424H-452.981a2.637,2.637,0,0,1-2.629-2.629h0a2.636,2.636,0,0,1,2.629-2.626h218.629a2.636,2.636,0,0,1,2.629,2.626h0A2.637,2.637,0,0,1-234.352,601.424Z" transform="translate(455.61 -433.25)"/><g transform="translate(30.375)"><path class="b" d="M353.134,464.86l-3.005,4.865-.989,1.393,5.311,2.867,3.587-5.905Z" transform="translate(-263.15 -341.522)"/><path class="c" d="M301.616,288.531q32,10.038,36.405,15.389t-24.4,40.577l-6.587-3.946q9.378-23.11,17.529-27.163c1.625-2.791-15.027-4.76-29.08-5.637s-11.44-9.254-6.9-19.531Q296.813,284.7,301.616,288.531Z" transform="translate(-218.324 -216.951)"/><path class="d" d="M328.01,110.285q3.387-6.968,3.852-10.985a78.466,78.466,0,0,0,8.962,9.685,18.715,18.715,0,0,0-4.76,10.611Z" transform="translate(-248.39 -86.158)"/><g transform="translate(14.674 32.831)"><path class="e" d="M136,412.229l-5.314-.009a4.538,4.538,0,0,0-3.663,1.851l-4.485,6.086a4.541,4.541,0,0,0-.178,5.128l2.213,3.488Z" transform="translate(-118.912 -337.582)"/><path class="f" d="M122.116,422.24l4.482-6.089a4.543,4.543,0,0,1,3.663-1.848l4.332,0,1.438-2.077-5.314-.009a4.538,4.538,0,0,0-3.663,1.851l-4.485,6.086a4.516,4.516,0,0,0-.871,2.788A4.306,4.306,0,0,1,122.116,422.24Z" transform="translate(-118.942 -337.582)"/><g transform="translate(120.945 90.301)"><path class="g" d="M553.67,492.531a19.945,19.945,0,1,1-19.919-19.971A19.943,19.943,0,0,1,553.67,492.531Z" transform="translate(-513.78 -470.034)"/><path class="h" d="M559.67,503.073A15.39,15.39,0,1,1,544.3,487.66,15.393,15.393,0,0,1,559.67,503.073Z" transform="translate(-524.335 -480.582)"/><path class="i" d="M564.336,511.282A11.848,11.848,0,1,1,552.5,499.42,11.847,11.847,0,0,1,564.336,511.282Z" transform="translate(-532.543 -488.797)"/><path class="j" d="M566.493,515.072a10.211,10.211,0,1,1-10.2-10.222A10.211,10.211,0,0,1,566.493,515.072Z" transform="translate(-536.336 -492.59)"/><path class="i" d="M558.941,486.5l-4.4,1.628-8.257-22.319,4.4-1.628Z" transform="translate(-536.483 -464.18)"/><path class="g" d="M575.885,531.591a3.078,3.078,0,1,1-3.072-3.081A3.075,3.075,0,0,1,575.885,531.591Z" transform="translate(-552.864 -509.118)"/><path class="k" d="M577.886,535.1a1.563,1.563,0,1,1-1.561-1.565A1.564,1.564,0,0,1,577.886,535.1Z" transform="translate(-556.378 -512.632)"/></g><g transform="translate(8.941 92.68)"><path class="g" d="M182.11,492.041a19.945,19.945,0,1,1-19.919-19.971A19.943,19.943,0,0,1,182.11,492.041Z" transform="translate(-142.22 -472.07)"/><path class="h" d="M188.11,502.583A15.39,15.39,0,1,1,172.74,487.17,15.393,15.393,0,0,1,188.11,502.583Z" transform="translate(-152.775 -482.618)"/><path class="i" d="M192.776,510.792a11.848,11.848,0,1,1-11.832-11.862A11.847,11.847,0,0,1,192.776,510.792Z" transform="translate(-160.983 -490.833)"/><path class="j" d="M194.933,514.582a10.211,10.211,0,1,1-10.2-10.222A10.211,10.211,0,0,1,194.933,514.582Z" transform="translate(-164.776 -494.626)"/><path class="g" d="M204.325,531.1a3.078,3.078,0,1,1-3.072-3.081A3.075,3.075,0,0,1,204.325,531.1Z" transform="translate(-181.304 -511.154)"/><path class="k" d="M206.323,534.614a1.561,1.561,0,1,1-1.558-1.565A1.559,1.559,0,0,1,206.323,534.614Z" transform="translate(-184.818 -514.668)"/></g><g transform="translate(118.94 77.904)"><path class="l" d="M513.261,444.035a47.339,47.339,0,0,1,33.674-3.563c-.13-9.019-7.051-21.24-27.73-16.272Q498.523,429.169,513.261,444.035Z" transform="translate(-507.129 -423.052)"/><path class="m" d="M521.845,427.649a20.711,20.711,0,0,0-7.744,3.295,7.665,7.665,0,0,0-1.5,2.194,22.048,22.048,0,0,1,7.159-2.879c17.408-4.181,25.059,3.813,27.121,11.826.871.139,1.745.3,2.623.5C548.737,433.753,541.523,422.923,521.845,427.649Z" transform="translate(-510.951 -425.461)"/></g><path class="n" d="M508.155,225.32q4.4,7.764.365,13.444Q505.051,237.91,508.155,225.32Z" transform="translate(-387.882 -207.021)"/><path class="o" d="M505.109,319.1l6.385-1.8q-5.942-17.906-21.586-44.7a28.742,28.742,0,0,1-2.957,1.076Z" transform="translate(-374.092 -240.049)"/><path class="o" d="M467.75,273.625q13.8,32.963,5.721,50.9-1.587,6.109,6.122,4.452,8.831-19.877-9.553-56.668Q469.186,271.8,467.75,273.625Z" transform="translate(-360.68 -239.769)"/><path class="l" d="M195.613,373.117q-36.815-.05-43.845-.057c-7.03-.012-29.243,9.58-36.128,39.357,18.5.024,37.623.051,42.989.057q5.367,0,6.421,9.628l53.808.072c6.291.006,17.423-24.215,11.518-36.616-2.6,12.947-8.35,19.6-14.828,21.442-4.98,1.414-19.588,1.287-26.069,1.152a4.178,4.178,0,0,1-3.988-3.268c-.8-3.59-1.782-9.6-.817-14.762C186.166,382.17,194.862,381.069,195.613,373.117Z" transform="translate(-114.712 -310.226)"/><g transform="translate(0 72.563)"><path class="l" d="M112.56,436.626l52.448.069q7.655-16.364,1.561-25.668c-6.092-9.3-31.212-6.424-41.907,3Q113.965,423.446,112.56,436.626Z" transform="translate(-112.56 -405.335)"/><path class="m" d="M194.121,442.762c1.519-3.669,5.941-15.877,1.025-23.326-5.535-8.389-27.452-6.357-38.446,1.51,11.636-5.6,29.141-6.276,34,1.091,4.066,6.161,1.745,15.573-.039,20.721Z" transform="translate(-143.394 -411.404)"/></g><g transform="translate(48.84 33.148)"><path class="l" d="M274.58,347.71l43.845.057c9.574.012,28.456-14.81,24.673-37.569q-3.78-22.762-9.595-33.59l6.662-2.029q12.733,24.81,15.5,32.212c2.764,7.4,6.9,27.3-8.1,41.014-6.113,5.125-10.834,7.2-17.77,7.192l-53.28-.072Z" transform="translate(-274.58 -274.58)"/><g transform="translate(60.238)"><path class="m" d="M495.258,306.792q-2.767-7.4-15.5-32.212l-2.487.757c3.063,6.376,11.889,25.026,13.821,32.1,2.083,7.624,6.511,28.058-8.492,41.777a33.988,33.988,0,0,1-8.19,5.351c4.461-.844,8.223-2.963,12.745-6.755C502.158,334.088,498.022,314.2,495.258,306.792Z" transform="translate(-474.41 -274.58)"/></g><path class="p" d="M319.393,353.833c9.574.012,29.068-15.482,25.288-38.241-3.415-20.546-9.281-32.878-10.391-35.082l-.787.241q5.815,10.829,9.595,33.59c3.783,22.759-15.1,37.581-24.673,37.569l-43.845-.057.512,1.92C282.134,353.785,311.006,353.821,319.393,353.833Z" transform="translate(-274.58 -278.722)"/></g><path d="M237.257,337.993q-6.95,9.423.335,9.435l40.608.054c1.99,0,4.706-7.626,1.028-7.907s-15.057,1.088-23.657-.865S239.9,334.943,237.257,337.993Z" transform="translate(-197.297 -284.592)"/><path class="m" d="M457.842,238.827q8.88-2.9,9.993-3.177a30.023,30.023,0,0,1,3.47-.549q-1.442-10.689.018-13.667c-3.117-2.987-7.491-2.023-12.073,2.273s-6.183,5.055-5.836,6.237A96.933,96.933,0,0,0,457.842,238.827Z" transform="translate(-350.634 -203.099)"/><g transform="translate(107.625 7.317)"><path class="j" d="M469.9,206.579l-.313-.534,6.3-3.723a1.913,1.913,0,0,0,.9-1.266l2.475-12.166.606.124L477.4,201.18a2.548,2.548,0,0,1-1.2,1.676Z" transform="translate(-469.59 -188.89)"/></g><path class="q" d="M465.334,246.247a3.613,3.613,0,1,1-3.6-3.837A3.723,3.723,0,0,1,465.334,246.247Z" transform="translate(-353.953 -218.96)"/><path class="r" d="M442.03,238.5q4.038-.136,5.5-1.474a3.164,3.164,0,0,1,4.555-.057c1.477,1.239,2.632,3.714,1.993,5.091a2.782,2.782,0,0,1-3.228,1.607c.416.974-1.881,1.118-3.021.711s-3.822-1.091-4.886-.859Q442.024,242.307,442.03,238.5Z" transform="translate(-342.713 -214.499)"/><path class="o" d="M463.21,261.351q.827,1.6,1.507,2.879,8.881-2.9,9.993-3.177a30.01,30.01,0,0,1,3.47-.549q-.262-1.962-.452-4.434C474.216,259.778,468.654,261.029,463.21,261.351Z" transform="translate(-357.509 -228.502)"/><path class="s" d="M466.054,247.874a2.012,2.012,0,1,1-2.008-2.014A2.013,2.013,0,0,1,466.054,247.874Z" transform="translate(-356.684 -221.37)"/><g transform="translate(113.898)"><path class="t" d="M495.1,170.728c-.537,3.156-1.977,5.544-3.219,5.333s-1.812-2.942-1.275-6.1,1.977-5.544,3.219-5.333S495.633,167.572,495.1,170.728Z" transform="translate(-490.4 -164.617)"/><path class="n" d="M494.986,173.091c-.428,2.514-1.414,4.443-2.2,4.311s-1.082-2.282-.657-4.8,1.414-4.443,2.2-4.311S495.414,170.577,494.986,173.091Z" transform="translate(-491.471 -167.182)"/></g></g><g transform="translate(63.529 24.126)"><path class="u" d="M378.863,469.92l-2.228,5.269-.766,1.525,5.688,2.023,2.644-6.385Z" transform="translate(-345.352 -369.184)"/><path class="r" d="M294.911,293.215q32.922,6.348,37.913,11.165t-19.039,44.156l-6.993-3.174q6.1-25.1,13.737-30.048c1.3-2.96-15.467-3.03-29.529-2.306s-18.671-9.092-15.328-19.817Q283.447,288.759,294.911,293.215Z" transform="translate(-274.629 -244.185)"/><path class="v" d="M350.584,356.393q24.028-39.338,19.039-44.156c-3.69-3.56-22.641-7.958-32.276-10.008a15.125,15.125,0,0,0-10.038,4.389c7.636-1.586,31.908,4,36.625,5.251s5.058,3.684,3.527,7.774c-1.48,3.955-14.575,30.518-18.035,36.225Z" transform="translate(-311.43 -252.043)"/><g transform="translate(0.143)"><path class="w" d="M275.583,187.175q-3.237-35.364,15.47-51.435c4.621,2.041,8.314,7.413,10.159,12.04s.509,34.039-.048,36.261c-.145.579-1.561,1.254-3.708,1.887C291.373,187.724,281.051,189.37,275.583,187.175Z" transform="translate(-275.105 -135.74)"/></g></g><path class="r" d="M327.32,221.4q7.126-3.007,8.163-17.182t.859-20.788q3.319,10.549,3.494,17.74c.175,7.192-.947,15.145-2.339,18.566Q336.109,223.159,327.32,221.4Z" transform="translate(-247.908 -144.928)"/><g transform="translate(80.887 32.98)"><path class="x" d="M332.4,173.071c1.031,6.228,4.476,21.273,7.28,24.176q4.63,4.793,26.922-1.513l-.733-6.77c-6.936-.1-16.374-.121-17.851-.772s-4.443-15.283-5.272-18.337-3.162-4.914-7.045-4.733S332.035,170.867,332.4,173.071Z" transform="translate(-332.214 -165.11)"/></g><path class="r" d="M277.787,201.9q-.529-20.352,3.09-28.339c6.119-10.2,10.982-14.906,13.966-15.838a5.918,5.918,0,0,1,5.483.865A7.287,7.287,0,0,0,298.771,156c-.826-.778-4.338-1.637-7.464.648s-11.407,12.245-12.98,16.049c-2.207,5.333-2.544,10.538-2.647,28.577C276,201.915,276.7,202.126,277.787,201.9Z" transform="translate(-211.834 -125.187)"/><path d="M368.244,487.4q1.158,2.953,5.224,2.818c2.677,2.393,9.547,2.472,11.952,2.384s1.568,2.776-1.857,3.7-17.758.115-19.238.115S365.073,489.106,368.244,487.4Z" transform="translate(-273.431 -357.268)"/><g transform="translate(81.275 3.098)"><path class="d" d="M352.042,80.769c.292-.916-1.314-2.674.009-5.447q1.32-2.772-2.285-5.17c-.048.066-.112.16-.193.274a8.474,8.474,0,0,0-7.1-4.446c-4.947-.006-8.965,5.049-8.974,11.3s4,11.114,8.95,11.12c.136,0,.262.184.395.175,1.962,1.281,4.654.127,4.992-.766.416-1.109.678-1.766,1.357-1.766s.5-.865,0-1.3c.368.124,1.109.051.989-.208s.121-.817.307-2.234C352.268,83.066,352.563,81.254,352.042,80.769Z" transform="translate(-333.5 -65.98)"/></g><path class="s" d="M329.87,118.706l.214,3.09q5.227,1.564,6.758-1.534T329.87,118.706Z" transform="translate(-249.689 -99.355)"/><path class="s" d="M381.61,99.21q2.333-.737,3.144.006c.09.253-.178.576-.615.485S382.291,99.271,381.61,99.21Z" transform="translate(-285.832 -85.839)"/><g transform="translate(89.095 15.704)"><path class="y" d="M370.325,108.734c-.714-.039-5.007-.021-6.587-.012l.006-.018-2.809-.9-.172.528,2.445.787c.115,1.733-1.338,3.759-2.02,4.606l-1.3-1.815-.452.323,1.423,2a6.7,6.7,0,0,0,3.994,4.133C368.7,116.985,371.434,110.956,370.325,108.734Z" transform="translate(-359.44 -107.8)"/></g><path class="s" d="M379.56,92.842c.3.048,4.389.491,5.866,2.529q1.194-1.022-.458-2.731Z" transform="translate(-284.4 -81.506)"/><path class="l" d="M336.58,67q7.782.963,10.138,1.869c1.326-5.893-2.761-10.834-9.212-12.649s-13.227,1.272-15.455,7.3-.775,8.748.678,11.009c1.179,1.833,3.011,3.165,8.229,2.858,3.433-.2,3.452-5.137,3.928-6.969C335.375,68.553,335.537,66.754,336.58,67Z" transform="translate(-243.425 -55.707)"/><g transform="translate(82.746)"><path class="m" d="M349.609,56.215a13.271,13.271,0,0,0-11.229,1.839,13.511,13.511,0,0,1,8.067-.223c5.571,1.558,9.378,5.45,9.468,10.282a20.074,20.074,0,0,1,2.921.739C360.153,62.952,356.06,58.018,349.609,56.215Z" transform="translate(-338.38 -55.704)"/></g><path class="s" d="M340.894,90.376c-1.046-.25-1.206,1.549-1.694,3.424-.479,1.83-.494,6.761-3.931,6.966-3.8.226-5.806-.425-7.069-1.5,1.2,1.552,3.153,2.61,7.856,2.333,3.433-.2,3.452-5.137,3.928-6.969.488-1.872.651-3.672,1.694-3.421q7.782.963,10.138,1.869A10.618,10.618,0,0,0,352,91.995Q349.553,91.1,340.894,90.376Z" transform="translate(-248.522 -79.908)"/><path class="z" d="M373.793,87.048q.244,9.111-6.785,16.371c-2.089,1.031-9.345-1.685-8.269-8.911.763-5.115-.018-8.841,1.555-9.625S369.169,87.181,373.793,87.048Z" transform="translate(-269.78 -75.998)"/><g transform="translate(5.161 89.639)"><path d="M144.553,362.864l-20.622-.027a4.224,4.224,0,0,1-3.6-2.044l-2.52-4.211a1.436,1.436,0,0,0-1.221-.693l-34.2-.045a1.387,1.387,0,1,1,0-2.773l34.2.045a4.214,4.214,0,0,1,3.6,2.044l2.52,4.208a1.426,1.426,0,0,0,1.221.693l20.622.027a1.388,1.388,0,0,1,0,2.776Z" transform="translate(-81 -353.07)"/></g><g transform="translate(0 46.053)"><path class="l" d="M109.534,252.463l-39.369-.051a3.7,3.7,0,0,1-3.7-3.7l.048-36.032a3.7,3.7,0,0,1,3.7-3.7l39.369.054a3.7,3.7,0,0,1,3.7,3.7l-.048,36.029A3.7,3.7,0,0,1,109.534,252.463Z" transform="translate(-65.689 -208.829)"/><path class="aa" d="M113.369,219.491l.009-6.752a3.7,3.7,0,0,0-3.7-3.7l-39.369-.054a3.7,3.7,0,0,0-3.7,3.7l-.009,6.752Z" transform="translate(-65.78 -208.829)"/><path class="m" d="M112.295,217.351l.006-4.98a3.831,3.831,0,0,0-3.825-3.837L67.72,208.48a3.832,3.832,0,0,0-3.834,3.825l-.006,4.98Z" transform="translate(-63.88 -208.48)"/></g></g></g></g></g></svg>