<svg xmlns="http://www.w3.org/2000/svg" width="64.893" height="54.439" viewBox="0 0 64.893 54.439"><defs><style>.a,.c{fill:#f2b172;}.b{fill:#e68832;}.c{opacity:0.302;}.d{fill:#d48234;}.e{fill:#ce543d;opacity:0.1;}.f{fill:#c54b50;}</style></defs><g transform="translate(-26.217 -21.423)"><g transform="translate(9.371 21.423)"><g transform="translate(16.846)"><path class="a" d="M114.658,89.193a99.85,99.85,0,0,1,18.273-.925c17.056.561,26.6.393,30.694,1.678q0,19.157-.194,21.238c-.194,2.084,2.516,19.081,2.638,20.587q.12,1.508,1.353,10.867-28.356-.237-30.725-.406c-2.368-.165-17.976-1.12-20.264-1.637a73.772,73.772,0,0,1-8.491-2.946q.6-16.625.785-18.248c.185-1.622,1.844-15.868,2.451-18.136Q111.784,99,114.658,89.193Z" transform="translate(-107.94 -88.199)"/><g transform="translate(58.322 43.23)"><path class="a" d="M354.63,270.372l-6.57,2.181,1.159-6.373,2.424,1.21Z" transform="translate(-348.06 -266.18)"/><path class="a" d="M354.63,270.372l-6.57,2.181,1.159-6.373,2.424,1.21Z" transform="translate(-348.06 -266.18)"/></g><path class="b" d="M331.26,173.328q1.122-8.449,1.2-9.094l4.207,2.077q-5.425-23.048-5.977-23.371t-3.257-11.851q-1.647-2.576-1.887-2.334t-1.21,21.518L327.806,168Z" transform="translate(-271.779 -118.89)"/><g transform="translate(55.461 1.747)"><path class="a" d="M336.5,95.39a4.034,4.034,0,0,1,2.225,1.2,11.819,11.819,0,0,1,.921,3.816q.193,4.8,0,4.863t-3.369.952Z" transform="translate(-336.28 -95.39)"/><g transform="translate(0 1.04)"><path class="a" d="M336.75,103.994l.9-.634a5.106,5.106,0,0,1,.3.571c.017.063.017,2.162,0,2.4a4.96,4.96,0,0,0,.556,1.411h.8l.189-2.191-.189-3.466a7.606,7.606,0,0,0-.7-1.938q-2.157-1.137-1.749.447c-.015,0-.027.015-.041.019Z" transform="translate(-336.636 -99.673)"/><path class="c" d="M338.007,124.763a1.735,1.735,0,0,1-.867-1.112c-.1-.6-.192-2.322-.192-2.48,0-.1-.323-.075-.573-.044l-.095,4.557c.838-.236,1.586-.444,2.239-.629A5.193,5.193,0,0,1,338.007,124.763Z" transform="translate(-336.28 -115.896)"/></g></g><path class="d" d="M339.18,157.946q2.481,24.516,2.485,25.316a34.92,34.92,0,0,0,1.409,5.361,13.483,13.483,0,0,0,.423-2.6c.012-.114.1-.114.2-.068l3.362,1.367-3.4-15.015q-1.578-6.4-1.686-6.752C341.874,165.2,339.688,156.406,339.18,157.946Z" transform="translate(-283.014 -140.869)"/><path class="e" d="M136.7,142.232q2.368.168,30.725.406-1.235-9.356-1.353-10.867c-.117-1.448-2.626-17.2-2.647-20.274-1.61,6.772-.981,13.864-1.03,20.837a5.215,5.215,0,0,1-.593,2.873c-.955,1.443-2.973,1.6-4.7,1.608-2.516.012-5.14,0-7.4-1.105a1.528,1.528,0,0,1-.809-.712,1.668,1.668,0,0,1,.085-1.108q1.082-3.45,2.162-6.9c-2.176,1.263-3.364,3.7-5.171,5.453a13.682,13.682,0,0,1-8.525,3.464,38.322,38.322,0,0,1-9.332-.772c-1.686-.284-3.566-.7-4.481-2.145-1.083-1.7-.185-4.112,1.467-5.266a15.5,15.5,0,0,0,2.035-1.353c.032-.029.061-.061.09-.092a35.995,35.995,0,0,0,9.337-4.744c2.242-1.6,4.491-3.889,4.246-6.628a42.667,42.667,0,0,0-8.338,3.777c-2.3,1.358-4.481,2.934-6.9,4.083A12.614,12.614,0,0,1,117.8,124.1a1.706,1.706,0,0,1-.928-.418,1.913,1.913,0,0,1-.158-1.783l2.871-11.579a12.493,12.493,0,0,1,1.87-4.69,9.559,9.559,0,0,1,5.737-3.153c2.181-.466,4.433-.564,6.6-1.1,2.526-.622,4.882-1.827,7.415-2.414a31.964,31.964,0,0,1,6.463-.6l13.461-.321c-.42-.828-1.55-.911-2.48-.894a112.184,112.184,0,0,1-11.746-.379c-.568-.049-1.236-.17-1.474-.687-.418-.906.862-1.6,1.428-2.419.666-.972.406-2.516,1.38-3.177.685-.464,2.077-.117,2.526-.906a.959.959,0,0,0,0-.828c-4.693-.141-10.583-.248-17.835-.488a99.85,99.85,0,0,0-18.273.925q-2.875,9.8-3.483,12.072c-.607,2.269-2.266,16.514-2.451,18.136q-.182,1.625-.785,18.248a73.772,73.772,0,0,0,8.491,2.946C118.719,141.113,134.327,142.067,136.7,142.232Z" transform="translate(-107.94 -88.199)"/><path class="c" d="M221.888,145.494a4.219,4.219,0,0,0,.8-.8,4.463,4.463,0,0,0,.537-1.248q.809-2.572,1.615-5.147c-.656.143-1.052.8-1.37,1.389q-1.057,1.975-2.116,3.947a1.551,1.551,0,0,1-1.246.993q-2.9.791-5.8,1.584c-.194.053-.44.209-.352.389a.35.35,0,0,0,.17.136,4.326,4.326,0,0,0,1.064.345,10.917,10.917,0,0,1-.481,1.535c-.114.291-.721,1.146-.673,1.421.119.665,2.164-.675,2.509-.87A36.731,36.731,0,0,0,221.888,145.494Z" transform="translate(-188.19 -126.131)"/><g transform="translate(13.573 15.137)"><path class="f" d="M175.16,160.286q9.331,2.78,26.812,1.168-.346-10.9-13.405-10.935T175.16,160.286Z" transform="translate(-172.406 -150.52)"/><g transform="translate(0 10.278)"><path class="f" d="M183.784,197.607a85.042,85.042,0,0,1-18.96-2.154,1.329,1.329,0,0,1,.651-2.577c.151.039,15.207,3.76,29.662,1.1a1.329,1.329,0,0,1,.481,2.613A65.864,65.864,0,0,1,183.784,197.607Z" transform="translate(-163.822 -192.836)"/></g><path class="f" d="M173.415,206.97q-.791,3.243,1.64,4.226c2.157.877,20.794,3.668,24.5,1.088a3.027,3.027,0,0,0,1.122-3.979Q190.066,210.55,173.415,206.97Z" transform="translate(-170.938 -193.259)"/></g></g></g></g></svg>