<svg xmlns="http://www.w3.org/2000/svg" width="14.045" height="15.34" viewBox="0 0 14.045 15.34"><defs><style>.a{fill:none;}.b,.c{stroke:none;}.c{fill:#444341;}</style></defs><g transform="translate(-23.927 1)"><g class="a" transform="translate(-45.297 -92.524)"><path class="b" d="M74.455,99.108c.21.3.147.051.147,6.1a.659.659,0,0,0,1.052.527c1.859-1.4,2.23-1.523,2.23-2.179,0-4.406-.051-4.158.147-4.445L81.05,95H71.436Z"/><path class="c" d="M 71.43603515625 94.99900054931641 L 74.45485687255859 99.10818481445313 C 74.66445159912109 99.41150665283203 74.60179138183594 99.15875244140625 74.60179138183594 105.2047348022461 C 74.60179138183594 105.5940017700195 74.92139434814453 105.863525390625 75.2626953125 105.863525390625 C 75.39576721191406 105.863525390625 75.53208160400391 105.8225860595703 75.65412139892578 105.731803894043 C 77.51314544677734 104.3301773071289 77.88456726074219 104.2088012695313 77.88456726074219 103.5532073974609 C 77.88456726074219 99.14737701416016 77.83322143554688 99.39515686035156 78.03150177001953 99.10818481445313 L 81.05036163330078 94.99900054931641 L 71.43603515625 94.99900054931641 M 69.46053314208984 93.99900054931641 L 71.43603515625 93.99900054931641 L 81.05036163330078 93.99900054931641 L 83.02588653564453 93.99900054931641 L 81.85625457763672 95.591064453125 L 78.88916778564453 99.62976837158203 C 78.87601470947266 99.87456512451172 78.87785339355469 100.4681167602539 78.88062286376953 101.36328125 C 78.88237762451172 101.9312133789063 78.88456726074219 102.6380233764648 78.88456726074219 103.5532073974609 C 78.88456726074219 104.591667175293 78.30289459228516 105.0192413330078 77.14404296875 105.87109375 C 76.88929748535156 106.0583648681641 76.60054779052734 106.2706146240234 76.25614166259766 106.5302810668945 L 76.25356292724609 106.5322341918945 L 76.25096130371094 106.5341644287109 C 75.96129608154297 106.7496337890625 75.61956787109375 106.863525390625 75.2626953125 106.863525390625 C 74.34687805175781 106.863525390625 73.60179138183594 106.1193923950195 73.60179138183594 105.2047348022461 C 73.60179138183594 103.8029708862305 73.605224609375 102.7200622558594 73.60772705078125 101.9293518066406 C 73.61170196533203 100.6710052490234 73.61411285400391 99.90850830078125 73.59543609619141 99.62738800048828 L 70.63013458251953 95.59105682373047 L 69.46053314208984 93.99900054931641 Z"/></g><g class="a"><path class="b" d="M36.893.335A.621.621,0,0,0,36.341,0H25.551a.623.623,0,0,0-.51.98l.524.714H36.327c.475-.646.792-.925.566-1.358Z"/><path class="c" d="M 25.55069351196289 3.814697265625e-06 C 25.04772567749023 3.814697265625e-06 24.75177383422852 0.5673737525939941 25.04030609130859 0.9796337485313416 C 25.04267501831055 0.983593761920929 25.00754547119141 0.9355237483978271 25.56450653076172 1.693503737449646 L 36.32726287841797 1.693503737449646 C 36.80189514160156 1.047553777694702 37.11915588378906 0.7684637904167175 36.89341735839844 0.3350538015365601 C 36.78555297851563 0.128443717956543 36.57399749755859 3.814697265625e-06 36.34110260009766 3.814697265625e-06 L 25.55069351196289 3.814697265625e-06 M 25.55069351196289 -0.9999963045120239 L 36.34110260009766 -0.9999963045120239 C 36.94769287109375 -0.9999963045120239 37.49900436401367 -0.6657661199569702 37.77988433837891 -0.1277261972427368 C 38.26443481445313 0.8025837540626526 37.7255859375 1.507213830947876 37.33213424682617 2.021703720092773 C 37.26815414428711 2.105373859405518 37.20199584960938 2.19188380241394 37.13311767578125 2.285623788833618 L 36.83341217041016 2.693503856658936 L 36.32726287841797 2.693503856658936 L 25.56450653076172 2.693503856658936 L 25.05836486816406 2.693503856658936 L 24.75866317749023 2.28563380241394 L 24.42776489257813 1.835343837738037 C 24.3386344909668 1.714059352874756 24.27276229858398 1.624426126480103 24.22310638427734 1.551566362380981 L 24.22102355957031 1.553023815155029 C 23.8730354309082 1.055803775787354 23.83110427856445 0.4122937917709351 24.11160659790039 -0.1263961791992188 C 24.39219665527344 -0.665256142616272 24.94362640380859 -0.9999963045120239 25.55069351196289 -0.9999963045120239 Z"/></g></g></svg>