<svg xmlns="http://www.w3.org/2000/svg" width="30.118" height="30.118" viewBox="0 0 30.118 30.118"><path d="M15.059,0A15.059,15.059,0,1,0,30.118,15.059,15.076,15.076,0,0,0,15.059,0Zm0,27.38A12.321,12.321,0,1,1,27.38,15.059,12.335,12.335,0,0,1,15.059,27.38Z"/><path d="M146.827,70a1.825,1.825,0,1,0,1.825,1.826A1.828,1.828,0,0,0,146.827,70Z" transform="translate(-131.768 -63.611)"/><path d="M151.369,140A1.369,1.369,0,0,0,150,141.369v8.214a1.369,1.369,0,1,0,2.738,0v-8.214A1.369,1.369,0,0,0,151.369,140Z" transform="translate(-136.31 -127.223)"/></svg>