<svg xmlns="http://www.w3.org/2000/svg" width="18.35" height="23" viewBox="0 0 18.35 23"><defs><style>.a{fill:#7edabf;}</style></defs><g transform="translate(-49.299 0)"><g transform="translate(49.299 0)"><path class="a" d="M58.147.006a9.178,9.178,0,0,0-8.682,10.912h0s.014.1.061.288a9.2,9.2,0,0,0,.618,1.82c.92,2.179,3.046,5.824,7.819,9.79a.8.8,0,0,0,1.019,0c4.772-3.961,6.9-7.607,7.824-9.795a8.806,8.806,0,0,0,.618-1.82c.042-.184.061-.288.061-.288h0A9.18,9.18,0,0,0,58.147.006Zm.325,13.732a4.456,4.456,0,1,1,4.456-4.456A4.456,4.456,0,0,1,58.472,13.738Z" transform="translate(-49.299 0)"/></g></g></svg>