<svg xmlns="http://www.w3.org/2000/svg" width="214" height="81.35" viewBox="0 0 214 81.35"><defs><style>.a{fill:#5e310e;}.b{fill:#fff;}</style></defs><g transform="translate(-3710.993 -2501.001)"><g transform="translate(3710.993 2501.001)"><g transform="translate(0 0)"><path class="a" d="M3711.107,2558.485l6.928-53.479a3.649,3.649,0,0,1,3.574-3.225l13.323-.11a3.8,3.8,0,0,1,3.681,3.558l.867,5.893.758-6.116a3.666,3.666,0,0,1,3.684-3.225l11.476-.11a3.771,3.771,0,0,1,3.682,3.781h0a20.039,20.039,0,0,1,5.85-3.227,26.617,26.617,0,0,1,8.119-1.222,24.688,24.688,0,0,1,7.906,1.222,14.572,14.572,0,0,1,5.63,3.78l.108-1a3.753,3.753,0,0,1,3.682-3.226l11.807-.11a3.666,3.666,0,0,1,3.466,2.559,3.761,3.761,0,0,1,3.462-2.448l11.807-.11a3.79,3.79,0,0,1,1.192.223,3.576,3.576,0,0,1,1.081-.112l11.917-.11a3.6,3.6,0,0,0,7.041.11l11.916-.11a3.713,3.713,0,0,1,1.081.222,3.57,3.57,0,0,1,1.083-.111l13.322-.11a3.724,3.724,0,0,1,3.682,3.558l.868,5.893.756-6.116a3.676,3.676,0,0,1,3.683-3.226l11.477-.11a3.771,3.771,0,0,1,3.682,3.781h0a21.535,21.535,0,0,1,5.848-3.227,26.623,26.623,0,0,1,8.119-1.221,24.72,24.72,0,0,1,7.907,1.222,14.1,14.1,0,0,1,6.064,4.227h0a15.883,15.883,0,0,1,3.031,6.892,27.419,27.419,0,0,1,0,8.451l-.325,2.555a3.65,3.65,0,0,1-1.624,2.67,4.057,4.057,0,0,1,.974,2.447c0,.334-.109.555-.109.888l-3.791,29.353a3.583,3.583,0,0,1-3.683,3.225l-10.829.11a3.894,3.894,0,0,1-2.488-1l-.214.112a13.589,13.589,0,0,1-3.357,1.223,14.407,14.407,0,0,1-3.683.447,12.887,12.887,0,0,1-6.286-1.557,11.975,11.975,0,0,1-2.71-2.115,3.4,3.4,0,0,1-3.464,2.781l-12.885.11c-8.014,0-1.084,0-9.428-.11l-11.477.11c-13.971,3.225,5.631-1.667-9.747-.445a25.868,25.868,0,0,1-8.016,1.226,21.5,21.5,0,0,1-7.9-1.335,13.418,13.418,0,0,1-5.849-4.227l-.107,1.44a3.658,3.658,0,0,1-3.683,3.225l-11.8.11a3.667,3.667,0,0,1-3.466-2.555,3.615,3.615,0,0,1-3.463,2.444l-11.806.11a3.676,3.676,0,0,1-3.681-3.667,21.488,21.488,0,0,1-5.85,3.224,26.049,26.049,0,0,1-8.119,1.225,21.947,21.947,0,0,1-7.908-1.334,14.068,14.068,0,0,1-5.739-3.891l-.107,1.11a3.581,3.581,0,0,1-3.684,3.225l-12.775.11a3.874,3.874,0,0,1-3.683-3.447l-1.081-7.227-.977,7.333a3.582,3.582,0,0,1-3.681,3.225l-11.477.11a3.772,3.772,0,0,1-3.683-3.779A1.67,1.67,0,0,1,3711.107,2558.485Z" transform="translate(-3710.993 -2501.001)"/><path class="b" d="M3745,2590.313l6.951-54.637h13.356l3.259,22.13c.435,2.488.762,4.965,1.087,7.562s.543,5.417.76,8.242q0-4.066.327-8.128c.11-2.823.545-5.984.979-9.483l2.606-20.32h11.513l-7.061,54.636h-12.816l-3.8-23.48c-.435-2.488-.761-4.967-.978-7.676-.325-2.6-.542-5.306-.655-8.24-.216,4.177-.435,8.015-.655,11.628-.327,3.611-.655,6.885-1.088,10.046l-2.282,17.722Zm52.894-40.526-3.367,26.417a6.191,6.191,0,0,0,.435,3.951,2.676,2.676,0,0,0,2.606,1.128,3.548,3.548,0,0,0,2.933-1.128,8.274,8.274,0,0,0,1.309-3.951l3.367-26.417a5.822,5.822,0,0,0-.325-3.836,2.849,2.849,0,0,0-2.608-1.243,3.611,3.611,0,0,0-2.933,1.243,8.421,8.421,0,0,0-1.421,3.834Zm-12.164,2.031c.655-5.643,2.5-9.821,5.538-12.643,2.931-2.821,7.061-4.177,12.275-4.177s8.9,1.355,11.186,4.177c2.172,2.823,2.933,7,2.28,12.643l-2.931,22.353c-.655,5.643-2.5,9.821-5.539,12.643-2.931,2.821-7.06,4.289-12.274,4.289-5.107,0-8.8-1.468-11.078-4.289s-3.041-7-2.388-12.643Zm28.239,38.5,6.949-54.637h11.838l-2.6,20.207h6.949l2.608-20.207h11.838l-6.952,54.637h-11.839l3.042-23.818h-6.952l-3.041,23.818Zm51.807-54.637-5.213,40.527a7.037,7.037,0,0,0,.326,3.951,2.6,2.6,0,0,0,2.5,1.129,3.616,3.616,0,0,0,2.933-1.243,8.448,8.448,0,0,0,1.411-3.837l5.106-40.527h11.948l-4.994,38.5c-.655,5.643-2.5,9.821-5.432,12.643a17.142,17.142,0,0,1-12.163,4.288c-5.107,0-8.8-1.468-10.972-4.288-2.28-2.823-3.041-7-2.28-12.643l4.886-38.5ZM3880,2590.317l6.952-54.637h13.357l3.255,22.13c.438,2.488.762,4.965,1.089,7.562s.541,5.417.761,8.242q0-4.066.325-8.128.327-4.233.977-9.483l2.608-20.32h11.509l-6.949,54.636h-12.923l-3.8-23.48c-.435-2.488-.761-4.967-.976-7.676-.328-2.6-.546-5.306-.655-8.24-.216,4.177-.435,8.015-.655,11.628-.325,3.611-.655,6.885-1.086,10.046l-2.281,17.722Zm56.151,0,.435-4.29a13.263,13.263,0,0,1-4.669,3.726,11.849,11.849,0,0,1-5.539,1.354,7.8,7.8,0,0,1-7.494-4.289c-1.414-2.823-1.737-7-1.086-12.643l2.933-22.353c.655-5.643,2.5-9.821,5.538-12.643,2.935-2.82,7.061-4.177,12.274-4.177s8.9,1.355,11.188,4.177c2.171,2.823,2.932,7,2.278,12.643l-.325,2.6h-12.055l.655-4.629a6.465,6.465,0,0,0-.436-3.837,2.845,2.845,0,0,0-2.6-1.243,3.616,3.616,0,0,0-2.935,1.243,7.361,7.361,0,0,0-1.3,3.836l-3.477,26.418a6.178,6.178,0,0,0,.434,3.95,2.679,2.679,0,0,0,2.607,1.13,3.545,3.545,0,0,0,2.931-1.129,8.271,8.271,0,0,0,1.309-3.951l.869-6.1h-4.129l1.31-10.046h16.074l-3.909,30.249Z" transform="translate(-3741.615 -2531.625)"/></g><g transform="translate(129.25 59.181)"><path class="a" d="M4833.73,3048.76l2.284-17.377a2.373,2.373,0,0,1,2.383-2.086h3.871a1.99,1.99,0,0,1,1.292.393,2.273,2.273,0,0,1,1.392-.393h18.769a1.805,1.805,0,0,1,1.587.795c.5-.2.894-.393,1.489-.6a9.319,9.319,0,0,1,2.976-.5,8.3,8.3,0,0,1,2.882.5,5.128,5.128,0,0,1,1.888,1.192,2.69,2.69,0,0,1,2.183-1.39h3.974a1.991,1.991,0,0,1,1.089.3,2.666,2.666,0,0,1,1.192-.3h3.973a2.381,2.381,0,0,1,.895.2,4.273,4.273,0,0,1,1.093-.2h8.838a2.168,2.168,0,0,1,.792.1,1.94,1.94,0,0,1,.8-.1h4.465a1.667,1.667,0,0,1,1.392.6,2.255,2.255,0,0,1,1.587-.6h3.775a1.835,1.835,0,0,1,1.885,2.086l-2.384,17.476a2.457,2.457,0,0,1-2.382,2.085h-4.271a1.736,1.736,0,0,1-1.389-.694,2.828,2.828,0,0,1-1.69.694h-26.511a1.821,1.821,0,0,1-1.789-1.389,7.723,7.723,0,0,1-2.185,1.191,10.039,10.039,0,0,1-3.078.393,5.992,5.992,0,0,1-5.063-1.986,4.54,4.54,0,0,1-.893-1.489l-.2,1.191a2.455,2.455,0,0,1-2.381,2.085h-3.872a1.815,1.815,0,0,1-1.691-.994,2.56,2.56,0,0,1-1.882.994h-8.74a1.887,1.887,0,0,1-1.292-.5,2.372,2.372,0,0,1-1.389.5h-3.871a1.8,1.8,0,0,1-1.79-2.185Z" transform="translate(-4833.687 -3029)"/><path class="b" d="M4855,3068.581l2.287-17.378h3.874l-.99,7.546c.1-.3.195-.495.3-.795a6.991,6.991,0,0,1,.3-.795l2.979-5.958h4.17l-4.468,7.249,2.186,10.129h-4.068l-1-6.456-.991,1.59-.7,4.866Zm11.326,0,2.283-17.378h3.973l-2.383,17.378Zm7.446,0,1.884-14h-2.585l.5-3.374h9.035l-.393,3.374h-2.584l-1.887,14Zm18.464-5.065a6.5,6.5,0,0,1-1.89,3.971,5.332,5.332,0,0,1-4.065,1.392,4.505,4.505,0,0,1-3.678-1.392,4.908,4.908,0,0,1-.792-3.97l.992-7.15a6.2,6.2,0,0,1,1.79-4.071,5.888,5.888,0,0,1,4.07-1.292,4.679,4.679,0,0,1,3.767,1.292,5.15,5.15,0,0,1,.7,4.071l-.2,1.29h-3.975l.3-1.987a2.1,2.1,0,0,0-.1-1.192.963.963,0,0,0-.895-.393,1.147,1.147,0,0,0-.989.393,1.87,1.87,0,0,0-.393,1.191l-1.194,8.441a2.337,2.337,0,0,0,.2,1.292.889.889,0,0,0,.794.393,1.312,1.312,0,0,0,.991-.393,3.172,3.172,0,0,0,.5-1.291l.3-2.382h3.967Zm1.091,5.065,2.381-17.378h3.875l-.795,6.454h2.284l.794-6.454h3.971l-2.283,17.378h-3.972l.991-7.548h-2.287l-.991,7.548Zm12.215,0,2.285-17.378h8.838l-.5,3.374h-4.859l-.393,3.477h4.272l-.4,3.274h-4.365l-.5,3.874h5.063l-.5,3.378Zm10.423,0,2.386-17.378h4.364l1.093,7.052c.1.792.2,1.588.3,2.382.1.893.194,1.787.3,2.681a21.329,21.329,0,0,1,.1-2.583c.1-.89.2-1.883.3-3.077l.895-6.454h3.876l-2.383,17.378h-4.273l-1.288-7.448c-.1-.793-.2-1.59-.3-2.383a23.7,23.7,0,0,1-.2-2.682c-.1,1.291-.1,2.581-.2,3.676a29.253,29.253,0,0,1-.393,3.274l-.691,5.562Z" transform="translate(-4852.872 -3048.823)"/></g></g></g></svg>