<svg xmlns="http://www.w3.org/2000/svg" width="25.364" height="18.5" viewBox="0 0 25.364 18.5"><defs><style>.a{fill:#fff;}</style></defs><g transform="translate(0 -69.279)"><path class="a" d="M112.241,96.161a7.918,7.918,0,1,0,7.918,7.918A7.927,7.927,0,0,0,112.241,96.161Zm0,14.846a6.927,6.927,0,1,1,6.927-6.927A6.935,6.935,0,0,1,112.241,111.007Z" transform="translate(-99.155 -25.55)"/><path class="a" d="M243.388,204.18a1.132,1.132,0,0,0-.507-.507V202.5a.5.5,0,0,0-.991,0v1.17a1.128,1.128,0,1,0,1.505,1.505h3.54a.5.5,0,0,0,0-.991h-3.547Z" transform="translate(-229.299 -126.146)"/><path class="a" d="M254.655,344.17a.5.5,0,1,0,.35.145A.5.5,0,0,0,254.655,344.17Z" transform="translate(-241.569 -261.273)"/><path class="a" d="M254.655,148.821a.5.5,0,1,0-.35-.145A.5.5,0,0,0,254.655,148.821Z" transform="translate(-241.569 -74.66)"/><path class="a" d="M156.485,246a.5.5,0,1,0,.35.145A.5.5,0,0,0,156.485,246Z" transform="translate(-148.262 -167.967)"/><path class="a" d="M443.3,69.337a.5.5,0,0,0-.509.025A6.283,6.283,0,0,0,440,74.6v2.45a1.115,1.115,0,0,0,.594.985v8.262a1.486,1.486,0,0,0,2.972,0V69.774A.5.5,0,0,0,443.3,69.337ZM440.991,74.6a5.292,5.292,0,0,1,1.585-3.783v6.356h-1.461a.124.124,0,0,1-.124-.124Zm1.585,11.7a.5.5,0,1,1-.991,0V78.159h.991Z" transform="translate(-418.203)"/><path class="a" d="M4.459,69.28a.5.5,0,0,0-.5.5v2.188H2.972V69.775a.5.5,0,1,0-.991,0v2.188H.991V69.775a.5.5,0,1,0-.991,0v4.07a2.486,2.486,0,0,0,.991,1.981V86.294a1.486,1.486,0,0,0,2.972,0V75.827a2.486,2.486,0,0,0,.991-1.981v-4.07A.5.5,0,0,0,4.459,69.28Zm-.5,4.566a1.492,1.492,0,0,1-.744,1.287.5.5,0,0,0-.247.429V86.294a.5.5,0,0,1-.991,0V75.562a.5.5,0,0,0-.247-.429,1.492,1.492,0,0,1-.744-1.287v-.892H3.963Z" transform="translate(0 -0.001)"/></g></svg>