<?xml version="1.0" encoding="UTF-8"?>
<svg xmlns="http://www.w3.org/2000/svg" id="Layer_1" data-name="Layer 1" viewBox="0 0 512 512" width="512" height="512"><path d="M420.614,130.293a5.818,5.818,0,0,0-5.98-5.293H348V102.41C348,52.009,306.589,11,256,11s-92,41-92,91.4V125H97.366a5.818,5.818,0,0,0-5.98,5.293L64.949,451.329A45.914,45.914,0,0,0,110.794,501H401.206a45.99,45.99,0,0,0,45.845-49.67ZM176,102.4C176,58.623,212.028,23,256,23s80,35.621,80,79.406V125H176ZM102.892,137H164v44.4a6,6,0,0,0,12,0V137H336v44.41a6,6,0,0,0,12,0V137h61.108l23.429,284H318V331.72a37.817,37.817,0,0,0,22-34.7V260.34A37.032,37.032,0,0,0,302.681,223h0A37.3,37.3,0,0,0,265,260.341v36.684a37.124,37.124,0,0,0,23,34.7V421H225V350.2a29.171,29.171,0,0,1,10.251-21.9A37.936,37.936,0,0,0,248,300.012V233.455a6,6,0,0,0-12,0V294H217V232.755a6,6,0,0,0-12,0V294H184V233.455a6,6,0,0,0-12,0v66.611a37.732,37.732,0,0,0,13.151,28.29A28.1,28.1,0,0,1,195,349.407V421H79.463ZM302.527,323A25.815,25.815,0,0,1,277,297.025V260.34a25.5,25.5,0,1,1,51,0v36.684A25.769,25.769,0,0,1,302.527,323ZM306,334.713V421h-6V334.713c1,.08,1.977.132,3,.132S305,334.793,306,334.713Zm-112.88-15.3A26.438,26.438,0,0,1,184.914,306h50.3a26.072,26.072,0,0,1-7.961,13.409A40.726,40.726,0,0,0,213,350.149V421h-6V349.355A39.678,39.678,0,0,0,193.12,319.414ZM426.214,478.032A33.641,33.641,0,0,1,401.206,489H110.794a34.015,34.015,0,0,1-33.885-36.884L78.475,433h355.05l1.566,19.116A33.843,33.843,0,0,1,426.214,478.032Z"/><path d="M112.846,453h-4.825a6,6,0,1,0,0,12h4.825a6,6,0,0,0,0-12Z"/><path d="M201.617,453H135.908a6,6,0,0,0,0,12h65.709a6,6,0,0,0,0-12Z"/></svg>
