<svg xmlns="http://www.w3.org/2000/svg" width="27.187" height="26.946" viewBox="0 0 27.187 26.946"><defs><style>.a{opacity:0.6;}.b{fill:#ce543d;}</style></defs><g class="a"><path class="b" d="M8.612,10.874c1.048,1.048,2.847,3.513,3.127,4.968a6.914,6.914,0,0,0,1.947,3.5c2.186,2.186,5.224,2.692,6.785,1.131s1.055-4.6-1.131-6.785a6.914,6.914,0,0,0-3.5-1.947c-1.456-.28-3.92-2.079-4.968-3.127A2.4,2.4,0,1,0,6.783,6.783a2.4,2.4,0,1,0,1.829,4.091Z" transform="translate(-4.279 -4.52)"/><path class="b" d="M45.209,453.2H58a5.6,5.6,0,0,0,5.056-3.2H40.153A5.6,5.6,0,0,0,45.209,453.2Z" transform="translate(-38.013 -426.253)"/><path class="b" d="M22.267,163.06q.358-.187.7-.393c2.209-1.359,3.425-3.207,3.425-5.2s-1.216-3.845-3.425-5.2a14.709,14.709,0,0,0-7.047-1.977q.141.13.277.265a8.451,8.451,0,0,1,2.417,4.495,5.13,5.13,0,0,1-1.286,4.552,4.9,4.9,0,0,1-3.507,1.375h0a8.038,8.038,0,0,1-5.539-2.506,8.528,8.528,0,0,1-2.387-4.328,2.7,2.7,0,0,0-.175-.529A5.542,5.542,0,0,0,4,157.463c0,2,1.216,3.845,3.425,5.2q.336.207.7.393H0v1.6H27.187v-1.6h-4.92Z" transform="translate(0 -142.511)"/></g></svg>