<svg xmlns="http://www.w3.org/2000/svg" xmlns:xlink="http://www.w3.org/1999/xlink" width="305.667" height="113.344" viewBox="0 0 305.667 113.344"><defs><style>.a{opacity:0.72;}.b,.bk,.bl{fill:#fff;}.b{opacity:0;}.c{fill:#fefeff;opacity:0.01;}.d{fill:#fdfefe;opacity:0.02;}.e{fill:#fcfdfe;}.e,.f{opacity:0.03;}.f{fill:#fbfdfd;}.g{fill:#fafcfd;opacity:0.04;}.h{fill:#f9fbfd;opacity:0.05;}.i{fill:#f8fbfc;opacity:0.06;}.j{fill:#f7fafc;opacity:0.07;}.k{fill:#f6fafb;}.k,.l{opacity:0.08;}.l{fill:#f5f9fb;}.m{fill:#f4f9fb;opacity:0.09;}.n{fill:#f3f8fa;}.bl,.n{opacity:0.1;}.o{fill:#f2f7fa;opacity:0.11;}.p{fill:#f1f7f9;opacity:0.12;}.q{fill:#f0f6f9;}.q,.r{opacity:0.13;}.r{fill:#eff6f9;}.s{fill:#eef5f8;opacity:0.14;}.t{fill:#edf4f8;opacity:0.15;}.u{fill:#ecf4f7;opacity:0.16;}.v{fill:#ebf3f7;opacity:0.17;}.w{fill:#eaf3f7;}.w,.x{opacity:0.18;}.x{fill:#e9f2f6;}.y{fill:#e8f1f6;opacity:0.19;}.z{fill:#e7f1f5;opacity:0.2;}.aa{fill:#e6f0f5;opacity:0.21;}.ab{fill:#e5f0f5;opacity:0.22;}.ac{fill:#e4eff4;opacity:0.23;}.ad{fill:#e3eff4;}.ad,.ae{opacity:0.24;}.ae{fill:#e2eef3;}.af{fill:#e1edf3;opacity:0.25;}.ag{fill:#e0edf2;opacity:0.26;}.ah{fill:#dfecf2;opacity:0.27;}.ai{fill:#deecf2;opacity:0.28;}.aj{fill:#ddebf1;}.aj,.ak{opacity:0.29;}.ak{fill:#dceaf1;}.al{fill:#dbeaf0;opacity:0.3;}.am{fill:#dae9f0;opacity:0.31;}.an{fill:#d9e9f0;opacity:0.32;}.ao{fill:#d8e8ef;opacity:0.33;}.ap{fill:#d7e7ef;}.ap,.aq{opacity:0.34;}.aq{fill:#d6e7ee;}.ar{fill:#d5e6ee;opacity:0.35;}.as{fill:#d4e6ee;opacity:0.36;}.at{fill:#d3e5ed;opacity:0.37;}.au{fill:#d2e5ed;opacity:0.38;}.av{fill:#d1e4ec;}.av,.aw{opacity:0.39;}.aw{fill:#d0e3ec;}.ax{fill:#cfe3ec;opacity:0.4;}.ay{fill:#cee2eb;opacity:0.41;}.az{fill:#cde2eb;}.az,.ce{opacity:0.42;}.ba{fill:#cce1ea;opacity:0.43;}.bb{fill:#cbe0ea;opacity:0.44;}.bc{fill:#cae0ea;}.bc,.bd{opacity:0.45;}.bd{fill:#c9dfe9;}.be{fill:#c8dfe9;opacity:0.46;}.bf{fill:#c7dee8;opacity:0.47;}.bg{fill:#c6dde8;opacity:0.48;}.bh{fill:#c5dde8;opacity:0.49;}.bi{fill:#c4dce7;}.bi,.bt,.bx,.cb,.ch{opacity:0.5;}.bj{fill:#c3dbe6;opacity:0.51;}.bk{opacity:0.56;}.bm,.bn,.bo,.bp,.bq,.br,.bs,.bt,.bu,.bv,.bw,.bx,.by,.bz,.ca,.cc,.cd,.ce,.cf,.cg,.ch{fill-rule:evenodd;}.bm{fill:url(#a);}.bn{fill:url(#b);}.bo{fill:url(#c);}.bp{fill:#9c3b58;}.bq{fill:url(#d);}.br{fill:#a74561;}.bs{fill:#e2705b;}.bt{fill:#791b40;}.bu{fill:url(#e);}.bv{fill:#df7668;}.bw{fill:url(#f);}.bx{fill:url(#g);}.by{fill:url(#h);}.bz{fill:#a23b58;}.ca{fill:#7c2f4e;}.cc{fill:#e3d9d2;}.cd{fill:url(#i);}.ce,.cf{fill:#833960;}.cg{fill:#ffa451;}.ch{fill:#9c6888;}</style><radialGradient id="a" cx="0.503" cy="0.057" r="1.029" gradientTransform="translate(0.346) scale(0.308 1)" gradientUnits="objectBoundingBox"><stop offset="0.02" stop-color="#ffa874"/><stop offset="1" stop-color="#f49372"/></radialGradient><radialGradient id="b" cx="0.503" cy="0.057" r="1.034" gradientTransform="translate(0.347) scale(0.307 1)" xlink:href="#a"/><radialGradient id="c" cx="0.503" cy="0.057" r="0.835" gradientTransform="translate(0.291) scale(0.419 1)" gradientUnits="objectBoundingBox"><stop offset="0.02" stop-color="#d4634d"/><stop offset="1" stop-color="#a94d61"/></radialGradient><radialGradient id="d" cx="0.503" cy="0.057" r="3.185" gradientTransform="translate(0.456) scale(0.087 1)" xlink:href="#a"/><radialGradient id="e" cx="0.5" cy="0.5" r="19.745" gradientTransform="translate(0.491) scale(0.018 1)" gradientUnits="objectBoundingBox"><stop offset="0" stop-color="#ffcf84"/><stop offset="0.98" stop-color="#ffb88b"/></radialGradient><radialGradient id="f" cx="0.503" cy="0.057" r="5.616" gradientTransform="translate(0.475) scale(0.049 1)" xlink:href="#e"/><linearGradient id="g" y1="0.5" x2="1" y2="0.5" gradientUnits="objectBoundingBox"><stop offset="0" stop-color="#d3b8d6"/><stop offset="1" stop-color="#fff"/></linearGradient><radialGradient id="h" cx="0.5" cy="0.501" r="4.925" gradientTransform="translate(0.464) scale(0.072 1)" xlink:href="#a"/><linearGradient id="i" x1="0.5" y1="1.001" x2="0.5" gradientUnits="objectBoundingBox"><stop offset="0.03" stop-color="#dcc3cc"/><stop offset="1" stop-color="#f1e8f0"/></linearGradient></defs><g transform="translate(-83 -271.63)"><g transform="translate(83 297.893)"><g transform="translate(0 0)"><g transform="translate(0)"><g class="a" transform="translate(0 26.832)"><path class="b" d="M309.437,63.042c0,16.625-68.42,30.116-152.849,30.116S3.77,79.667,3.77,63.042,72.158,32.91,156.587,32.91,309.437,46.4,309.437,63.042Z" transform="translate(-3.77 -32.91)"/><path class="c" d="M308.049,62.839c0,16.435-68.025,29.748-151.966,29.748S4.15,79.274,4.15,62.839,72.175,33.06,156.083,33.06,308.049,46.389,308.049,62.839Z" transform="translate(-3.266 -32.711)"/><path class="d" d="M306.624,62.631c0,16.229-67.6,29.4-151.058,29.4S4.54,78.86,4.54,62.631,72.141,33.22,155.566,33.22,306.624,46.386,306.624,62.631Z" transform="translate(-2.749 -32.499)"/><path class="e" d="M305.236,62.432c0,16.041-67.205,29.046-150.174,29.046S4.92,78.473,4.92,62.432,72.125,33.37,155.062,33.37,305.236,46.376,305.236,62.432Z" transform="translate(-2.245 -32.3)"/><path class="f" d="M303.848,62.229c0,15.835-66.843,28.678-149.29,28.678S5.3,78.126,5.3,62.229,72.143,33.52,154.558,33.52,303.848,46.379,303.848,62.229Z" transform="translate(-1.741 -32.101)"/><path class="g" d="M302.437,62.021c0,15.6-66.417,28.325-148.379,28.325S5.68,77.665,5.68,62.021,72.129,33.68,154.059,33.68,302.437,46.361,302.437,62.021Z" transform="translate(-1.237 -31.889)"/><path class="h" d="M301.036,61.8c0,15.434-66.024,27.949-147.5,27.949S6.07,77.218,6.07,61.8,72.094,33.85,153.537,33.85,301.036,46.349,301.036,61.8Z" transform="translate(-0.72 -31.663)"/><path class="i" d="M299.668,61.6c0,15.248-65.5,27.62-146.615,27.62S6.47,76.852,6.47,61.6,72.033,34,152.987,34,299.668,46.372,299.668,61.6Z" transform="translate(-0.189 -31.464)"/><path class="j" d="M298.26,61.42c0,15.046-65.233,27.259-145.732,27.259S6.83,76.466,6.83,61.42s65.233-27.29,145.7-27.29S298.26,46.343,298.26,61.42Z" transform="translate(0.288 -31.292)"/><path class="k" d="M296.849,61.212c0,14.856-64.807,26.906-144.82,26.906S7.21,76.068,7.21,61.212,72.017,34.29,152.029,34.29,296.849,46.34,296.849,61.212Z" transform="translate(0.792 -31.08)"/><path class="l" d="M295.448,61.013c0,14.668-64.446,26.557-143.94,26.557S7.6,75.68,7.6,61.013,72.014,34.44,151.507,34.44,295.448,46.33,295.448,61.013Z" transform="translate(1.309 -30.881)"/><path class="m" d="M294.033,60.81C294.033,75.271,229.978,87,150.967,87S8,75.271,8,60.81,71.989,34.59,150.967,34.59,294.033,46.333,294.033,60.81Z" transform="translate(1.84 -30.682)"/><path class="n" d="M292.635,60.6c0,14.271-63.627,25.836-142.149,25.836S8.37,74.873,8.37,60.6,72,34.75,150.486,34.75,292.635,46.315,292.635,60.6Z" transform="translate(2.331 -30.47)"/><path class="o" d="M291.247,60.448c0,14.079-63.2,25.508-141.265,25.508S8.75,74.527,8.75,60.448s63.2-25.6,141.232-25.6S291.247,46.354,291.247,60.448Z" transform="translate(2.835 -30.337)"/><path class="p" d="M289.86,60.2c0,13.879-62.836,25.139-140.381,25.139S9.13,74.083,9.13,60.2,72.067,35.05,149.478,35.05,289.86,46.309,289.86,60.2Z" transform="translate(3.339 -30.072)"/><path class="q" d="M288.435,60c0,13.674-62.412,24.771-139.474,24.771S9.52,73.629,9.52,60,71.932,35.2,148.961,35.2,288.435,46.312,288.435,60Z" transform="translate(3.856 -29.873)"/><path class="r" d="M287.047,59.792c0,13.483-62.05,24.417-138.59,24.417S9.9,73.349,9.9,59.792,71.917,35.36,148.457,35.36,287.047,46.295,287.047,59.792Z" transform="translate(4.36 -29.661)"/><path class="s" d="M285.659,59.593c0,13.265-61.655,24.069-137.706,24.069S10.28,72.873,10.28,59.593,71.935,35.51,147.953,35.51,285.659,46.284,285.659,59.593Z" transform="translate(4.864 -29.462)"/><path class="t" d="M284.235,59.381c0,13.084-61.231,23.663-136.8,23.663S10.67,72.466,10.67,59.381,71.9,35.66,147.436,35.66,284.235,46.283,284.235,59.381Z" transform="translate(5.381 -29.263)"/><path class="u" d="M282.847,59.147c0,12.886-60.9,23.3-135.915,23.3S11.05,72,11.05,59.147s60.9-23.3,135.882-23.3S282.847,46.261,282.847,59.147Z" transform="translate(5.885 -29.011)"/><path class="v" d="M281.459,58.956c0,12.688-60.44,22.985-135.031,22.985s-135-10.3-135-22.985S71.87,36,146.427,36,281.459,46.254,281.459,58.956Z" transform="translate(6.389 -28.812)"/><path class="w" d="M280.034,58.78c0,12.5-60.015,22.631-134.124,22.631S11.82,71.327,11.82,58.78,71.836,36.12,145.91,36.12,280.034,46.261,280.034,58.78Z" transform="translate(6.906 -28.653)"/><path class="x" d="M278.607,58.581c0,12.3-59.662,22.282-133.188,22.282S12.23,70.839,12.23,58.581,71.857,36.27,145.418,36.27,278.607,46.265,278.607,58.581Z" transform="translate(7.45 -28.454)"/><path class="y" d="M277.259,58.373C277.259,70.483,218,80.3,144.9,80.3S12.58,70.483,12.58,58.373,71.839,36.43,144.9,36.43,277.259,46.249,277.259,58.373Z" transform="translate(7.914 -28.242)"/><path class="z" d="M275.794,58.174c0,11.907-58.842,21.58-131.466,21.58S13,70.081,13,58.174,71.739,36.58,144.328,36.58,275.794,46.253,275.794,58.174Z" transform="translate(8.471 -28.043)"/><path class="aa" d="M274.446,57.97c0,11.716-58.611,21.212-130.565,21.212S13.35,69.686,13.35,57.97,71.961,36.73,143.881,36.73,274.446,46.24,274.446,57.97Z" transform="translate(8.935 -27.844)"/><path class="ab" d="M273.058,57.8c0,11.521-58.044,20.877-129.681,20.877S13.73,69.318,13.73,57.8,71.774,36.85,143.377,36.85,273.058,46.248,273.058,57.8Z" transform="translate(9.439 -27.685)"/><path class="ac" d="M271.634,57.6c0,11.332-57.619,20.529-128.774,20.529S14.12,68.9,14.12,57.6,71.739,37,142.86,37,271.634,46.252,271.634,57.6Z" transform="translate(9.956 -27.486)"/><path class="ad" d="M270.246,57.36c0,11.131-57.258,20.142-127.89,20.142S14.5,68.491,14.5,57.36,71.723,37.19,142.356,37.19,270.246,46.216,270.246,57.36Z" transform="translate(10.46 -27.234)"/><path class="ae" d="M268.858,57.152c0,10.926-56.863,19.789-127.006,19.789S14.88,68.078,14.88,57.152s56.863-19.8,126.972-19.8S268.858,46.213,268.858,57.152Z" transform="translate(10.964 -27.022)"/><path class="af" d="M267.434,56.954c0,10.737-56.438,19.44-126.1,19.44S15.27,67.69,15.27,56.954,71.708,37.5,141.334,37.5,267.434,46.2,267.434,56.954Z" transform="translate(11.482 -26.823)"/><path class="ag" d="M266.046,56.735c0,10.524-56.042,19.018-125.215,19.018S15.65,67.258,15.65,56.735,71.692,37.65,140.83,37.65,266.046,46.184,266.046,56.735Z" transform="translate(11.986 -26.624)"/><path class="ah" d="M264.7,56.536C264.7,66.87,209.058,75.2,140.384,75.2S16,66.87,16,56.536,71.745,37.8,140.384,37.8,264.7,46.188,264.7,56.536Z" transform="translate(12.45 -26.425)"/><path class="ai" d="M263.25,56.31C263.25,66.437,208,74.66,139.8,74.66S16.39,66.437,16.39,56.31,71.748,38,139.873,38,263.25,46.17,263.25,56.31Z" transform="translate(12.967 -26.16)"/><path class="aj" d="M261.845,56.144c0,9.949-54.862,18.021-122.54,18.021S16.8,66.093,16.8,56.144,71.626,38.11,139.3,38.11,261.845,46.182,261.845,56.144Z" transform="translate(13.511 -26.014)"/><path class="ak" d="M260.364,55.94c0,9.744-54.486,17.654-121.557,17.654S17.25,65.684,17.25,55.94,71.736,38.26,138.807,38.26,260.364,46.17,260.364,55.94Z" transform="translate(14.108 -25.815)"/><path class="al" d="M259.069,55.733c0,9.552-54.071,17.3-120.773,17.3S17.56,65.3,17.56,55.733,71.631,38.42,138.3,38.42,259.069,46.168,259.069,55.733Z" transform="translate(14.519 -25.602)"/><path class="am" d="M257.579,55.534c0,9.363-53.66,16.951-119.9,16.951S18,64.9,18,55.534,71.48,38.57,137.681,38.57,257.579,46.158,257.579,55.534Z" transform="translate(15.102 -25.404)"/><path class="an" d="M256.257,55.351c0,9.17-53.251,16.656-118.982,16.656S18.33,64.521,18.33,55.351,71.58,38.72,137.275,38.72,256.257,46.168,256.257,55.351Z" transform="translate(15.54 -25.205)"/><path class="ao" d="M254.869,55.168c0,8.987-52.855,16.318-118.1,16.318S18.71,64.206,18.71,55.168,71.565,38.85,136.771,38.85,254.869,46.168,254.869,55.168Z" transform="translate(16.044 -25.032)"/><path class="ap" d="M253.445,54.947c0,8.774-52.466,15.9-117.191,15.9S19.1,63.721,19.1,54.947,71.529,39,136.254,39,253.445,46.161,253.445,54.947Z" transform="translate(16.561 -24.833)"/><path class="aq" d="M252.173,54.725c0,8.588-52.056,15.533-116.273,15.533S19.48,63.3,19.48,54.725,71.536,39.18,135.717,39.18,252.173,46.137,252.173,54.725Z" transform="translate(17.065 -24.595)"/><path class="ar" d="M250.669,54.52c0,8.372-51.528,15.166-115.423,15.166S19.86,62.892,19.86,54.52,71.388,39.33,135.246,39.33,250.669,46.136,250.669,54.52Z" transform="translate(17.569 -24.396)"/><path class="as" d="M249.337,54.314c0,8.179-51.228,14.812-114.579,14.812S20.18,62.493,20.18,54.314,71.408,39.49,134.759,39.49,249.337,46.1,249.337,54.314Z" transform="translate(17.993 -24.183)"/><path class="at" d="M247.856,54.115c0,7.978-50.854,14.463-113.632,14.463S20.63,62.093,20.63,54.115,71.484,39.64,134.225,39.64,247.856,46.113,247.856,54.115Z" transform="translate(18.59 -23.984)"/><path class="au" d="M246.482,53.887c0,7.773-50.455,14.026-112.741,14.026S21,61.66,21,53.887s50.455-14.1,112.7-14.1S246.482,46.1,246.482,53.887Z" transform="translate(19.081 -23.786)"/><path class="av" d="M244.974,53.711c0,7.6-50.079,13.748-111.862,13.748S21.4,61.307,21.4,53.711,71.442,39.94,133.225,39.94,244.974,46.1,244.974,53.711Z" transform="translate(19.611 -23.587)"/><path class="aw" d="M243.656,53.5C243.656,60.9,193.982,66.9,132.7,66.9S21.78,60.9,21.78,53.5,71.605,40.1,132.7,40.1,243.656,46.1,243.656,53.5Z" transform="translate(20.115 -23.374)"/><path class="ax" d="M242.2,53.305c0,7.2-49.258,13.044-110.11,13.044S22.21,60.508,22.21,53.305,71.468,40.25,132.282,40.25,242.2,46.091,242.2,53.305Z" transform="translate(20.686 -23.175)"/><path class="ay" d="M240.844,53.1c0,7-48.852,12.678-109.166,12.678S22.55,60.1,22.55,53.1,71.4,40.4,131.678,40.4,240.844,46.09,240.844,53.1Z" transform="translate(21.137 -22.977)"/><path class="az" d="M239.456,52.894c0,6.806-48.457,12.323-108.282,12.323S22.93,59.7,22.93,52.894,71.387,40.56,131.174,40.56,239.456,46.077,239.456,52.894Z" transform="translate(21.641 -22.764)"/><path class="ba" d="M238.068,52.707c0,6.623-48.062,12.008-107.4,12.008S23.31,59.331,23.31,52.729,71.372,40.71,130.67,40.71,238.068,46.084,238.068,52.707Z" transform="translate(22.144 -22.565)"/><path class="bb" d="M236.643,52.516c0,6.427-47.673,11.666-106.491,11.666S23.7,58.974,23.7,52.516,71.335,40.85,130.152,40.85,236.643,46.078,236.643,52.516Z" transform="translate(22.662 -22.38)"/><path class="bc" d="M235.255,52.3c0,6.247-47.278,11.266-105.607,11.266S24.08,58.513,24.08,52.3,71.358,41,129.648,41,235.255,46.06,235.255,52.3Z" transform="translate(23.166 -22.181)"/><path class="bd" d="M233.937,52.085c0,6.019-46.95,10.9-104.7,10.9S24.46,58.1,24.46,52.085,71.41,41.17,129.12,41.17,233.937,46.106,233.937,52.085Z" transform="translate(23.67 -21.955)"/><path class="be" d="M232.443,51.886c0,5.83-46.456,10.556-103.816,10.556S24.85,57.715,24.85,51.886,71.305,41.32,128.627,41.32,232.443,46.016,232.443,51.886Z" transform="translate(24.187 -21.756)"/><path class="bf" d="M231.095,51.68c0,5.626-46.049,10.19-102.947,10.19S25.2,57.306,25.2,51.68,71.249,41.47,128.147,41.47,231.095,46.044,231.095,51.68Z" transform="translate(24.651 -21.557)"/><path class="bg" d="M229.667,51.474c0,5.433-45.665,9.835-102.048,9.835S25.61,56.907,25.61,51.474,71.275,41.63,127.619,41.63,229.667,46.032,229.667,51.474Z" transform="translate(25.195 -21.345)"/><path class="bh" d="M228.243,51.275c0,5.233-45.277,9.486-101.141,9.486S26,56.508,26,51.275s45.237-9.5,101.1-9.5S228.243,46.033,228.243,51.275Z" transform="translate(25.712 -21.146)"/><path class="bi" d="M226.855,51.069c0,5.039-44.882,9.121-100.258,9.121S26.38,56.109,26.38,51.069,71.262,41.93,126.6,41.93,226.855,46.021,226.855,51.069Z" transform="translate(26.216 -20.947)"/><path class="bi" d="M225.467,50.864c0,4.836-44.69,8.765-99.374,8.765S26.76,55.7,26.76,50.864s44.69-8.774,99.333-8.774S225.467,46.018,225.467,50.864Z" transform="translate(26.72 -20.735)"/><path class="bj" d="M224.079,50.665c0,4.646-44.091,8.416-98.49,8.416S27.14,55.311,27.14,50.665s44.091-8.425,98.449-8.425S224.079,46.01,224.079,50.665Z" transform="translate(27.224 -20.536)"/></g><path class="bk" d="M90.347,23.526c-2.861-.3-3.047,6.4-3.14,8.491A46.082,46.082,0,0,1,84,46.37a102.35,102.35,0,0,1-5.234,12.166c-1.954,3.606-4.652,6.513-6.862,9.886a23.8,23.8,0,0,0,6.165-5.583,46.919,46.919,0,0,0,6.048-7.188,64.251,64.251,0,0,0,6.746-14.492,54.271,54.271,0,0,0,2.326-11.91c0-1.256.4-10.794-2.326-6.979Z" transform="translate(154.08 -21.375)"/><path class="bl" d="M77.41,28c-5.211,2-12.05,4.234-16.051,8.584-5.769,6.3,1.721,9,6.839,6.165,2.326-1.326,16.609-11.631,8.025-13.957Z" transform="translate(124.378 -12.589)"/></g></g></g><g transform="translate(90.278 271.63)"><path class="bm" d="M90.165,74.357,84.75,35.712,234.876,28.07,223.785,64.954Z" transform="translate(38.608 12.787)"/><path class="bn" d="M232.969,38.577,221.194,1.431,93.92.82,84.75,46.262Z" transform="translate(38.608 0.374)"/><path class="bo" d="M127.891.82,32.465,4.808,10.18,50.134l108.541-3.872Z" transform="translate(4.638 0.374)"/><path class="bp" d="M124.463,71.965,19.853,66.594,9.46,35.853,119.049,33.32Z" transform="translate(4.31 15.179)"/><path class="bq" d="M235.917,26.76l18.544,1.63v2.693L78.28,42.116V35.391l9.417-.946Z" transform="translate(35.661 12.191)"/><path class="br" d="M113.941,32.69,0,34.83l1.179,4,112.762.582Z" transform="translate(0 14.892)"/><path class="bs" d="M123.926,30.4,17.743,31.594,0,35.873l113.941-2.14Z" transform="translate(0 13.849)"/><path class="bt" d="M233.144,31.48,85.26,39.427l1.31,9.345L231.238,37.826Z" transform="translate(38.841 14.341)"/><path class="bu" d="M248.19,1.431,119.9,3.4,25.49,4.808,120.916.82Z" transform="translate(11.612 0.374)"/><path class="bv" d="M89.21,2.59l-.48,14.163L93.373,2.59Z" transform="translate(40.421 1.18)"/><path class="bv" d="M76.02,33.132l3.29,2.518,2.343-3.61Z" transform="translate(34.631 14.596)"/><path class="bw" d="M78.28,35.391s101.336-5.706,176.122-7l-18.544-1.63-147.593,5.3Z" transform="translate(35.661 12.191)"/><path class="bx" d="M222.09,53.938s-66.752-7.583-133.62,9.4Z" transform="translate(40.303 23.803)"/><path class="by" d="M254.46,31.48l-.8,1.761L79.343,44.158,78.28,39.966Z" transform="translate(35.661 14.341)"/><path class="bz" d="M254.46,32.163l-5.91-2.183L78.28,40.649Z" transform="translate(35.661 13.658)"/><path class="br" d="M114.634,41.684,1.028,39.472.81,36.91l112.762.582Z" transform="translate(0.369 16.815)"/><path class="ca" d="M113.572,37.656.81,37.074l112.762-.524,15.924.175Z" transform="translate(0.369 16.651)"/><g class="cb" transform="translate(35.521 4.2)"><path class="cc" d="M129.6,13.249a1.208,1.208,0,0,0,1.616,1.135,1.15,1.15,0,0,0,.9-1.456,1.456,1.456,0,0,0-1.456-1.179,1.3,1.3,0,0,0-1.063,1.5Z" transform="translate(23.508 1.153)"/><path class="cc" d="M146.38,19.98c.087-.961,1.092-1.456,1.936-1.587a3.042,3.042,0,0,1,1.994.524,1.456,1.456,0,0,1,.771,1.79,3.173,3.173,0,0,1-.6.932c-.306.247-.946.087-1.3,0a2.169,2.169,0,0,1-1.354-.742C147.428,20.533,146.351,20.839,146.38,19.98Z" transform="translate(31.163 4.174)"/><path class="cc" d="M130.282,10.353c-.568.218-1.368,1.092-.553,1.456a3.377,3.377,0,0,0,2.2-.349c1.528-1.164-.888-2.169-1.878-.932Z" transform="translate(23.419 0.338)"/><path class="cc" d="M130.562,15.47c.553-.975,1.572.146.917.7a.626.626,0,0,1-1.019-.48Z" transform="translate(23.91 2.673)"/><path class="cc" d="M131.6,12.891c.364-.655,1.033.087.6.466a.422.422,0,0,1-.684-.32Z" transform="translate(24.389 1.554)"/><path class="cc" d="M120.735,8c-1.266,1.718,1.063,3.712,1.98,1.645.495-1.092-.451-2.445-1.456-1.645Z" transform="translate(19.312 -0.667)"/><path class="cc" d="M123.446,11.6c-.16-.335-.32-.247-.495,0s-.1.422.1.684c.48.6.888.582,1.543.16s1.456-1.252.451-1.7a1.6,1.6,0,0,0-1.456.393Z" transform="translate(20.445 0.676)"/><path class="cc" d="M121.844,11.867c-.087-.844,1.164.247.611.7s-.757-.422-.611-.757Z" transform="translate(19.965 1.065)"/><path class="cc" d="M123.588,9.993c.349.553,1.063-.218.8-.6s-.742.277-.859.495Z" transform="translate(20.753 0.028)"/><path class="cc" d="M114.615,16.733c.218-.7,1.077,0,1.179.393a1.325,1.325,0,0,1-1.063,1.456c-1.019.087-1.281-1.456-.393-1.849Z" transform="translate(16.321 3.288)"/><path class="cc" d="M120.925,17.692c-.611.888,1.456,1.077,1.456.073s-1.194-.786-1.456-.116Z" transform="translate(19.515 3.58)"/><path class="cc" d="M115.136,6.053a.83.83,0,0,1,.786-1.252c.83.116.844,1.266.568,1.834a.917.917,0,1,1-1.63-.8Z" transform="translate(16.732 -2.014)"/><path class="cc" d="M123.447,4.231c-.728,1.732,2.111,1.121,2.256-.262C125.893,2.281,123.666,2.717,123.447,4.231Z" transform="translate(20.662 -2.885)"/><path class="cc" d="M149.587,17.948c-.8,1.106,1.3,1.63,1.456.262a1.106,1.106,0,0,0-1.7-.146Z" transform="translate(32.511 3.878)"/><path class="cc" d="M142,27.713a5.822,5.822,0,0,1,7.6-1.456c.64.422,1.543,1.208.786,1.921s-3.814,0-4.7,0A8.733,8.733,0,0,1,142,27.713Z" transform="translate(29.168 7.388)"/><path class="cc" d="M137.75,26.411c.131,1,1.921.655,1.659-.175-.175-.553-1.15-.7-1.325-.175Z" transform="translate(27.231 7.525)"/><path class="cc" d="M93.252,5.142c-.335,1.572,1.659,1.252,1.659,0,0-1.033-1.368-1.456-1.659-.32Z" transform="translate(6.943 -2.311)"/><path class="cc" d="M122.033,22.079a1.135,1.135,0,0,1,.655-.509c1.019,1.368-1.266,2.285-.655.67Z" transform="translate(20.023 5.627)"/><path class="cc" d="M92.156,23.728c-1.587,4.046,5.094,1.237,6.055-.64s-1.543-2.256-2.911-1.994a3.537,3.537,0,0,0-3.144,2.635Z" transform="translate(6.35 5.376)"/><path class="cc" d="M96.38,23.878c.16-.9,1.849-1.674,1.645-.306-.131.757-1.208,1.266-1.456.451Z" transform="translate(8.385 6.2)"/><path class="cc" d="M163.281,11.523c-1.674,2.343,5.327,2.373,5.662,0s-5.036-1.572-5.822-.189Z" transform="translate(38.745 0.361)"/><path class="cc" d="M166.58,9.442c.146-1.456,2.14-.815,1.718,0s-1.368.2-1.718-.2Z" transform="translate(40.365 -0.294)"/><path class="cc" d="M170.346,10.772a4.367,4.367,0,0,0,1.863-.451c-.16-1.3-1.776-1-2.169,0,0,.2.189.175.306.291Z" transform="translate(41.941 0.108)"/><path class="cc" d="M157.64,12.5c0-.539.146-.815.7-.844.67.568.509,1.645-.408,1.456Z" transform="translate(36.292 1.112)"/><path class="cc" d="M140.1,18.22c-2.5,2.111,2.911,1.456.451.306Z" transform="translate(27.994 4.101)"/><path class="cc" d="M132.674,22.12c-.611.626-.378,1.936.713,1.456.844-.364.655-1.834-.378-1.354Z" transform="translate(24.768 5.877)"/><path class="cc" d="M136,24.632c.2-.684,1.077-.7,1.033,0s-.626.524-.8.116Z" transform="translate(26.434 6.785)"/><path class="cc" d="M167.676,44.251c.16.873.6,1.339,1.616,1.135a1.15,1.15,0,0,0,.917-1.456,1.456,1.456,0,0,0-1.543-1.179,1.31,1.31,0,0,0-.99,1.5Z" transform="translate(40.856 15.274)"/><path class="cc" d="M132.83,42.5a2.009,2.009,0,0,1,1.936-1.587,2.911,2.911,0,0,1,1.994.509,1.456,1.456,0,0,1,.786,1.79,3.334,3.334,0,0,1-.611.932c-.306.247-.946.087-1.3,0a2.3,2.3,0,0,1-1.354-.757C133.878,43,132.8,43.3,132.83,42.5Z" transform="translate(24.99 14.431)"/><path class="cc" d="M168.39,41.353c-.568.218-1.368,1.092-.539,1.456a3.348,3.348,0,0,0,2.183-.349c1.456-1.164-.888-2.169-1.878-.932Z" transform="translate(40.782 14.46)"/><path class="cc" d="M168.656,46.47c.553-.975,1.557.146.9.7a.626.626,0,0,1-1.019-.48Z" transform="translate(41.258 16.795)"/><path class="cc" d="M169.673,43.891c.364-.655,1.048.087.6.466s-.626,0-.67-.32Z" transform="translate(41.741 15.677)"/><path class="cc" d="M156.845,45.808c-1.266,1.7,1.063,3.712,1.98,1.645.495-1.106-.451-2.46-1.543-1.645Z" transform="translate(35.763 16.555)"/><path class="cc" d="M159.562,49.4c-.16-.335-.32-.247-.509,0s-.1.422.116.7c.466.582.888.568,1.543.16s1.456-1.252.451-1.718a1.645,1.645,0,0,0-1.456.393Z" transform="translate(36.889 17.897)"/><path class="cc" d="M157.954,49.667c-.1-.844,1.164.247.611.713s-.757-.422-.611-.757Z" transform="translate(36.415 18.285)"/><path class="cc" d="M159.684,47.787c.364.568,1.077-.218.815-.582s-.742.277-.859.48Z" transform="translate(37.204 17.255)"/><path class="cc" d="M104.764,44.614c-.6.873,1.456,1.063,1.456,0s-1.194-.8-1.456-.131Z" transform="translate(12.155 15.798)"/><path class="cc" d="M159.557,42.044c-.728,1.732,2.111,1.121,2.256-.277C162,40.079,159.776,40.53,159.557,42.044Z" transform="translate(37.112 14.337)"/><path class="cc" d="M136.077,40.44c-.8,1.092,1.3,1.63,1.456.247a1.106,1.106,0,0,0-1.7-.131Z" transform="translate(26.357 14.121)"/><path class="cc" d="M128.43,50.183a5.822,5.822,0,0,1,7.6-1.456c.64.437,1.543,1.223.786,1.921s-3.814,0-4.7,0A9.039,9.039,0,0,1,128.43,50.183Z" transform="translate(22.986 17.624)"/><path class="cc" d="M121.59,53.3c.146,1,1.921.655,1.659-.189-.175-.553-1.15-.684-1.325-.16Z" transform="translate(19.87 19.773)"/><path class="cc" d="M105.853,48.955a1.106,1.106,0,0,1,.655-.495c1.019,1.354-1.266,2.271-.655.67Z" transform="translate(12.652 17.877)"/><path class="cc" d="M178.572,38.79c-2.5,2.111,2.911,1.456.466.306Z" transform="translate(45.519 13.471)"/><path class="cc" d="M116.514,49c-.611.626-.378,1.936.713,1.456.844-.349.655-1.819-.364-1.339Z" transform="translate(17.406 18.123)"/><path class="cc" d="M119.86,51.524c.2-.7,1.077-.7,1.033,0s-.611.524-.8.116Z" transform="translate(19.082 19.034)"/><path class="cc" d="M102.41,4.605a2.5,2.5,0,0,0,.888-.859c-.6-.524-.626-.116-.888.378Z" transform="translate(11.132 -2.604)"/><path class="cc" d="M60.784,21.578c.16.859.6,1.325,1.6,1.121a1.135,1.135,0,0,0,.917-1.383,1.456,1.456,0,0,0-1.543-1.164,1.281,1.281,0,0,0-.975,1.426Z" transform="translate(-7.837 4.978)"/><path class="cc" d="M77.57,28.331a2.023,2.023,0,0,1,1.936-1.587,3.057,3.057,0,0,1,1.994.509,1.456,1.456,0,0,1,.771,1.79,3.1,3.1,0,0,1-.6.932c-.32.262-.946.087-1.31,0a2.227,2.227,0,0,1-1.339-.757C78.618,28.869,77.541,29.175,77.57,28.331Z" transform="translate(-0.184 7.978)"/><path class="cc" d="M61.5,18.694c-.568.233-1.368,1.106-.553,1.456a3.493,3.493,0,0,0,2.2-.349c1.456-1.164-.888-2.169-1.878-.946Z" transform="translate(-7.914 4.136)"/><path class="cc" d="M61.756,23.821c.553-.975,1.572.131.9.7a.64.64,0,0,1-1.019-.48Z" transform="translate(-7.441 6.476)"/><path class="cc" d="M62.773,21.242c.378-.655,1.048.087.611.451a.422.422,0,0,1-.684-.32Z" transform="translate(-6.958 5.358)"/><path class="cc" d="M51.925,16.348c-1.266,1.7,1.063,3.712,1.98,1.645.495-1.106-.466-2.46-1.543-1.645Z" transform="translate(-12.034 3.134)"/><path class="cc" d="M54.642,19.94c-.16-.32-.32-.233-.509,0s-.1.422.116.7c.466.6.888.568,1.456.16s1.456-1.252.466-1.718a1.645,1.645,0,0,0-1.456.393Z" transform="translate(-10.908 4.476)"/><path class="cc" d="M53.014,20.218c-.1-.844,1.15.233.611.7s-.757-.422-.611-.757Z" transform="translate(-11.391 4.868)"/><path class="cc" d="M54.768,18.341c.349.553,1.077-.233.815-.6s-.742.277-.873.48Z" transform="translate(-10.598 3.834)"/><path class="cc" d="M45.807,25.093c.2-.7,1.063,0,1.164.393a1.325,1.325,0,0,1-1.048,1.456c-1.019.1-1.3-1.456-.393-1.834Z" transform="translate(-15.028 7.096)"/><path class="cc" d="M52.1,26.074c-.6.873,1.456,1.063,1.456,0s-1.208-.8-1.456-.131Z" transform="translate(-11.835 7.352)"/><path class="cc" d="M46.362,14.4a.83.83,0,0,1,.771-1.266c.83.131.859,1.266.568,1.849a.925.925,0,1,1-1.674-.786Z" transform="translate(-14.593 1.781)"/><path class="cc" d="M54.637,12.582c-.728,1.732,2.1,1.121,2.256-.277C57.083,10.632,54.856,11.068,54.637,12.582Z" transform="translate(-10.685 0.918)"/><path class="cc" d="M80.777,26.3c-.815,1.092,1.3,1.63,1.456.247a1.106,1.106,0,0,0-1.7-.131Z" transform="translate(1.165 7.68)"/><path class="cc" d="M24.442,13.512c-.335,1.557,1.659,1.237,1.659,0s-1.368-1.456-1.659-.32Z" transform="translate(-24.404 1.472)"/><path class="cc" d="M94.471,19.871c-1.674,2.329,5.327,2.358,5.648,0S95.1,18.3,94.3,19.7Z" transform="translate(7.398 4.167)"/><path class="cc" d="M88.83,20.854c0-.553.131-.815.684-.844.684.553.509,1.645-.393,1.456Z" transform="translate(4.946 4.916)"/><path class="cc" d="M71.292,26.57c-2.5,2.111,2.911,1.456.451.306Z" transform="translate(-3.353 7.904)"/><path class="cc" d="M33.59,12.957a2.474,2.474,0,0,0,.9-.873c-.6-.509-.626-.1-.9.378Z" transform="translate(-20.219 1.198)"/><path class="cc" d="M63.073,49.884c.131.713.495,1.106,1.339.932a.946.946,0,0,0,.757-1.15,1.223,1.223,0,0,0-1.281-.975A1.077,1.077,0,0,0,63.073,49.884Z" transform="translate(-6.793 17.98)"/><path class="cc" d="M63.663,47.48c-.466.189-1.135.917-.451,1.223a2.911,2.911,0,0,0,1.819-.291c1.281-.975-.728-1.8-1.557-.786Z" transform="translate(-6.858 17.284)"/><path class="cc" d="M63.877,51.751c.466-.815,1.31.116.757.582a.524.524,0,0,1-.844-.408Z" transform="translate(-6.461 19.229)"/><path class="cc" d="M64.728,49.6c.306-.539.873,0,.509.393a.349.349,0,0,1-.568-.277Z" transform="translate(-6.061 18.293)"/><path class="cc" d="M55.7,45.524c-1.048,1.456.888,3.1,1.645,1.368.408-.917-.378-2.038-1.281-1.368Z" transform="translate(-10.288 16.446)"/><path class="cc" d="M57.958,48.534c-.146-.277-.277-.2-.422,0s-.087.349.087.582c.393.495.742.48,1.281.131s1.164-1.048.378-1.456a1.325,1.325,0,0,0-1.237.335Z" transform="translate(-9.348 17.555)"/><path class="cc" d="M56.624,48.753c-.087-.713.961.2.495.582s-.626-.349-.495-.64Z" transform="translate(-9.746 17.89)"/><path class="cc" d="M58.064,47.184c.291.466.888-.189.684-.495s-.626.233-.728.408Z" transform="translate(-9.09 17.028)"/><path class="cc" d="M50.6,52.8c.175-.582.888,0,.975.32a1.121,1.121,0,0,1-.888,1.252.761.761,0,0,1-.32-1.456Z" transform="translate(-12.78 19.739)"/><path class="cc" d="M55.848,53.625c-.495.728,1.208.888,1.194,0s-1-.655-1.194-.1Z" transform="translate(-10.12 19.96)"/><path class="cc" d="M51.111,43.909a.684.684,0,0,1,.655-1.048c.684.1.7,1.063.466,1.456a.757.757,0,1,1-1.339-.67Z" transform="translate(-12.399 15.324)"/><path class="cc" d="M57.962,42.338c-.611,1.456,1.747.932,1.863-.233C59.985,40.766,58.064,41.144,57.962,42.338Z" transform="translate(-9.163 14.596)"/><path class="cc" d="M32.809,43.161c-.277,1.3,1.456,1.033,1.456,0a.739.739,0,0,0-1.456-.262Z" transform="translate(-20.588 15.069)"/><path class="cc" d="M40.43,42.71a1.98,1.98,0,0,0,.742-.728c-.495-.422-.509-.1-.742.306Z" transform="translate(-17.103 14.835)"/></g><path class="bt" d="M126.788,1.99l-1.426,39.285L139.2,42.7l-.7,9.869-13.144.83L124.11,82.409l.771.233,17.088-30.29,2.824-4.76L130.4,2.019Z" transform="translate(56.539 0.907)"/><path class="cd" d="M148.238,83.549s16.346-28.689,17.088-30.29,1.15-9,1.019-9.985S153.754,2.911,153.754,2.911L72.84,2.3V1.194L106.915,0l94.364,1.266S219.24,40.232,219.487,41.5s-1.048,8.3-1.834,9.01S190.1,81.6,190.1,81.6L146.171,84.51l-1.965-.859Z" transform="translate(33.183)"/><path class="ce" d="M217.653,50.134,166.228,52.4s.626-8.4.451-9.9-12.2-41.425-12.2-41.425L72.84.82V1.926l80.914.611s12.576,38.98,12.591,40.348-.364,8.733-1.019,9.985-17.088,30.3-17.088,30.3l-4.032.175,1.965.859L190.1,81.3Z" transform="translate(33.183 0.374)"/><path class="cf" d="M141.721,29.216l40.29-2.023-9.4-20.713H134.37Z" transform="translate(61.213 2.952)"/><path class="cg" d="M141.61,9.09l1.8,2.751,21.688-.189-.7-2.562Z" transform="translate(64.511 4.141)"/><path class="ce" d="M140.1,44.248l30.8-1.208-7.365,9.1-28.995.946Z" transform="translate(61.29 19.607)"/><path class="ch" d="M144.02,15.454l1.557,5.138,22.576-.349-1.688-5.953Z" transform="translate(65.609 6.51)"/></g></g></svg>