<svg xmlns="http://www.w3.org/2000/svg" width="20.046" height="25.333" viewBox="0 0 20.046 25.333"><defs><style>.a{fill:#555;}</style></defs><path class="a" d="M73.066,20.16a3.936,3.936,0,0,1-1.2-1.629,18.847,18.847,0,0,1-1.247-7.447c0-.01,0-.019,0-.028a7.188,7.188,0,0,0-4.231-6.519V2.822A2.823,2.823,0,0,0,63.574,0H63.34a2.823,2.823,0,0,0-2.817,2.822V4.537a7.188,7.188,0,0,0-4.232,6.548,18.847,18.847,0,0,1-1.247,7.447,3.936,3.936,0,0,1-1.2,1.629.721.721,0,0,0-.4.821.755.755,0,0,0,.744.58h5.44a3.821,3.821,0,0,0,7.642,0h5.44a.755.755,0,0,0,.744-.58A.722.722,0,0,0,73.066,20.16ZM62.007,2.822A1.336,1.336,0,0,1,63.34,1.487h.233a1.336,1.336,0,0,1,1.333,1.335V4.055a7.188,7.188,0,0,0-2.9,0V2.822Zm1.45,21.024a2.342,2.342,0,0,1-2.337-2.285h4.673A2.342,2.342,0,0,1,63.457,23.847Zm2.989-3.772H55.887a7.779,7.779,0,0,0,.389-.683,18.791,18.791,0,0,0,1.5-8.307,5.681,5.681,0,1,1,11.362,0c0,.009,0,.018,0,.027a18.753,18.753,0,0,0,1.5,8.277,7.785,7.785,0,0,0,.389.683Z" transform="translate(-53.434 0)"/></svg>