<svg xmlns="http://www.w3.org/2000/svg" xmlns:xlink="http://www.w3.org/1999/xlink" width="241.805" height="187.833" viewBox="0 0 241.805 187.833"><defs><style>.a,.o{fill:#f4f7fa;}.b{fill:url(#a);}.c{fill:url(#b);}.d{fill:url(#c);}.e{fill:url(#d);}.f{fill:#26264f;}.g{fill:url(#e);}.h{fill:url(#f);}.i{opacity:0.3;fill:url(#g);}.j{fill:#de8bdf;}.k{fill:url(#h);}.l{fill:url(#i);}.m{fill:#d8dee8;}.n{fill:url(#l);}.o,.p{opacity:0.63;}.q{fill:url(#m);}.r{fill:url(#n);}.s{fill:url(#o);}.t{fill:#fcb048;}.u{fill:url(#p);}.v{fill:url(#t);}.w{fill:url(#v);}.x{fill:url(#w);}.y{fill:url(#x);}.z{fill:url(#aa);}.aa{fill:url(#ab);}.ab{fill:url(#ad);}.ac{fill:url(#ae);}.ad{fill:url(#af);}.ae{fill:url(#ah);}.af{fill:url(#aj);}.ag{fill:url(#al);}.ah{fill:url(#an);}.ai{fill:url(#ar);}.aj{fill:url(#as);}.ak{fill:url(#at);}.al{fill:url(#au);}.am{fill:url(#av);}.an{fill:#d688e1;font-size:18px;font-family:Poppins-SemiBold, Poppins;font-weight:600;}.ao{fill:#fefefe;}.ap,.bg,.bl{fill:#fff;}.ap,.aq,.ar,.as{opacity:0.6;}.aq{fill:#eef1fa;}.ar{fill:#e3e8fa;}.as{fill:url(#aw);}.at{fill:url(#ax);}.au{fill:none;}.av{fill:url(#ay);}.aw,.bf{fill:#617fa2;}.ax{fill:#10207f;}.ay{fill:#fedf7c;}.az{fill:#233863;}.az,.bc,.bi,.bq,.br,.bt{opacity:0.5;}.ba{fill:#e28f66;}.bb,.bc{fill:#f29b6e;}.bd{fill:url(#az);}.be{fill:#415b81;}.bf,.bg,.bu,.bv{opacity:0.4;}.bh{fill:url(#bq);}.bi{fill:url(#br);}.bj{fill:#002949;}.bk{fill:#f29e70;}.bm{fill:#0f3351;}.bn{fill:#e48c5e;}.bo{fill:#ed8a80;}.bp{fill:#f29079;}.bq{fill:url(#bs);}.br{fill:#d4845f;}.bs{fill:#cc6c39;}.bt{fill:#d1713e;}.bu{fill:#d2daff;}.bv{fill:#c9d3ef;}</style><linearGradient id="a" x1="0.358" y1="0.774" x2="-0.117" y2="1.698" gradientUnits="objectBoundingBox"><stop offset="0" stop-color="#f36f56"/><stop offset="1" stop-color="#ffc444"/></linearGradient><linearGradient id="b" x1="-1.37" y1="2.898" x2="-3.262" y2="5.299" xlink:href="#a"/><linearGradient id="c" x1="0.192" y1="0.992" x2="1.041" y2="-0.374" gradientUnits="objectBoundingBox"><stop offset="0" stop-color="#ffc444"/><stop offset="1" stop-color="#f36f56"/></linearGradient><linearGradient id="d" x1="-2.375" y1="3.391" x2="1.242" y2="-0.178" xlink:href="#c"/><linearGradient id="e" x1="0.12" y1="0.5" x2="1.621" y2="0.466" gradientUnits="objectBoundingBox"><stop offset="0" stop-color="#444b8c"/><stop offset="1" stop-color="#26264f"/></linearGradient><linearGradient id="f" x1="0.675" y1="0.261" x2="-0.866" y2="2.189" gradientUnits="objectBoundingBox"><stop offset="0" stop-color="#fca896"/><stop offset="1" stop-color="#bee8ff"/></linearGradient><linearGradient id="g" x1="0.793" y1="0.123" x2="-0.826" y2="2.208" gradientUnits="objectBoundingBox"><stop offset="0" stop-color="#e38ddd"/><stop offset="1" stop-color="#9571f6"/></linearGradient><linearGradient id="h" y1="0.5" x2="1" y2="0.5" gradientUnits="objectBoundingBox"><stop offset="0" stop-color="#ff9085"/><stop offset="1" stop-color="#fb6fbb"/></linearGradient><linearGradient id="i" x1="0" y1="0.5" x2="1" y2="0.5" xlink:href="#h"/><linearGradient id="l" x1="0" y1="0.5" x2="1" y2="0.5" xlink:href="#h"/><linearGradient id="m" x1="-0.085" y1="0.5" x2="1.065" y2="0.5" gradientUnits="objectBoundingBox"><stop offset="0" stop-color="#f57e53"/><stop offset="0" stop-color="#f68252"/><stop offset="0.04" stop-color="#f99a4d"/><stop offset="0.08" stop-color="#fcad49"/><stop offset="0.13" stop-color="#feba46"/><stop offset="0.2" stop-color="#ffc244"/><stop offset="0.32" stop-color="#ffc444"/><stop offset="0.45" stop-color="#fdb946"/><stop offset="0.69" stop-color="#f99c4c"/><stop offset="1" stop-color="#f36f56"/></linearGradient><linearGradient id="n" x1="0.495" y1="0.179" x2="0.556" y2="4.091" gradientUnits="objectBoundingBox"><stop offset="0" stop-color="#ffdb44"/><stop offset="1" stop-color="#feef06"/></linearGradient><linearGradient id="o" x1="0.492" y1="-0.777" x2="0.511" y2="1.295" xlink:href="#n"/><linearGradient id="p" x1="-4.034" y1="-45.535" x2="-4.015" y2="-43.104" gradientUnits="objectBoundingBox"><stop offset="0" stop-color="#f36f56"/><stop offset="0.31" stop-color="#f99c4c"/><stop offset="0.55" stop-color="#fdb946"/><stop offset="0.68" stop-color="#ffc444"/><stop offset="0.8" stop-color="#ffc244"/><stop offset="0.87" stop-color="#feba46"/><stop offset="0.92" stop-color="#fcad49"/><stop offset="0.96" stop-color="#f99a4d"/><stop offset="1" stop-color="#f68252"/><stop offset="1" stop-color="#f57e53"/></linearGradient><linearGradient id="t" x1="-3.752" y1="-41.889" x2="-3.733" y2="-39.458" xlink:href="#p"/><linearGradient id="v" x1="0.495" y1="0.179" x2="0.556" y2="4.091" xlink:href="#n"/><linearGradient id="w" x1="0.492" y1="-0.777" x2="0.511" y2="1.295" xlink:href="#n"/><linearGradient id="x" x1="-3.995" y1="-38.263" x2="-3.976" y2="-35.831" xlink:href="#p"/><linearGradient id="aa" x1="0.492" y1="-0.777" x2="0.511" y2="1.296" xlink:href="#n"/><linearGradient id="ab" x1="-4.143" y1="-34.617" x2="-4.124" y2="-32.185" xlink:href="#p"/><linearGradient id="ad" x1="0.495" y1="0.179" x2="0.556" y2="4.091" xlink:href="#n"/><linearGradient id="ae" x1="0.492" y1="-0.777" x2="0.511" y2="1.296" xlink:href="#n"/><linearGradient id="af" x1="-4.034" y1="-30.682" x2="-4.015" y2="-28.251" xlink:href="#p"/><linearGradient id="ah" x1="0.495" y1="0.179" x2="0.556" y2="4.091" xlink:href="#n"/><linearGradient id="aj" x1="-3.752" y1="-27.036" x2="-3.733" y2="-24.604" xlink:href="#p"/><linearGradient id="al" x1="0.495" y1="0.178" x2="0.556" y2="4.092" xlink:href="#n"/><linearGradient id="an" x1="-3.995" y1="-23.401" x2="-3.976" y2="-20.969" xlink:href="#p"/><linearGradient id="ar" x1="-3.869" y1="-19.754" x2="-3.85" y2="-17.323" xlink:href="#p"/><linearGradient id="as" x1="-0.412" y1="-2.224" x2="1.293" y2="-2.224" xlink:href="#m"/><linearGradient id="at" x1="0.36" y1="-2.55" x2="0.463" y2="-1.93" xlink:href="#n"/><linearGradient id="au" x1="0.359" y1="-2.573" x2="0.391" y2="-2.383" xlink:href="#n"/><linearGradient id="av" x1="-10.148" y1="0.701" x2="-10.116" y2="0.894" xlink:href="#p"/><linearGradient id="aw" x1="-2658.317" y1="0.503" x2="-2657.221" y2="0.453" gradientUnits="objectBoundingBox"><stop offset="0" stop-color="#5862e3"/><stop offset="1" stop-color="#4859e3"/></linearGradient><linearGradient id="ax" x1="-22.75" y1="0.5" x2="-20.675" y2="0.5" gradientUnits="objectBoundingBox"><stop offset="0.01" stop-color="#fec8c0"/><stop offset="0.98" stop-color="#fdaea3"/></linearGradient><linearGradient id="ay" x1="-249.798" y1="0.49" x2="-239.131" y2="0.49" xlink:href="#ax"/><linearGradient id="az" x1="-22.461" y1="1.076" x2="-22.24" y2="0.471" gradientUnits="objectBoundingBox"><stop offset="0" stop-color="#fec8c0"/><stop offset="0.98" stop-color="#fdaea3"/></linearGradient><linearGradient id="bq" x1="-25.111" y1="0.5" x2="-24.114" y2="0.5" xlink:href="#ax"/><linearGradient id="br" x1="-25.2" y1="0.54" x2="-24.209" y2="0.458" xlink:href="#az"/><linearGradient id="bs" x1="1" y1="0.5" x2="0" y2="0.5" xlink:href="#az"/></defs><g transform="translate(-8905 -1379.142)"><g transform="translate(8905 1385.597)"><path class="a" d="M369.977,76.112c-6.313-31.791-32.195-70.848-83.328-74.935,0,0-38.822-3.634-77.093,1.873-22.714,3.268-42.63,13-55.232,26.978s-16.813,31.03-11.706,47.285c3.319,10.557,5.561,21.484,4.946,32.332-1.072,18.88-.455,36.5,23.36,47.763,21.264,10.054,48.026,18.92,73.556,20.474a211.473,211.473,0,0,0,53.53-4.128C383.234,156.043,376.29,107.9,369.977,76.112Z" transform="translate(-131.598 -6.455)"/><path class="b" d="M13.514,793.605A13.963,13.963,0,0,1,4.7,790.944a11.184,11.184,0,0,1-1.353-17.065l71.932-76.3a12.365,12.365,0,0,1,9.314-3.745,12.856,12.856,0,0,1,9.209,4.2L117.881,724.9l27.366-30.09a11.312,11.312,0,0,1,15.831-.657,10.953,10.953,0,0,1,1.108,15.5l-35.482,39.8a12.07,12.07,0,0,1-17.753.144L84.586,722.975,23.57,789.131A14.417,14.417,0,0,1,13.514,793.605Z" transform="translate(-0.016 -647.442)"/><path class="c" d="M2234.82,490.232l-30.14-26.446,38.678-12.986h2.7l-8.8,39.194Z" transform="translate(-2064.992 -422.237)"/><path class="d" d="M56.139,793.605a13.966,13.966,0,0,1-8.818-2.661,11.184,11.184,0,0,1-1.353-17.065l71.932-76.3a12.365,12.365,0,0,1,9.314-3.745,12.86,12.86,0,0,1,9.208,4.2L160.506,724.9l27.367-30.09a11.312,11.312,0,0,1,15.831-.657,10.953,10.953,0,0,1,1.108,15.5l-35.482,39.8a12.071,12.071,0,0,1-17.754.144l-24.365-26.627L66.2,789.131A14.412,14.412,0,0,1,56.139,793.605Z" transform="translate(-39.94 -647.442)"/><path class="e" d="M2277.186,489.994l-29.876-26.208,38.678-12.986Z" transform="translate(-2104.921 -422.237)"/></g><g transform="translate(8922.831 1385.597)"><g transform="translate(0 0)"><g transform="translate(0 0)"><path class="f" d="M223.838,66.8q8.193,69.241,16.385,137.039a3.5,3.5,0,0,1-3.114,3.985q-32.925,3.123-65.851,6.384c-3.916.19-6.065-2-6.318-4.188q-8.432-73.188-16.865-147.9c-.252-2.237,1.643-4.158,5.559-3.969q33.088,2.36,66.175,4.656A4.621,4.621,0,0,1,223.838,66.8Z" transform="translate(-148.054 -58.132)"/><path class="g" d="M270.009,66.847q8.244,69.541,16.488,137.621a3.518,3.518,0,0,1-3.133,4q-34.189,2.9-68.379,5.905a4.054,4.054,0,0,1-4.245-3.663q-8.484-73.521-16.968-148.592a3.206,3.206,0,0,1,3.348-3.829q34.418,2.3,68.838,4.536A4.653,4.653,0,0,1,270.009,66.847Z" transform="translate(-191.176 -58.276)"/><path class="h" d="M324.26,220.361q7.636,64.43,15.272,127.6A3.275,3.275,0,0,1,336.6,351.7q-32.152,2.628-64.305,5.36a3.794,3.794,0,0,1-3.954-3.421Q260.5,285.731,252.653,216.5a3.014,3.014,0,0,1,3.116-3.591q32.353,1.884,64.705,3.728A4.306,4.306,0,0,1,324.26,220.361Z" transform="translate(-246.751 -204.206)"/><path class="i" d="M386.1,217.514q-31.97-1.822-63.94-3.684a48.866,48.866,0,0,0,3.745,12.113c7.069,15.339,17.455,16.182,21.519,29.548,4.186,13.77-5.255,18.079-.642,30.509,5,13.49,17.279,11.538,23.767,26.336,5.592,12.754-1.607,18.585,4.175,26.336,6.337,8.5,18.062,5.615,30.232,8.493q-7.535-62.354-15.07-125.93A4.3,4.3,0,0,0,386.1,217.514Z" transform="translate(-312.378 -205.082)"/><path class="j" d="M862.932,154.481a1.073,1.073,0,0,1-1.124,1.278,1.637,1.637,0,0,1-1.437-1.436,1.069,1.069,0,0,1,1.124-1.277A1.644,1.644,0,0,1,862.932,154.481Z" transform="translate(-820.34 -147.711)"/><ellipse class="k" cx="4.933" cy="5.82" rx="4.933" ry="5.82" transform="translate(45.359 36.64)"/><ellipse class="l" cx="4.933" cy="5.82" rx="4.933" ry="5.82" transform="translate(64.996 36.64)"/><ellipse class="m" cx="5.003" cy="5.82" rx="5.003" ry="5.82" transform="translate(55.052 36.64)"/><ellipse class="l" cx="4.933" cy="5.82" rx="4.933" ry="5.82" transform="translate(84.632 36.64)"/><ellipse class="m" cx="5.003" cy="5.82" rx="5.003" ry="5.82" transform="translate(74.689 36.64)"/><ellipse class="m" cx="5.003" cy="5.82" rx="5.003" ry="5.82" transform="translate(94.326 36.64)"/><ellipse class="m" cx="5.003" cy="5.82" rx="5.003" ry="5.82" transform="translate(35.416 36.64)"/><path class="k" d="M235.47,202.78l30.612,35.12H345.09l-38.285-30.672Z" transform="translate(-230.558 -194.653)"/><path class="a" d="M235.47,202.79l30.612,35.12h9.9L243.7,203.3Z" transform="translate(-230.558 -194.662)"/><path class="a" d="M539.38,221.74,572.571,255.8h9.779l-34.064-33.5Z" transform="translate(-517.393 -212.547)"/><path class="a" d="M857.61,241.58,892.5,274.52h9.826L866.65,242.144Z" transform="translate(-817.742 -231.273)"/><path class="a" d="M1189.83,262.293l-9.18-.573,36.418,31.809h9.874Z" transform="translate(-1122.632 -250.281)"/><path class="n" d="M2004.72,827.85c.326,2.84,2.385,5.031,4.882,5.031s4.556-2.191,4.882-5.031Z" transform="translate(-1900.401 -784.602)"/><path class="o" d="M753.806,1015.624c-4.27-9.848-15.114-14.63-24.212-10.682s-13.012,15.132-8.739,24.979,15.114,14.63,24.212,10.682S758.079,1025.472,753.806,1015.624Z" transform="translate(-687.038 -950.437)"/><g class="p" transform="translate(30.145 101.929)"><path class="a" d="M730.957,1888.976l-41.648,1.262a2.961,2.961,0,0,1-3.018-2.515l-1.686-11.1a2.963,2.963,0,0,1,2.86-3.406l41.693-.966a2.963,2.963,0,0,1,3,2.516l1.643,10.807a2.963,2.963,0,0,1-2.841,3.406Z" transform="translate(-684.572 -1872.246)"/><path class="a" d="M784.121,2232.955l-41.623,1.423a2.961,2.961,0,0,1-3.028-2.516l-.016-.1a2.961,2.961,0,0,1,2.835-3.405l41.639-1.32a2.962,2.962,0,0,1,3.022,2.516h0a2.962,2.962,0,0,1-2.829,3.406Z" transform="translate(-736.338 -2207.097)"/></g><path class="q" d="M1685.34,2728.51v4.66c0,1.505,9.406,2.726,21.008,2.726s21.008-1.221,21.008-2.726v-4.66Z" transform="translate(-1598.965 -2578.47)"/><ellipse class="r" cx="21.008" cy="2.726" rx="21.008" ry="2.726" transform="translate(86.375 147.313)"/><path class="s" d="M1706.14,2727.281c-10.275,0-21.02-.981-21.02-2.875,0-.1.037-.286.141-.286s.06.142.06.247c0,1.2,8.55,2.538,20.82,2.538s20.82-1.338,20.82-2.538c0-.1.017-.2.121-.2s.079.139.079.243C1727.161,2726.3,1716.416,2727.281,1706.14,2727.281Z" transform="translate(-1598.758 -2574.328)"/><path class="t" d="M1834.949,2711.309q.308-.214.661-.423a4.141,4.141,0,0,1,.9-.376,8.649,8.649,0,0,1,1.385-.274,17.465,17.465,0,0,1,2.074-.112q1.219-.006,2.287.077a15.332,15.332,0,0,1,1.881.249,5.818,5.818,0,0,1,1.32.408,1.022,1.022,0,0,1,.6.562l2.365.023a2.351,2.351,0,0,1,.453.042c.132.027.2.062.2.1v.2l-3.041-.03a1.539,1.539,0,0,1-.815.655,8.329,8.329,0,0,1-1.668.514l-1.107-.154a1.221,1.221,0,0,1-.244-.057c-.064-.022-.1-.047-.1-.075s.086-.08.257-.128.365-.107.58-.179a5.758,5.758,0,0,0,.634-.25.863.863,0,0,0,.417-.345l-7.178-.072a6.539,6.539,0,0,1-.633.409,4.106,4.106,0,0,1-.932.362,9.726,9.726,0,0,1-1.445.261,20.527,20.527,0,0,1-2.178.107c-.657,0-1.3-.022-1.925-.075a13.237,13.237,0,0,1-1.671-.239,5.187,5.187,0,0,1-1.2-.393c-.311-.156-.486-.337-.522-.538l-1.947-.02a2.527,2.527,0,0,1-.46-.041c-.134-.026-.2-.061-.2-.1v-.194l2.663.025a1.433,1.433,0,0,1,.73-.537,8.286,8.286,0,0,1,1.348-.406l.893.123c.271.039.405.083.405.134,0,.027-.056.061-.169.1l-.4.146a3.646,3.646,0,0,0-.443.2.939.939,0,0,0-.325.26Zm-6.569.266a.717.717,0,0,0,.354.33,2.818,2.818,0,0,0,.674.228,6.842,6.842,0,0,0,.911.132c.34.028.694.041,1.063.039a11.015,11.015,0,0,0,1.128-.057,6.612,6.612,0,0,0,.843-.143,3.848,3.848,0,0,0,.635-.21,3.453,3.453,0,0,0,.485-.259Zm15.626-.175a.735.735,0,0,0-.387-.341,3.468,3.468,0,0,0-.778-.244,8.563,8.563,0,0,0-1.1-.148q-.627-.048-1.386-.045a10.79,10.79,0,0,0-1.161.059,6.127,6.127,0,0,0-.843.154,3.057,3.057,0,0,0-.606.224,4.423,4.423,0,0,0-.465.274Z" transform="translate(-1729.551 -2561.117)"/><path class="u" d="M1711.9,2685.239c-9.367,0-19.12.824-20.68,2.42a1.919,1.919,0,0,1,.168.18c1.315-1.108,9.368-2.223,20.508-2.223,11.427,0,19.609,1.173,20.6,2.308a1.863,1.863,0,0,1,.157-.178C1731.37,2686.094,1721.436,2685.239,1711.9,2685.239Z" transform="translate(-1604.515 -2537.631)"/><path class="q" d="M1581.4,2641.4v4.66c0,1.505,9.406,2.726,21.008,2.726s21.008-1.221,21.008-2.726v-4.66Z" transform="translate(-1500.865 -2496.255)"/><ellipse class="r" cx="21.008" cy="2.726" rx="21.008" ry="2.726" transform="translate(80.535 142.419)"/><path class="s" d="M1602.2,2640.17c-10.276,0-21.021-.981-21.021-2.874,0-.1.037-.286.141-.286s.059.143.059.246c0,1.2,8.551,2.539,20.82,2.539s20.819-1.337,20.819-2.539c0-.1.018-.2.122-.2s.079.138.079.242C1623.22,2639.191,1612.475,2640.17,1602.2,2640.17Z" transform="translate(-1500.657 -2492.113)"/><path class="t" d="M1731.049,2624.2q.31-.214.66-.422a4.167,4.167,0,0,1,.9-.377,8.588,8.588,0,0,1,1.384-.273,17.475,17.475,0,0,1,2.074-.112q1.218-.006,2.287.077a15.464,15.464,0,0,1,1.88.249,5.839,5.839,0,0,1,1.321.409,1.022,1.022,0,0,1,.6.562l2.366.023a2.351,2.351,0,0,1,.453.042c.132.027.2.061.2.1v.195l-3.041-.029a1.532,1.532,0,0,1-.815.655,8.337,8.337,0,0,1-1.667.515l-1.107-.154a1.29,1.29,0,0,1-.245-.056c-.064-.023-.094-.048-.1-.076s.085-.08.257-.128.365-.108.58-.179a5.977,5.977,0,0,0,.634-.251.852.852,0,0,0,.416-.346l-7.178-.071a6.628,6.628,0,0,1-.634.409,4.168,4.168,0,0,1-.931.362,9.776,9.776,0,0,1-1.445.261,20.216,20.216,0,0,1-2.178.106c-.658,0-1.3-.022-1.926-.075a12.952,12.952,0,0,1-1.671-.238,5.163,5.163,0,0,1-1.2-.393c-.311-.156-.486-.337-.522-.537l-1.947-.021a2.553,2.553,0,0,1-.46-.04c-.134-.026-.2-.061-.2-.1v-.194l2.663.025a1.435,1.435,0,0,1,.728-.536,8.434,8.434,0,0,1,1.351-.406l.888.123q.406.058.405.134c0,.027-.056.062-.169.1s-.245.089-.4.146a3.484,3.484,0,0,0-.443.2.94.94,0,0,0-.325.26Zm-6.569.266a.72.72,0,0,0,.354.33,2.835,2.835,0,0,0,.674.229,6.963,6.963,0,0,0,.911.132q.51.041,1.063.039a10.826,10.826,0,0,0,1.129-.057,6.469,6.469,0,0,0,.843-.142,3.917,3.917,0,0,0,.635-.21,3.413,3.413,0,0,0,.485-.259Zm15.626-.174a.734.734,0,0,0-.386-.341,3.47,3.47,0,0,0-.778-.245,8.572,8.572,0,0,0-1.1-.148q-.628-.048-1.387-.045a10.607,10.607,0,0,0-1.161.06,5.964,5.964,0,0,0-.843.153,3,3,0,0,0-.606.225,4.186,4.186,0,0,0-.465.274Z" transform="translate(-1631.489 -2478.901)"/><path class="v" d="M1607.96,2598.13c-9.367,0-19.12.825-20.68,2.42a1.8,1.8,0,0,1,.168.18c1.315-1.108,9.369-2.223,20.508-2.223,11.427,0,19.609,1.173,20.6,2.309a2.075,2.075,0,0,1,.157-.178C1627.43,2598.985,1617.493,2598.13,1607.96,2598.13Z" transform="translate(-1506.415 -2455.416)"/><path class="q" d="M1671.09,2554.549v4.66c0,1.506,9.406,2.726,21.007,2.726s21.008-1.22,21.008-2.726v-4.66Z" transform="translate(-1585.516 -2414.284)"/><ellipse class="w" cx="21.008" cy="2.726" rx="21.008" ry="2.726" transform="translate(85.573 137.539)"/><path class="x" d="M1691.91,2553.312c-10.275,0-21.02-.982-21.02-2.875,0-.1.037-.287.141-.287s.056.144.056.248c0,1.2,8.551,2.538,20.82,2.538s20.82-1.338,20.82-2.538c0-.1.018-.2.122-.2s.078.139.078.243C1712.929,2552.333,1702.184,2553.312,1691.91,2553.312Z" transform="translate(-1585.327 -2410.132)"/><path class="t" d="M1820.717,2537.347c.207-.143.426-.281.661-.422a4.119,4.119,0,0,1,.9-.376,8.572,8.572,0,0,1,1.385-.274,17.484,17.484,0,0,1,2.075-.113q1.217-.006,2.286.078a15.567,15.567,0,0,1,1.88.249,5.982,5.982,0,0,1,1.319.41,1.017,1.017,0,0,1,.6.559l2.365.024a2.284,2.284,0,0,1,.454.042c.132.027.2.061.2.1v.194l-3.041-.029a1.522,1.522,0,0,1-.816.655,8.474,8.474,0,0,1-1.666.517l-1.108-.154a1.33,1.33,0,0,1-.245-.056c-.064-.023-.095-.049-.095-.076s.085-.08.257-.128.365-.107.58-.179a5.841,5.841,0,0,0,.635-.25.865.865,0,0,0,.416-.346l-7.178-.072a6.662,6.662,0,0,1-.634.41,4.135,4.135,0,0,1-.931.361,9.654,9.654,0,0,1-1.444.261,20.526,20.526,0,0,1-2.178.106c-.658,0-1.3-.022-1.926-.074a13.208,13.208,0,0,1-1.672-.239,5.206,5.206,0,0,1-1.2-.393c-.311-.156-.486-.337-.522-.538l-1.948-.019a2.508,2.508,0,0,1-.46-.041c-.134-.026-.2-.06-.2-.1v-.195l2.663.025a1.424,1.424,0,0,1,.73-.536,8.393,8.393,0,0,1,1.348-.407l.892.122c.271.039.4.083.406.134,0,.027-.056.062-.168.1l-.4.147a3.648,3.648,0,0,0-.443.2.955.955,0,0,0-.325.26Zm-6.568.267a.716.716,0,0,0,.353.329,2.831,2.831,0,0,0,.674.229,6.914,6.914,0,0,0,.911.131q.506.042,1.063.039a11.151,11.151,0,0,0,1.128-.056,6.707,6.707,0,0,0,.843-.143,3.881,3.881,0,0,0,.635-.21,3.49,3.49,0,0,0,.485-.259Zm15.626-.174a.739.739,0,0,0-.387-.341,3.488,3.488,0,0,0-.778-.246,8.348,8.348,0,0,0-1.1-.147c-.418-.034-.881-.048-1.387-.045a10.725,10.725,0,0,0-1.161.06,5.881,5.881,0,0,0-.843.154,3.045,3.045,0,0,0-.606.225,4.212,4.212,0,0,0-.465.273Z" transform="translate(-1716.121 -2396.93)"/><path class="y" d="M1697.62,2511.28c-9.367,0-19.12.825-20.68,2.42a1.881,1.881,0,0,1,.168.179c1.315-1.107,9.368-2.223,20.508-2.223,11.428,0,19.609,1.174,20.6,2.309a1.907,1.907,0,0,1,.157-.177C1717.092,2512.135,1707.155,2511.28,1697.62,2511.28Z" transform="translate(-1591.037 -2373.446)"/><path class="q" d="M1725.51,2467.44v4.66c0,1.505,9.406,2.726,21.009,2.726s21.008-1.221,21.008-2.726v-4.66Z" transform="translate(-1636.878 -2332.07)"/><path class="w" d="M1767.526,2421.646c0,1.506-9.406,2.726-21.008,2.726s-21.009-1.22-21.009-2.726,9.406-2.726,21.009-2.726S1767.526,2420.14,1767.526,2421.646Z" transform="translate(-1636.878 -2286.275)"/><path class="z" d="M1746.311,2466.2c-10.276,0-21.021-.981-21.021-2.874,0-.1.037-.287.141-.287s.06.143.06.247c0,1.2,8.55,2.538,20.82,2.538s20.822-1.338,20.822-2.538c0-.1.017-.2.121-.2s.079.139.079.243C1767.331,2465.221,1756.585,2466.2,1746.311,2466.2Z" transform="translate(-1636.67 -2327.917)"/><path class="t" d="M1875.119,2450.237c.205-.143.426-.283.66-.422a4.156,4.156,0,0,1,.9-.376,8.573,8.573,0,0,1,1.385-.274,17.417,17.417,0,0,1,2.074-.112q1.218-.007,2.286.077a15.441,15.441,0,0,1,1.881.249,6.056,6.056,0,0,1,1.32.409,1.015,1.015,0,0,1,.6.563l2.365.024a2.354,2.354,0,0,1,.453.042c.132.027.2.061.2.1v.194l-3.041-.029a1.534,1.534,0,0,1-.815.655,8.474,8.474,0,0,1-1.667.514l-1.108-.154a1.234,1.234,0,0,1-.244-.056c-.064-.023-.1-.049-.1-.077s.086-.08.257-.128.365-.107.58-.179a5.839,5.839,0,0,0,.634-.25.866.866,0,0,0,.417-.346l-7.178-.071a6.976,6.976,0,0,1-.634.409,4.113,4.113,0,0,1-.931.361,9.538,9.538,0,0,1-1.444.261,20.665,20.665,0,0,1-2.178.107c-.657,0-1.3-.021-1.926-.075a13.386,13.386,0,0,1-1.671-.238,5.236,5.236,0,0,1-1.2-.394c-.312-.156-.485-.336-.522-.537l-1.948-.021a2.474,2.474,0,0,1-.461-.041c-.134-.026-.2-.06-.2-.1v-.2l2.663.025a1.428,1.428,0,0,1,.73-.536,8.375,8.375,0,0,1,1.348-.407l.892.123c.271.038.406.083.406.134,0,.027-.057.061-.169.1l-.4.146a3.843,3.843,0,0,0-.443.2.944.944,0,0,0-.324.26Zm-6.569.266a.72.72,0,0,0,.354.33,2.843,2.843,0,0,0,.674.229,6.92,6.92,0,0,0,.912.131q.506.042,1.062.039t1.129-.056a6.664,6.664,0,0,0,.843-.143,3.982,3.982,0,0,0,.635-.211,3.4,3.4,0,0,0,.485-.258Zm15.626-.174a.726.726,0,0,0-.386-.34,3.441,3.441,0,0,0-.778-.246,8.841,8.841,0,0,0-1.1-.149q-.627-.048-1.386-.044a10.612,10.612,0,0,0-1.162.06,5.88,5.88,0,0,0-.843.154,3.028,3.028,0,0,0-.606.225,4.259,4.259,0,0,0-.465.274Z" transform="translate(-1767.464 -2314.715)"/><path class="aa" d="M1752.071,2424.17c-9.368,0-19.121.824-20.681,2.42a1.862,1.862,0,0,1,.168.179c1.315-1.108,9.368-2.224,20.509-2.224,11.427,0,19.609,1.174,20.6,2.309a1.91,1.91,0,0,1,.157-.178C1771.541,2425.025,1761.6,2424.17,1752.071,2424.17Z" transform="translate(-1642.428 -2291.23)"/><path class="q" d="M1685.34,2373.46v4.66c0,1.505,9.406,2.726,21.008,2.726s21.008-1.221,21.008-2.726v-4.66Z" transform="translate(-1598.965 -2243.37)"/><path class="ab" d="M1727.356,2327.656c0,1.506-9.405,2.727-21.008,2.727s-21.008-1.221-21.008-2.727,9.406-2.726,21.008-2.726S1727.356,2326.151,1727.356,2327.656Z" transform="translate(-1598.965 -2197.566)"/><path class="ac" d="M1706.14,2372.221c-10.275,0-21.02-.981-21.02-2.875,0-.1.037-.286.141-.286s.06.143.06.247c0,1.2,8.55,2.538,20.82,2.538s20.82-1.337,20.82-2.538c0-.1.017-.2.121-.2s.079.138.079.242C1727.161,2371.241,1716.416,2372.221,1706.14,2372.221Z" transform="translate(-1598.758 -2239.217)"/><path class="t" d="M1834.949,2356.249q.308-.215.661-.422a4.105,4.105,0,0,1,.9-.376,8.571,8.571,0,0,1,1.385-.275,17.726,17.726,0,0,1,2.074-.112q1.219-.006,2.287.078a15.238,15.238,0,0,1,1.881.249,5.79,5.79,0,0,1,1.32.409,1.025,1.025,0,0,1,.6.562l2.365.024a2.315,2.315,0,0,1,.453.041c.132.027.2.062.2.1v.2l-3.041-.029a1.534,1.534,0,0,1-.815.654,8.434,8.434,0,0,1-1.668.515l-1.107-.154a1.309,1.309,0,0,1-.244-.056c-.064-.024-.1-.049-.1-.077s.086-.08.257-.128.365-.108.58-.179a5.962,5.962,0,0,0,.634-.251.858.858,0,0,0,.417-.346l-7.178-.072a6.5,6.5,0,0,1-.633.409,4.094,4.094,0,0,1-.932.362,9.664,9.664,0,0,1-1.445.261,20.527,20.527,0,0,1-2.178.106c-.657,0-1.3-.022-1.925-.074a13.193,13.193,0,0,1-1.671-.239,5.215,5.215,0,0,1-1.2-.393c-.311-.156-.486-.337-.522-.538l-1.947-.021a2.464,2.464,0,0,1-.46-.041c-.134-.026-.2-.06-.2-.1v-.194l2.663.025a1.427,1.427,0,0,1,.73-.536,8.261,8.261,0,0,1,1.348-.406l.894.119c.271.039.405.083.405.134,0,.027-.056.063-.169.1l-.4.147a3.539,3.539,0,0,0-.443.2.945.945,0,0,0-.325.26Zm-6.569.266a.721.721,0,0,0,.354.33,2.829,2.829,0,0,0,.674.228,6.762,6.762,0,0,0,.911.131q.509.042,1.063.039a10.878,10.878,0,0,0,1.128-.056,6.486,6.486,0,0,0,.843-.143,3.918,3.918,0,0,0,.635-.209,3.531,3.531,0,0,0,.485-.259Zm15.626-.175a.731.731,0,0,0-.387-.34,3.509,3.509,0,0,0-.778-.246,8.649,8.649,0,0,0-1.1-.148q-.627-.048-1.386-.044a10.485,10.485,0,0,0-1.161.06,6,6,0,0,0-.843.153,3.076,3.076,0,0,0-.606.225,4.222,4.222,0,0,0-.465.274Z" transform="translate(-1729.551 -2226.007)"/><path class="ad" d="M1711.9,2330.19c-9.367,0-19.12.824-20.68,2.419a2.091,2.091,0,0,1,.168.18c1.315-1.108,9.368-2.223,20.508-2.223,11.427,0,19.609,1.173,20.6,2.308a1.78,1.78,0,0,1,.157-.178C1731.37,2331.044,1721.436,2330.19,1711.9,2330.19Z" transform="translate(-1604.515 -2202.531)"/><path class="q" d="M1581.4,2286.35v4.659c0,1.506,9.406,2.726,21.008,2.726s21.008-1.221,21.008-2.726v-4.659Z" transform="translate(-1500.865 -2161.155)"/><ellipse class="ae" cx="21.008" cy="2.726" rx="21.008" ry="2.726" transform="translate(80.535 122.47)"/><path class="ac" d="M1602.2,2285.111c-10.276,0-21.021-.981-21.021-2.874,0-.1.037-.287.141-.287s.059.143.059.247c0,1.2,8.551,2.538,20.82,2.538s20.819-1.338,20.819-2.538c0-.1.018-.2.122-.2s.079.139.079.243C1623.22,2284.131,1612.475,2285.111,1602.2,2285.111Z" transform="translate(-1500.657 -2157.001)"/><path class="t" d="M1731.03,2269.139q.309-.214.66-.423a4.183,4.183,0,0,1,.9-.376,8.587,8.587,0,0,1,1.385-.273,17.416,17.416,0,0,1,2.074-.113q1.218-.005,2.287.077a15.513,15.513,0,0,1,1.88.249,5.78,5.78,0,0,1,1.32.409,1.03,1.03,0,0,1,.6.559l2.365.024a2.392,2.392,0,0,1,.453.041c.132.027.2.062.2.1v.195l-3.041-.029a1.535,1.535,0,0,1-.815.655,8.33,8.33,0,0,1-1.668.515l-1.109-.155a1.275,1.275,0,0,1-.245-.056c-.064-.024-.094-.048-.095-.076s.086-.08.257-.127.364-.108.581-.179a5.733,5.733,0,0,0,.634-.251.852.852,0,0,0,.416-.345l-7.178-.072a6.734,6.734,0,0,1-.634.409,4.123,4.123,0,0,1-.931.361,9.7,9.7,0,0,1-1.445.261,20.6,20.6,0,0,1-2.178.107c-.658,0-1.3-.022-1.926-.075a13.11,13.11,0,0,1-1.671-.239,5.2,5.2,0,0,1-1.2-.393c-.311-.156-.486-.337-.522-.538l-1.947-.021a2.577,2.577,0,0,1-.46-.04c-.134-.026-.2-.06-.2-.1v-.2l2.663.026a1.428,1.428,0,0,1,.728-.536,8.259,8.259,0,0,1,1.351-.407l.892.123c.271.038.406.082.406.133,0,.028-.056.062-.168.1l-.4.146a3.581,3.581,0,0,0-.443.2.954.954,0,0,0-.325.26Zm-6.569.265a.718.718,0,0,0,.354.331,2.848,2.848,0,0,0,.674.228,6.958,6.958,0,0,0,.911.132q.51.041,1.063.039a11.106,11.106,0,0,0,1.129-.056,6.429,6.429,0,0,0,.843-.143,3.948,3.948,0,0,0,.635-.209,3.551,3.551,0,0,0,.485-.26Zm15.626-.174a.729.729,0,0,0-.387-.34,3.521,3.521,0,0,0-.778-.246,8.684,8.684,0,0,0-1.1-.148q-.628-.048-1.387-.045a10.427,10.427,0,0,0-1.161.061,5.957,5.957,0,0,0-.843.153,3.091,3.091,0,0,0-.606.224,4.359,4.359,0,0,0-.465.274Z" transform="translate(-1631.47 -2143.792)"/><path class="af" d="M1607.96,2243.08c-9.367,0-19.12.824-20.68,2.419a1.865,1.865,0,0,1,.168.18c1.315-1.109,9.369-2.223,20.508-2.223,11.427,0,19.609,1.174,20.6,2.308a2,2,0,0,1,.157-.178C1627.43,2243.934,1617.493,2243.08,1607.96,2243.08Z" transform="translate(-1506.415 -2120.315)"/><path class="q" d="M1671.09,2199.49v4.66c0,1.505,9.406,2.726,21.007,2.726s21.008-1.221,21.008-2.726v-4.66Z" transform="translate(-1585.516 -2079.175)"/><path class="ag" d="M1713.105,2153.724c0,1.506-9.406,2.726-21.008,2.726s-21.007-1.22-21.007-2.726S1680.5,2151,1692.1,2151,1713.105,2152.218,1713.105,2153.724Z" transform="translate(-1585.516 -2033.409)"/><path class="s" d="M1691.91,2198.261c-10.275,0-21.02-.982-21.02-2.875,0-.1.037-.287.141-.287s.056.143.056.246c0,1.2,8.551,2.539,20.82,2.539s20.82-1.337,20.82-2.539c0-.1.018-.2.122-.2s.078.139.078.242C1712.929,2197.281,1702.184,2198.261,1691.91,2198.261Z" transform="translate(-1585.327 -2075.031)"/><path class="t" d="M1820.7,2182.287c.206-.143.426-.281.66-.423a4.2,4.2,0,0,1,.9-.376,8.714,8.714,0,0,1,1.385-.274,17.84,17.84,0,0,1,2.074-.112q1.218-.006,2.287.078a15.564,15.564,0,0,1,1.88.249,6.021,6.021,0,0,1,1.32.409,1.017,1.017,0,0,1,.6.562l2.366.024a2.364,2.364,0,0,1,.454.042c.132.027.2.061.2.1v.2l-3.041-.03a1.524,1.524,0,0,1-.815.656,8.453,8.453,0,0,1-1.667.514l-1.108-.154a1.329,1.329,0,0,1-.244-.056c-.064-.024-.095-.049-.095-.077s.086-.08.257-.128.364-.107.58-.178a5.69,5.69,0,0,0,.635-.251.865.865,0,0,0,.417-.346l-7.178-.072a6.9,6.9,0,0,1-.634.409,4.172,4.172,0,0,1-.931.362,9.857,9.857,0,0,1-1.445.261,20.729,20.729,0,0,1-2.178.106c-.658,0-1.3-.022-1.926-.075a13.341,13.341,0,0,1-1.671-.239,5.206,5.206,0,0,1-1.2-.393c-.311-.156-.486-.337-.522-.537l-1.948-.02a2.619,2.619,0,0,1-.46-.041c-.134-.027-.2-.061-.2-.1v-.2l2.663.026a1.421,1.421,0,0,1,.73-.537,8.265,8.265,0,0,1,1.349-.406l.892.122c.271.038.405.082.405.133,0,.028-.056.062-.168.1s-.246.09-.4.147a3.6,3.6,0,0,0-.444.2.948.948,0,0,0-.325.26Zm-6.568.265a.715.715,0,0,0,.353.33,2.814,2.814,0,0,0,.674.229,7.05,7.05,0,0,0,.911.131q.506.042,1.063.039a10.946,10.946,0,0,0,1.128-.056,6.476,6.476,0,0,0,.843-.143,3.892,3.892,0,0,0,.635-.21,3.51,3.51,0,0,0,.485-.259Zm15.626-.174a.75.75,0,0,0-.387-.341,3.553,3.553,0,0,0-.778-.245,8.685,8.685,0,0,0-1.1-.147q-.628-.049-1.387-.045a10.655,10.655,0,0,0-1.161.06,6.138,6.138,0,0,0-.843.154,3.081,3.081,0,0,0-.605.224,4.436,4.436,0,0,0-.465.274Z" transform="translate(-1716.103 -2061.82)"/><path class="ah" d="M1697.62,2156.22c-9.367,0-19.12.824-20.68,2.42a1.89,1.89,0,0,1,.168.18c1.315-1.108,9.368-2.223,20.508-2.223,11.428,0,19.609,1.173,20.6,2.308a2.119,2.119,0,0,1,.157-.178C1717.092,2157.074,1707.155,2156.22,1697.62,2156.22Z" transform="translate(-1591.037 -2038.336)"/><path class="q" d="M1624.44,2112.38v4.66c0,1.505,9.405,2.726,21.007,2.726s21.008-1.22,21.008-2.726v-4.66Z" transform="translate(-1541.487 -1996.959)"/><path class="r" d="M1666.455,2066.585c0,1.506-9.406,2.726-21.008,2.726s-21.007-1.22-21.007-2.726,9.405-2.726,21.007-2.726S1666.455,2065.08,1666.455,2066.585Z" transform="translate(-1541.487 -1951.165)"/><path class="s" d="M1645.24,2111.15c-10.275,0-21.02-.981-21.02-2.874,0-.1.037-.286.141-.286s.056.143.056.247c0,1.2,8.551,2.538,20.82,2.538s20.82-1.337,20.82-2.538c0-.1.018-.2.122-.2s.079.138.079.243C1666.26,2110.171,1655.515,2111.15,1645.24,2111.15Z" transform="translate(-1541.279 -1992.816)"/><path class="t" d="M1774.049,2095.177c.206-.142.425-.281.66-.422a4.169,4.169,0,0,1,.9-.376,8.693,8.693,0,0,1,1.385-.273,17.633,17.633,0,0,1,2.075-.113q1.218-.005,2.287.078a15.6,15.6,0,0,1,1.88.249,6.055,6.055,0,0,1,1.321.409,1.008,1.008,0,0,1,.6.562l2.366.024a2.312,2.312,0,0,1,.453.042c.132.027.2.06.2.1v.2l-3.042-.03a1.526,1.526,0,0,1-.815.655,8.468,8.468,0,0,1-1.667.515l-1.108-.154a1.34,1.34,0,0,1-.245-.056c-.064-.023-.095-.049-.095-.076s.086-.081.257-.129.364-.107.58-.178a5.708,5.708,0,0,0,.635-.25.869.869,0,0,0,.416-.346l-7.177-.072a6.777,6.777,0,0,1-.634.409,4.153,4.153,0,0,1-.931.362,9.888,9.888,0,0,1-1.444.261,20.738,20.738,0,0,1-2.178.106c-.658,0-1.3-.022-1.926-.075a13.439,13.439,0,0,1-1.672-.238,5.225,5.225,0,0,1-1.2-.394c-.311-.156-.486-.337-.522-.538l-1.947-.02a2.619,2.619,0,0,1-.46-.041c-.135-.026-.2-.061-.2-.1v-.195l2.663.026a1.424,1.424,0,0,1,.731-.537,8.328,8.328,0,0,1,1.348-.406l.891.123c.271.037.405.082.406.133,0,.028-.056.062-.168.1l-.4.147a3.716,3.716,0,0,0-.444.2.949.949,0,0,0-.324.26Zm-6.569.266a.721.721,0,0,0,.354.33,2.814,2.814,0,0,0,.674.229,6.929,6.929,0,0,0,.912.131q.506.042,1.063.04a11.021,11.021,0,0,0,1.128-.057,6.576,6.576,0,0,0,.843-.143,3.93,3.93,0,0,0,.635-.21,3.48,3.48,0,0,0,.485-.26Zm15.626-.174a.734.734,0,0,0-.387-.341,3.512,3.512,0,0,0-.778-.246,8.638,8.638,0,0,0-1.1-.147q-.628-.049-1.386-.046a10.789,10.789,0,0,0-1.161.06,6,6,0,0,0-.843.154,3.053,3.053,0,0,0-.606.224,4.382,4.382,0,0,0-.466.274Z" transform="translate(-1672.073 -1979.604)"/><path class="ai" d="M1651,2069.11c-9.367,0-19.12.824-20.68,2.42a1.86,1.86,0,0,1,.169.179c1.315-1.108,9.368-2.223,20.508-2.223,11.428,0,19.609,1.173,20.6,2.308a2.1,2.1,0,0,1,.157-.177C1670.47,2069.965,1660.534,2069.11,1651,2069.11Z" transform="translate(-1547.037 -1956.12)"/><path class="aj" d="M2411.384,2170.84l-3.8,2.7c-1.227.873,3.23,9.245,9.955,18.7s13.171,16.411,14.4,15.539l3.8-2.7Z" transform="translate(-2280.44 -2052.134)"/><path class="ak" d="M2499.5,2203.836c-1.227.872-7.673-6.085-14.4-15.54s-11.181-17.826-9.956-18.7,7.674,6.084,14.4,15.539S2500.733,2202.963,2499.5,2203.836Z" transform="translate(-2344.208 -2050.892)"/><path class="al" d="M2483.223,2188.38c-5.956-8.372-11.384-17.7-9.842-18.795.085-.06.255-.135.316-.052s-.082.131-.168.192c-.979.7,2.887,8.439,10,18.437s13.157,16.191,14.136,15.495c.085-.06.174-.1.234-.017s-.067.144-.151.2C2496.208,2204.941,2489.179,2196.754,2483.223,2188.38Z" transform="translate(-2342.478 -2050.866)"/><path class="t" d="M2561.661,2293.231q.354.128.727.293a4.17,4.17,0,0,1,.83.518,8.582,8.582,0,0,1,1.026.97,17.578,17.578,0,0,1,1.292,1.625q.71.989,1.262,1.911a15.539,15.539,0,0,1,.886,1.677,5.583,5.583,0,0,1,.432,1.313,1.043,1.043,0,0,1-.106.816l1.351,1.941a2.352,2.352,0,0,1,.229.393c.057.124.064.2.031.219l-.158.113-1.742-2.5a1.538,1.538,0,0,1-1.006-.285,8.226,8.226,0,0,1-1.382-1.061l-.516-.992a1.245,1.245,0,0,1-.094-.232c-.019-.066-.016-.105.007-.122s.112.023.254.136.3.234.481.369a5.929,5.929,0,0,0,.573.371.862.862,0,0,0,.523.139l-4.1-5.89a6.708,6.708,0,0,1-.7-.28,4.154,4.154,0,0,1-.834-.549,9.69,9.69,0,0,1-1.051-1.025,20.464,20.464,0,0,1-1.348-1.713c-.384-.535-.734-1.07-1.055-1.613a13.052,13.052,0,0,1-.775-1.5,5.23,5.23,0,0,1-.375-1.2.842.842,0,0,1,.135-.737l-1.112-1.6a2.467,2.467,0,0,1-.234-.4c-.056-.124-.069-.2-.033-.225l.158-.112,1.523,2.184a1.439,1.439,0,0,1,.859.281,8.438,8.438,0,0,1,1.114.865l.417.8c.126.243.168.378.126.408-.022.016-.082-.009-.18-.076l-.351-.241a3.513,3.513,0,0,0-.42-.245.949.949,0,0,0-.4-.113Zm-4.024-5.2a.705.705,0,0,0-.064.479,2.8,2.8,0,0,0,.206.684,6.984,6.984,0,0,0,.422.819q.261.44.584.889a11.182,11.182,0,0,0,.7.887,6.445,6.445,0,0,0,.606.6,3.908,3.908,0,0,0,.539.4,3.5,3.5,0,0,0,.492.245Zm9.2,12.632a.736.736,0,0,0,.053-.513,3.471,3.471,0,0,0-.25-.776,8.605,8.605,0,0,0-.52-.984q-.323-.54-.767-1.156a10.531,10.531,0,0,0-.722-.911,5.842,5.842,0,0,0-.615-.6,3.052,3.052,0,0,0-.534-.364,4.313,4.313,0,0,0-.493-.22Z" transform="translate(-2419.815 -2158.937)"/><path class="am" d="M2495.317,2190.94c-5.43-7.632-11.755-15.1-13.959-15.45a1.822,1.822,0,0,1-.048.243c1.666.429,7.242,6.345,13.7,15.425,6.624,9.312,10.41,16.66,10.057,18.125a1.982,1.982,0,0,1,.237.024C2505.905,2207.3,2500.845,2198.709,2495.317,2190.94Z" transform="translate(-2350.213 -2056.523)"/></g></g><text class="an" transform="translate(44.66 77.154)"><tspan x="0" y="0">₹</tspan></text></g><g transform="translate(9064.467 1395.24)"><g transform="translate(0 40.107)"><g transform="translate(0 0)"><path class="ao" d="M4.48,54.205c.3,2.581,3.187,10.622,6.14,14.871a12.863,12.863,0,0,0,.967,1.253c3.293,3.728,7.7,3.187,10.866.127a23.751,23.751,0,0,0,4.854-7.435l.032-.138.34.531c1.062,1.615,4.2,6.554,4.865,8.965.807,2.921,1.742,16.634,1.923,16.7a6.071,6.071,0,0,0,.712.064h.595a59.726,59.726,0,0,0,10.038-.552h.382c1.455-.212,3-.489,4.6-.839l1.222-.308.372-.1a39.174,39.174,0,0,0,7.435-2.9,41.138,41.138,0,0,0,5.237-3.187c.68-.478,1.062-.786,1.062-.786a30.677,30.677,0,0,0-4.249-8.88c-1.678-2.124-2.847-6.554-3.07-7.435V64l.882.17c4.992.829,10.93.212,12.269-1.838,1-1.508,1.062-3.707.552-6.225a23.433,23.433,0,0,0-1.062-3.463c-1.508-3.909-6.108-14.3-10.569-17.187-3.558-2.273-11.557-3.357-16.825-2.932a13.415,13.415,0,0,0-3.42.627,59.293,59.293,0,0,0-10.75,4.865A24.431,24.431,0,0,0,23.09,43.9c-2.741,3.41-5.587,14.127-6.2,16.549-.085.308-.127.489-.127.489l-.149-.223a70.593,70.593,0,0,0-7.733-8.126.712.712,0,0,1-.064.159S7.741,53.971,4.48,54.205Zm56.1.648-2.3.3-.584.074v-.3a47.8,47.8,0,0,0-.467-6.044,10.354,10.354,0,0,0-.255-1.115c.074.159.637,1.349,1.307,2.719a49.351,49.351,0,0,0,2.305,4.366Z" transform="translate(0.294 -29.062)"/><g transform="translate(60.328 37.613)"><path class="ap" d="M56.78,64.67Z" transform="translate(-56.78 -64.67)"/></g><g transform="translate(51.374 27.012)"><path class="aq" d="M48.35,58.684l.138,1.3,3.07,2.794s3.633,6.522,4.5,12.014c.531,3.3.871,6.373,1.062,8.243a41.139,41.139,0,0,0,5.237-3.187c.68-.478,1.062-.786,1.062-.786a30.677,30.677,0,0,0-4.249-8.88c-1.678-2.124-2.847-6.554-3.07-7.435v-.159l.882.17c4.992.829,10.93.212,12.269-1.838,1-1.508,1.062-3.707.552-6.225-1.646,2.454-4.238,5.014-6.639,5.693C59.131,61.531,52.121,59.523,48.35,58.684Z" transform="translate(-48.35 -54.69)"/></g><g transform="translate(55.543 14.89)"><path class="ar" d="M53.215,54.964l4.387-.786-2.3.3-.584.074v-.3a47.8,47.8,0,0,0-.467-6.044,10.358,10.358,0,0,0-.255-1.115c.074.159.637,1.349,1.307,2.719A49.351,49.351,0,0,0,57.6,54.178s-.064-4.578-1.785-7.436-3.1-3.962-3.473-3.261S53.215,54.964,53.215,54.964Z" transform="translate(-52.275 -43.277)"/></g><g transform="translate(30.172 3.463)"><path class="aq" d="M28.39,38.012c2.528,1.5,6.819,2.91,9.932,1.71,2.241-.871,3.58-4.631,4.249-7.2a13.416,13.416,0,0,0-3.42.627,59.293,59.293,0,0,0-10.76,4.865Z" transform="translate(-28.39 -32.52)"/></g><g transform="translate(25.837 28.53)"><path class="as" d="M24.406,56.333c0-.127,0-.2-.064-.212S24.31,56.163,24.406,56.333Z" transform="translate(-24.309 -56.119)"/></g><g transform="translate(10.914 28.722)"><path class="aq" d="M10.26,67.591a12.862,12.862,0,0,0,.967,1.253c3.293,3.728,7.7,3.187,10.866.127a23.751,23.751,0,0,0,4.854-7.436l.032-.138.34.531c1.062,1.615,4.2,6.554,4.865,8.965.807,2.921,1.742,16.634,1.923,16.7a6.072,6.072,0,0,0,.712.064h.595a41.309,41.309,0,0,1-1.551-10.622A32.068,32.068,0,0,0,31.1,65.35c-1.222-2.443-5.194-7.892-5.842-9.05,0,1.36-1.923,8.657-5.417,11.249C17.685,69.185,13.479,68.494,10.26,67.591Z" transform="translate(-10.26 -56.3)"/></g><path class="at" d="M2.209,50.9A9.284,9.284,0,0,0,4.759,53.65c3.261-.234,4.376-1.455,4.376-1.455a.712.712,0,0,0,.064-.159,5.991,5.991,0,0,0,0-3.728,7.16,7.16,0,0,0-.319-.786,2.942,2.942,0,0,0-.382-.69.425.425,0,0,1-.191.34c-.117.074-.414,0-.7-.17a.775.775,0,0,0,0,.266c0,.605.1.329.138.7s-.924.319-.924.319S6.49,46.99,6.9,46.8a2.916,2.916,0,0,1,.744.2c.106-.372.446-.637.892-.17.106-.775-.659-2.454-1.774-2.5-1.455-.042-1.455,3.07-1.54,2.836s-.276-5.906-1.211-5.81S3.7,47.967,3.7,47.967s-.839-5.311-2.05-4.706c-1,.542.351,3.951.744,5.162.085.244.127.414.1.425a4.711,4.711,0,0,1-.659-.807C1.285,47.277.542,46.289.106,46.618a.212.212,0,0,0-.085.138C-.234,47.606,2.209,50.9,2.209,50.9Z" transform="translate(0.016 -28.507)"/><path class="au" d="M7.261,47.648c0,.372-.924.329-.924.329s-.329-1.307.085-1.5a2.916,2.916,0,0,1,.744.2.775.775,0,0,0,0,.266C7.123,47.553,7.219,47.277,7.261,47.648Z" transform="translate(0.402 -28.189)"/><path class="av" d="M7.811,46.865c-.117.074-.414,0-.7-.17.106-.372.446-.637.892-.17A.425.425,0,0,1,7.811,46.865Z" transform="translate(0.458 -28.201)"/><path class="aw" d="M33.4,86.282c0,.212.064.489.1.8.52,4.408,2,17.144,2.613,23.369.744,7.563,1.986,37.6,2.6,37.666a1.359,1.359,0,0,0,.3,0c.659,0,2.124-.191,3.357-.34l1.392-.181.786-.1c2.475-6.267,3.484-14.967,3.792-20.8s-1.062-8.434-1.062-11.355S48.834,92.75,48.834,92.75a.18.18,0,0,0,0,.074c.255,1.445,4.153,23.369,4.514,28.85.372,5.651.552,26.247.552,26.247a9.252,9.252,0,0,0,1.53.181,16.615,16.615,0,0,0,2.794-.138c.605-.074,1.062-.159,1.466-.223l.542-.127C63.153,140.1,65,127.134,65,121.983c0-3.038-2.656-9.8-2.528-10.484s1.923-12.162,2.422-17.75c.074-.829.106-1.721.106-2.634a57.084,57.084,0,0,0-.914-9.624A14.308,14.308,0,0,0,63.28,78.4,39.556,39.556,0,0,1,58.9,81.162a38.729,38.729,0,0,1-9.889,3.75A60.823,60.823,0,0,1,33.4,86.282Z" transform="translate(2.094 -26.203)"/><path class="ax" d="M40.333,29.26a42.754,42.754,0,0,1,2.124,6.469s-2,2.932-3.813,3.824c0,0-1.349-1.678-1.062-2.188a15.625,15.625,0,0,0,1.976-4.737C39.951,30.62,40.333,29.26,40.333,29.26Z" transform="translate(2.351 -29.26)"/><path class="ax" d="M34.2,40.255c-.754-.149-2.214-2.47-3.468-4.351l4.371,1.047a9.56,9.56,0,0,0,2.974,0,16.9,16.9,0,0,0,1.062,2.188S36.487,40.765,34.2,40.255Z" transform="translate(1.928 -28.847)"/><path class="ay" d="M41.823,42.114c.223.648-2.379,1.253-2.443.605S41.494,41.179,41.823,42.114Z" transform="translate(2.466 -28.485)"/><path class="ay" d="M40.69,43.979a.3.3,0,0,0,.372.234h0a.319.319,0,0,0,.234-.372l-.329-1.466a.319.319,0,0,0-.372-.244h0a.308.308,0,0,0-.234.372Z" transform="translate(2.526 -28.46)"/><path class="ay" d="M48.437,59.672c1.721,1.137,6.023,2.379,7.627,2.815v-.159c.287.064-5.311-1.615-7.435-2.974a.191.191,0,0,0-.255,0,.2.2,0,0,0,.064.319Z" transform="translate(3.022 -27.391)"/><path class="ay" d="M49.15,55.3a.181.181,0,0,0,.17.138h0s5.64-1.54,5.534-1.53v-.3c-2.549.627-5.545,1.476-5.577,1.476A.181.181,0,0,0,49.15,55.3Z" transform="translate(3.073 -27.745)"/><path class="ay" d="M28.07,45.179c.074.181,6.883,18.058,9.56,24.07,2.263,5.067,5.725,15.8,6.745,19.024h.382c-1.062-3.187-4.5-14-6.788-19.12-2.539-5.789-8.912-22.519-9.507-24.006.414-.457,2.719-2.8,7.9-4.716C42.282,38.254,48.411,38,48.943,38.413S50,48.9,50,55.408c0,5.492.5,27.256.605,31.633l.372-.1c-.117-4.578-.637-26.088-.605-31.537,0-4.971-.361-16.687-1.168-17.314s-7.329-.085-12.97,2.039c-5.853,2.124-8.052,4.8-8.137,4.918A.181.181,0,0,0,28.07,45.179Z" transform="translate(1.762 -28.726)"/><path class="ay" d="M52.351,38.684a22.763,22.763,0,0,0,1.891,9.847,10.36,10.36,0,0,0-.255-1.115,35.892,35.892,0,0,1-1.264-8.731v-.531a.2.2,0,0,0-.266,0,.212.212,0,0,0-.074.212A3.124,3.124,0,0,1,52.351,38.684Z" transform="translate(3.272 -28.71)"/><path class="ay" d="M15.94,59.074c.967,1.593,1.912,3.484,2.263,4.174h0a.181.181,0,0,0,.17.1h.074a.191.191,0,0,0,.085-.255h0c-.351-.712-1.328-2.656-2.316-4.249-.085.308-.127.489-.127.489Z" transform="translate(1.007 -27.42)"/><path class="ay" d="M21.931,46.526c0,.106,2.507,11.121,4.249,15.636l.074-.138.34.531a.191.191,0,0,0,.074-.223c-1.774-4.249-4.366-15.774-4.4-15.933a.183.183,0,1,0-.34.127Z" transform="translate(1.379 -28.203)"/><path class="ay" d="M46,41.935c0,.722.191,1.317.5,1.328s.584-.552.616-1.275-.191-1.317-.5-1.328S46.064,41.212,46,41.935Z" transform="translate(2.878 -28.551)"/><path class="ay" d="M47.23,60.865c0,.712.191,1.307.5,1.328s.584-.563.616-1.285-.191-1.317-.51-1.328S47.262,60.143,47.23,60.865Z" transform="translate(2.954 -27.374)"/><path class="ay" d="M47.23,68.455c0,.722.191,1.317.5,1.338s.584-.563.616-1.285-.191-1.317-.51-1.328S47.262,67.743,47.23,68.455Z" transform="translate(2.954 -26.901)"/><path class="ay" d="M35.606,60.224c.181.69.574,1.19.871,1.062s.393-.712.2-1.413-.574-1.19-.871-1.062S35.415,59.523,35.606,60.224Z" transform="translate(2.225 -27.423)"/><path class="ay" d="M32.3,52.2c.191.69.584,1.19.882,1.062s.382-.712.2-1.4-.584-1.2-.882-1.126S32.1,51.5,32.3,52.2Z" transform="translate(2.019 -27.925)"/><path class="ay" d="M30.306,46.49c.181.7.584,1.2.882,1.115s.382-.712.191-1.4-.574-1.2-.871-1.062S30.115,45.789,30.306,46.49Z" transform="translate(1.895 -28.273)"/><path class="ay" d="M39.116,68.664c.191.69.584,1.19.882,1.062s.382-.712.2-1.413-.584-1.19-.882-1.062S38.935,67.963,39.116,68.664Z" transform="translate(2.443 -26.898)"/><g transform="translate(35.494 52.208)"><path class="az" d="M33.4,86.281c0,.212.064.489.1.8,1.3.329,9.316,2.124,20.023-1.328C55.8,85,57.767,84.295,59.35,83.625A48.48,48.48,0,0,0,64.1,81.5a14.309,14.309,0,0,0-.807-3.091A39.558,39.558,0,0,1,58.9,81.161a38.728,38.728,0,0,1-9.889,3.75A60.823,60.823,0,0,1,33.4,86.281Z" transform="translate(-33.4 -78.41)"/></g><g transform="translate(44.459 66.437)"><path class="az" d="M41.84,146.918l1.391-.181.786-.1c2.475-6.267,3.484-14.967,3.792-20.8s-1.062-8.434-1.062-11.355S48.309,91.9,48.309,91.9c-.181-.977-3.112,6.214-4.323,15.275s0,11.546,1.583,18.121C47.14,131.654,43.476,143.232,41.84,146.918Z" transform="translate(-41.84 -91.806)"/></g><g transform="translate(60.328 52.176)"><path class="az" d="M56.78,147.944c.605-.074,1.062-.159,1.466-.223l.542-.127c2.921-7.51,4.769-20.479,4.769-25.631,0-3.038-2.656-9.8-2.528-10.484s1.923-12.162,2.422-17.75c.074-.829.106-1.721.106-2.634a57.084,57.084,0,0,0-.914-9.624,14.307,14.307,0,0,0-.807-3.091,39.561,39.561,0,0,1-4.387,2.783c.17.8.319,1.646.446,2.539a125.426,125.426,0,0,1,.351,25.079c-.542,4.461,1.413,10.8,2.284,17.622C61.263,132.457,58.724,143.834,56.78,147.944Z" transform="translate(-56.78 -78.38)"/></g><path class="ba" d="M30.752,36.3a18.607,18.607,0,0,0,4.456,1.237,5.991,5.991,0,0,0,2.847-.244,10.421,10.421,0,0,0,1.062-1.965,27.363,27.363,0,0,0,1.476-5.173,6.89,6.89,0,0,1-3.634,4.619c-.329.17-2.7.416-3.021.554-1.015.474-2.5.087-3.452.242-.068-.08.009.093.276.752Z" transform="translate(1.911 -29.205)"/><path class="bb" d="M54.15,144.02l.287,1.062a10.973,10.973,0,0,0,.616,1.9,3.187,3.187,0,0,0,2.847.2.772.772,0,0,0,.106-.255q.162-.918.234-1.848c.053-.52.1-1.062.127-1.4A19.5,19.5,0,0,1,54.15,144.02Z" transform="translate(3.385 -22.142)"/><g transform="translate(57.535 121.538)"><path class="bc" d="M54.15,144.02l.287,1.062a10.251,10.251,0,0,0,3.8,0c.053-.52.1-1.062.127-1.4A19.5,19.5,0,0,1,54.15,144.02Z" transform="translate(-54.15 -143.68)"/></g><path class="bb" d="M38.68,144.029l.106,1.232.159,1.965.085.1c.924,1.062,3.452.244,3.452.244l.5-2.124.446-1.9C42.132,143.678,39.615,144.029,38.68,144.029Z" transform="translate(2.422 -22.15)"/><g transform="translate(41.102 121.358)"><path class="bc" d="M38.68,144.031l.106,1.232a16.07,16.07,0,0,0,4.2.149l.446-1.9C42.132,143.68,39.615,144.031,38.68,144.031Z" transform="translate(-38.68 -143.51)"/></g><g transform="translate(0 18.249)"><path class="bd" d="M2.21,50.583A9.284,9.284,0,0,0,4.76,53.334c3.261-.234,4.376-1.455,4.376-1.455a.712.712,0,0,0,.064-.159,5.991,5.991,0,0,0,0-3.728c-.807,1.317-1.54,2.8-4,1.731a19.215,19.215,0,0,1-2.8-1.625c.085.244.127.414.1.425a4.711,4.711,0,0,1-.659-.807C1.169,47.269.543,46.812,0,46.44-.233,47.29,2.21,50.583,2.21,50.583Z" transform="translate(0.015 -46.44)"/></g><path class="be" d="M48.8,151.656a27,27,0,0,0,5.778-.053,22.554,22.554,0,0,0,4.09-.69,24.6,24.6,0,0,0,.436-3.845,1.965,1.965,0,0,0-.765-.287.3.3,0,0,1-.106.255,3.006,3.006,0,0,1-1.275.244,3.516,3.516,0,0,1-1.572-.446c-.372.064-.754.138-1.179.234A8.5,8.5,0,0,0,48.8,151.656Z" transform="translate(3.052 -21.949)"/><g transform="translate(57.63 124.831)"><path class="bf" d="M56.619,147.279A24.961,24.961,0,0,1,54.24,151.6a22.551,22.551,0,0,0,4.09-.69,24.6,24.6,0,0,0,.436-3.845A1.964,1.964,0,0,0,58,146.78a.3.3,0,0,1-.106.255A3.006,3.006,0,0,1,56.619,147.279Z" transform="translate(-54.24 -146.78)"/></g><g transform="translate(55.984 131.629)"><path class="bg" d="M52.69,153.18Z" transform="translate(-52.69 -153.18)"/></g><path class="be" d="M32.38,151.773c1.009.34,3.495.17,5.725-.1s4.143-.605,4.143-.605l.627-3.718a7.432,7.432,0,0,1-1.731.3,2.124,2.124,0,0,1-1.721-.542,10.378,10.378,0,0,0-2.815.8C32.943,149.532,32.38,151.773,32.38,151.773Z" transform="translate(2.03 -21.928)"/><g transform="translate(40.136 125.426)"><path class="bf" d="M37.77,151.663c2.2-.255,4.143-.605,4.143-.605l.627-3.718a7.435,7.435,0,0,1-1.731.3C39.916,148.944,38.747,150.442,37.77,151.663Z" transform="translate(-37.77 -147.34)"/></g></g></g><g transform="translate(37.634 61.1)"><g transform="translate(0 1.301)"><path class="q" d="M1685.34,2728.51v1.327c0,.429,2.68.777,5.986.777s5.985-.348,5.985-.777v-1.327Z" transform="translate(-1683.673 -2724.33)"/><ellipse class="r" cx="5.986" cy="0.777" rx="5.986" ry="0.777" transform="translate(1.667 3.403)"/><path class="s" d="M1691.109,2725.021c-2.928,0-5.989-.279-5.989-.819,0-.029.01-.081.04-.081s.017.04.017.07c0,.342,2.436.723,5.932.723s5.932-.381,5.932-.723c0-.03,0-.057.035-.057s.023.039.023.069C1697.1,2724.741,1694.037,2725.021,1691.109,2725.021Z" transform="translate(-1683.456 -2720.011)"/><path class="t" d="M1826.9,2710.461q.088-.061.188-.12a1.2,1.2,0,0,1,.257-.107,2.523,2.523,0,0,1,.394-.079,5.09,5.09,0,0,1,.591-.031q.347,0,.651.021a4.6,4.6,0,0,1,.536.071,1.672,1.672,0,0,1,.376.117.293.293,0,0,1,.172.16l.674.006a.714.714,0,0,1,.129.012c.038.008.056.018.056.029v.056l-.866-.008a.439.439,0,0,1-.232.186,2.388,2.388,0,0,1-.475.147l-.316-.044a.311.311,0,0,1-.069-.016c-.018-.006-.027-.014-.027-.021s.024-.023.073-.037.1-.03.165-.051a1.819,1.819,0,0,0,.181-.071.246.246,0,0,0,.118-.1l-2.045-.021a1.8,1.8,0,0,1-.181.116,1.154,1.154,0,0,1-.265.1,2.735,2.735,0,0,1-.412.074,5.847,5.847,0,0,1-.62.031c-.187,0-.37-.007-.548-.021a3.81,3.81,0,0,1-.476-.068,1.478,1.478,0,0,1-.342-.112c-.089-.044-.138-.1-.149-.153l-.555-.006a.787.787,0,0,1-.131-.011c-.038-.008-.058-.018-.058-.03v-.056l.759.007a.414.414,0,0,1,.208-.152,2.386,2.386,0,0,1,.384-.116l.254.035c.077.01.115.023.115.038s-.016.018-.048.029l-.114.042a1.047,1.047,0,0,0-.126.057.269.269,0,0,0-.093.074Zm-1.872.076a.207.207,0,0,0,.1.094.784.784,0,0,0,.192.065,1.941,1.941,0,0,0,.26.037c.1.008.2.012.3.012s.215-.005.322-.016a2.117,2.117,0,0,0,.24-.041,1.123,1.123,0,0,0,.181-.06,1.058,1.058,0,0,0,.138-.074Zm4.452-.05a.21.21,0,0,0-.11-.1,1,1,0,0,0-.222-.07,2.507,2.507,0,0,0-.314-.042q-.178-.014-.395-.013a3.123,3.123,0,0,0-.331.017,1.731,1.731,0,0,0-.24.044.871.871,0,0,0-.173.064,1.34,1.34,0,0,0-.132.078Z" transform="translate(-1819.818 -2706.239)"/><path class="u" d="M1697.112,2685.239c-2.669,0-5.448.235-5.892.69a.668.668,0,0,1,.048.051c.375-.315,2.669-.633,5.843-.633,3.256,0,5.587.334,5.87.657a.557.557,0,0,1,.045-.05C1702.659,2685.483,1699.829,2685.239,1697.112,2685.239Z" transform="translate(-1689.459 -2681.753)"/><path class="q" d="M1581.4,2641.4v1.327c0,.429,2.68.777,5.985.777s5.986-.348,5.986-.777V2641.4Z" transform="translate(-1581.397 -2638.615)"/><ellipse class="r" cx="5.986" cy="0.777" rx="5.986" ry="0.777" transform="translate(0.004 2.008)"/><path class="s" d="M1587.169,2637.911c-2.928,0-5.989-.28-5.989-.819,0-.03.01-.082.04-.082s.017.041.017.07c0,.342,2.436.723,5.932.723s5.932-.381,5.932-.723c0-.029,0-.057.035-.057s.022.04.022.069C1593.158,2637.632,1590.1,2637.911,1587.169,2637.911Z" transform="translate(-1581.18 -2634.296)"/><path class="v" d="M1593.172,2598.13c-2.669,0-5.448.235-5.892.689a.556.556,0,0,1,.048.051c.375-.315,2.669-.633,5.843-.633,3.256,0,5.587.334,5.87.658a.456.456,0,0,1,.045-.051C1598.719,2598.373,1595.888,2598.13,1593.172,2598.13Z" transform="translate(-1587.182 -2596.037)"/><path class="q" d="M1671.09,2554.549v1.328c0,.429,2.68.777,5.985.777s5.985-.348,5.985-.777v-1.328Z" transform="translate(-1669.65 -2553.155)"/><ellipse class="w" cx="5.986" cy="0.777" rx="5.986" ry="0.777" transform="translate(1.439 0.618)"/><path class="x" d="M1676.879,2551.051c-2.928,0-5.989-.279-5.989-.819,0-.03.01-.082.04-.082s.016.041.016.071c0,.341,2.436.723,5.932.723s5.932-.382,5.932-.723c0-.03.005-.058.035-.058s.022.04.022.069C1682.868,2550.772,1679.806,2551.051,1676.879,2551.051Z" transform="translate(-1669.454 -2548.826)"/><path class="t" d="M1812.675,2536.5c.059-.04.121-.081.188-.12a1.217,1.217,0,0,1,.257-.107,2.439,2.439,0,0,1,.395-.078,5.034,5.034,0,0,1,.591-.032c.231,0,.448.005.652.022a4.441,4.441,0,0,1,.536.071,1.685,1.685,0,0,1,.376.117.287.287,0,0,1,.172.159l.674.007a.659.659,0,0,1,.129.012c.037.008.056.018.056.029v.055l-.867-.009a.434.434,0,0,1-.232.187,2.393,2.393,0,0,1-.475.147l-.316-.043a.361.361,0,0,1-.07-.016c-.018-.006-.027-.014-.027-.021s.024-.023.073-.037.1-.03.165-.05a1.637,1.637,0,0,0,.181-.072.243.243,0,0,0,.119-.1l-2.045-.02a2.035,2.035,0,0,1-.181.117,1.2,1.2,0,0,1-.265.1,2.8,2.8,0,0,1-.412.074,5.91,5.91,0,0,1-.62.031c-.188,0-.37-.007-.549-.021a3.862,3.862,0,0,1-.476-.068,1.475,1.475,0,0,1-.341-.112c-.089-.044-.139-.1-.149-.153l-.555-.006a.655.655,0,0,1-.131-.011c-.038-.008-.058-.017-.058-.03v-.056l.759.008a.407.407,0,0,1,.208-.152,2.331,2.331,0,0,1,.384-.116l.254.035c.077.01.116.023.116.038s-.016.017-.048.029l-.114.041a1.206,1.206,0,0,0-.126.057.276.276,0,0,0-.093.074Zm-1.872.076a.2.2,0,0,0,.1.094.826.826,0,0,0,.192.066,2.029,2.029,0,0,0,.26.037c.1.008.2.012.3.011a3.137,3.137,0,0,0,.321-.015,1.9,1.9,0,0,0,.24-.041,1.055,1.055,0,0,0,.181-.06.907.907,0,0,0,.138-.074Zm4.452-.05a.21.21,0,0,0-.11-.1,1,1,0,0,0-.222-.07,2.379,2.379,0,0,0-.314-.042c-.119-.009-.251-.013-.395-.013a3.059,3.059,0,0,0-.331.017,1.738,1.738,0,0,0-.24.043.9.9,0,0,0-.172.064,1.275,1.275,0,0,0-.133.078Z" transform="translate(-1805.816 -2535.062)"/><path class="q" d="M1725.51,2467.44v1.328c0,.429,2.679.777,5.985.777s5.985-.348,5.985-.777v-1.328Z" transform="translate(-1723.2 -2467.44)"/></g><g transform="translate(2.304)"><path class="ai" d="M1636.212,2069.11c-2.669,0-5.448.235-5.892.689.017.016.033.033.048.051.375-.316,2.669-.633,5.843-.633,3.256,0,5.587.334,5.87.658a.479.479,0,0,1,.045-.051C1641.759,2069.354,1638.929,2069.11,1636.212,2069.11Z" transform="translate(-1630.222 -2069.11)"/><g transform="translate(0 0.072)"><path class="q" d="M1624.44,2112.38v1.327c0,.43,2.68.778,5.985.778s5.986-.348,5.986-.778v-1.327Z" transform="translate(-1624.437 -2111.641)"/><path class="r" d="M1636.411,2064.617c0,.419-2.68.758-5.986.758s-5.985-.339-5.985-.758,2.68-.757,5.985-.757S1636.411,2064.2,1636.411,2064.617Z" transform="translate(-1624.437 -2063.86)"/><path class="s" d="M1630.209,2108.89c-2.927,0-5.989-.28-5.989-.819,0-.029.01-.081.04-.081s.016.04.016.07c0,.342,2.436.723,5.932.723s5.932-.381,5.932-.723c0-.03.005-.057.035-.057s.022.039.022.069C1636.2,2108.611,1633.136,2108.89,1630.209,2108.89Z" transform="translate(-1624.22 -2107.322)"/><path class="t" d="M1766.005,2094.33c.059-.041.121-.08.188-.12a1.179,1.179,0,0,1,.257-.107,2.47,2.47,0,0,1,.395-.078,5.085,5.085,0,0,1,.591-.032c.231,0,.448.006.652.022a4.411,4.411,0,0,1,.536.071,1.714,1.714,0,0,1,.376.117.289.289,0,0,1,.172.161l.674.006a.712.712,0,0,1,.129.012c.038.008.056.017.056.029v.056l-.867-.009a.43.43,0,0,1-.232.187,2.448,2.448,0,0,1-.475.147l-.316-.044a.315.315,0,0,1-.07-.016c-.018-.006-.027-.014-.027-.022s.024-.022.073-.036.1-.03.165-.051a1.694,1.694,0,0,0,.181-.071.252.252,0,0,0,.119-.1l-2.045-.021a2.031,2.031,0,0,1-.18.117,1.177,1.177,0,0,1-.265.1,2.87,2.87,0,0,1-.412.075,5.85,5.85,0,0,1-.62.03c-.188,0-.37-.006-.549-.021a3.643,3.643,0,0,1-.476-.067,1.5,1.5,0,0,1-.341-.112c-.089-.044-.139-.1-.149-.154l-.555-.005a.786.786,0,0,1-.131-.011c-.038-.009-.058-.018-.058-.03v-.056l.758.008a.409.409,0,0,1,.208-.153,2.352,2.352,0,0,1,.384-.116l.254.035c.077.01.115.023.115.038s-.016.018-.048.029l-.114.042a.927.927,0,0,0-.126.057.264.264,0,0,0-.093.074Zm-1.872.076a.2.2,0,0,0,.1.094.81.81,0,0,0,.192.065,2.03,2.03,0,0,0,.26.038c.1.007.2.011.3.011a2.933,2.933,0,0,0,.321-.016,1.817,1.817,0,0,0,.24-.04,1.161,1.161,0,0,0,.181-.06,1.118,1.118,0,0,0,.138-.074Zm4.452-.049a.208.208,0,0,0-.11-.1,1,1,0,0,0-.222-.07,2.427,2.427,0,0,0-.314-.042c-.119-.009-.251-.014-.4-.013a3.129,3.129,0,0,0-.331.017,1.679,1.679,0,0,0-.24.044.838.838,0,0,0-.173.064,1.284,1.284,0,0,0-.132.078Z" transform="translate(-1760.582 -2093.549)"/></g></g></g><g transform="translate(40.007 65.03)"><path class="bh" d="M39.895,59.278h0a12.044,12.044,0,0,0,1.434.616,9.56,9.56,0,0,0,6.373,0c.276-.234,2.124.584,2.124.584a19.4,19.4,0,0,0,.329-4.791v-.266A11.483,11.483,0,0,0,49,54.912c-.467-.191-.637-1.965-1.54-1.721s-.181.977-.414,1.721-.138,1.816-3.357,2.231S40.15,56.3,38.8,56.537s1.147,1.232,1.519,1.381a5.471,5.471,0,0,0-1.753-.351C37.983,57.6,38.216,58.407,39.895,59.278Z" transform="translate(-38.278 -53.168)"/><g transform="translate(0.044 0)"><path class="bi" d="M39.9,59.278h0a8.944,8.944,0,0,0,7.722-2.369c1.243-1.211,1.561-1.253,2.517-1.222v-.266a11.483,11.483,0,0,0-1.158-.51c-.467-.191-.637-1.965-1.54-1.721s-.181.977-.414,1.721-.138,1.816-3.357,2.231-3.537-.839-4.886-.605,1.147,1.232,1.519,1.381a5.47,5.47,0,0,0-1.753-.351C37.983,57.6,38.217,58.407,39.9,59.278Z" transform="translate(-38.271 -53.168)"/></g></g><g transform="translate(12.76 7.41) rotate(-17)"><path class="bb" d="M2.007,9.791a5.948,5.948,0,0,1,.3-5.922,7.1,7.1,0,0,1,3.614-3C6.135.782,6.361.707,6.6.632s.489-.151.765-.213C13.839-1.1,16.612,1.874,17.4,3.593a10.979,10.979,0,0,1,.439,3.89c0,1.092,0,2.259.1,3.375a12.158,12.158,0,0,0,.238,1.706,9.084,9.084,0,0,1,.2,2.259s-.376,1.255-.753,2.221a2.873,2.873,0,0,1-1.255,1.38,22.159,22.159,0,0,0-5.182-1.481,5.533,5.533,0,0,0-3.538.3,1.405,1.405,0,0,0-.427.3c-.69-.414-1.142-2.008-1.656-3.438a10.991,10.991,0,0,0-.565-1.368,3.764,3.764,0,0,0-.226-.4c-.678-1.067-1.117-.652-1.167.64A2.02,2.02,0,0,1,2.27,14.823a2.032,2.032,0,0,0,0,.263C1.128,15.476.2,13.706.012,12.037S2.007,9.791,2.007,9.791Z" transform="matrix(-0.951, -0.309, 0.309, -0.951, 19.069, 46.988)"/><path class="bj" d="M0,3.361A10.415,10.415,0,0,0,4.371,9.634a8.244,8.244,0,0,0,.778.5c3.764,2.246,8.909-.125,10.628-2.2a3.037,3.037,0,0,0,.477-.753,5.257,5.257,0,0,0-.138-4.1h0s-.376,1.255-.753,2.221a2.873,2.873,0,0,1-1.255,1.38A22.912,22.912,0,0,0,8.926,5.205c-3.024-.489-3.965.59-3.965.59C4.02,5.255,3.531,2.533,2.74,1S1.4-.19,1.347,1.24A2.02,2.02,0,0,1,0,3.085,2.034,2.034,0,0,0,0,3.361Z" transform="matrix(-0.951, -0.309, 0.309, -0.951, 20.525, 35.132)"/><path class="bj" d="M3.391,0C3.729.289,3.2,1.932,1.734,2.271s-1.92-.188-1.669-.64S1.32,1.041,2.148.59A12.775,12.775,0,0,1,3.391,0Z" transform="matrix(-0.951, -0.309, 0.309, -0.951, 9.279, 29.739)"/><path class="bj" d="M4.856.68c.1-.59-1.255-.4-2.51-.59A7.667,7.667,0,0,0,0,.09,3.112,3.112,0,0,0,2.648,1.22C4.6,1.27,4.756,1.27,4.856.68Z" transform="matrix(-0.951, -0.309, 0.309, -0.951, 17.539, 30.38)"/><path class="bj" d="M7.235,2.628C7.436,2.34,8.49.884,8.967,1.16c0,0,.3.979.891.489S8.377-1.174,5.2.746c0,0-5.019,1.393-5.17,2.51s.238,1.581.64,1.481,0-.891,0-.891a4.931,4.931,0,0,1,2.949,0A3.764,3.764,0,0,1,5.353,2.591a2.924,2.924,0,0,1,1.882.038Z" transform="matrix(-0.951, -0.309, 0.309, -0.951, 14.584, 41.733)"/><path class="bk" d="M1.656,3.9C2.246,2.836,1.907.138,0,0,0,1.092,0,2.259.1,3.375.552,3.952,1.067,4.956,1.656,3.9Z" transform="matrix(-0.951, -0.309, 0.309, -0.951, 4.399, 34.354)"/><path class="ao" d="M0,2.447a6.889,6.889,0,0,0,.778.5,5.885,5.885,0,0,0,1.543.665A9.787,9.787,0,0,0,11.356.753,4.166,4.166,0,0,0,11.832,0c.941,1.92,6.123,13.137,7.692,15.3A10.665,10.665,0,0,1,12,21.707a8.783,8.783,0,0,1-2.51.2A10.816,10.816,0,0,1,2.5,18.332Z" transform="matrix(-0.951, -0.309, 0.309, -0.951, 18.568, 26.886)"/><path class="bl" d="M0,1.39A2.823,2.823,0,0,1,2.786.022,1.9,1.9,0,0,1,3.927.6c.188.213,0,1.418-1.255,1.719a2.761,2.761,0,0,1-.427.025A2.51,2.51,0,0,1,0,1.39Z" transform="matrix(-0.951, -0.309, 0.309, -0.951, 16.404, 33.304)"/><path class="bl" d="M0,1.348A2.585,2.585,0,0,1,1.594.169,2.51,2.51,0,0,1,3.024.056,2.008,2.008,0,0,1,3.689.42c.238.176,0,1.556-1.255,1.857a.791.791,0,0,1-.238,0A3.3,3.3,0,0,1,0,1.348Z" transform="matrix(-0.951, -0.309, 0.309, -0.951, 9.373, 32.612)"/><path class="bm" d="M0,1.255A1.255,1.255,0,0,1,1.255,0,2.008,2.008,0,0,1,1.92.364C2.158.54,1.92,1.92.665,2.221a.791.791,0,0,1-.238,0A1.255,1.255,0,0,1,0,1.255Z" transform="matrix(-0.951, -0.309, 0.309, -0.951, 7.72, 31.976)"/><path class="bm" d="M0,1.167A1.255,1.255,0,0,1,.816,0,1.9,1.9,0,0,1,1.957.577C2.146.79,1.957,2,.7,2.3A1.255,1.255,0,0,1,0,1.167Z" transform="matrix(-0.951, -0.309, 0.309, -0.951, 14.538, 32.675)"/><path class="bn" d="M0,2.037A.2.2,0,0,0,.218,2.2a.2.2,0,0,0,.176-.213h0a1.079,1.079,0,0,1,0-.188,1.443,1.443,0,0,1,.075-.213A.615.615,0,0,1,.594,1.4a1.016,1.016,0,0,1,.151-.176L.92,1.071A.7.7,0,0,1,1.134.933L1.359.8,1.585.707A1.594,1.594,0,0,1,1.811.632L2.05.569h1.2v.69a6.635,6.635,0,0,1-.138.966l-.138.966V4.647a1.223,1.223,0,0,0,.075.514,3.576,3.576,0,0,0,.138.489,3.048,3.048,0,0,0,.163.477c.075.151.125.314.213.464l.251.439.314.427.351.351a.213.213,0,0,0,.276,0,.226.226,0,0,0,0-.289h0l-.326-.364-.251-.364-.226-.414c-.075-.138-.113-.289-.176-.427a2.51,2.51,0,0,1-.138-.439,1.92,1.92,0,0,1-.1-.464,2.8,2.8,0,0,1,0-.452V4.133a1.039,1.039,0,0,1,.063-.439V3.229l.038-.878A6.6,6.6,0,0,1,3.806,1.4L3.932.406A.3.3,0,0,0,3.744.08h0A1.431,1.431,0,0,0,3.43,0H3.141a2.422,2.422,0,0,0-.3,0H2.25a1.255,1.255,0,0,0-.289.063L1.673.143A2.372,2.372,0,0,0,1.41.256L1.121.394.9.544A1.255,1.255,0,0,0,.669.707L.431.921l-.188.251A1.9,1.9,0,0,0,.1,1.448a1.367,1.367,0,0,0-.088.3A1.092,1.092,0,0,0,0,2.037Z" transform="matrix(-0.951, -0.309, 0.309, -0.951, 11.854, 38.43)"/><path class="bo" d="M.2,0A.151.151,0,0,1,.323.063a4.818,4.818,0,0,1,0,2.434.151.151,0,0,1-.289,0,4.806,4.806,0,0,0,0-2.233.163.163,0,0,1,0-.2Z" transform="matrix(-0.951, -0.309, 0.309, -0.951, 20.301, 35.919)"/><path class="bn" d="M.869.942A3.086,3.086,0,0,1,.116.866.148.148,0,1,1,.179.578a3.212,3.212,0,0,0,2.51-.54.151.151,0,0,1,.2,0,.151.151,0,0,1,0,.213A3.049,3.049,0,0,1,.869.942Z" transform="translate(8.448 41.072)"/><path class="bp" d="M0,.791s1.368,1.129,2.51.8A2.083,2.083,0,0,0,3.764,0S4.2,1.744,2.748,2.3,0,.791,0,.791Z" transform="matrix(-0.951, -0.309, 0.309, -0.951, 9.546, 32.081)"/><path class="bp" d="M4,0A2.008,2.008,0,0,1,2.748,1.669C1.631,2.008,0,.841,0,.841A2.986,2.986,0,0,0,2.748,2.309C4.592,2.133,4,0,4,0Z" transform="matrix(-0.951, -0.309, 0.309, -0.951, 16.612, 32.702)"/><g transform="matrix(-0.951, -0.309, 0.309, -0.951, 18.13, 31.85)"><path class="bq" d="M0,0A14.217,14.217,0,0,0,2.083,3.137a1.405,1.405,0,0,0-.427.3C.929,3.024.514,1.43,0,0Z" transform="translate(0 0)"/></g><g transform="matrix(-0.951, -0.309, 0.309, -0.951, 19.287, 46.395)"><path class="br" d="M2.032,9.16a5.948,5.948,0,0,1,.3-5.922,7.1,7.1,0,0,1,3.614-3C6.16.151,6.386.075,6.624,0c-1.744,1.794-3.2,4.868-3.1,6.65a18.081,18.081,0,0,0,1.255,5.019c-.678-1.067-1.117-.652-1.167.64A2.02,2.02,0,0,1,2.27,14.154a2.033,2.033,0,0,0,0,.263C1.128,14.806.2,13.037.011,11.368S2.032,9.16,2.032,9.16Z" transform="translate(0 0)"/></g><path class="bs" d="M0,4.2c.276-.464.665-1.117,1.1-1.794S1.813,1.015,2.265.438L2.623,0c.326.138.7,1.065.853,1.793.075.3.113.565.163.753a7.1,7.1,0,0,0-3.614,3C.025,5.18.025,4.729,0,4.2Z" transform="matrix(-0.951, -0.309, 0.309, -0.951, 16.379, 47.876)"/><g transform="matrix(-0.951, -0.309, 0.309, -0.951, 16.933, 46.171)"><path class="bt" d="M0,2.409C.276,1.945.665,1.292,1.1.615A14.153,14.153,0,0,1,3.476,0c.075.3.113.565.163.753a7.1,7.1,0,0,0-3.614,3C.025,3.388.025,2.936,0,2.409Z" transform="translate(0 0)"/></g><g transform="matrix(-0.951, -0.309, 0.309, -0.951, 19.325, 24.559)"><path class="bu" d="M0,0A6.889,6.889,0,0,0,.778.5a5.885,5.885,0,0,0,1.543.665C3.576,7.24,6.537,15.86,9.549,19.474A10.816,10.816,0,0,1,2.56,15.9Z" transform="translate(0 0)"/></g><g transform="matrix(-0.951, -0.309, 0.309, -0.951, 11.966, 9.283)"><path class="bv" d="M6.449.042C7.215.494,4.567,5.249,0,5.651A14.819,14.819,0,0,0,3.94,2.84C4.806,1.623,5.8-.309,6.449.042Z" transform="translate(0 0)"/></g></g></g></g></svg>