<svg xmlns="http://www.w3.org/2000/svg" width="99.27" height="50" viewBox="0 0 99.27 50"><defs><style>.a{fill:#b9e7f3;}.b{fill:#77b7bf;}.c{fill:#e72318;}.d{fill:#72757c;}.e{fill:#ffe6da;}.f{fill:#ff6f4b;}.g{fill:#ff9c88;}.h{fill:#545453;}.i{fill:#474747;}.j{fill:#c2c2c3;}.k{fill:#b5b5b5;}.l{fill:#e0e0e0;}.m{fill:#a7a7a8;}.n{fill:#3f403b;}.o{fill:#8c9193;}.p{fill:#8c8c83;}.q{fill:#d91e18;}.r{fill:#a3a3a3;}.s{fill:#78797a;}</style></defs><path class="a" d="M99.27,29.11V20.83a3.58,3.58,0,0,0-3.59-3.58H78.46V32.69H95.68a3.58,3.58,0,0,0,3.59-3.58ZM89.36,25a3.4,3.4,0,1,1,3.4,3.4A3.4,3.4,0,0,1,89.36,25Z"/><path class="b" d="M99.27,27.94V19.67a3.59,3.59,0,0,0-3.59-3.59H78.46V31.53H95.68a3.59,3.59,0,0,0,3.59-3.59Zm-9.91-4.13a3.4,3.4,0,1,1,3.4,3.39,3.4,3.4,0,0,1-3.4-3.39Z"/><rect class="a" width="46.92" height="63.16" rx="20.85" transform="translate(85.11 0) rotate(90)"/><rect class="b" width="43.64" height="63.16" rx="19.4" transform="translate(85.11 0.91) rotate(90)"/><path class="c" d="M77.46,17.81a37.568,37.568,0,0,1-.12,3.81,7.38,7.38,0,0,0,.94,3.52h0a1.5,1.5,0,0,1,.29-.06,4.12,4.12,0,0,1,3.21,1.29c2,1.89,2.41,5.59.29,7.55,2.84.21,3.8-3.38,3.88-5.58a17.24,17.24,0,0,0-.81-5.57c-1-3.45-3-7.23-6.17-9.17a6.72,6.72,0,0,0-2.1-.85,6.22,6.22,0,0,0-1.05-.1,19.67,19.67,0,0,1,1.64,5.16Z"/><path class="d" d="M80,34.81a5.9,5.9,0,0,1-3.4-2.45A7.67,7.67,0,0,1,76.34,27,3.62,3.62,0,0,1,77,25.92a2.63,2.63,0,0,1,1.25-.77h0a7.38,7.38,0,0,1-.94-3.52,37.571,37.571,0,0,0,.12-3.81c-.22-1.52-.72-4.89-2.33-5.57a3,3,0,0,0-2,.08,9.9,9.9,0,0,0-2.61,1.29,16.41,16.41,0,0,0-2.41,6.62c-.28,4.63.47,8.5,2.93,11.8a10.24,10.24,0,0,0,4.87,3.66C77.11,36.09,79.87,36.76,80,34.81Z"/><path class="e" d="M81,34.56a5.9,5.9,0,0,1-3.4-2.45,7.67,7.67,0,0,1-.28-5.36A3.62,3.62,0,0,1,78,25.67a2.54,2.54,0,0,1,1.51-.82L76.2,12.44a6.77,6.77,0,0,0-3.85,2c-.16.16-.32.31-.46.48-2.7,2.95-2.29,7.06-1.48,10.84.91,4.26,1.66,6.68,6,9.41C77.61,35.93,80.81,36.51,81,34.56Z"/><path class="f" d="M76.54,35.09a18,18,0,0,1-2.17-1.6L73.86,33a9.38,9.38,0,0,1-1.38-1.72,10.171,10.171,0,0,1-.55-1,21.51,21.51,0,0,1-1.35-4.56c-.18-.85-.34-1.71-.45-2.57,0-.41-.09-.81-.12-1.21h0a9.13,9.13,0,0,1,2-7.07c.15-.16.3-.32.46-.47A6,6,0,0,1,78,12.47a6.32,6.32,0,0,1,2.1.85A11.28,11.28,0,0,1,83,16h0c.23.29.44.59.65.89a19.24,19.24,0,0,1,1.75,3.29l.23.56h0c.23.59.43,1.18.61,1.76a17.72,17.72,0,0,1,.81,5.11c0,.15,0,.31,0,.46v.46c-.19,2.21-1.21,5.32-3.86,5.13,2.13-2,1.68-5.67-.28-7.55a4.12,4.12,0,0,0-3.22-1.29,2.53,2.53,0,0,0-1.53.82,3.55,3.55,0,0,0-.69,1.08,7.67,7.67,0,0,0,.27,5.36,5.92,5.92,0,0,0,3.41,2.45C81,36.47,77.79,35.89,76.54,35.09Z"/><path class="g" d="M70.13,23.12c0-.41-.09-.81-.12-1.21h0a8.81,8.81,0,0,1,2-3.66,10.66,10.66,0,0,1,5.8-3.05,8.18,8.18,0,0,1,2.54-.2A6.79,6.79,0,0,1,83,16h0c.23.29.44.59.65.89a6.88,6.88,0,0,0-3.36-1.48,7.79,7.79,0,0,0-2.47.17,10.29,10.29,0,0,0-5.6,2.94,8.9,8.9,0,0,0-2.09,4.6Z"/><path class="g" d="M72.48,31.28a10.17,10.17,0,0,1-.55-1,10.85,10.85,0,0,1,0-2.79,9.74,9.74,0,0,1,6.79-8.1,9,9,0,0,1,5.51.25,8.52,8.52,0,0,1,1.23.55l.23.56a8.81,8.81,0,0,0-6.87-1,9.36,9.36,0,0,0-6.53,7.79,11.43,11.43,0,0,0,.19,3.74Z"/><path class="g" d="M74.37,33.49,73.86,33a.476.476,0,0,0-.07-.3A8.83,8.83,0,0,1,75.56,25a7,7,0,0,1,3.49-2.1,6.08,6.08,0,0,1,4,.28,7.32,7.32,0,0,1,2.63,2.12,9.56,9.56,0,0,1,1.38,2.29v.92a9.52,9.52,0,0,0-1.63-3,6.76,6.76,0,0,0-2.5-2,6.28,6.28,0,0,0-7.08,1.73,8.47,8.47,0,0,0-1.69,7.37A5.957,5.957,0,0,0,74.37,33.49Z"/><path class="e" d="M80,24.47c.09-.29-.53-.74-.79-1a1.61,1.61,0,0,1-.41-1.82,3.17,3.17,0,0,0-.42-2.35,11.64,11.64,0,0,1-1.37-4,4.17,4.17,0,0,1,1-2.82c-.9-.28-3.27-.68-4.07-.14A10.72,10.72,0,0,0,72,14.81c1.06-.21,3,1.09,3.68,1.87a4.92,4.92,0,0,1,1.16,3.19,3.81,3.81,0,0,0,.45,2,2.81,2.81,0,0,1,.35.77,2.52,2.52,0,0,1,0,.82,4.62,4.62,0,0,0,.21,2.15.5.5,0,0,0,.62-.19,2.66,2.66,0,0,1,.47-.53,1.76,1.76,0,0,1,.69-.18A.541.541,0,0,0,80,24.47Z"/><path class="g" d="M78.54,24.63a.66.66,0,0,1-.8-.47.64.64,0,0,1,.46-.8.66.66,0,0,1,.34,1.27Z"/><path class="g" d="M76.4,14a.74.74,0,1,1,.607-.519A.733.733,0,0,1,76.4,14Z"/><path class="g" d="M74.42,14.54a.519.519,0,1,0-.04,0Z"/><path class="h" d="M58.56,3.07l24.13-.49a4.46,4.46,0,0,1,3.81,2l.09.13a3.44,3.44,0,0,1,.41.93l-28.37.58Z"/><path class="i" d="M62.4,9.58l-3.7.08-.07-3.49L87,5.59c.65,2.41-1.88,4.52-4.58,1.8a2.861,2.861,0,0,1-.32-.48,16.65,16.65,0,0,1-14.37,1.3l-1.45-.33a3.53,3.53,0,0,0-3.88,1.7Z"/><path class="j" d="M14.78,7.83A.71.71,0,0,1,15,7.61c1-1,7.25-4.8,43.68-5l.06,3.11L38.8,12.46C28.19,12,16.92,10.73,14.78,7.83Z"/><path class="k" d="M58.7,5.75l.11,5.13v1.87s-9.71.2-20.05-.29Z"/><path class="l" d="M58.81,10.88l-.17-8.24c-36.43.17-42.68,4-43.68,5C24,10.94,50.54,11,58.81,10.88Z"/><path class="m" d="M14.78,7.83A.71.71,0,0,1,15,7.61c1-1,7.25-4.79,43.67-5l-32.8,8.77C20.37,10.64,16,9.52,14.78,7.83Z"/><path class="l" d="M84,6.25a1.36,1.36,0,0,0,1.32-1.37A1.34,1.34,0,1,0,84,6.25Z"/><path class="l" d="M61.51,6.4a1.33,1.33,0,1,0-.959-.368,1.34,1.34,0,0,0,.959.368Z"/><path class="n" d="M14.25,32.55,0,26.92S7,35.3,6.14,50c7.7-11,9-10.6,9-10.6Z"/><path class="m" d="M44.41,33.33a5.17,5.17,0,0,0-1,.46,21,21,0,0,1-2,.94c-1,.46-2.05.84-3.08,1.22a87.469,87.469,0,0,1-13.75,3.52c4.62.25,9.45.37,14.48.31,8.34-.1,18.88-.84,26-1.71L60.9,29.63c-1.19.11-2.34.26-3.56.32C52.66,30.2,48.63,31.79,44.41,33.33Z"/><path class="o" d="M58.24,13.28,52,14a36.82,36.82,0,0,0-14,4.52l-12.39,7L14.25,32.55l-2,.57a2.63,2.63,0,0,0-1.6,3.35L11,37.83a.333.333,0,0,0,.07.25,2.55,2.55,0,0,0,3.31,1.7l.8-.35h9.4A87.47,87.47,0,0,0,38.3,36c1-.38,2.07-.76,3.08-1.22a21,21,0,0,0,2-.94,5.17,5.17,0,0,1,1-.46c4.22-1.54,8.25-3.13,12.9-3.38,1.22-.06,2.37-.21,3.56-.32L59.18,19.12Z"/><path class="n" d="M21.83,27.84,19.75,27a.89.89,0,0,1-.14-1.54l1.89-1A5.36,5.36,0,0,1,25.34,24l2,.5Z"/><path class="n" d="M23.97,39.44l.4,3.83,5.77-3.57Z"/><path class="n" d="M37.06,41.49c1.81-.54,5.64-4.22,5.64-4.22l-.27-1C41.63,36.81,37.48,37.1,37.06,41.49Z"/><path class="n" d="M35.93,19.67c-.37.22-3.42-1.73-3.42-1.73L39.44,13l5,2.62a55.391,55.391,0,0,0-8.51,4.05Z"/><path class="p" d="M58.24,13.28l.94,5.84c-22.39,4.06-42.57,15.59-48.12,19a1.357,1.357,0,0,0-.07-.25l-.38-1.36a2.63,2.63,0,0,1,1.6-3.35l2-.57L25.6,25.51l12.39-7A36.82,36.82,0,0,1,52,14Z"/><path class="q" d="M63.81,28.54a7,7,0,0,1,2.28-4c-1-3.4-2.57-7-4.53-9.21a5.05,5.05,0,0,0-1.35-1.12,2.48,2.48,0,0,0-.64-.23,38.21,38.21,0,0,1,1.6,5.46c.25,1.32.21,2.52.39,3.86a14,14,0,0,0,1,3.71h0s-.88,1.77-1.82,3.58l1.34,5.44c2.36.17,2.7,0,3.8.4h.13C64.8,34,63.36,31.42,63.81,28.54Z"/><path class="c" d="M67.51,31.25a33.63,33.63,0,0,0-1.16-5.78c-.08-.29-.17-.59-.26-.89a7,7,0,0,0-2.28,4c-.45,2.88,1,5.47,2.18,8C67.59,36.86,67.72,33.43,67.51,31.25Z"/><path class="p" d="M61.56,29.58a6.908,6.908,0,0,1,0-.81,3.39,3.39,0,0,1,.28-1,1,1,0,0,1,.65-.63h0a14,14,0,0,1-1-3.71c-.18-1.34-.14-2.54-.39-3.87-.31-1.58-1-5.08-2.06-6a1.12,1.12,0,0,0-1.18-.15,3.45,3.45,0,0,0-1.4,1,20.82,20.82,0,0,0-.64,6.46,37.32,37.32,0,0,0,1.77,9.07,18.69,18.69,0,0,1,3.97-.36Z"/><path class="m" d="M62.42,34.28a16.2,16.2,0,0,1-.86-4.7,18.69,18.69,0,0,0-3.9.36,25.559,25.559,0,0,0,1.41,3.33,12.17,12.17,0,0,0,3.35,4.32c.75.55,2.48,1.57,2.33-.41a6.76,6.76,0,0,1-2.33-2.9Z"/><path class="e" d="M65.28,37A6.76,6.76,0,0,1,63,34.14a14.23,14.23,0,0,1-.81-5.51,3.39,3.39,0,0,1,.28-1,1,1,0,0,1,.81-.66l-3.46-13c-.74,0-1.44.46-2.06,1.55a4.129,4.129,0,0,0-.22.42c-1.25,2.69-.51,6.94.43,10.89,1,4.45,1.8,7,4.69,10.32C63.45,38,65.43,39,65.28,37Z"/><path class="f" d="M62.71,37.06a19.251,19.251,0,0,1-1.49-1.91c-.13-.18-.25-.37-.37-.55a14.919,14.919,0,0,1-1-1.93c-.17-.36-.32-.73-.46-1.11A40.851,40.851,0,0,1,58,26.74c-.21-.89-.41-1.79-.58-2.68-.08-.42-.16-.83-.22-1.24h0c-.42-2.66-.47-5.17.37-7,.07-.14.14-.28.22-.42.89-1.56,1.94-1.85,3-1.28a4.94,4.94,0,0,1,1.36,1.12,15,15,0,0,1,2.07,3.08h0c.16.32.33.64.49,1a37.509,37.509,0,0,1,1.45,3.57c.06.2.13.4.2.6h0c.21.63.4,1.26.57,1.87a34.12,34.12,0,0,1,1.11,5.31v.94c.15,2.22-.08,5.28-1.68,4.76,1-1.74.31-5.58-1.09-7.74-.62-1-1.42-1.73-2.07-1.7a1,1,0,0,0-.82.65,3.47,3.47,0,0,0-.28,1,14.23,14.23,0,0,0,.81,5.51A6.86,6.86,0,0,0,65.38,37C65.53,39,63.55,38,62.71,37.06Z"/><path class="g" d="M57.44,24.06c-.08-.42-.16-.83-.22-1.24h0a9.4,9.4,0,0,1,.72-3.5A4,4,0,0,1,61,16.9a2.93,2.93,0,0,1,1.52.14,4.75,4.75,0,0,1,1.7,1.3h0c.16.32.33.64.49,1a5.58,5.58,0,0,0-2.18-1.91,2.7,2.7,0,0,0-1.46-.13,3.82,3.82,0,0,0-3,2.32,10.45,10.45,0,0,0-.63,4.44Z"/><path class="g" d="M59.83,32.67c-.17-.36-.32-.73-.46-1.11A20.15,20.15,0,0,1,59,28.7c-.19-3.78,1.07-6.85,3.07-7.44a3.76,3.76,0,0,1,3.32.92,10.29,10.29,0,0,1,.81.71c.06.2.13.4.2.6-1.36-1.5-2.93-2.25-4.22-1.86-1.93.57-3.14,3.52-3,7.16a20.28,20.28,0,0,0,.65,3.88Z"/><path class="g" d="M61.22,35.15c-.13-.18-.25-.37-.37-.55s-.05-.21-.08-.32c-.71-2.94-.66-5.87.13-7.64a2.87,2.87,0,0,1,1.83-1.73,2.7,2.7,0,0,1,2.43.78A9.32,9.32,0,0,1,67,28.17a17.66,17.66,0,0,1,1.1,2.5c0,.16,0,.32,0,.47v.47a17.63,17.63,0,0,0-1.34-3.24A8.74,8.74,0,0,0,65.11,26c-1.49-1.33-3.18-1-4,.91-.76,1.69-.81,4.5-.12,7.33A8.646,8.646,0,0,0,61.22,35.15Z"/><path class="e" d="M63.48,26.63c0-.29-.41-.82-.59-1.09a3,3,0,0,1-.47-1.91,6,6,0,0,0-.53-2.45,22.82,22.82,0,0,1-1.31-4.27,5.45,5.45,0,0,1,.24-2.76c-.57-.4-2-1.09-2.45-.64a8.62,8.62,0,0,0-.85,2.29c.6-.08,1.93,1.48,2.42,2.36A9.16,9.16,0,0,1,61,21.54a7.67,7.67,0,0,0,.52,2.11,4.83,4.83,0,0,1,.3.83,4.84,4.84,0,0,1,.07.84,9.14,9.14,0,0,0,.38,2.22c.14.15.28,0,.35-.12s.11-.38.22-.49.25-.09.39-.1A.243.243,0,0,0,63.48,26.63Z"/><path class="g" d="M62.63,26.62c-.19.05-.43-.21-.53-.57s0-.71.18-.77.44.21.54.58S62.83,26.56,62.63,26.62Z"/><path class="g" d="M60.08,15.53c-.22.05-.49-.23-.6-.65s0-.8.2-.86.49.23.6.65S60.3,15.47,60.08,15.53Z"/><path class="g" d="M59,15.82c-.22.06-.49-.23-.6-.64s0-.8.2-.86.49.23.61.64S59.18,15.76,59,15.82Z"/><path class="r" d="M27.36,33.74c.14.66-.11,1.29-.57,1.39s-.94-.37-1.08-1,.11-1.29.56-1.39S27.21,33.07,27.36,33.74Z"/><path class="r" d="M33.45,30.38c.14.67-.11,1.29-.56,1.39s-.94-.36-1.09-1,.11-1.29.56-1.39S33.3,29.71,33.45,30.38Z"/><path class="r" d="M45.23,30.55c.15.67-.1,1.29-.56,1.39s-.94-.37-1.08-1,.1-1.3.56-1.39S45.09,29.88,45.23,30.55Z"/><path class="r" d="M52.05,25.84c.14.67-.11,1.29-.56,1.39s-1-.36-1.09-1,.11-1.3.56-1.39S51.9,25.17,52.05,25.84Z"/><path class="r" d="M27.36,28c.14.67-.11,1.29-.57,1.39s-.94-.37-1.08-1,.11-1.29.56-1.39S27.21,27.37,27.36,28Z"/><path class="s" d="M45.23,19.51c.15.67-.1,1.29-.56,1.39s-.94-.36-1.08-1,.1-1.29.56-1.39S45.09,18.84,45.23,19.51Z"/><path class="s" d="M37.89,23.12c.14.67-.11,1.29-.56,1.39s-.95-.36-1.09-1,.11-1.29.56-1.39S37.74,22.45,37.89,23.12Z"/><path class="s" d="M52.05,16.68c.14.67-.11,1.29-.56,1.39s-1-.36-1.09-1,.11-1.29.56-1.39S51.9,16,52.05,16.68Z"/></svg>