<svg xmlns="http://www.w3.org/2000/svg" xmlns:xlink="http://www.w3.org/1999/xlink" width="587" height="216" viewBox="0 0 587 216"><defs><style>.a,.f,.h{fill:none;}.b{clip-path:url(#a);}.c{fill:#a7a8bc;font-size:12px;font-family:Montserrat-Light, Montserrat;font-weight:300;}.d{clip-path:url(#b);}.e{clip-path:url(#c);}.f{stroke:#e2e2e2;stroke-dasharray:4;}.g{fill:#f9f4e4;}.h{stroke:#ffa451;stroke-linecap:round;stroke-linejoin:round;stroke-width:3px;}.i{fill:#7edabf;stroke:#fff;stroke-width:2px;}.j{fill:#fff;}.k{fill:#2f3443;font-size:14px;font-family:Poppins-SemiBold, Poppins;font-weight:600;}.l{filter:url(#f);}.m{filter:url(#d);}</style><clipPath id="a"><rect class="a" width="23" height="193"/></clipPath><clipPath id="b"><rect class="a" width="497" height="19"/></clipPath><clipPath id="c"><rect class="a" width="558.167" height="181"/></clipPath><filter id="d" x="22.266" y="12.403" width="526.33" height="154.091" filterUnits="userSpaceOnUse"><feOffset dy="5" input="SourceAlpha"/><feGaussianBlur stdDeviation="3.5" result="e"/><feFlood flood-color="#58968b" flood-opacity="0.278"/><feComposite operator="in" in2="e"/><feComposite in="SourceGraphic"/></filter><filter id="f" x="87" y="16" width="102" height="59" filterUnits="userSpaceOnUse"><feOffset dy="3" input="SourceAlpha"/><feGaussianBlur stdDeviation="3" result="g"/><feFlood flood-color="#788891" flood-opacity="0.322"/><feComposite operator="in" in2="g"/><feComposite in="SourceGraphic"/></filter></defs><g transform="translate(-14.667 -254)"><g class="b" transform="translate(14.667 254)"><g transform="translate(-15 -236)"><text class="c" transform="translate(15 248)"><tspan x="0" y="0">5k</tspan></text></g><g transform="translate(-15 -201)"><text class="c" transform="translate(15 248)"><tspan x="0" y="0">4k</tspan></text></g><g transform="translate(-15 -166)"><text class="c" transform="translate(15 248)"><tspan x="0" y="0">3k</tspan></text></g><g transform="translate(-15 -131)"><text class="c" transform="translate(15 248)"><tspan x="0" y="0">2k</tspan></text></g><g transform="translate(-15 -96)"><text class="c" transform="translate(15 248)"><tspan x="0" y="0">1k</tspan></text></g><g transform="translate(-15 -61)"><text class="c" transform="translate(15 248)"><tspan x="0" y="0">0</tspan></text></g></g><g class="d" transform="translate(104.667 451)"><g transform="translate(-15 -236)"><text class="c" transform="translate(15 248)"><tspan x="0" y="0">1W</tspan></text></g><g transform="translate(79 -236)"><text class="c" transform="translate(15 248)"><tspan x="0" y="0">2W</tspan></text></g><g transform="translate(173 -236)"><text class="c" transform="translate(15 248)"><tspan x="0" y="0">3W</tspan></text></g><g transform="translate(267 -236)"><text class="c" transform="translate(15 248)"><tspan x="0" y="0">4W</tspan></text></g><g transform="translate(361 -236)"><text class="c" transform="translate(15 248)"><tspan x="0" y="0">5W</tspan></text></g><g transform="translate(455 -236)"><text class="c" transform="translate(15 248)"><tspan x="0" y="0">6W</tspan></text></g></g><g class="e" transform="translate(43.5 262)"><g transform="translate(-43.5 -244)"><line class="f" x2="317" transform="translate(43.5 244.5)"/></g><g transform="translate(273.5 -244)"><line class="f" x2="317" transform="translate(43.5 244.5)"/></g><g transform="translate(-43.5 -209)"><line class="f" x2="317" transform="translate(43.5 244.5)"/></g><g transform="translate(273.5 -209)"><line class="f" x2="317" transform="translate(43.5 244.5)"/></g><g transform="translate(-43.5 -174)"><line class="f" x2="317" transform="translate(43.5 244.5)"/></g><g transform="translate(273.5 -174)"><line class="f" x2="317" transform="translate(43.5 244.5)"/></g><g transform="translate(-43.5 -139)"><line class="f" x2="317" transform="translate(43.5 244.5)"/></g><g transform="translate(273.5 -139)"><line class="f" x2="317" transform="translate(43.5 244.5)"/></g><g transform="translate(-43.5 -104)"><line class="f" x2="317" transform="translate(43.5 244.5)"/></g><g transform="translate(273.5 -104)"><line class="f" x2="317" transform="translate(43.5 244.5)"/></g><g transform="translate(-43.5 -69)"><line class="f" x2="317" transform="translate(43.5 244.5)"/></g><g transform="translate(273.5 -69)"><line class="f" x2="317" transform="translate(43.5 244.5)"/></g></g><rect class="g" width="33" height="177" transform="translate(102.667 262)"/><line class="f" y1="173" transform="translate(118.99 264.5)"/><g class="m" transform="matrix(1, 0, 0, 1, 14.67, 254)"><path class="h" d="M1278,284.814s45.358-96.84,93.343-77.944,124.9-25.056,162.9-30.056c33-5,87,37,135,47,32,13,99-53,110-68" transform="translate(-1243.24 -135.81)"/></g><circle class="i" cx="4" cy="4" r="4" transform="translate(115.584 320.202)"/><g transform="translate(110.252 276)"><g class="l" transform="matrix(1, 0, 0, 1, -95.59, -22)"><rect class="j" width="84" height="41" rx="17" transform="translate(96 22)"/></g><text class="k" transform="translate(19.415 26)"><tspan x="0" y="0">₹2,895</tspan></text></g></g></svg>