<svg xmlns="http://www.w3.org/2000/svg" xmlns:xlink="http://www.w3.org/1999/xlink" width="166" height="168.056" viewBox="0 0 166 168.056"><defs><style>.a{fill:#26264f;}.b{fill:url(#a);}.c{fill:url(#b);}.d{opacity:0.3;fill:url(#c);}.e{fill:#de8bdf;}.f{fill:url(#d);}.g{fill:url(#e);}.h{fill:#d8dee8;}.i,.k{fill:#f4f7fa;}.j{fill:url(#h);}.k,.l{opacity:0.63;}.m{fill:url(#i);}.n{fill:url(#j);}.o{fill:url(#k);}.p{fill:#fcb048;}.q{fill:url(#l);}.r{fill:url(#p);}.s{fill:url(#r);}.t{fill:url(#s);}.u{fill:url(#t);}.v{fill:url(#w);}.w{fill:url(#x);}.x{fill:url(#z);}.y{fill:url(#aa);}.z{fill:url(#ab);}.aa{fill:url(#ad);}.ab{fill:url(#af);}.ac{fill:url(#ah);}.ad{fill:url(#aj);}.ae{fill:url(#an);}.af{fill:url(#ao);}.ag{fill:url(#ap);}.ah{fill:url(#aq);}.ai{fill:url(#ar);}.aj{fill:#d688e1;font-size:22px;font-family:Poppins-SemiBold, Poppins;font-weight:600;}</style><linearGradient id="a" x1="0.12" y1="0.5" x2="1.621" y2="0.466" gradientUnits="objectBoundingBox"><stop offset="0" stop-color="#444b8c"/><stop offset="1" stop-color="#26264f"/></linearGradient><linearGradient id="b" x1="0.675" y1="0.261" x2="-0.866" y2="2.189" gradientUnits="objectBoundingBox"><stop offset="0" stop-color="#fca896"/><stop offset="1" stop-color="#bee8ff"/></linearGradient><linearGradient id="c" x1="0.793" y1="0.123" x2="-0.826" y2="2.208" gradientUnits="objectBoundingBox"><stop offset="0" stop-color="#e38ddd"/><stop offset="1" stop-color="#9571f6"/></linearGradient><linearGradient id="d" y1="0.5" x2="1" y2="0.5" gradientUnits="objectBoundingBox"><stop offset="0" stop-color="#ff9085"/><stop offset="1" stop-color="#fb6fbb"/></linearGradient><linearGradient id="e" x1="0" y1="0.5" x2="1" y2="0.5" xlink:href="#d"/><linearGradient id="h" x1="0" y1="0.5" x2="1" y2="0.5" xlink:href="#d"/><linearGradient id="i" x1="-0.085" y1="0.5" x2="1.065" y2="0.5" gradientUnits="objectBoundingBox"><stop offset="0" stop-color="#f57e53"/><stop offset="0" stop-color="#f68252"/><stop offset="0.04" stop-color="#f99a4d"/><stop offset="0.08" stop-color="#fcad49"/><stop offset="0.13" stop-color="#feba46"/><stop offset="0.2" stop-color="#ffc244"/><stop offset="0.32" stop-color="#ffc444"/><stop offset="0.45" stop-color="#fdb946"/><stop offset="0.69" stop-color="#f99c4c"/><stop offset="1" stop-color="#f36f56"/></linearGradient><linearGradient id="j" x1="0.495" y1="0.179" x2="0.556" y2="4.091" gradientUnits="objectBoundingBox"><stop offset="0" stop-color="#ffdb44"/><stop offset="1" stop-color="#feef06"/></linearGradient><linearGradient id="k" x1="0.492" y1="-0.777" x2="0.511" y2="1.295" xlink:href="#j"/><linearGradient id="l" x1="-4.034" y1="-45.535" x2="-4.015" y2="-43.104" gradientUnits="objectBoundingBox"><stop offset="0" stop-color="#f36f56"/><stop offset="0.31" stop-color="#f99c4c"/><stop offset="0.55" stop-color="#fdb946"/><stop offset="0.68" stop-color="#ffc444"/><stop offset="0.8" stop-color="#ffc244"/><stop offset="0.87" stop-color="#feba46"/><stop offset="0.92" stop-color="#fcad49"/><stop offset="0.96" stop-color="#f99a4d"/><stop offset="1" stop-color="#f68252"/><stop offset="1" stop-color="#f57e53"/></linearGradient><linearGradient id="p" x1="-3.752" y1="-41.889" x2="-3.733" y2="-39.458" xlink:href="#l"/><linearGradient id="r" x1="0.495" y1="0.179" x2="0.556" y2="4.091" xlink:href="#j"/><linearGradient id="s" x1="0.492" y1="-0.777" x2="0.511" y2="1.295" xlink:href="#j"/><linearGradient id="t" x1="-3.995" y1="-38.263" x2="-3.976" y2="-35.831" xlink:href="#l"/><linearGradient id="w" x1="0.492" y1="-0.777" x2="0.511" y2="1.296" xlink:href="#j"/><linearGradient id="x" x1="-4.143" y1="-34.617" x2="-4.124" y2="-32.185" xlink:href="#l"/><linearGradient id="z" x1="0.495" y1="0.179" x2="0.556" y2="4.091" xlink:href="#j"/><linearGradient id="aa" x1="0.492" y1="-0.777" x2="0.511" y2="1.296" xlink:href="#j"/><linearGradient id="ab" x1="-4.034" y1="-30.682" x2="-4.015" y2="-28.251" xlink:href="#l"/><linearGradient id="ad" x1="0.495" y1="0.179" x2="0.556" y2="4.091" xlink:href="#j"/><linearGradient id="af" x1="-3.752" y1="-27.036" x2="-3.733" y2="-24.604" xlink:href="#l"/><linearGradient id="ah" x1="0.495" y1="0.178" x2="0.556" y2="4.092" xlink:href="#j"/><linearGradient id="aj" x1="-3.995" y1="-23.401" x2="-3.976" y2="-20.969" xlink:href="#l"/><linearGradient id="an" x1="-3.869" y1="-19.754" x2="-3.85" y2="-17.323" xlink:href="#l"/><linearGradient id="ao" x1="-0.412" y1="-2.224" x2="1.293" y2="-2.224" xlink:href="#i"/><linearGradient id="ap" x1="0.36" y1="-2.55" x2="0.463" y2="-1.93" xlink:href="#j"/><linearGradient id="aq" x1="0.359" y1="-2.573" x2="0.391" y2="-2.383" xlink:href="#j"/><linearGradient id="ar" x1="-10.148" y1="0.701" x2="-10.116" y2="0.894" xlink:href="#l"/></defs><g transform="translate(-115.836 -167.398)"><g transform="translate(115.836 167.398)"><g transform="translate(0 0)"><g transform="translate(0 0)"><path class="a" d="M228.955,67.382Q237.7,141.3,246.447,213.675a3.734,3.734,0,0,1-3.324,4.254q-35.149,3.334-70.3,6.815c-4.18.2-6.475-2.133-6.744-4.471q-9-78.131-18-157.891c-.269-2.388,1.754-4.439,5.934-4.237q35.322,2.519,70.643,4.97A4.933,4.933,0,0,1,228.955,67.382Z" transform="translate(-148.054 -58.132)"/><path class="b" d="M275.159,67.425q8.8,74.237,17.6,146.914a3.756,3.756,0,0,1-3.345,4.274q-36.5,3.091-73,6.3a4.328,4.328,0,0,1-4.532-3.911q-9.057-78.485-18.114-158.626a3.422,3.422,0,0,1,3.574-4.088q36.742,2.451,73.487,4.843A4.967,4.967,0,0,1,275.159,67.425Z" transform="translate(-191.003 -58.275)"/><path class="c" d="M329.1,220.865q8.151,68.781,16.3,136.221a3.5,3.5,0,0,1-3.126,3.986q-34.323,2.806-68.648,5.721a4.05,4.05,0,0,1-4.221-3.652q-8.376-72.493-16.751-146.4a3.217,3.217,0,0,1,3.326-3.833q34.537,2.011,69.075,3.98A4.6,4.6,0,0,1,329.1,220.865Z" transform="translate(-246.355 -203.618)"/><path class="d" d="M390.418,217.762q-34.129-1.945-68.258-3.932a52.166,52.166,0,0,0,4,12.931c7.547,16.375,18.634,17.274,22.973,31.543,4.469,14.7-5.609,19.3-.686,32.569,5.342,14.4,18.446,12.317,25.372,28.115,5.969,13.616-1.715,19.84,4.457,28.115,6.765,9.069,19.281,5.994,32.273,9.066Q402.5,289.6,394.459,221.735A4.592,4.592,0,0,0,390.418,217.762Z" transform="translate(-311.717 -204.491)"/><path class="e" d="M863.106,154.578a1.146,1.146,0,0,1-1.2,1.365,1.748,1.748,0,0,1-1.534-1.533,1.141,1.141,0,0,1,1.2-1.363A1.756,1.756,0,0,1,863.106,154.578Z" transform="translate(-817.637 -147.351)"/><ellipse class="f" cx="5.266" cy="6.213" rx="5.266" ry="6.213" transform="translate(48.422 39.114)"/><ellipse class="g" cx="5.266" cy="6.213" rx="5.266" ry="6.213" transform="translate(69.385 39.114)"/><ellipse class="h" cx="5.341" cy="6.213" rx="5.341" ry="6.213" transform="translate(58.77 39.114)"/><ellipse class="g" cx="5.266" cy="6.213" rx="5.266" ry="6.213" transform="translate(90.347 39.114)"/><ellipse class="h" cx="5.341" cy="6.213" rx="5.341" ry="6.213" transform="translate(79.732 39.114)"/><ellipse class="h" cx="5.341" cy="6.213" rx="5.341" ry="6.213" transform="translate(100.695 39.114)"/><ellipse class="h" cx="5.341" cy="6.213" rx="5.341" ry="6.213" transform="translate(37.808 39.114)"/><path class="f" d="M235.47,202.78l32.679,37.492h84.344l-40.87-32.743Z" transform="translate(-230.227 -194.104)"/><path class="i" d="M235.47,202.79l32.679,37.491h10.568l-34.456-36.943Z" transform="translate(-230.227 -194.113)"/><path class="i" d="M539.38,221.74l35.432,36.355h10.44l-36.364-35.762Z" transform="translate(-515.908 -211.927)"/><path class="i" d="M857.61,241.58l37.249,35.165h10.489l-38.087-34.563Z" transform="translate(-815.05 -230.577)"/><path class="i" d="M1190.449,262.331l-9.8-.611,38.877,33.957h10.541Z" transform="translate(-1118.714 -249.509)"/><path class="j" d="M2004.72,827.85c.348,3.032,2.546,5.371,5.212,5.371s4.863-2.339,5.212-5.371Z" transform="translate(-1893.356 -781.682)"/><path class="k" d="M756.148,1016.439c-4.558-10.513-16.135-15.618-25.847-11.4s-13.89,16.154-9.329,26.666,16.135,15.618,25.847,11.4S760.709,1026.952,756.148,1016.439Z" transform="translate(-684.872 -946.85)"/><g class="l" transform="translate(32.181 108.811)"><path class="i" d="M734.09,1890.105l-44.461,1.347a3.161,3.161,0,0,1-3.222-2.685l-1.8-11.853a3.163,3.163,0,0,1,3.053-3.637l44.509-1.031a3.163,3.163,0,0,1,3.2,2.686l1.754,11.537a3.162,3.162,0,0,1-3.033,3.635Z" transform="translate(-684.572 -1872.246)"/><path class="i" d="M787.139,2233.355l-44.434,1.519a3.161,3.161,0,0,1-3.232-2.686l-.017-.111a3.162,3.162,0,0,1,3.026-3.636l44.451-1.408a3.162,3.162,0,0,1,3.226,2.686h0a3.162,3.162,0,0,1-3.02,3.636Z" transform="translate(-736.13 -2205.752)"/></g><path class="m" d="M1685.34,2728.51v4.975c0,1.607,10.041,2.91,22.427,2.91s22.427-1.3,22.427-2.91v-4.975Z" transform="translate(-1593.133 -2568.339)"/><ellipse class="n" cx="22.427" cy="2.91" rx="22.427" ry="2.91" transform="translate(92.207 157.26)"/><path class="o" d="M1707.56,2727.495c-10.969,0-22.44-1.048-22.44-3.069,0-.111.039-.306.15-.306s.064.152.064.263c0,1.282,9.128,2.71,22.226,2.71s22.226-1.428,22.226-2.71c0-.111.019-.215.129-.215s.085.148.085.259C1730,2726.448,1718.529,2727.495,1707.56,2727.495Z" transform="translate(-1592.926 -2564.213)"/><path class="p" d="M1835.708,2711.389q.329-.229.705-.451a4.407,4.407,0,0,1,.963-.4,9.236,9.236,0,0,1,1.478-.293,18.741,18.741,0,0,1,2.214-.12q1.3-.006,2.441.083a16.329,16.329,0,0,1,2.008.266,6.192,6.192,0,0,1,1.409.437,1.091,1.091,0,0,1,.644.6l2.525.025a2.477,2.477,0,0,1,.484.045c.141.029.209.065.209.109v.208l-3.246-.032a1.639,1.639,0,0,1-.87.7,8.852,8.852,0,0,1-1.781.549l-1.182-.164a1.4,1.4,0,0,1-.261-.06c-.068-.024-.1-.052-.1-.081s.092-.085.275-.137.389-.115.619-.191a6.233,6.233,0,0,0,.677-.268.917.917,0,0,0,.445-.369l-7.663-.076a7.064,7.064,0,0,1-.677.437,4.377,4.377,0,0,1-.994.386,10.52,10.52,0,0,1-1.542.279,21.872,21.872,0,0,1-2.325.114c-.7,0-1.385-.024-2.055-.08a14.169,14.169,0,0,1-1.784-.255,5.522,5.522,0,0,1-1.28-.419c-.332-.167-.519-.36-.557-.574l-2.079-.021a2.67,2.67,0,0,1-.491-.043c-.144-.027-.217-.064-.217-.111v-.208l2.843.027a1.525,1.525,0,0,1,.78-.573,8.851,8.851,0,0,1,1.439-.434l.953.131c.289.041.433.088.433.143,0,.029-.06.066-.18.11s-.262.095-.427.156a3.937,3.937,0,0,0-.473.213,1.006,1.006,0,0,0-.346.277Zm-7.012.284a.766.766,0,0,0,.378.352,3,3,0,0,0,.72.244,7.338,7.338,0,0,0,.973.14q.544.045,1.135.042a11.814,11.814,0,0,0,1.2-.06,7.018,7.018,0,0,0,.9-.153,4.134,4.134,0,0,0,.678-.224,3.736,3.736,0,0,0,.518-.277Zm16.681-.187a.783.783,0,0,0-.413-.364,3.723,3.723,0,0,0-.831-.261,9.1,9.1,0,0,0-1.178-.158q-.669-.052-1.48-.048a11.676,11.676,0,0,0-1.24.063,6.529,6.529,0,0,0-.9.165,3.275,3.275,0,0,0-.647.239,4.651,4.651,0,0,0-.5.293Z" transform="translate(-1723.194 -2551.056)"/><path class="q" d="M1713.3,2685.24c-10,0-20.411.88-22.077,2.583a1.884,1.884,0,0,1,.18.192c1.4-1.183,10-2.374,21.893-2.374,12.2,0,20.933,1.252,21.992,2.464a2,2,0,0,1,.167-.19C1734.082,2686.153,1723.476,2685.24,1713.3,2685.24Z" transform="translate(-1598.66 -2527.665)"/><path class="m" d="M1581.4,2641.4v4.975c0,1.607,10.041,2.911,22.427,2.911s22.426-1.3,22.426-2.911V2641.4Z" transform="translate(-1495.427 -2486.454)"/><ellipse class="n" cx="22.427" cy="2.91" rx="22.427" ry="2.91" transform="translate(85.973 152.035)"/><path class="o" d="M1603.62,2640.384c-10.969,0-22.44-1.048-22.44-3.068,0-.112.04-.306.151-.306s.063.152.063.263c0,1.282,9.128,2.71,22.226,2.71s22.225-1.428,22.225-2.71c0-.111.019-.215.13-.215s.084.148.084.259C1626.059,2639.339,1614.589,2640.384,1603.62,2640.384Z" transform="translate(-1495.22 -2482.328)"/><path class="p" d="M1731.808,2624.278q.331-.228.705-.451a4.388,4.388,0,0,1,.964-.4,9.119,9.119,0,0,1,1.478-.292,18.639,18.639,0,0,1,2.214-.12q1.3-.007,2.441.083a16.533,16.533,0,0,1,2.007.266,6.247,6.247,0,0,1,1.41.437,1.092,1.092,0,0,1,.644.6l2.525.025a2.514,2.514,0,0,1,.484.045c.141.029.209.065.209.109v.208l-3.246-.031a1.638,1.638,0,0,1-.87.7,8.85,8.85,0,0,1-1.78.549l-1.182-.164a1.417,1.417,0,0,1-.262-.06c-.068-.025-.1-.052-.1-.081s.091-.086.274-.137.389-.115.619-.191a6.439,6.439,0,0,0,.677-.268.918.918,0,0,0,.444-.369l-7.662-.077a7.164,7.164,0,0,1-.677.437,4.458,4.458,0,0,1-.994.386,10.458,10.458,0,0,1-1.542.278,21.874,21.874,0,0,1-2.325.114c-.7,0-1.386-.023-2.056-.08a14.085,14.085,0,0,1-1.784-.254,5.521,5.521,0,0,1-1.28-.42c-.332-.166-.519-.36-.557-.574l-2.079-.021a2.763,2.763,0,0,1-.491-.043c-.143-.028-.217-.065-.217-.111v-.207l2.843.027a1.529,1.529,0,0,1,.777-.573,8.9,8.9,0,0,1,1.442-.434l.948.131c.289.041.433.088.433.143,0,.029-.06.066-.18.109l-.426.156a3.829,3.829,0,0,0-.473.214,1,1,0,0,0-.347.278Zm-7.012.283a.77.77,0,0,0,.378.353,3.023,3.023,0,0,0,.719.243,7.274,7.274,0,0,0,.973.141q.543.045,1.135.042a11.819,11.819,0,0,0,1.205-.06,7,7,0,0,0,.9-.152,4.239,4.239,0,0,0,.678-.224,3.757,3.757,0,0,0,.518-.276Zm16.682-.186a.783.783,0,0,0-.413-.363,3.677,3.677,0,0,0-.831-.262,9.107,9.107,0,0,0-1.177-.159q-.67-.051-1.48-.048a11.427,11.427,0,0,0-1.24.064,6.466,6.466,0,0,0-.9.164,3.21,3.21,0,0,0-.647.24,4.455,4.455,0,0,0-.5.292Z" transform="translate(-1625.526 -2469.17)"/><path class="r" d="M1609.357,2598.13c-10,0-20.411.88-22.077,2.583a1.94,1.94,0,0,1,.18.192c1.4-1.183,10-2.374,21.893-2.374,12.2,0,20.933,1.252,21.992,2.464a2.169,2.169,0,0,1,.168-.19C1630.141,2599.043,1619.533,2598.13,1609.357,2598.13Z" transform="translate(-1500.954 -2445.78)"/><path class="m" d="M1671.09,2554.55v4.974c0,1.607,10.041,2.91,22.426,2.91s22.427-1.3,22.427-2.91v-4.974Z" transform="translate(-1579.738 -2404.813)"/><ellipse class="s" cx="22.427" cy="2.91" rx="22.427" ry="2.91" transform="translate(91.352 146.826)"/><path class="t" d="M1693.329,2553.525c-10.969,0-22.439-1.048-22.439-3.069,0-.111.04-.307.151-.307s.06.153.06.264c0,1.281,9.128,2.709,22.226,2.709s22.226-1.428,22.226-2.709c0-.112.019-.216.13-.216s.084.148.084.259C1715.768,2552.48,1704.3,2553.525,1693.329,2553.525Z" transform="translate(-1579.549 -2400.678)"/><path class="p" d="M1821.477,2537.427c.221-.153.454-.3.705-.451a4.413,4.413,0,0,1,.963-.4,9.228,9.228,0,0,1,1.478-.292,18.645,18.645,0,0,1,2.215-.12q1.3-.007,2.441.083a16.524,16.524,0,0,1,2.007.266,6.391,6.391,0,0,1,1.409.438,1.09,1.09,0,0,1,.644.6l2.525.025a2.445,2.445,0,0,1,.485.045c.141.029.209.065.209.109v.208l-3.247-.031a1.624,1.624,0,0,1-.87.7,9.106,9.106,0,0,1-1.778.551l-1.183-.164a1.44,1.44,0,0,1-.261-.06c-.068-.025-.1-.053-.1-.082s.091-.085.274-.137.39-.115.619-.19a6.2,6.2,0,0,0,.678-.268.92.92,0,0,0,.445-.37l-7.663-.076a7.4,7.4,0,0,1-.677.437,4.424,4.424,0,0,1-.994.386,10.381,10.381,0,0,1-1.542.279,21.873,21.873,0,0,1-2.325.113c-.7,0-1.386-.023-2.056-.079a14.185,14.185,0,0,1-1.785-.254,5.6,5.6,0,0,1-1.279-.42c-.332-.167-.519-.36-.557-.574l-2.079-.021a2.67,2.67,0,0,1-.491-.043c-.144-.028-.217-.064-.217-.11v-.208l2.843.027a1.519,1.519,0,0,1,.78-.572,8.914,8.914,0,0,1,1.439-.434l.952.13c.289.041.432.088.433.143,0,.029-.06.066-.18.11l-.427.157a3.983,3.983,0,0,0-.474.213,1.012,1.012,0,0,0-.346.277Zm-7.012.285a.762.762,0,0,0,.377.352,3.027,3.027,0,0,0,.719.245,7.356,7.356,0,0,0,.973.14q.54.045,1.135.042a11.661,11.661,0,0,0,1.2-.06,7.1,7.1,0,0,0,.9-.152,4.248,4.248,0,0,0,.678-.225,3.774,3.774,0,0,0,.518-.276Zm16.681-.186a.794.794,0,0,0-.413-.364,3.752,3.752,0,0,0-.83-.262,8.934,8.934,0,0,0-1.177-.157q-.67-.053-1.48-.048a11.419,11.419,0,0,0-1.24.064,6.245,6.245,0,0,0-.9.164,3.238,3.238,0,0,0-.646.239,4.619,4.619,0,0,0-.5.292Z" transform="translate(-1709.818 -2387.529)"/><path class="u" d="M1699.017,2511.28c-10,0-20.411.88-22.077,2.583a2.045,2.045,0,0,1,.18.191c1.4-1.183,10-2.373,21.893-2.373,12.2,0,20.933,1.253,21.992,2.465a2.075,2.075,0,0,1,.168-.19C1719.8,2512.193,1709.2,2511.28,1699.017,2511.28Z" transform="translate(-1585.237 -2364.139)"/><path class="m" d="M1725.51,2467.44v4.974c0,1.607,10.041,2.911,22.427,2.911s22.427-1.3,22.427-2.911v-4.974Z" transform="translate(-1630.893 -2322.928)"/><path class="s" d="M1770.364,2421.83c0,1.607-10.041,2.91-22.427,2.91s-22.427-1.3-22.427-2.91,10.041-2.91,22.427-2.91S1770.364,2420.223,1770.364,2421.83Z" transform="translate(-1630.893 -2277.318)"/><path class="v" d="M1747.73,2466.415c-10.969,0-22.44-1.047-22.44-3.068,0-.111.04-.307.151-.307s.064.153.064.264c0,1.281,9.128,2.709,22.226,2.709s22.228-1.428,22.228-2.709c0-.111.019-.215.13-.215s.084.148.084.259C1770.17,2465.368,1758.7,2466.415,1747.73,2466.415Z" transform="translate(-1630.687 -2318.792)"/><path class="p" d="M1875.879,2450.317q.329-.229.7-.45a4.446,4.446,0,0,1,.963-.4,9.185,9.185,0,0,1,1.479-.292,18.638,18.638,0,0,1,2.214-.12q1.3-.007,2.441.083a16.36,16.36,0,0,1,2.008.266,6.427,6.427,0,0,1,1.409.437,1.081,1.081,0,0,1,.644.6l2.525.026a2.478,2.478,0,0,1,.484.044c.141.029.209.065.209.109v.208l-3.246-.031a1.637,1.637,0,0,1-.87.7,8.977,8.977,0,0,1-1.78.549l-1.182-.164a1.365,1.365,0,0,1-.261-.06c-.069-.025-.1-.052-.1-.082s.091-.085.274-.137.389-.114.619-.191a6.254,6.254,0,0,0,.677-.267.925.925,0,0,0,.445-.37l-7.662-.076a7.334,7.334,0,0,1-.677.437,4.405,4.405,0,0,1-.994.386,10.27,10.27,0,0,1-1.542.279,22,22,0,0,1-2.325.114c-.7,0-1.386-.023-2.055-.08a14.178,14.178,0,0,1-1.784-.254,5.574,5.574,0,0,1-1.28-.419q-.5-.25-.557-.574l-2.079-.022a2.674,2.674,0,0,1-.491-.043c-.143-.027-.216-.064-.217-.11v-.208l2.843.027a1.523,1.523,0,0,1,.78-.572,8.907,8.907,0,0,1,1.44-.435l.952.131c.29.041.433.088.433.143,0,.029-.06.065-.18.109l-.427.157a4,4,0,0,0-.473.213,1,1,0,0,0-.346.277Zm-7.013.284a.768.768,0,0,0,.378.352,3.029,3.029,0,0,0,.72.244,7.429,7.429,0,0,0,.973.14c.36.03.738.044,1.134.042a11.825,11.825,0,0,0,1.205-.06,7.006,7.006,0,0,0,.9-.152,4.2,4.2,0,0,0,.678-.225,3.7,3.7,0,0,0,.518-.276Zm16.681-.186a.781.781,0,0,0-.413-.364,3.757,3.757,0,0,0-.831-.262,9.462,9.462,0,0,0-1.177-.158q-.669-.051-1.48-.047a11.562,11.562,0,0,0-1.24.064,6.333,6.333,0,0,0-.9.165,3.3,3.3,0,0,0-.647.239,4.8,4.8,0,0,0-.5.292Z" transform="translate(-1760.954 -2305.644)"/><path class="w" d="M1753.467,2424.17c-10,0-20.412.88-22.077,2.583a1.933,1.933,0,0,1,.18.191c1.4-1.182,10-2.374,21.893-2.374,12.2,0,20.933,1.253,21.992,2.464a1.988,1.988,0,0,1,.167-.19C1774.253,2425.083,1763.644,2424.17,1753.467,2424.17Z" transform="translate(-1636.421 -2282.254)"/><path class="m" d="M1685.34,2373.46v4.974c0,1.607,10.041,2.911,22.427,2.911s22.427-1.3,22.427-2.911v-4.974Z" transform="translate(-1593.133 -2234.585)"/><path class="x" d="M1730.193,2327.84c0,1.607-10.041,2.911-22.427,2.911s-22.427-1.3-22.427-2.911,10.041-2.91,22.427-2.91S1730.193,2326.233,1730.193,2327.84Z" transform="translate(-1593.133 -2188.966)"/><path class="y" d="M1707.56,2372.435c-10.969,0-22.44-1.047-22.44-3.069,0-.11.039-.306.15-.306s.064.153.064.264c0,1.282,9.128,2.709,22.226,2.709s22.226-1.428,22.226-2.709c0-.111.019-.215.129-.215s.085.148.085.259C1730,2371.388,1718.529,2372.435,1707.56,2372.435Z" transform="translate(-1592.926 -2230.449)"/><path class="p" d="M1835.708,2356.329q.329-.229.705-.451a4.42,4.42,0,0,1,.963-.4,9.208,9.208,0,0,1,1.478-.293,18.952,18.952,0,0,1,2.214-.12q1.3-.006,2.441.083a16.376,16.376,0,0,1,2.008.266,6.178,6.178,0,0,1,1.409.437,1.1,1.1,0,0,1,.644.6l2.525.026a2.477,2.477,0,0,1,.484.044c.141.029.209.066.209.109v.208l-3.246-.031a1.641,1.641,0,0,1-.87.7,8.945,8.945,0,0,1-1.781.549l-1.182-.164a1.4,1.4,0,0,1-.261-.06c-.068-.025-.1-.052-.1-.082s.092-.086.275-.136.389-.115.619-.191a6.185,6.185,0,0,0,.677-.268.914.914,0,0,0,.445-.369l-7.663-.076a7.019,7.019,0,0,1-.677.437,4.365,4.365,0,0,1-.994.386,10.393,10.393,0,0,1-1.542.279,22,22,0,0,1-2.325.113c-.7,0-1.385-.024-2.055-.08a14.035,14.035,0,0,1-1.784-.254,5.542,5.542,0,0,1-1.28-.42c-.332-.167-.519-.36-.557-.574l-2.079-.022a2.649,2.649,0,0,1-.491-.044c-.144-.028-.217-.064-.217-.11v-.208l2.843.027a1.525,1.525,0,0,1,.78-.572,8.819,8.819,0,0,1,1.439-.434l.955.127c.289.041.432.088.432.143,0,.029-.06.066-.18.11l-.427.156a3.864,3.864,0,0,0-.473.214,1.016,1.016,0,0,0-.347.277Zm-7.012.283a.769.769,0,0,0,.378.353,3.027,3.027,0,0,0,.72.244,7.3,7.3,0,0,0,.973.14q.544.045,1.135.042a11.745,11.745,0,0,0,1.2-.06,6.975,6.975,0,0,0,.9-.153,4.158,4.158,0,0,0,.678-.224,3.787,3.787,0,0,0,.518-.277Zm16.681-.186a.781.781,0,0,0-.413-.363,3.725,3.725,0,0,0-.831-.262,9.191,9.191,0,0,0-1.178-.158q-.669-.05-1.48-.048a11.363,11.363,0,0,0-1.24.065,6.376,6.376,0,0,0-.9.163,3.262,3.262,0,0,0-.647.24,4.529,4.529,0,0,0-.5.293Z" transform="translate(-1723.194 -2217.292)"/><path class="z" d="M1713.3,2330.19c-10,0-20.411.88-22.077,2.583a2.188,2.188,0,0,1,.18.192c1.4-1.183,10-2.373,21.893-2.373,12.2,0,20.933,1.253,21.992,2.464a2.025,2.025,0,0,1,.167-.19C1734.082,2331.1,1723.476,2330.19,1713.3,2330.19Z" transform="translate(-1598.66 -2193.911)"/><path class="m" d="M1581.4,2286.35v4.974c0,1.607,10.041,2.91,22.427,2.91s22.426-1.3,22.426-2.91v-4.974Z" transform="translate(-1495.427 -2152.701)"/><ellipse class="aa" cx="22.427" cy="2.91" rx="22.427" ry="2.91" transform="translate(85.973 130.739)"/><path class="y" d="M1603.62,2285.325c-10.969,0-22.44-1.047-22.44-3.068,0-.111.04-.306.151-.306s.063.152.063.264c0,1.281,9.128,2.709,22.226,2.709s22.225-1.428,22.225-2.709c0-.112.019-.216.13-.216s.084.148.084.259C1626.059,2284.278,1614.589,2285.325,1603.62,2285.325Z" transform="translate(-1495.22 -2148.564)"/><path class="p" d="M1731.789,2269.219q.33-.229.7-.451a4.448,4.448,0,0,1,.964-.4,9.167,9.167,0,0,1,1.478-.292,18.639,18.639,0,0,1,2.214-.12q1.3-.006,2.441.083a16.622,16.622,0,0,1,2.007.266,6.162,6.162,0,0,1,1.409.437,1.1,1.1,0,0,1,.644.6l2.525.026a2.556,2.556,0,0,1,.484.044c.141.029.209.066.209.11v.208l-3.246-.031a1.639,1.639,0,0,1-.87.7,8.879,8.879,0,0,1-1.78.549l-1.183-.166a1.367,1.367,0,0,1-.261-.06c-.068-.025-.1-.052-.1-.081s.092-.086.274-.137.389-.114.62-.19a6.157,6.157,0,0,0,.677-.269.909.909,0,0,0,.444-.369l-7.662-.076a7.033,7.033,0,0,1-.677.437,4.356,4.356,0,0,1-.994.386,10.389,10.389,0,0,1-1.542.279,21.874,21.874,0,0,1-2.325.114c-.7,0-1.386-.023-2.056-.08a14.076,14.076,0,0,1-1.784-.255,5.522,5.522,0,0,1-1.28-.419c-.332-.167-.519-.36-.557-.574l-2.079-.021a2.763,2.763,0,0,1-.491-.043c-.143-.028-.217-.064-.217-.11v-.208l2.843.027a1.527,1.527,0,0,1,.777-.572,8.935,8.935,0,0,1,1.442-.434l.952.131c.289.041.433.088.433.143,0,.029-.06.066-.18.109l-.427.156a3.982,3.982,0,0,0-.473.214,1.007,1.007,0,0,0-.347.277Zm-7.012.283a.768.768,0,0,0,.378.353,3.05,3.05,0,0,0,.72.244,7.429,7.429,0,0,0,.973.14q.543.045,1.135.042a11.966,11.966,0,0,0,1.2-.06,6.932,6.932,0,0,0,.9-.153,4.132,4.132,0,0,0,.678-.223,3.811,3.811,0,0,0,.518-.276Zm16.681-.186a.777.777,0,0,0-.413-.363,3.722,3.722,0,0,0-.831-.262,9.281,9.281,0,0,0-1.177-.159q-.67-.051-1.48-.048a11.3,11.3,0,0,0-1.24.065,6.323,6.323,0,0,0-.9.163,3.322,3.322,0,0,0-.647.24,4.73,4.73,0,0,0-.5.292Z" transform="translate(-1625.507 -2135.408)"/><path class="ab" d="M1609.357,2243.08c-10,0-20.411.88-22.077,2.583a2.086,2.086,0,0,1,.18.192c1.4-1.183,10-2.373,21.893-2.373,12.2,0,20.933,1.253,21.992,2.465a2.1,2.1,0,0,1,.168-.19C1630.141,2243.992,1619.533,2243.08,1609.357,2243.08Z" transform="translate(-1500.954 -2112.026)"/><path class="m" d="M1671.09,2199.49v4.975c0,1.607,10.041,2.91,22.426,2.91s22.427-1.3,22.427-2.91v-4.975Z" transform="translate(-1579.738 -2071.05)"/><path class="ac" d="M1715.943,2153.908c0,1.608-10.041,2.91-22.427,2.91s-22.426-1.3-22.426-2.91,10.041-2.908,22.427-2.908S1715.943,2152.3,1715.943,2153.908Z" transform="translate(-1579.738 -2025.469)"/><path class="o" d="M1693.329,2198.475c-10.969,0-22.439-1.048-22.439-3.069,0-.11.04-.306.151-.306s.06.152.06.263c0,1.282,9.128,2.709,22.226,2.709s22.226-1.427,22.226-2.709c0-.111.019-.214.13-.214s.084.148.084.258C1715.768,2197.428,1704.3,2198.475,1693.329,2198.475Z" transform="translate(-1579.549 -2066.924)"/><path class="p" d="M1821.458,2182.367c.22-.153.454-.3.7-.451a4.468,4.468,0,0,1,.963-.4,9.29,9.29,0,0,1,1.479-.292,18.956,18.956,0,0,1,2.214-.12q1.3-.006,2.441.083a16.723,16.723,0,0,1,2.007.266,6.416,6.416,0,0,1,1.409.437,1.086,1.086,0,0,1,.644.6l2.525.026a2.521,2.521,0,0,1,.485.045c.141.029.209.065.209.109v.208l-3.247-.032a1.63,1.63,0,0,1-.87.7,9.01,9.01,0,0,1-1.78.549l-1.183-.165a1.426,1.426,0,0,1-.261-.06c-.068-.025-.1-.052-.1-.082s.091-.085.274-.136.389-.115.619-.19a6.105,6.105,0,0,0,.678-.268.926.926,0,0,0,.445-.369l-7.662-.076a7.385,7.385,0,0,1-.677.437,4.435,4.435,0,0,1-.994.385,10.462,10.462,0,0,1-1.542.279,21.875,21.875,0,0,1-2.325.114c-.7,0-1.386-.023-2.055-.08a14.175,14.175,0,0,1-1.784-.254,5.582,5.582,0,0,1-1.28-.42c-.332-.167-.519-.36-.557-.574l-2.079-.021a2.743,2.743,0,0,1-.491-.043c-.143-.029-.216-.065-.216-.111v-.208l2.843.028a1.521,1.521,0,0,1,.78-.573,8.9,8.9,0,0,1,1.44-.434l.952.131c.289.041.432.087.433.142,0,.03-.06.065-.18.11l-.427.157a3.893,3.893,0,0,0-.474.213,1.01,1.01,0,0,0-.346.277Zm-7.012.284a.765.765,0,0,0,.377.352,2.988,2.988,0,0,0,.72.244,7.423,7.423,0,0,0,.973.14q.54.045,1.135.042a11.681,11.681,0,0,0,1.2-.06,6.967,6.967,0,0,0,.9-.152,4.229,4.229,0,0,0,.678-.224,3.749,3.749,0,0,0,.518-.277Zm16.681-.186a.8.8,0,0,0-.413-.364,3.779,3.779,0,0,0-.83-.262,9.181,9.181,0,0,0-1.177-.157q-.67-.053-1.48-.048a11.357,11.357,0,0,0-1.24.064,6.466,6.466,0,0,0-.9.164,3.275,3.275,0,0,0-.646.24,4.715,4.715,0,0,0-.5.293Z" transform="translate(-1709.799 -2053.765)"/><path class="ad" d="M1699.017,2156.22c-10,0-20.411.879-22.077,2.583a2.054,2.054,0,0,1,.18.192c1.4-1.183,10-2.373,21.893-2.373,12.2,0,20.933,1.252,21.992,2.464a2.21,2.21,0,0,1,.168-.19C1719.8,2157.132,1709.2,2156.22,1699.017,2156.22Z" transform="translate(-1585.237 -2030.376)"/><path class="m" d="M1624.44,2112.38v4.974c0,1.607,10.041,2.91,22.426,2.91s22.427-1.3,22.427-2.91v-4.974Z" transform="translate(-1535.885 -1989.165)"/><path class="n" d="M1669.293,2066.77c0,1.607-10.041,2.91-22.427,2.91s-22.426-1.3-22.426-2.91,10.041-2.91,22.426-2.91S1669.293,2065.163,1669.293,2066.77Z" transform="translate(-1535.885 -1943.555)"/><path class="o" d="M1646.659,2111.364c-10.969,0-22.439-1.048-22.439-3.068,0-.111.04-.306.15-.306s.06.153.06.263c0,1.282,9.128,2.709,22.226,2.709s22.226-1.428,22.226-2.709c0-.111.019-.215.13-.215s.084.147.084.26C1669.1,2110.319,1657.628,2111.364,1646.659,2111.364Z" transform="translate(-1535.679 -1985.038)"/><path class="p" d="M1774.808,2095.257c.22-.152.454-.3.705-.45a4.454,4.454,0,0,1,.963-.4,9.271,9.271,0,0,1,1.479-.292,18.8,18.8,0,0,1,2.214-.12q1.3-.007,2.441.083a16.726,16.726,0,0,1,2.007.266,6.486,6.486,0,0,1,1.409.437,1.078,1.078,0,0,1,.644.6l2.526.025a2.474,2.474,0,0,1,.484.045c.141.029.21.065.21.109v.208l-3.247-.032a1.629,1.629,0,0,1-.87.7,9.04,9.04,0,0,1-1.78.55l-1.182-.165a1.4,1.4,0,0,1-.261-.06c-.069-.025-.1-.052-.1-.082s.091-.086.274-.137.389-.114.619-.19a6.114,6.114,0,0,0,.678-.268.923.923,0,0,0,.444-.369l-7.662-.076a7.314,7.314,0,0,1-.677.437,4.444,4.444,0,0,1-.994.386,10.515,10.515,0,0,1-1.542.278,21.946,21.946,0,0,1-2.325.114c-.7,0-1.386-.023-2.056-.08a14.222,14.222,0,0,1-1.784-.254,5.578,5.578,0,0,1-1.28-.42c-.332-.167-.519-.36-.557-.574l-2.079-.021a2.781,2.781,0,0,1-.491-.043c-.144-.028-.217-.065-.217-.111v-.208l2.843.028a1.52,1.52,0,0,1,.78-.573,8.9,8.9,0,0,1,1.439-.434l.952.131c.29.041.433.087.433.142,0,.03-.06.066-.18.11l-.427.157a3.9,3.9,0,0,0-.474.213,1.015,1.015,0,0,0-.346.277Zm-7.012.284a.768.768,0,0,0,.377.352,2.986,2.986,0,0,0,.719.244,7.347,7.347,0,0,0,.973.14q.54.044,1.135.042a11.538,11.538,0,0,0,1.2-.06,6.929,6.929,0,0,0,.9-.152,4.256,4.256,0,0,0,.678-.224,3.736,3.736,0,0,0,.517-.277Zm16.681-.186a.786.786,0,0,0-.413-.364,3.734,3.734,0,0,0-.83-.262,9.19,9.19,0,0,0-1.177-.157q-.671-.053-1.48-.048a11.427,11.427,0,0,0-1.24.064,6.456,6.456,0,0,0-.9.164,3.277,3.277,0,0,0-.647.24,4.489,4.489,0,0,0-.5.292Z" transform="translate(-1665.947 -1971.88)"/><path class="ae" d="M1652.4,2069.11c-10,0-20.411.88-22.076,2.583a2.059,2.059,0,0,1,.18.192c1.4-1.182,10-2.373,21.893-2.373,12.2,0,20.933,1.252,21.993,2.464a2.1,2.1,0,0,1,.168-.189C1673.181,2070.022,1662.574,2069.11,1652.4,2069.11Z" transform="translate(-1541.413 -1948.491)"/><path class="af" d="M2411.655,2170.84l-4.054,2.883c-1.31.932,3.448,9.869,10.627,19.962s14.061,17.52,15.371,16.588l4.054-2.883Z" transform="translate(-2271.868 -2044.119)"/><path class="ag" d="M2501.163,2206.153c-1.31.931-8.191-6.5-15.37-16.589s-11.936-19.03-10.628-19.962,8.192,6.5,15.37,16.588S2502.475,2205.221,2501.163,2206.153Z" transform="translate(-2335.38 -2042.882)"/><path class="ah" d="M2483.906,2189.656c-6.358-8.937-12.153-18.894-10.506-20.064.091-.064.272-.145.337-.055s-.088.14-.18.2c-1.045.743,3.083,9.008,10.677,19.682s14.046,17.284,15.09,16.541c.091-.064.186-.109.25-.019s-.071.154-.162.219C2497.768,2207.334,2490.264,2198.594,2483.906,2189.656Z" transform="translate(-2333.658 -2042.856)"/><path class="p" d="M2562.107,2293.854c.252.091.51.195.776.313a4.42,4.42,0,0,1,.886.553,9.227,9.227,0,0,1,1.1,1.035,18.787,18.787,0,0,1,1.379,1.735q.758,1.055,1.348,2.04a16.558,16.558,0,0,1,.946,1.79,5.985,5.985,0,0,1,.461,1.4,1.107,1.107,0,0,1-.114.871l1.443,2.073a2.48,2.48,0,0,1,.244.419c.061.132.069.208.033.234l-.168.12-1.86-2.665a1.64,1.64,0,0,1-1.074-.3,8.725,8.725,0,0,1-1.475-1.133l-.551-1.059a1.3,1.3,0,0,1-.1-.248c-.02-.07-.017-.112.007-.13s.12.025.271.145.319.25.514.394a6.049,6.049,0,0,0,.611.4.921.921,0,0,0,.559.148l-4.379-6.288a7.219,7.219,0,0,1-.748-.3,4.437,4.437,0,0,1-.891-.586,10.41,10.41,0,0,1-1.122-1.094,21.662,21.662,0,0,1-1.439-1.829c-.41-.571-.784-1.143-1.126-1.721a14.056,14.056,0,0,1-.827-1.6,5.616,5.616,0,0,1-.4-1.286.9.9,0,0,1,.145-.787l-1.187-1.707a2.669,2.669,0,0,1-.25-.427c-.06-.132-.073-.213-.036-.24l.168-.12,1.626,2.331a1.543,1.543,0,0,1,.917.3,8.955,8.955,0,0,1,1.189.924l.445.851c.134.259.18.4.134.436q-.035.026-.192-.081l-.375-.257a3.848,3.848,0,0,0-.449-.262,1,1,0,0,0-.426-.12Zm-4.3-5.55a.756.756,0,0,0-.068.512,3,3,0,0,0,.22.73,7.46,7.46,0,0,0,.45.874q.278.469.623.949a12.027,12.027,0,0,0,.747.947,6.97,6.97,0,0,0,.647.646,4.127,4.127,0,0,0,.575.422,3.608,3.608,0,0,0,.525.262Zm9.82,13.485a.779.779,0,0,0,.057-.547,3.657,3.657,0,0,0-.267-.829,9.145,9.145,0,0,0-.554-1.051q-.345-.576-.819-1.234a11.121,11.121,0,0,0-.771-.973,6.391,6.391,0,0,0-.656-.64,3.307,3.307,0,0,0-.57-.389,4.825,4.825,0,0,0-.526-.235Z" transform="translate(-2410.683 -2150.491)"/><path class="ai" d="M2496.263,2191.984c-5.8-8.148-12.548-16.123-14.9-16.495a1.938,1.938,0,0,1-.051.26c1.778.458,7.731,6.773,14.625,16.466,7.071,9.941,11.113,17.785,10.736,19.35a2.076,2.076,0,0,1,.252.026C2507.566,2209.45,2502.165,2200.278,2496.263,2191.984Z" transform="translate(-2341.361 -2048.49)"/></g></g></g><text class="aj" transform="translate(163.512 252.479)"><tspan x="0" y="0">₹</tspan></text></g></svg>