<svg xmlns="http://www.w3.org/2000/svg" width="93.22" height="58.218" viewBox="0 0 93.22 58.218"><defs><style>.a{fill:#fedf7c;}.b{fill:#76bdce;}.c{fill:#7ad935;}.d{fill:#57b442;}.e{fill:#fed45c;}.f{fill:#9bea5e;}.g{fill:#94db56;}.h{fill:#000400;}.i{fill:#232727;}.j{fill:#8c8c83;}.k{fill:#e0e0e0;}.l{fill:#c2c2c3;}.m{fill:#eee644;}.n{fill:#e2d636;}.o{fill:#f7423e;}.p{fill:#e72318;}.q{fill:#2ea341;}.r{fill:#baf982;}.s{fill:#f76f3e;}.t{fill:#a7a7a8;}.u{fill:#f0f0f0;}.v{fill:#f29c1f;}.w{fill:#f0c419;}.x{fill:#e64c3c;}.y{fill:#ecf0f1;}.z{fill:#547580;}.aa{fill:#35495e;}.ab{fill:#d1d4d1;}.ac{fill:#95a5a5;}</style></defs><g transform="translate(0.01 0.008)"><path class="a" d="M50.65,32.88A25.33,25.33,0,1,1,25.33,7.55,25.33,25.33,0,0,1,50.65,32.88Z"/><path class="b" d="M47.64,32.88A22.31,22.31,0,1,1,25.33,10.57,22.31,22.31,0,0,1,47.64,32.88Z"/><path class="c" d="M56.94,28.81l-45.3,14.7a.522.522,0,0,1,.08-.33q.19-.82.45-1.65a.3.3,0,0,1,.06-.21c.06-.08,0-.1,0-.15.08-.27.17-.53.26-.79a30.66,30.66,0,0,1,4.63-8.78,20.68,20.68,0,0,1,5.71-5.2c2.25-1.38,2.42-2.27,3.47-5.09.37-1,4.46-3.86,4.49-1.18A4,4,0,0,1,33.73,16a4.43,4.43,0,0,1,4.52,2.63,3.66,3.66,0,0,1,4.13-1.91A5.39,5.39,0,0,1,46,20.58c3.16-3.06,5.56,1.68,5.79,4.9a6.63,6.63,0,0,1,5.14,3.23Z"/><path class="d" d="M40.92,51.16c1.54,2.19-3.47,2.25-4.33,1.68-2.51-1.67-3.17-2.29-5.8-2.08a20.71,20.71,0,0,1-7.68-.86,31,31,0,0,1-9.45-4.77c-.69-.51-1.36-1.05-2-1.62l45.3-14.7v.11a6.66,6.66,0,0,1-2.27,5.63c1.72,2.74,2.56,8-1.81,7.37a5.4,5.4,0,0,1-.61,5.23A3.64,3.64,0,0,1,47.8,48a4.44,4.44,0,0,1-2.11,4.79A4.06,4.06,0,0,1,40.92,51.16Z"/><path class="e" d="M14.72,40.08l-2.49,1.24v-.15Z"/><path class="f" d="M53.69,29.86l-42,13.65a.522.522,0,0,1,.08-.33q.19-.82.45-1.65a17.82,17.82,0,0,0,8.76-5.11,60.07,60.07,0,0,0,6.91-8.94q-.84,2.94-1.66,5.89a53.29,53.29,0,0,0,11.06-12.6q-.56,4.53-1.12,9.08l7.56-7.12c-.43,2-.87,4-1.3,6.05l6.81-1.43-2.13,2.47A9.3,9.3,0,0,1,53.69,29.86Z"/><path class="g" d="M53.69,29.86l-42,13.65a2.749,2.749,0,0,0,.26.22c.43.37.88.73,1.33,1.07a17.81,17.81,0,0,1,10.1-1A60.19,60.19,0,0,1,34.17,47l-4.81-3.79a53.17,53.17,0,0,1,16.36,3.7l-6.24-6.69,10.3,1.32-4.61-4.13,6.35-2.85-3.17-.74a9.32,9.32,0,0,0,5.34-3.96Z"/><path class="c" d="M32.13,0,20.41,40.51a2.09,2.09,0,0,1-.2-.22c-.34-.37-.67-.76-1-1.15L19.1,39l-.1-.12-.45-.58a27.08,27.08,0,0,1-4.13-7.76,18.27,18.27,0,0,1-1-6.77c.11-2.33-.46-2.9-2-5.07-.53-.75-.62-5.18,1.36-3.88a3.56,3.56,0,0,1-1.59-4.17,3.92,3.92,0,0,1,4.17-2,3.22,3.22,0,0,1,.65-4A4.74,4.74,0,0,1,20.64,4C20,.14,24.64.73,27.11,2.17A5.9,5.9,0,0,1,32,0Z"/><path class="d" d="M40.55,22.85c2.38,0-.07,3.66-.92,4-2.46,1-3.24,1.18-4.4,3.22a18.52,18.52,0,0,1-4.44,5.2,27.43,27.43,0,0,1-8.19,4.55c-.72.25-1.45.48-2.19.68L32.13,0h.09a5.85,5.85,0,0,1,3,4.46c2.86.1,7.12,2.09,4.5,5a4.78,4.78,0,0,1,3.53,3.05,3.24,3.24,0,0,1-1.58,3.7,3.93,3.93,0,0,1,2.46,3.92,3.58,3.58,0,0,1-3.58,2.72Z"/><path class="e" d="M19.43,36.55,19.1,39l-.1-.12Z"/><path class="f" d="M31.29,2.91,20.41,40.51a2.09,2.09,0,0,1-.2-.22c-.34-.37-.67-.76-1-1.15a15.74,15.74,0,0,0,.6-9,52.859,52.859,0,0,0-3.12-9.51l3.5,4.15a47,47,0,0,0-3.74-14.37l6.1,5.33q-.73-4.54-1.46-9.07l3.78,4L27.22,5,28,7.75a8.22,8.22,0,0,1,3.29-4.84Z"/><path class="g" d="M31.29,2.91,20.41,40.51l.29-.08c.48-.13,1-.28,1.45-.45a15.7,15.7,0,0,1,4.27-7.89,52.11,52.11,0,0,1,7.72-6.37L29,27.36A46.64,46.64,0,0,1,39.8,17.21l-8,1.25q3-3.45,6.08-6.89l-5.31,1.32q.52-3,1.07-6.07l-2.13,2a8.22,8.22,0,0,0-.22-5.91Z"/><path class="h" d="M27.7,13.9c-2.29-1.64-5.2-1.5-6.51.32s-.5,4.63,1.79,6.27,5.2,1.5,6.51-.32S30,15.55,27.7,13.9Z"/><path class="i" d="M23.15,15.63a5.42,5.42,0,0,1,2.43-1.91,2.17,2.17,0,0,0-.71-.48A3.07,3.07,0,0,0,21.44,18a2.42,2.42,0,0,0,.68.52,5.5,5.5,0,0,1,1.03-2.89Z"/><path class="j" d="M29.26,18.1a1.41,1.41,0,0,0-1.87.56,1.42,1.42,0,0,0,.06,2,1.4,1.4,0,0,0,1.87-.57,1.41,1.41,0,0,0-.06-1.99Z"/><path class="h" d="M38,38.46c-2.81.24-4.93,2.24-4.74,4.47s2.62,3.84,5.43,3.6,4.93-2.24,4.74-4.46S40.8,38.22,38,38.46Z"/><path class="i" d="M35.65,42.73a5.55,5.55,0,0,1,.6-3,2.49,2.49,0,0,0-.85.09,3.08,3.08,0,0,0,.5,5.87,2.26,2.26,0,0,0,.86,0A5.51,5.51,0,0,1,35.65,42.73Z"/><path class="j" d="M41.9,40.64a1.41,1.41,0,0,0-1.06,1.64c.08.86.67,1.5,1.32,1.45a1.42,1.42,0,0,0,1.06-1.65C43.14,41.23,42.55,40.59,41.9,40.64Z"/><path class="k" d="M50.12,14.89c0-1.5,2.37-2.67,5.21-3.9,11.09-4.82,13.21-7,21.1-6.94,5,0,10.9,5.71,10.9,10.77s-5.86,10.72-10.9,10.77c-6,.07-9.14-2.26-20.45-6.75C52.69,17.53,50.14,16.42,50.12,14.89Z"/><path class="l" d="M53.67,14.88c0-1.06,1.08-2.1,5.16-4.1,8.1-4,12-4.55,17.16-4.85,3.82-.22,8.69,4.29,8.69,8.89s-5.51,9-9.52,9.1-7-1.32-15.3-4.87C55.3,17.1,53.7,16.13,53.67,14.88Z"/><path class="m" d="M59.52,14.82c0-4.36,11.73-7.89,16.09-7.89a7.89,7.89,0,1,1,0,15.78A31.16,31.16,0,0,1,64,19.51C61.42,18.2,59.52,16.58,59.52,14.82Z"/><path class="n" d="M64,19.4c0-4.75,10-8.92,14.6-8.92a8.08,8.08,0,0,1,4.29,1.23,7.91,7.91,0,0,1-7.26,11A31.16,31.16,0,0,1,64,19.51Z"/><path class="k" d="M86.46,12.25h6.76v3.9H86.46a1.57,1.57,0,0,1-1.57-1.57v-.76a1.57,1.57,0,0,1,1.57-1.57Z" transform="translate(178.1 28.4) rotate(180)"/><path class="o" d="M23.1,43A7.78,7.78,0,0,1,18,41.24a5.57,5.57,0,0,1-1.71-3.35,4.12,4.12,0,0,1,.3-1.91,4.41,4.41,0,0,0,.19-.7,7,7,0,0,0-.8.28,5.6,5.6,0,0,1-1.9.48,2,2,0,0,1-.56-.07,5.18,5.18,0,0,1-3.65-5.38,4.27,4.27,0,0,1,3.69-3.92,3.08,3.08,0,0,1,1.89.6l.2.12a1.519,1.519,0,0,0-.13-.41,4.49,4.49,0,0,1-.2-.66A5,5,0,0,1,16,22.07a6.51,6.51,0,0,1,3.5-2.28,7.26,7.26,0,0,1,5.92.59,5.57,5.57,0,0,1,.76.6,5.88,5.88,0,0,1,1.74,4.88,4.35,4.35,0,0,1-.25,1,3.76,3.76,0,0,0,.68,0h.56a2.85,2.85,0,0,1,1.59.41A7,7,0,0,1,33.19,34a3.93,3.93,0,0,1-3.32,3.23,2.09,2.09,0,0,1-.43,0A2.91,2.91,0,0,1,28,36.8a1.93,1.93,0,0,0-.45-.21h-.26a3,3,0,0,1,.75,1,3.67,3.67,0,0,1-1.17,4.35A6.2,6.2,0,0,1,23.1,43ZM17,33.22a1.77,1.77,0,0,1,1.79,1.72,3.68,3.68,0,0,1-.28,1.67,2.89,2.89,0,0,0-.21,1,3.53,3.53,0,0,0,1.08,2.12A5.73,5.73,0,0,0,23.1,41a4.25,4.25,0,0,0,2.56-.72,1.63,1.63,0,0,0,.56-2L25.93,38A2.32,2.32,0,0,1,25,36.15a1.85,1.85,0,0,1,2-1.65,5,5,0,0,1,.93.11A3.43,3.43,0,0,1,29,35c.29.17.38.21.52.18a1.9,1.9,0,0,0,1.69-1.63A5,5,0,0,0,29.39,29a1,1,0,0,0-.51-.09H27.9a2.71,2.71,0,0,1-1.38-.33,1.72,1.72,0,0,1-.79-2.35,3,3,0,0,0,.16-.61,3.88,3.88,0,0,0-1.13-3.18,3.17,3.17,0,0,0-.46-.36,5.29,5.29,0,0,0-4.3-.36,4.67,4.67,0,0,0-2.44,1.54,3,3,0,0,0-.31,2.64,2.18,2.18,0,0,0,.13.43,2.79,2.79,0,0,1,.11,2.29,1.76,1.76,0,0,1-1.16.86,1.82,1.82,0,0,1-.46.06h0A2.94,2.94,0,0,1,14.39,29a1.77,1.77,0,0,0-.65-.31,2.25,2.25,0,0,0-1.86,2.09A3.15,3.15,0,0,0,14,34h.05a4.11,4.11,0,0,0,1.17-.35A5.15,5.15,0,0,1,17,33.22Z"/><path class="p" d="M22.92,41.64a6.87,6.87,0,0,1-4.51-1.57,5,5,0,0,1-1.51-3,3.76,3.76,0,0,1,.27-1.69,4.15,4.15,0,0,0,.17-.61,7.431,7.431,0,0,0-.71.24,4.74,4.74,0,0,1-1.68.43,1.93,1.93,0,0,1-.49-.06,4.59,4.59,0,0,1-3.23-4.76A3.77,3.77,0,0,1,14.5,27.2a2.76,2.76,0,0,1,1.66.53l.18.11a3.78,3.78,0,0,0-.12-.36,4.83,4.83,0,0,1-.17-.59,4.45,4.45,0,0,1,.57-3.75,5.8,5.8,0,0,1,3.09-2,6.43,6.43,0,0,1,5.24.53,4.72,4.72,0,0,1,.67.53,5.23,5.23,0,0,1,1.54,4.31,4.19,4.19,0,0,1-.23.89,4,4,0,0,0,.61,0h.49a2.55,2.55,0,0,1,1.4.36,6.2,6.2,0,0,1,2.4,5.93A3.45,3.45,0,0,1,28.9,36.5a1.64,1.64,0,0,1-.38,0,2.54,2.54,0,0,1-1.26-.39,1.47,1.47,0,0,0-.4-.18h-.23a2.61,2.61,0,0,1,.66.83,3.23,3.23,0,0,1-1,3.85,5.45,5.45,0,0,1-3.37,1.03ZM17.53,33a1.55,1.55,0,0,1,1.57,1.52A3.23,3.23,0,0,1,18.86,36a2.42,2.42,0,0,0-.19.9,3.18,3.18,0,0,0,.95,1.88,5.17,5.17,0,0,0,3.3,1.1,3.72,3.72,0,0,0,2.26-.64,1.44,1.44,0,0,0,.5-1.72l-.26-.26a2,2,0,0,1-.83-1.66,1.63,1.63,0,0,1,1.77-1.46,4.89,4.89,0,0,1,.82.09,3,3,0,0,1,.95.38c.26.15.34.18.46.16a1.68,1.68,0,0,0,1.49-1.44,4.44,4.44,0,0,0-1.6-4.08.84.84,0,0,0-.45-.08h-.87a2.37,2.37,0,0,1-1.22-.29,1.53,1.53,0,0,1-.7-2.08,3,3,0,0,0,.15-.53,3.46,3.46,0,0,0-1-2.81,2.51,2.51,0,0,0-.41-.32,4.65,4.65,0,0,0-3.76-.32,4.13,4.13,0,0,0-2.16,1.36,2.71,2.71,0,0,0-.27,2.34,1.708,1.708,0,0,0,.12.37,2.54,2.54,0,0,1,.09,2,1.52,1.52,0,0,1-1,.75,1.33,1.33,0,0,1-.4.05h0a2.5,2.5,0,0,1-1.34-.48,1.6,1.6,0,0,0-.58-.27A2,2,0,0,0,13,30.82a2.78,2.78,0,0,0,1.9,2.87h0a3.93,3.93,0,0,0,1-.3A4.39,4.39,0,0,1,17.53,33Z"/><path class="q" d="M17.82,20.46a6.6,6.6,0,0,1-.14,1.95c-.54,2.37-2.09,4.68-4.54,5.27C8.24,28.86-1.39,24.42,3,18.46,5.38,15.12,9.48,10.25,13.58,14,15.62,15.86,17.59,17.82,17.82,20.46Z"/><path class="r" d="M16.62,20.43a5.55,5.55,0,0,1-.12,1.65,5.67,5.67,0,0,1-3.86,4.48C8.48,27.56.3,23.79,4,18.73c2.06-2.84,5.55-7,9-3.79C14.75,16.52,16.42,18.19,16.62,20.43Z"/><path class="g" d="M10.41,18.91c-.1-1-.47-2-1.53-2.12A2.11,2.11,0,0,0,7.76,17a4,4,0,0,0-2.47,3.44,1.24,1.24,0,0,0,.23.8,1,1,0,0,0,.63.32,3.55,3.55,0,0,0,1.62-.31,8.09,8.09,0,0,1,1.82-.39,1,1,0,0,0,.69-.25.85.85,0,0,0,.16-.55A6.81,6.81,0,0,0,10.41,18.91Z"/><path class="g" d="M11.65,16.55h0a1.36,1.36,0,0,0-.94,1.51,14.513,14.513,0,0,0,.11,1.61.82.82,0,0,0,.17.51.8.8,0,0,0,.22.13c.92.44,2.41,1.4,3.12.19a2.74,2.74,0,0,0,.11-2.58A2.87,2.87,0,0,0,11.65,16.55Z"/><path class="g" d="M13,22.24c-.33-.44-1-.4-1.43-.77-.91-.83-1.69-.29-2.62.3-.54.34-1.39.35-1.58,1.09A1.47,1.47,0,0,0,8,24.3a3.6,3.6,0,0,0,2.29.56,2.7,2.7,0,0,0,2.82-1.71A1,1,0,0,0,13,22.24Z"/><path class="q" d="M43.47,26.38a6.6,6.6,0,0,1-.14,1.95c-.54,2.38-2.09,4.68-4.54,5.27-4.9,1.18-14.53-3.26-10.19-9.22C31,21,35.14,16.17,39.24,19.92,41.27,21.78,43.24,23.75,43.47,26.38Z"/><path class="r" d="M42.27,26.35A5.32,5.32,0,0,1,42.15,28a5.68,5.68,0,0,1-3.86,4.48c-4.16,1-12.34-2.78-8.65-7.84,2.07-2.83,5.55-7,9-3.79C40.4,22.44,42.08,24.11,42.27,26.35Z"/><path class="g" d="M36.06,24.83c-.1-1-.47-2-1.53-2.11a2,2,0,0,0-1.12.23,4,4,0,0,0-2.47,3.44,1.22,1.22,0,0,0,.24.81,1,1,0,0,0,.62.32,3.69,3.69,0,0,0,1.62-.32,9.36,9.36,0,0,1,1.82-.39,1,1,0,0,0,.69-.24.84.84,0,0,0,.16-.56,6.81,6.81,0,0,0-.03-1.18Z"/><path class="g" d="M37.3,22.47h0A1.35,1.35,0,0,0,36.33,24a8.709,8.709,0,0,0,.1,1.61.8.8,0,0,0,.17.51,1,1,0,0,0,.22.14c.92.44,2.41,1.39,3.12.18a2.72,2.72,0,0,0,.11-2.57,2.85,2.85,0,0,0-2.75-1.4Z"/><path class="g" d="M38.62,28.16c-.33-.43-1-.4-1.42-.77-.92-.83-1.7-.29-2.63.3-.54.35-1.39.36-1.58,1.1a1.47,1.47,0,0,0,.61,1.43,3.54,3.54,0,0,0,2.29.56,2.68,2.68,0,0,0,2.82-1.71A1,1,0,0,0,38.62,28.16Z"/><path class="p" d="M29.27,39a7.38,7.38,0,1,1-9.63,4,7.38,7.38,0,0,1,9.63-4Z"/><path class="s" d="M30.54,39.49c3.06,1.26,4.29,5.34,2.73,9.1s-5.29,5.8-8.36,4.53S20.63,47.78,22.18,44,27.48,38.22,30.54,39.49Z"/><path class="p" d="M30.17,40.85c2.52,1,3.5,4.45,2.19,7.62s-4.4,4.89-6.92,3.85-3.51-4.45-2.2-7.62S27.65,39.81,30.17,40.85Z"/><path class="s" d="M24.35,49.1c.36-.07.95.34.95.34s-.36.64-.72.72a.55.55,0,1,1-.23-1.06Z"/><path class="s" d="M23.62,47.64c.35-.09,1,.31,1,.31s-.34.64-.7.73a.55.55,0,1,1-.26-1Z"/><path class="s" d="M24,45.91c.34.16.54.86.54.86s-.68.27-1,.1a.552.552,0,1,1,.47-1Z"/><path class="s" d="M24.6,44.1c.32.18.49.89.49.89s-.69.23-1,.06a.55.55,0,1,1,.52-.95Z"/><path class="s" d="M25.49,42.88c.27.26.25,1,.25,1a2.233,2.233,0,0,1-1-.21.61.61,0,0,1-.11-.85.62.62,0,0,1,.86.06Z"/><path class="s" d="M27.33,41.76c.18.32-.06,1-.06,1s-.71-.17-.88-.49a.62.62,0,0,1,.14-.85.63.63,0,0,1,.8.34Z"/><path class="s" d="M31.38,44c-.36.06-.94-.38-.94-.38s.4-.62.76-.68A.55.55,0,1,1,31.38,44Z"/><path class="s" d="M32.05,45.53c-.36.08-.95-.35-.95-.35s.37-.63.73-.7a.55.55,0,1,1,.22,1.05Z"/><path class="s" d="M31.55,47.25c-.32-.18-.5-.89-.5-.89s.69-.24,1-.06a.6.6,0,0,1,.33.79.62.62,0,0,1-.83.16Z"/><path class="s" d="M30.92,49c-.31-.19-.46-.9-.46-.9s.7-.21,1,0a.62.62,0,0,1,.29.81.61.61,0,0,1-.83.09Z"/><path class="s" d="M30,50.21c-.26-.27-.21-1-.21-1a1.927,1.927,0,0,1,1,.25.55.55,0,1,1-.77.75Z"/><path class="s" d="M28.09,51.25c-.16-.33.1-1,.1-1s.7.2.87.53a.555.555,0,0,1-1,.48Z"/><path class="s" d="M30.4,40.29a5.54,5.54,0,0,1,2.43,2,1.71,1.71,0,0,0-1.63-.38c-.93.27-1.27,1.23-1.55,2.05-.37,1.12-.8,2.23-1.25,3.32-.72,1.74-1.57,3.88-.06,5.53a5,5,0,0,1-3.19-.31,3.85,3.85,0,0,1-1.3-.79c-.27-.26-.77-1.22-1.12-1.3a3,3,0,0,0,2.47-.13A3,3,0,0,0,26,49c1-2.23,2.64-4.54,1.63-7.06a2.3,2.3,0,0,0-.6-.92,1.12,1.12,0,0,0-1-.26c.64-.2,1.06-.84,1.75-.93a5.8,5.8,0,0,1,2.23.27Z"/><path class="t" d="M25.93,49.37a15.48,15.48,0,0,1,.42-11,7.38,7.38,0,0,0-2.71,14.2c.24.09.48.18.72.25a5.6,5.6,0,0,0,.55.27,5.24,5.24,0,0,0,3.13.24,13.53,13.53,0,0,1-2.11-3.96Z"/><path class="p" d="M44.43,40.2a6.26,6.26,0,1,1,2.383-4.163A6.27,6.27,0,0,1,44.43,40.2Z"/><path class="s" d="M43.5,40.92c-2.22,1.72-5.75.9-7.86-1.84s-2-6.36.2-8.08,5.75-.9,7.87,1.84S45.73,39.19,43.5,40.92Z"/><path class="p" d="M42.66,40.06c-1.84,1.42-4.77.7-6.55-1.6s-1.73-5.32.1-6.74S41,31,42.75,33.33,44.49,38.64,42.66,40.06Z"/><path class="s" d="M39,32.28c-.1.3-.66.56-.66.56s-.31-.54-.22-.83a.54.54,0,0,1,.61-.41A.53.53,0,0,1,39,32.28Z"/><path class="s" d="M40.42,32.36c-.08.3-.63.58-.63.58s-.33-.53-.25-.83a.53.53,0,0,1,.6-.42A.52.52,0,0,1,40.42,32.36Z"/><path class="s" d="M41.52,33.41c-.26.18-.86,0-.86,0s.09-.61.35-.79a.47.47,0,1,1,.51.76Z"/><path class="s" d="M42.62,34.58a1.525,1.525,0,0,1-.87,0s.12-.61.39-.77a.52.52,0,0,1,.72.1.51.51,0,0,1-.24.67Z"/><path class="s" d="M43.14,35.76c-.3.08-.83-.24-.83-.24s.27-.55.57-.64a.51.51,0,0,1,.67.28.52.52,0,0,1-.41.6Z"/><path class="s" d="M43.19,37.59c-.31,0-.73-.47-.73-.47s.43-.45.74-.45a.47.47,0,1,1,0,.92Z"/><path class="s" d="M39.79,39.61c.11-.29.68-.53.68-.53s.29.55.18.84a.51.51,0,0,1-.62.38A.53.53,0,0,1,39.79,39.61Z"/><path class="s" d="M38.41,39.47c.1-.3.66-.55.66-.55s.31.54.21.84a.47.47,0,1,1-.87-.29Z"/><path class="s" d="M37.36,38.38c.26-.17.86,0,.86,0s-.12.61-.38.77a.46.46,0,1,1-.48-.77Z"/><path class="s" d="M36.31,37.16c.28-.15.87.05.87.05s-.15.6-.43.75a.47.47,0,1,1-.44-.8Z"/><path class="s" d="M35.84,36c.31-.07.82.27.82.27s-.29.55-.6.62a.52.52,0,0,1-.66-.31.53.53,0,0,1,.44-.58Z"/><path class="s" d="M35.87,34.13c.31,0,.7.5.7.5s-.44.43-.76.42a.51.51,0,0,1-.53-.49.52.52,0,0,1,.59-.43Z"/><path class="s" d="M43,40.47a4.66,4.66,0,0,1-2.47,1,1.47,1.47,0,0,0,1-1,2.33,2.33,0,0,0-.86-2c-.66-.76-1.3-1.54-1.92-2.33-1-1.27-2.19-2.81-4-2.39a4.28,4.28,0,0,1,1.57-2.22,3.38,3.38,0,0,1,1.13-.62c.31-.09,1.23,0,1.44-.28a2.56,2.56,0,0,0-.95,1.88,2.52,2.52,0,0,0,.54,1.1c1.22,1.69,2.23,3.86,4.52,4.18a1.83,1.83,0,0,0,.93-.05,1,1,0,0,0,.63-.65c-.13.56.17,1.14-.06,1.69a4.86,4.86,0,0,1-1.14,1.52Z"/><path class="t" d="M38.17,33.33a13.15,13.15,0,0,1,7.91,5,6.28,6.28,0,0,0-9.32-8l-.49.42a4.15,4.15,0,0,0-.43.3,4.36,4.36,0,0,0-1.5,2.2,11.72,11.72,0,0,1,3.83.08Z"/><path class="o" d="M16.62,50.31a7.75,7.75,0,0,1-5.1-1.78,5.57,5.57,0,0,1-1.71-3.35,4.3,4.3,0,0,1,.3-1.91,4.63,4.63,0,0,0,.19-.69,6.85,6.85,0,0,0-.8.27,5.39,5.39,0,0,1-1.9.49,2.45,2.45,0,0,1-.6-.07,5.18,5.18,0,0,1-3.65-5.38A4.27,4.27,0,0,1,7.08,34a3,3,0,0,1,1.89.6l.2.12a1.519,1.519,0,0,0-.13-.41,4.88,4.88,0,0,1-.2-.66,5.06,5.06,0,0,1,.65-4.26A6.62,6.62,0,0,1,13,27.08a7.26,7.26,0,0,1,5.92.6,4.36,4.36,0,0,1,.76.6,5.88,5.88,0,0,1,1.75,4.88,4.43,4.43,0,0,1-.26,1,5.141,5.141,0,0,0,.69,0h.55a3,3,0,0,1,1.6.4,7,7,0,0,1,2.71,6.72,3.92,3.92,0,0,1-3.32,3.23,3.13,3.13,0,0,1-.43,0,2.81,2.81,0,0,1-1.43-.45,1.52,1.52,0,0,0-.45-.2h-.26a3.06,3.06,0,0,1,.75.94,3.67,3.67,0,0,1-1.17,4.36A6.19,6.19,0,0,1,16.62,50.31Zm-6.11-9.79a1.76,1.76,0,0,1,1.79,1.72,3.68,3.68,0,0,1-.3,1.67,2.85,2.85,0,0,0-.21,1,3.56,3.56,0,0,0,1.08,2.13,5.73,5.73,0,0,0,3.73,1.24,4.25,4.25,0,0,0,2.56-.71,1.63,1.63,0,0,0,.56-1.95,3.64,3.64,0,0,0-.29-.3,2.25,2.25,0,0,1-.93-1.88,1.83,1.83,0,0,1,2-1.65,5.1,5.1,0,0,1,.93.1,3.67,3.67,0,0,1,1.08.43c.29.17.38.2.52.18a1.9,1.9,0,0,0,1.69-1.63,5,5,0,0,0-1.82-4.62,1,1,0,0,0-.51-.09h-.93A2.63,2.63,0,0,1,20,35.87a1.71,1.71,0,0,1-.79-2.35,2.78,2.78,0,0,0,.16-.6,3.88,3.88,0,0,0-1.13-3.18,2.6,2.6,0,0,0-.46-.36A5.25,5.25,0,0,0,13.56,29a4.71,4.71,0,0,0-2.44,1.54,3,3,0,0,0-.31,2.64,2.12,2.12,0,0,0,.13.42,2.81,2.81,0,0,1,.11,2.3,1.76,1.76,0,0,1-1.16.86,2.4,2.4,0,0,1-.46,0h0a2.94,2.94,0,0,1-1.52-.54A1.77,1.77,0,0,0,7.26,36,2.24,2.24,0,0,0,5.4,38.06a3.17,3.17,0,0,0,2.15,3.26h0A4.47,4.47,0,0,0,8.77,41a5.15,5.15,0,0,1,1.74-.48Z"/><path class="p" d="M16.44,48.93a6.87,6.87,0,0,1-4.51-1.57,5,5,0,0,1-1.51-3,3.88,3.88,0,0,1,.27-1.69,4.23,4.23,0,0,0,.17-.62,5.49,5.49,0,0,0-.71.25,4.72,4.72,0,0,1-1.68.42A1.93,1.93,0,0,1,8,42.71,4.58,4.58,0,0,1,4.75,38,3.78,3.78,0,0,1,8,34.5a2.63,2.63,0,0,1,1.68.5l.18.1a1.02,1.02,0,0,0-.12-.36,4.69,4.69,0,0,1-.17-.58,4.47,4.47,0,0,1,.57-3.76,5.84,5.84,0,0,1,3.09-2,6.43,6.43,0,0,1,5.24.53,4.64,4.64,0,0,1,.67.52,5.24,5.24,0,0,1,1.54,4.31,4.14,4.14,0,0,1-.23.9h1.1A2.6,2.6,0,0,1,23,35a6.18,6.18,0,0,1,2.35,6,3.45,3.45,0,0,1-2.93,2.85,2.34,2.34,0,0,1-.38,0,2.44,2.44,0,0,1-1.26-.39,1.47,1.47,0,0,0-.4-.18h-.23a2.5,2.5,0,0,1,.66.83,3.24,3.24,0,0,1-1,3.85,5.44,5.44,0,0,1-3.37.97Zm-5.39-8.64a1.54,1.54,0,0,1,1.57,1.51,3.3,3.3,0,0,1-.24,1.48,2.35,2.35,0,0,0-.19.9,3.15,3.15,0,0,0,1,1.87,5.11,5.11,0,0,0,3.3,1.1,3.72,3.72,0,0,0,2.26-.63,1.44,1.44,0,0,0,.5-1.72l-.26-.26a2,2,0,0,1-.82-1.67,1.61,1.61,0,0,1,1.76-1.45,4,4,0,0,1,.82.09,2.81,2.81,0,0,1,.95.38c.26.14.34.18.46.15A1.67,1.67,0,0,0,23.6,40.6,4.44,4.44,0,0,0,22,36.52a.94.94,0,0,0-.45-.08h-.87a2.37,2.37,0,0,1-1.22-.29,1.52,1.52,0,0,1-.7-2.07,2.39,2.39,0,0,0,.15-.54,3.4,3.4,0,0,0-1-2.8,2.58,2.58,0,0,0-.41-.33,4.69,4.69,0,0,0-3.76-.31,4.13,4.13,0,0,0-2.16,1.36,2.69,2.69,0,0,0-.27,2.33,3.8,3.8,0,0,0,.12.37,2.54,2.54,0,0,1,.09,2,1.53,1.53,0,0,1-1,.76,1.75,1.75,0,0,1-.4.05h0a2.59,2.59,0,0,1-1.34-.48,1.45,1.45,0,0,0-.58-.27,2,2,0,0,0-1.64,1.84A2.78,2.78,0,0,0,8.43,41h0a3.65,3.65,0,0,0,1-.31,4.6,4.6,0,0,1,1.62-.4Z"/><path class="u" d="M32.17,6.11a5,5,0,1,0,5,5,5,5,0,0,0-5-5Zm.34,9.15a4.08,4.08,0,0,1-4-4.15,4,4,0,1,1,8,0A4.08,4.08,0,0,1,32.51,15.26Z"/><path class="u" d="M19,47.62a5,5,0,1,0,5,5,5,5,0,0,0-5-5Zm.35,9.14a4.14,4.14,0,1,1,4-4.14,4.07,4.07,0,0,1-4.02,4.14Z"/><g transform="translate(62.867 28.492)"><g transform="translate(0 -0.001)"><path class="v" d="M51,32.1h2.124a.912.912,0,0,0,.906-1.038L51.434,13Z" transform="translate(-28.86 -7.79)"/><rect class="w" width="22.574" height="23.442" rx="3" transform="translate(0 2.171)"/><path class="x" d="M23.1,10.868v2.6H4v-2.6A.871.871,0,0,1,4.868,10H22.233A.871.871,0,0,1,23.1,10.868Z" transform="translate(-2.264 -6.092)"/><path class="y" d="M23.1,18V31.1a.871.871,0,0,1-.256.616L20.319,34.24a.871.871,0,0,1-.616.256H4.868A.871.871,0,0,1,4,33.628V18Z" transform="translate(-2.264 -10.62)"/><path class="z" d="M14.6,33.682a2.607,2.607,0,0,0,2.6-2.6V27.6A2.6,2.6,0,0,0,12,27.6v3.473A2.607,2.607,0,0,0,14.6,33.682ZM12.868,27.6a1.736,1.736,0,0,1,3.473,0v3.473a1.736,1.736,0,1,1-3.473,0Z" transform="translate(-6.791 -14.581)"/><path class="z" d="M28.434,32.814a.434.434,0,1,0,0,.868h3.473a.434.434,0,1,0,0-.868H30.6v-7.38a.434.434,0,0,0-.741-.307l-1.736,1.736a.434.434,0,0,0,.614.614l1-1v6.332Z" transform="translate(-15.845 -14.581)"/><path class="aa" d="M23.419,48H13.434a.434.434,0,0,0,0,.868h9.985a.434.434,0,0,0,0-.868Z" transform="translate(-7.356 -27.596)"/><path class="ab" d="M43.961,49a.875.875,0,0,1-.178.256l-2.527,2.527a.875.875,0,0,1-.256.178V49.868A.871.871,0,0,1,41.868,49Z" transform="translate(-23.201 -28.162)"/><g transform="translate(4.341 0)"><path class="ac" d="M15.929,3.17h-.907a2.171,2.171,0,1,0-1.984,3.039.434.434,0,1,1,0,.868A3.039,3.039,0,1,1,15.9,3.027a.4.4,0,0,1,.026.143Z" transform="translate(-9.999 -0.999)"/><path class="ac" d="M34.929,3.17h-.907a2.171,2.171,0,1,0-1.984,3.039.434.434,0,1,1,0,.868A3.039,3.039,0,1,1,34.9,3.027a.4.4,0,0,1,.026.143Z" transform="translate(-20.75 -0.999)"/></g></g></g></g></svg>