<svg xmlns="http://www.w3.org/2000/svg" width="35.868" height="34.625" viewBox="0 0 35.868 34.625"><defs><style>.a,.b{fill:#bee8ff;}.c,.d{stroke:none;}.d{fill:#fff;}</style></defs><g transform="translate(-221.048 -436.125)"><g transform="translate(221.048 436.125)"><g transform="translate(0 0)"><path class="a" d="M42.878,29.813A13.043,13.043,0,0,0,37.26,54.632l.409-7.894s-.768-.252-.937-.334c-1.63-.718-2.814-2.832-2.814-5.576,0-2.994,2.322-5.573,4.567-5.594h.008c2.245.021,4.567,2.6,4.567,5.594,0,2.744-1.186,4.857-2.812,5.576l-.944.344.456,8.777a12.794,12.794,0,0,0,7.269-.294l.4-7.822a4.194,4.194,0,0,1-2.544-1.764c-.706-1.057.543-10.412.543-10.412h.812v8.779h.807V35.235h.882v8.78h.8v-8.78h.915v8.78h.806v-8.78h.623s1.249,9.355.542,10.412a4.205,4.205,0,0,1-2.516,1.759l-.036.013.351,6.728a13.045,13.045,0,0,0-6.545-24.334Z" transform="translate(-27.401 -27.389)"/><path class="a" d="M91.829,142.368a3.768,3.768,0,0,1,.112-.375.171.171,0,0,0-.095-.19.156.156,0,0,0-.2.044s-.089.142-.219.352a3.782,3.782,0,0,0-.368.83,6.863,6.863,0,0,0-.252,1.2,5.748,5.748,0,0,0-.018.7,3.306,3.306,0,0,0,.134.74,4.791,4.791,0,0,0,1.167,2.131,4.018,4.018,0,0,0,.624.505l.059.042c.036.024.07.045.1.065a1.2,1.2,0,0,0,.251.1.151.151,0,0,0,.171-.072.153.153,0,0,0-.05-.181,1.632,1.632,0,0,1-.186-.2,3.676,3.676,0,0,1-.239-.328c-.064-.093-.139-.2-.209-.3a10.564,10.564,0,0,1-.824-2.027,2.7,2.7,0,0,1-.115-.558,5.7,5.7,0,0,1-.033-.6,7.878,7.878,0,0,1,.049-1.108A4.32,4.32,0,0,1,91.829,142.368Z" transform="translate(-83.401 -130.256)"/><path class="a" d="M15.477,0A15.476,15.476,0,1,0,30.953,15.476,15.5,15.5,0,0,0,15.477,0Zm0,29.8A14.323,14.323,0,1,1,29.8,15.476,14.339,14.339,0,0,1,15.477,29.8Z"/></g></g><g transform="translate(240.903 454.736)"><g class="b"><path class="c" d="M 8.945307731628418 15.51375865936279 L 8.445307731628418 15.51375865936279 L 6.567867755889893 15.51375865936279 L 6.067867755889893 15.51375865936279 L 6.067867755889893 15.01375865936279 L 6.067867755889893 8.945308685302734 L -0.0004923437372781336 8.945308685302734 L -0.5004923343658447 8.945308685302734 L -0.5004923343658447 8.445308685302734 L -0.5004923343658447 6.568449020385742 L -0.5004923343658447 6.068449020385742 L -0.0004923437372781336 6.068449020385742 L 6.067867755889893 6.068449020385742 L 6.067867755889893 -1.147155785474752e-06 L 6.067867755889893 -0.5000011324882507 L 6.567867755889893 -0.5000011324882507 L 8.445307731628418 -0.5000011324882507 L 8.945307731628418 -0.5000011324882507 L 8.945307731628418 -1.147155785474752e-06 L 8.945307731628418 6.068449020385742 L 15.01318740844727 6.068449020385742 L 15.51318740844727 6.068449020385742 L 15.51318740844727 6.568449020385742 L 15.51318740844727 8.445308685302734 L 15.51318740844727 8.945308685302734 L 15.01318740844727 8.945308685302734 L 8.945307731628418 8.945308685302734 L 8.945307731628418 15.01375865936279 L 8.945307731628418 15.51375865936279 Z"/><path class="d" d="M 8.445307731628418 15.01375865936279 L 8.445307731628418 8.445308685302734 L 15.01318740844727 8.445308685302734 L 15.01318740844727 6.568449020385742 L 8.445307731628418 6.568449020385742 L 8.445307731628418 -1.147155785474752e-06 L 6.567867755889893 -1.147155785474752e-06 L 6.567867755889893 6.568449020385742 L -0.0004923437372781336 6.568449020385742 L -0.0004923437372781336 8.445308685302734 L 6.567867755889893 8.445308685302734 L 6.567867755889893 15.01375865936279 L 8.445307731628418 15.01375865936279 M 9.445307731628418 16.01375961303711 L 8.445307731628418 16.01375961303711 L 6.567867755889893 16.01375961303711 L 5.567867755889893 16.01375961303711 L 5.567867755889893 15.01375865936279 L 5.567867755889893 9.445308685302734 L -0.0004923437372781336 9.445308685302734 L -1.000492334365845 9.445308685302734 L -1.000492334365845 8.445308685302734 L -1.000492334365845 6.568449020385742 L -1.000492334365845 5.568449020385742 L -0.0004923437372781336 5.568449020385742 L 5.567867755889893 5.568449020385742 L 5.567867755889893 -1.147155785474752e-06 L 5.567867755889893 -1.000001192092896 L 6.567867755889893 -1.000001192092896 L 8.445307731628418 -1.000001192092896 L 9.445307731628418 -1.000001192092896 L 9.445307731628418 -1.147155785474752e-06 L 9.445307731628418 5.568449020385742 L 15.01318740844727 5.568449020385742 L 16.01318740844727 5.568449020385742 L 16.01318740844727 6.568449020385742 L 16.01318740844727 8.445308685302734 L 16.01318740844727 9.445308685302734 L 15.01318740844727 9.445308685302734 L 9.445307731628418 9.445308685302734 L 9.445307731628418 15.01375865936279 L 9.445307731628418 16.01375961303711 Z"/></g></g></g></svg>