<svg xmlns="http://www.w3.org/2000/svg" width="25" height="25" viewBox="0 0 25 25"><defs><style>.a{fill:#e3883f;}.b{fill:#faad67;}.c{fill:#dbe2f8;}.d{fill:#c8dc7d;}.e{fill:#b6cf50;}.f{fill:#a1afda;}.g{fill:#f6d1b0;}.h{fill:#87481c;}.i{fill:#3ca04b;}.j{fill:#f9e6d8;}.k{fill:#f8bb8e;}.l{fill:#e9efff;}.m{fill:#ccd5f3;}.n{fill:#f6a15b;}.o{fill:#ed9049;}.p{fill:#81a54b;}.q{fill:#ffbb43;}.r{fill:#f0f8fe;}.s{fill:#ffeb95;}.t{fill:#9e613b;}.u{fill:#68331b;}.v{fill:#d44f4f;}.w{fill:#fa2a2a;}.x{fill:#d7e99f;}.y{fill:#fff2ba;}.z{fill:#f4a979;}.aa{fill:#f6fafd;}.ab{fill:#4c648c;}.ac{fill:#b4bde5;}.ad{fill:#fe7a57;}.ae{fill:#5c2e19;}</style></defs><path class="a" d="M1,29H25.468v.532H1Z" transform="translate(-0.468 -13.574)"/><path class="b" d="M33.333,31.017a4.911,4.911,0,0,0,1.792-.231.449.449,0,0,0,.29-.24,5.557,5.557,0,0,0-1.5.048q-.9.081-1.813.14t-1.819.1q-.445.018-.89.031a3.528,3.528,0,0,1-.891.02,2.447,2.447,0,0,0,1.089.16Z" transform="translate(-13.34 -14.284)"/><path class="b" d="M6.457,16.968l1,0q1.038,0,2.074,0h2.036c.255,0,1.8.175,1.9-.086.136-.342-1.6-.391-1.8-.389l-4.847.053a1.662,1.662,0,0,0-1.318.414C5.591,16.856,6.313,16.967,6.457,16.968Z" transform="translate(-2.574 -7.723)"/><ellipse class="c" cx="12" cy="9" rx="12" ry="9" transform="translate(1 7)"/><path class="d" d="M3.628,16.573a2.6,2.6,0,0,0,2.638.915l.053.117c0,.883-1.191,1.6-2.66,1.6S1,18.488,1,17.605c0-.771.915-1.415,2.128-1.564l.037-.021a4.051,4.051,0,0,0,.463.553Z" transform="translate(-0.468 -7.499)"/><path class="e" d="M4.3,11.3c.6-.6,1.883-.282,2.888.7v.059a3.041,3.041,0,0,0,.973,2.452l-.043.207a1.024,1.024,0,0,1-.17.229.768.768,0,0,1-.282.186,2.6,2.6,0,0,1-2.638-.915,4.051,4.051,0,0,1-.463-.553C3.941,12.776,3.8,11.8,4.3,11.3Z" transform="translate(-1.872 -5.148)"/><path class="d" d="M11.589,8c.883,0,1.6,1.191,1.6,2.66s-.713,2.66-1.6,2.66a1.078,1.078,0,0,1-.622-.207,3.041,3.041,0,0,1-.973-2.452V10.6C10.015,9.16,10.717,8,11.589,8Z" transform="translate(-4.674 -3.745)"/><ellipse class="f" cx="5" cy="4.5" rx="5" ry="4.5" transform="translate(15 1)"/><circle class="f" cx="3" cy="3" r="3" transform="translate(9 3)"/><ellipse class="g" cx="3.5" cy="3" rx="3.5" ry="3" transform="translate(17 2)"/><ellipse class="h" cx="1.5" cy="2" rx="1.5" ry="2" transform="translate(11 4)"/><path class="i" d="M38.128,9.349a.548.548,0,0,1-.394.537l-.676.207a.816.816,0,0,1-.809-.218.851.851,0,0,1-.25-.59.745.745,0,0,1,.032-.218l.207-.676a.585.585,0,0,1,.989-.2l.106-.032a.513.513,0,0,1,.633.633l-.032.106a.629.629,0,0,1,.191.452Z" transform="translate(-16.851 -3.742)"/><path class="h" d="M22.319,35.255v1.6a.532.532,0,0,1-.532.532H17.532A.532.532,0,0,1,17,36.851V34.723a1.067,1.067,0,0,0,1.064-1.064.532.532,0,0,0,.532.532H19.66a.532.532,0,0,0,.532-.532V31a5.314,5.314,0,0,0,2.128,4.255Z" transform="translate(-7.957 -14.511)"/><rect class="j" width="3" height="9" rx="1.5" transform="translate(7 12)"/><path class="k" d="M6.7,24a.489.489,0,0,1,.426.532v5.319a.489.489,0,0,1-.426.532H5.851c-.314,0-.851-.84-.851-3.191C5,26.016,5.383,24,5.851,24Z" transform="translate(-2.34 -11.234)"/><path class="g" d="M11.128,23.532v6.383a.532.532,0,0,1-.532.532H9.532A.532.532,0,0,1,9,29.915V23.532A.532.532,0,0,1,9.532,23H10.6A.532.532,0,0,1,11.128,23.532Z" transform="translate(-4.213 -10.766)"/><path class="g" d="M21.128,27.255v2.66a.532.532,0,0,1-.532.532H19.532A.532.532,0,0,1,19,29.915V23.532A.532.532,0,0,1,19.532,23H20.6a.532.532,0,0,1,.532.532Z" transform="translate(-8.894 -10.766)"/><path class="j" d="M28.319,21A5.319,5.319,0,1,1,23,26.319,5.319,5.319,0,0,1,28.319,21Z" transform="translate(-10.766 -9.83)"/><path class="i" d="M35.787,30.537a.552.552,0,0,1-.8.527l-.59-.314a.789.789,0,0,1,0-1.372l.59-.314a.532.532,0,0,1,.25-.064.568.568,0,0,1,.548.59l.1.048a.494.494,0,0,1,0,.851Z" transform="translate(-15.915 -13.574)"/><path class="i" d="M32.755,27.73a.789.789,0,0,1-1.372,0l-.314-.59a.552.552,0,0,1,.527-.8l.048-.1a.494.494,0,0,1,.851,0l.048.1a.568.568,0,0,1,.59.548.532.532,0,0,1-.064.25Z" transform="translate(-14.516 -12.171)"/><path class="i" d="M30.129,30.064a.768.768,0,0,1-.4.686l-.59.314a.552.552,0,0,1-.8-.527l-.1-.048a.494.494,0,0,1,0-.851l.1-.048a.568.568,0,0,1,.548-.59.532.532,0,0,1,.25.064l.59.314a.768.768,0,0,1,.4.686Z" transform="translate(-13.107 -13.574)"/><ellipse class="l" cx="12" cy="9" rx="12" ry="9" transform="translate(1 7)"/><ellipse class="c" cx="11.5" cy="8" rx="11.5" ry="8" transform="translate(1 8)"/><ellipse class="m" cx="10" cy="7" rx="10" ry="7" transform="translate(3 9)"/><path class="d" d="M3.628,16.573a2.6,2.6,0,0,0,2.638.915l.053.117c0,.883-1.191,1.6-2.66,1.6S1,18.488,1,17.605c0-.771.915-1.415,2.128-1.564l.037-.021a4.051,4.051,0,0,0,.463.553Z" transform="translate(-0.468 -7.499)"/><path class="e" d="M4.3,11.3c.6-.6,1.883-.282,2.888.7v.059a3.041,3.041,0,0,0,.973,2.452l-.043.207a1.024,1.024,0,0,1-.17.229.768.768,0,0,1-.282.186,2.6,2.6,0,0,1-2.638-.915,4.051,4.051,0,0,1-.463-.553C3.941,12.776,3.8,11.8,4.3,11.3Z" transform="translate(-1.872 -5.148)"/><path class="d" d="M11.589,8c.883,0,1.6,1.191,1.6,2.66s-.713,2.66-1.6,2.66a1.078,1.078,0,0,1-.622-.207,3.041,3.041,0,0,1-.973-2.452V10.6C10.015,9.16,10.717,8,11.589,8Z" transform="translate(-4.674 -3.745)"/><ellipse class="f" cx="5" cy="4.5" rx="5" ry="4.5" transform="translate(15 1)"/><circle class="f" cx="3" cy="3" r="3" transform="translate(9 3)"/><ellipse class="g" cx="3.5" cy="3" rx="3.5" ry="3" transform="translate(17 2)"/><ellipse class="h" cx="1.5" cy="2" rx="1.5" ry="2" transform="translate(11 4)"/><path class="i" d="M38.128,9.349a.548.548,0,0,1-.394.537l-.676.207a.816.816,0,0,1-.809-.218.851.851,0,0,1-.25-.59.745.745,0,0,1,.032-.218l.207-.676a.585.585,0,0,1,.989-.2l.106-.032a.513.513,0,0,1,.633.633l-.032.106a.629.629,0,0,1,.191.452Z" transform="translate(-16.851 -3.742)"/><path class="h" d="M22.319,35.255v1.6a.532.532,0,0,1-.532.532H17.532A.532.532,0,0,1,17,36.851V34.723a1.067,1.067,0,0,0,1.064-1.064.532.532,0,0,0,.532.532H19.66a.532.532,0,0,0,.532-.532V31a5.314,5.314,0,0,0,2.128,4.255Z" transform="translate(-7.957 -14.511)"/><rect class="j" width="3" height="9" rx="1.5" transform="translate(7 12)"/><path class="k" d="M6.7,24a.489.489,0,0,1,.426.532v5.319a.489.489,0,0,1-.426.532H5.851c-.314,0-.851-.84-.851-3.191C5,26.016,5.383,24,5.851,24Z" transform="translate(-2.34 -11.234)"/><path class="g" d="M11.128,23.532v6.383a.532.532,0,0,1-.532.532H9.532A.532.532,0,0,1,9,29.915V23.532A.532.532,0,0,1,9.532,23H10.6A.532.532,0,0,1,11.128,23.532Z" transform="translate(-4.213 -10.766)"/><path class="g" d="M21.128,27.255v2.66a.532.532,0,0,1-.532.532H19.532A.532.532,0,0,1,19,29.915V23.532A.532.532,0,0,1,19.532,23H20.6a.532.532,0,0,1,.532.532Z" transform="translate(-8.894 -10.766)"/><path class="g" d="M28.319,21A5.319,5.319,0,1,1,23,26.319,5.319,5.319,0,0,1,28.319,21Z" transform="translate(-10.766 -9.83)"/><ellipse class="c" cx="5" cy="4.5" rx="5" ry="4.5" transform="translate(15 1)"/><ellipse class="m" cx="4" cy="4.5" rx="4" ry="4.5" transform="translate(16 1)"/><ellipse class="g" cx="3.5" cy="4" rx="3.5" ry="4" transform="translate(17 1)"/><ellipse class="n" cx="3.5" cy="3" rx="3.5" ry="3" transform="translate(17 2)"/><path class="o" d="M32.531,7.264a3.17,3.17,0,0,1,.687-1.972A3.188,3.188,0,1,0,37.7,9.769a3.187,3.187,0,0,1-5.164-2.5Z" transform="translate(-14.978 -2.477)"/><path class="i" d="M38.128,9.349a.548.548,0,0,1-.394.537l-.676.207a.816.816,0,0,1-.809-.218.851.851,0,0,1-.25-.59.745.745,0,0,1,.032-.218l.207-.676a.585.585,0,0,1,.989-.2l.106-.032a.513.513,0,0,1,.633.633l-.032.106a.629.629,0,0,1,.191.452Z" transform="translate(-16.851 -3.742)"/><path class="p" d="M38.108,8.9l.032-.106a.513.513,0,0,0-.633-.633l-.106.032a.585.585,0,0,0-.989.2l-.044.144a.626.626,0,0,1,.5.186l.106-.032a.513.513,0,0,1,.633.633l-.032.106a.629.629,0,0,1,.191.452c0,.017-.006.033-.007.05l.146-.045a.548.548,0,0,0,.394-.537.629.629,0,0,0-.191-.452Z" transform="translate(-17.023 -3.742)"/><ellipse class="q" cx="0.305" cy="0.22" rx="0.305" ry="0.22" transform="translate(20.764 7.768) rotate(-45)"/><ellipse class="q" cx="0.305" cy="0.22" rx="0.305" ry="0.22" transform="translate(21.827 6.172) rotate(-45)"/><ellipse class="r" cx="0.305" cy="0.22" rx="0.305" ry="0.22" transform="translate(20.764 7.236) rotate(-45)"/><ellipse class="r" cx="0.22" cy="0.305" rx="0.22" ry="0.305" transform="translate(22.518 4.748)"/><ellipse class="q" cx="0.22" cy="0.305" rx="0.22" ry="0.305" transform="translate(21.454 3.684)"/><ellipse class="q" cx="0.22" cy="0.305" rx="0.22" ry="0.305" transform="translate(20.231 2.861) rotate(-45)"/><ellipse class="r" cx="0.22" cy="0.305" rx="0.22" ry="0.305" transform="translate(19.326 2.62)"/><ellipse class="q" cx="0.22" cy="0.305" rx="0.22" ry="0.305" transform="translate(18.262 3.684)"/><ellipse class="s" cx="0.439" cy="0.611" rx="0.439" ry="0.611" transform="translate(18.939 6.801) rotate(-45)"/><ellipse class="s" cx="0.439" cy="0.611" rx="0.439" ry="0.611" transform="translate(17.876 6.269) rotate(-45)"/><ellipse class="r" cx="0.439" cy="0.611" rx="0.439" ry="0.611" transform="translate(21.902 3.645)"/><ellipse class="r" cx="0.439" cy="0.611" rx="0.439" ry="0.611" transform="translate(17.646 4.177)"/><ellipse class="r" cx="0.5" cy="1" rx="0.5" ry="1" transform="translate(18 4)"/><circle class="f" cx="3" cy="3" r="3" transform="translate(9 3)"/><ellipse class="h" cx="1.5" cy="2" rx="1.5" ry="2" transform="translate(11 4)"/><circle class="c" cx="3" cy="3" r="3" transform="translate(9 3)"/><circle class="m" cx="2.5" cy="2.5" r="2.5" transform="translate(10 3)"/><circle class="t" cx="2" cy="2" r="2" transform="translate(10 4)"/><ellipse class="h" cx="1.5" cy="2" rx="1.5" ry="2" transform="translate(11 4)"/><path class="u" d="M21.386,11.033a1.628,1.628,0,0,1-.266.027,1.6,1.6,0,0,1-1.6-1.6A1.628,1.628,0,0,1,19.55,9.2a2.074,2.074,0,0,1-.027-.266,2.116,2.116,0,0,1,.383-1.213,2.128,2.128,0,1,0,2.958,2.958,2.112,2.112,0,0,1-1.213.383,2.074,2.074,0,0,1-.266-.027Z" transform="translate(-8.886 -3.613)"/><path class="u" d="M21.6,12.362a1.628,1.628,0,0,0,.266-.027A2.115,2.115,0,0,1,20.027,10.5a1.628,1.628,0,0,0-.027.266,1.6,1.6,0,0,0,1.6,1.6Z" transform="translate(-9.362 -4.915)"/><ellipse class="i" cx="0.305" cy="0.22" rx="0.305" ry="0.22" transform="translate(12.256 6.174) rotate(-45)"/><ellipse class="g" cx="0.305" cy="0.22" rx="0.305" ry="0.22" transform="translate(11.193 6.174) rotate(-45)"/><ellipse class="v" cx="0.22" cy="0.305" rx="0.22" ry="0.305" transform="translate(12.943 5.28)"/><ellipse class="w" cx="0.22" cy="0.305" rx="0.22" ry="0.305" transform="translate(11.879 4.748)"/><ellipse class="i" cx="0.22" cy="0.305" rx="0.22" ry="0.305" transform="translate(11.724 5.521) rotate(-45)"/><path class="x" d="M12.057,9c.589,0,1.064.953,1.064,2.128s-.475,2.128-1.064,2.128a.643.643,0,0,1-.415-.166,2.689,2.689,0,0,1-.649-1.962v-.047C11.008,9.928,11.476,9,12.057,9Z" transform="translate(-5.142 -4.213)"/><path class="x" d="M4.572,17.073C3.669,17.2,3,17.608,3,18.1c0,.591.953,1.068,2.128,1.068s2.128-.479,2.128-1.068l-.043-.078a1.271,1.271,0,0,1-.536.07,3.138,3.138,0,0,1-2.1-1.016Z" transform="translate(-1.404 -7.992)"/><path class="x" d="M5.634,12.225c.461-.451,1.443-.213,2.213.527V12.8a2.259,2.259,0,0,0,.745,1.839l-.032.156a.787.787,0,0,1-.13.172.59.59,0,0,1-.216.139,2.017,2.017,0,0,1-2.021-.686A3.085,3.085,0,0,1,5.838,14c-.48-.673-.586-1.4-.2-1.777Z" transform="translate(-2.529 -5.615)"/><ellipse class="y" cx="0.305" cy="0.22" rx="0.305" ry="0.22" transform="translate(6.939 6.174) rotate(-45)"/><ellipse class="y" cx="0.22" cy="0.305" rx="0.22" ry="0.305" transform="translate(6.408 6.06) rotate(-45)"/><ellipse class="y" cx="0.305" cy="0.22" rx="0.305" ry="0.22" transform="translate(6.939 6.706) rotate(-45)"/><ellipse class="y" cx="0.22" cy="0.305" rx="0.22" ry="0.305" transform="translate(6.407 6.592) rotate(-45)"/><ellipse class="y" cx="0.305" cy="0.22" rx="0.305" ry="0.22" transform="translate(6.939 7.238) rotate(-45)"/><ellipse class="y" cx="0.22" cy="0.305" rx="0.22" ry="0.305" transform="translate(6.407 7.124) rotate(-45)"/><ellipse class="y" cx="0.305" cy="0.22" rx="0.305" ry="0.22" transform="translate(6.939 7.77) rotate(-45)"/><ellipse class="y" cx="0.22" cy="0.305" rx="0.22" ry="0.305" transform="translate(6.407 7.655) rotate(-45)"/><ellipse class="y" cx="0.305" cy="0.22" rx="0.305" ry="0.22" transform="translate(3.251 7.195)"/><ellipse class="y" cx="0.305" cy="0.22" rx="0.305" ry="0.22" transform="translate(3.627 7.571)"/><ellipse class="y" cx="0.305" cy="0.22" rx="0.305" ry="0.22" transform="translate(4.003 7.947)"/><ellipse class="y" cx="0.305" cy="0.22" rx="0.305" ry="0.22" transform="translate(4.379 8.323)"/><ellipse class="y" cx="0.22" cy="0.305" rx="0.22" ry="0.305" transform="translate(3.868 6.578)"/><ellipse class="y" cx="0.22" cy="0.305" rx="0.22" ry="0.305" transform="translate(4.244 6.954)"/><ellipse class="y" cx="0.22" cy="0.305" rx="0.22" ry="0.305" transform="translate(4.62 7.33)"/><ellipse class="y" cx="0.22" cy="0.305" rx="0.22" ry="0.305" transform="translate(4.997 7.706)"/><ellipse class="y" cx="0.305" cy="0.22" rx="0.305" ry="0.22" transform="translate(2.416 10.701) rotate(-45)"/><ellipse class="y" cx="0.305" cy="0.22" rx="0.305" ry="0.22" transform="translate(2.948 10.702) rotate(-45)"/><ellipse class="y" cx="0.305" cy="0.22" rx="0.305" ry="0.22" transform="translate(3.48 10.702) rotate(-45)"/><ellipse class="y" cx="0.305" cy="0.22" rx="0.305" ry="0.22" transform="translate(4.012 10.702) rotate(-45)"/><ellipse class="y" cx="0.305" cy="0.22" rx="0.305" ry="0.22" transform="translate(2.948 9.638) rotate(-45)"/><ellipse class="y" cx="0.305" cy="0.22" rx="0.305" ry="0.22" transform="translate(2.416 9.637) rotate(-45)"/><path class="g" d="M13.532,29.447V23.064A1.067,1.067,0,0,1,14.6,22h-.532A1.067,1.067,0,0,0,13,23.064v6.383a1.067,1.067,0,0,0,1.064,1.064H14.6A1.067,1.067,0,0,1,13.532,29.447Z" transform="translate(-6.085 -10.298)"/><path class="z" d="M7.732,24H7.2a.489.489,0,0,1,.426.532v5.319a.489.489,0,0,1-.426.532h.532a.489.489,0,0,0,.426-.532V24.532A.489.489,0,0,0,7.732,24Z" transform="translate(-3.37 -11.234)"/><path class="k" d="M11.532,23H11a.532.532,0,0,1,.532.532v6.383a.532.532,0,0,1-.532.532h.532a.532.532,0,0,0,.532-.532V23.532A.532.532,0,0,0,11.532,23Z" transform="translate(-5.149 -10.766)"/><path class="k" d="M19.532,29.915V23.532A.532.532,0,0,1,20.064,23h-.532a.532.532,0,0,0-.532.532v6.383a.532.532,0,0,0,.532.532h.532A.532.532,0,0,1,19.532,29.915Z" transform="translate(-8.894 -10.766)"/><ellipse class="g" cx="0.305" cy="0.22" rx="0.305" ry="0.22" transform="translate(9.068 19.468) rotate(-45)"/><ellipse class="g" cx="0.305" cy="0.22" rx="0.305" ry="0.22" transform="translate(7.471 14.682) rotate(-45)"/><ellipse class="g" cx="0.305" cy="0.22" rx="0.305" ry="0.22" transform="translate(9.067 18.404) rotate(-45)"/><ellipse class="g" cx="0.22" cy="0.305" rx="0.22" ry="0.305" transform="translate(8.688 16.982)"/><ellipse class="g" cx="0.22" cy="0.305" rx="0.22" ry="0.305" transform="translate(9.22 15.386)"/><ellipse class="g" cx="0.22" cy="0.305" rx="0.22" ry="0.305" transform="translate(8.156 13.79)"/><ellipse class="g" cx="0.22" cy="0.305" rx="0.22" ry="0.305" transform="translate(8.156 15.386)"/><ellipse class="g" cx="0.439" cy="0.611" rx="0.439" ry="0.611" transform="translate(7.763 18.501) rotate(-45)"/><ellipse class="k" cx="0.305" cy="0.22" rx="0.305" ry="0.22" transform="translate(10.662 14.681) rotate(-45)"/><ellipse class="k" cx="0.305" cy="0.22" rx="0.305" ry="0.22" transform="translate(10.662 18.404) rotate(-45)"/><ellipse class="k" cx="0.22" cy="0.305" rx="0.22" ry="0.305" transform="translate(11.347 17.514)"/><ellipse class="k" cx="0.22" cy="0.305" rx="0.22" ry="0.305" transform="translate(10.815 16.45)"/><ellipse class="k" cx="0.22" cy="0.305" rx="0.22" ry="0.305" transform="translate(10.662 18.814) rotate(-45)"/><ellipse class="k" cx="0.22" cy="0.305" rx="0.22" ry="0.305" transform="translate(11.347 14.322)"/><ellipse class="k" cx="0.22" cy="0.305" rx="0.22" ry="0.305" transform="translate(11.347 15.386)"/><ellipse class="k" cx="0.305" cy="0.22" rx="0.305" ry="0.22" transform="translate(5.345 14.15) rotate(-45)"/><ellipse class="k" cx="0.305" cy="0.22" rx="0.305" ry="0.22" transform="translate(4.813 14.682) rotate(-45)"/><ellipse class="z" cx="0.305" cy="0.22" rx="0.305" ry="0.22" transform="translate(3.218 13.619) rotate(-45)"/><ellipse class="z" cx="0.305" cy="0.22" rx="0.305" ry="0.22" transform="translate(3.218 15.746) rotate(-45)"/><ellipse class="k" cx="0.305" cy="0.22" rx="0.305" ry="0.22" transform="translate(4.813 18.405) rotate(-45)"/><ellipse class="k" cx="0.22" cy="0.305" rx="0.22" ry="0.305" transform="translate(5.496 17.514)"/><ellipse class="z" cx="0.22" cy="0.305" rx="0.22" ry="0.305" transform="translate(2.837 16.45)"/><ellipse class="z" cx="0.22" cy="0.305" rx="0.22" ry="0.305" transform="translate(3.369 16.982)"/><ellipse class="z" cx="0.22" cy="0.305" rx="0.22" ry="0.305" transform="translate(3.369 14.322)"/><ellipse class="k" cx="0.22" cy="0.305" rx="0.22" ry="0.305" transform="translate(4.964 16.45)"/><ellipse class="k" cx="0.22" cy="0.305" rx="0.22" ry="0.305" transform="translate(5.345 18.815) rotate(-45)"/><ellipse class="z" cx="0.22" cy="0.305" rx="0.22" ry="0.305" transform="translate(2.686 15.093) rotate(-45)"/><ellipse class="z" cx="0.22" cy="0.305" rx="0.22" ry="0.305" transform="translate(3.218 18.284) rotate(-45)"/><ellipse class="k" cx="0.22" cy="0.305" rx="0.22" ry="0.305" transform="translate(5.496 12.727)"/><ellipse class="k" cx="0.22" cy="0.305" rx="0.22" ry="0.305" transform="translate(5.496 15.386)"/><ellipse class="r" cx="0.22" cy="0.305" rx="0.22" ry="0.305" transform="translate(11.31 13.924) rotate(-45)"/><ellipse class="aa" cx="0.439" cy="0.611" rx="0.439" ry="0.611" transform="translate(8.414 12.545) rotate(-45)"/><ellipse class="aa" cx="0.439" cy="0.611" rx="0.439" ry="0.611" transform="translate(10.541 13.077) rotate(-45)"/><ellipse class="aa" cx="0.439" cy="0.611" rx="0.439" ry="0.611" transform="translate(5.222 13.076) rotate(-45)"/><ellipse class="r" cx="0.22" cy="0.305" rx="0.22" ry="0.305" transform="translate(8.652 13.393) rotate(-45)"/><ellipse class="r" cx="0.22" cy="0.305" rx="0.22" ry="0.305" transform="translate(4.93 17.116) rotate(-45)"/><ellipse class="r" cx="0.22" cy="0.305" rx="0.22" ry="0.305" transform="translate(7.588 16.583) rotate(-45)"/><ellipse class="r" cx="0.22" cy="0.305" rx="0.22" ry="0.305" transform="translate(9.184 18.711) rotate(-45)"/><ellipse class="u" cx="0.305" cy="0.22" rx="0.305" ry="0.22" transform="translate(11.726 21.594) rotate(-45)"/><ellipse class="u" cx="0.22" cy="0.305" rx="0.22" ry="0.305" transform="translate(11.879 20.173)"/><ellipse class="u" cx="0.22" cy="0.305" rx="0.22" ry="0.305" transform="translate(10.131 20.41) rotate(-45)"/><ellipse class="u" cx="0.22" cy="0.305" rx="0.22" ry="0.305" transform="translate(9.752 21.237)"/><ellipse class="u" cx="0.439" cy="0.611" rx="0.439" ry="0.611" transform="translate(12.55 21.163) rotate(-45)"/><path class="u" d="M21.787,41.532H17.532A.532.532,0,0,1,17,41v.532a.532.532,0,0,0,.532.532h4.255a.532.532,0,0,0,.532-.532V41A.532.532,0,0,1,21.787,41.532Z" transform="translate(-7.957 -19.191)"/><circle class="j" cx="4.5" cy="4.5" r="4.5" transform="translate(13 12)"/><ellipse class="g" cx="0.305" cy="0.22" rx="0.305" ry="0.22" transform="translate(13.32 14.149) rotate(-45)"/><ellipse class="g" cx="0.305" cy="0.22" rx="0.305" ry="0.22" transform="translate(17.043 13.086) rotate(-45)"/><ellipse class="g" cx="0.305" cy="0.22" rx="0.305" ry="0.22" transform="translate(12.789 16.808) rotate(-45)"/><ellipse class="g" cx="0.22" cy="0.305" rx="0.22" ry="0.305" transform="translate(12.943 14.854)"/><ellipse class="g" cx="0.305" cy="0.22" rx="0.305" ry="0.22" transform="translate(19.17 14.68) rotate(-45)"/><ellipse class="g" cx="0.305" cy="0.22" rx="0.305" ry="0.22" transform="translate(18.638 17.339) rotate(-45)"/><ellipse class="g" cx="0.305" cy="0.22" rx="0.305" ry="0.22" transform="translate(19.702 16.275) rotate(-45)"/><ellipse class="g" cx="0.22" cy="0.305" rx="0.22" ry="0.305" transform="translate(18.794 15.386)"/><ellipse class="g" cx="0.22" cy="0.305" rx="0.22" ry="0.305" transform="translate(13.475 17.514)"/><ellipse class="g" cx="0.22" cy="0.305" rx="0.22" ry="0.305" transform="translate(14.539 18.046)"/><ellipse class="g" cx="0.22" cy="0.305" rx="0.22" ry="0.305" transform="translate(17.73 18.046)"/><ellipse class="g" cx="0.22" cy="0.305" rx="0.22" ry="0.305" transform="translate(19.326 18.046)"/><ellipse class="g" cx="0.22" cy="0.305" rx="0.22" ry="0.305" transform="translate(14.917 19.345) rotate(-45)"/><ellipse class="g" cx="0.22" cy="0.305" rx="0.22" ry="0.305" transform="translate(15.448 18.813) rotate(-45)"/><ellipse class="g" cx="0.305" cy="0.22" rx="0.305" ry="0.22" transform="translate(17.042 20.548) rotate(-45)"/><ellipse class="g" cx="0.305" cy="0.22" rx="0.305" ry="0.22" transform="translate(19.702 20.017) rotate(-45)"/><ellipse class="g" cx="0.22" cy="0.305" rx="0.22" ry="0.305" transform="translate(13.853 18.814) rotate(-45)"/><ellipse class="g" cx="0.22" cy="0.305" rx="0.22" ry="0.305" transform="translate(14.539 16.982)"/><ellipse class="g" cx="0.22" cy="0.305" rx="0.22" ry="0.305" transform="translate(18.794 13.259)"/><ellipse class="g" cx="0.22" cy="0.305" rx="0.22" ry="0.305" transform="translate(16.135 16.45)"/><ellipse class="g" cx="0.22" cy="0.305" rx="0.22" ry="0.305" transform="translate(17.73 14.322)"/><ellipse class="g" cx="0.22" cy="0.305" rx="0.22" ry="0.305" transform="translate(15.603 14.854)"/><ellipse class="g" cx="0.22" cy="0.305" rx="0.22" ry="0.305" transform="translate(18.262 19.641)"/><ellipse class="r" cx="0.305" cy="0.22" rx="0.305" ry="0.22" transform="translate(20.765 18.402) rotate(-45)"/><ellipse class="r" cx="0.305" cy="0.22" rx="0.305" ry="0.22" transform="translate(17.043 19.466) rotate(-45)"/><ellipse class="r" cx="0.305" cy="0.22" rx="0.305" ry="0.22" transform="translate(21.297 15.744) rotate(-45)"/><ellipse class="r" cx="0.22" cy="0.305" rx="0.22" ry="0.305" transform="translate(21.454 16.982)"/><ellipse class="r" cx="0.305" cy="0.22" rx="0.305" ry="0.22" transform="translate(14.916 17.871) rotate(-45)"/><ellipse class="r" cx="0.305" cy="0.22" rx="0.305" ry="0.22" transform="translate(13.852 15.213) rotate(-45)"/><ellipse class="r" cx="0.22" cy="0.305" rx="0.22" ry="0.305" transform="translate(15.603 16.45)"/><ellipse class="r" cx="0.22" cy="0.305" rx="0.22" ry="0.305" transform="translate(20.922 14.322)"/><ellipse class="r" cx="0.22" cy="0.305" rx="0.22" ry="0.305" transform="translate(19.858 13.79)"/><ellipse class="r" cx="0.22" cy="0.305" rx="0.22" ry="0.305" transform="translate(16.666 13.79)"/><ellipse class="r" cx="0.22" cy="0.305" rx="0.22" ry="0.305" transform="translate(15.071 13.79)"/><ellipse class="r" cx="0.22" cy="0.305" rx="0.22" ry="0.305" transform="translate(19.169 12.964) rotate(-45)"/><ellipse class="r" cx="0.22" cy="0.305" rx="0.22" ry="0.305" transform="translate(18.106 12.433) rotate(-45)"/><ellipse class="r" cx="0.305" cy="0.22" rx="0.305" ry="0.22" transform="translate(17.045 12.036) rotate(-45)"/><ellipse class="r" cx="0.305" cy="0.22" rx="0.305" ry="0.22" transform="translate(14.385 13.099) rotate(-45)"/><ellipse class="r" cx="0.22" cy="0.305" rx="0.22" ry="0.305" transform="translate(20.233 13.496) rotate(-45)"/><ellipse class="r" cx="0.22" cy="0.305" rx="0.22" ry="0.305" transform="translate(19.858 14.854)"/><ellipse class="r" cx="0.22" cy="0.305" rx="0.22" ry="0.305" transform="translate(16.135 19.641)"/><ellipse class="r" cx="0.22" cy="0.305" rx="0.22" ry="0.305" transform="translate(18.262 15.386)"/><ellipse class="r" cx="0.22" cy="0.305" rx="0.22" ry="0.305" transform="translate(16.666 17.514)"/><ellipse class="r" cx="0.22" cy="0.305" rx="0.22" ry="0.305" transform="translate(17.73 16.45)"/><ellipse class="r" cx="0.22" cy="0.305" rx="0.22" ry="0.305" transform="translate(16.135 12.195)"/><ellipse class="aa" cx="0.878" cy="1.222" rx="0.878" ry="1.222" transform="translate(18.726 13.596) rotate(-45)"/><ellipse class="aa" cx="0.439" cy="0.611" rx="0.439" ry="0.611" transform="translate(20.532 15.846) rotate(-45)"/><path class="i" d="M35.787,30.537a.552.552,0,0,1-.8.527l-.59-.314a.789.789,0,0,1,0-1.372l.59-.314a.532.532,0,0,1,.25-.064.568.568,0,0,1,.548.59l.1.048a.494.494,0,0,1,0,.851Z" transform="translate(-15.915 -13.574)"/><path class="i" d="M32.755,27.73a.789.789,0,0,1-1.372,0l-.314-.59a.552.552,0,0,1,.527-.8l.048-.1a.494.494,0,0,1,.851,0l.048.1a.568.568,0,0,1,.59.548.532.532,0,0,1-.064.25Z" transform="translate(-14.516 -12.171)"/><path class="i" d="M30.129,30.064a.768.768,0,0,1-.4.686l-.59.314a.552.552,0,0,1-.8-.527l-.1-.048a.494.494,0,0,1,0-.851l.1-.048a.568.568,0,0,1,.548-.59.532.532,0,0,1,.25.064l.59.314a.768.768,0,0,1,.4.686Z" transform="translate(-13.107 -13.574)"/><path class="ab" d="M11.915,17.843a1.117,1.117,0,0,1-.43-.143c-.039.019-.075.041-.114.061l-.019.1a1.024,1.024,0,0,1-.17.229.768.768,0,0,1-.282.186l.053.117A1.256,1.256,0,0,0,11.915,17.843Z" transform="translate(-5.102 -8.285)"/><path class="ab" d="M4.391,22.311a2.987,2.987,0,0,0,1.354-.595,4.2,4.2,0,0,1-.968.141c-.049,0-.1.01-.146.01a4.169,4.169,0,0,1-1.11-.149q-.24.319-.446.652a4.348,4.348,0,0,0,.491.03A4.209,4.209,0,0,0,4.391,22.311Z" transform="translate(-1.44 -10.165)"/><path class="ab" d="M12.727,23.532A1.051,1.051,0,0,1,12.875,23h-.148a1.039,1.039,0,0,0-.311.053A.532.532,0,0,1,12.727,23.532Z" transform="translate(-5.812 -10.766)"/><path class="ab" d="M23,24.432v2.648a5.313,5.313,0,0,1,2.417-4.454A5.325,5.325,0,0,0,23,24.432Z" transform="translate(-10.766 -10.591)"/><path class="ab" d="M14.723,39.723a.529.529,0,0,1-.523-.488.425.425,0,0,1-.009-.044V37.064H13.128A1.067,1.067,0,0,1,12.064,36a.532.532,0,0,1-.532.532H11A1.067,1.067,0,0,0,12.064,37.6h1.064v2.128a.555.555,0,0,0,.532.532h4.255a.532.532,0,0,0,.532-.532Z" transform="translate(-5.149 -16.851)"/><path class="ab" d="M8.064,35.532V35a.489.489,0,0,1-.426.532H7v.532a.532.532,0,0,0,.532.532H8.6a.532.532,0,0,0,.532-.532H8.6A.532.532,0,0,1,8.064,35.532Z" transform="translate(-3.277 -16.383)"/><path class="ab" d="M8.626,24.532V24H8.2A.489.489,0,0,1,8.626,24.532Z" transform="translate(-3.838 -11.234)"/><path class="ab" d="M4.064,27.66A8.844,8.844,0,0,1,4.5,25H3.851c-.422,0-.774,1.64-.839,2.824C3,27.953,3,28.077,3,28.191c0,2.351.537,3.191.851,3.191H4.7a.489.489,0,0,0,.426-.532H4.915c-.314,0-.851-.84-.851-3.191Z" transform="translate(-1.404 -11.702)"/><path class="ab" d="M30.9,40.011a5.169,5.169,0,0,1-.713.053A5.314,5.314,0,0,1,27,39v1.151a5.3,5.3,0,0,0,2.128.445c.077,0,.151-.014.227-.017a5.288,5.288,0,0,0,2.674-.848A5.413,5.413,0,0,1,30.9,40.011Z" transform="translate(-12.638 -18.255)"/><path class="ab" d="M33.331,15.249c-.04,0-.08.006-.12.006A4.776,4.776,0,0,1,28.455,11h-.031a3.138,3.138,0,0,1-.655,1.931c.053.119.106.236.169.35a4.83,4.83,0,0,0,4.21,2.506c.023,0,.045,0,.067,0A4.829,4.829,0,0,0,34.781,15l-.008-.006a4.772,4.772,0,0,1-1.441.26Z" transform="translate(-12.998 -5.149)"/><path class="ab" d="M19.617,15.439a3.2,3.2,0,0,1-2.856-1.773c-.31.065-.61.147-.909.23a4.056,4.056,0,0,1-.079.426,3.173,3.173,0,0,0,4.536,1.123c.061-.04.119-.084.177-.128a3.192,3.192,0,0,1-.868.122Z" transform="translate(-7.383 -6.397)"/><path class="r" d="M40.024,18.512a4.771,4.771,0,0,1-1.054.519,7.014,7.014,0,0,1,3.207,5.591A5.84,5.84,0,0,1,41.89,26.4q.538.06,1.082.11a6.808,6.808,0,0,0,.269-1.886,7.906,7.906,0,0,0-3.218-6.111Z" transform="translate(-18.241 -8.665)"/><path class="r" d="M16.674,13.741c-.252.056-.5.113-.748.18v.01C16.171,13.863,16.421,13.8,16.674,13.741Z" transform="translate(-7.455 -6.432)"/><path class="r"/><path class="r" d="M28.16,14.017l.023-.038Z" transform="translate(-13.181 -6.543)"/><path class="r" d="M28.53,13.331h0Z" transform="translate(-13.354 -6.24)"/><path class="r" d="M27.54,14.63a3.174,3.174,0,0,1-.261.3c.143.016.288.026.429.046-.062-.114-.116-.231-.169-.35Z" transform="translate(-12.769 -6.848)"/><path class="r" d="M15.191,15.7c.234-.077.471-.148.713-.213a3.2,3.2,0,0,1-.4-.582A3.221,3.221,0,0,1,15.191,15.7Z" transform="translate(-7.111 -6.977)"/><path class="r" d="M30.389,14.788l-.028-.046A.539.539,0,0,1,30.389,14.788Z" transform="translate(-14.212 -6.901)"/><path class="l" d="M35.072,18.5c-.044-.014-.086-.032-.129-.047C34.986,18.472,35.027,18.489,35.072,18.5Z" transform="translate(-16.356 -8.639)"/><path class="l" d="M36.912,18.928c-.048,0-.094-.015-.142-.022C36.818,18.913,36.864,18.922,36.912,18.928Z" transform="translate(-17.211 -8.85)"/><path class="l" d="M35.971,18.761c-.049-.011-.1-.025-.146-.037C35.873,18.736,35.921,18.751,35.971,18.761Z" transform="translate(-16.769 -8.764)"/><path class="l" d="M34.21,18.156c-.035-.015-.068-.033-.1-.049C34.144,18.123,34.177,18.141,34.21,18.156Z" transform="translate(-15.965 -8.476)"/><path class="l" d="M31.906,16.61l-.021-.019Z" transform="translate(-14.925 -7.766)"/><path class="l"/><path class="l" d="M32.625,17.207l-.046-.035Z" transform="translate(-15.25 -8.038)"/><path class="l" d="M33.4,17.723c-.026-.014-.05-.03-.075-.045Z" transform="translate(-15.598 -8.275)"/><path class="l" d="M21.885,16.9l-.034-.005Z" transform="translate(-10.228 -7.906)"/><path class="l" d="M20.821,16.591l-.029-.011Z" transform="translate(-9.732 -7.761)"/><path class="l" d="M19.845,16.094l-.01-.006Z" transform="translate(-9.284 -7.531)"/><path class="l" d="M26.312,15.249c-.141-.02-.287-.03-.429-.046a3.191,3.191,0,0,1-1.41.834c-.058.044-.116.088-.177.128a14.35,14.35,0,0,1,3.015.348,4.8,4.8,0,0,1-1-1.263Z" transform="translate(-11.373 -7.116)"/><path class="l" d="M23.842,16.925l-.065.01Z" transform="translate(-11.13 -7.922)"/><path class="l" d="M37.639,19.488a4.766,4.766,0,0,1-1.513.269c2.234,1.268,3.656,3.181,3.656,5.322,0,.073-.013.144-.016.216.006.106.016.21.016.316a5.335,5.335,0,0,1-.124,1.133c.3.039.6.077.9.111a5.84,5.84,0,0,0,.287-1.776,7.014,7.014,0,0,0-3.207-5.591Z" transform="translate(-16.91 -9.122)"/><path class="l" d="M15.008,15.994c-.243.066-.479.137-.713.213a1.5,1.5,0,0,1-1.019.828c.11.188.227.372.346.552a12.686,12.686,0,0,1,2.521-.778A3.2,3.2,0,0,1,15.008,15.994Z" transform="translate(-6.214 -7.487)"/><path class="c" d="M16.627,20.728a.532.532,0,0,1,.532-.532h1.064a.532.532,0,0,1,.532.532V21.8A5.325,5.325,0,0,1,21.173,20a5.309,5.309,0,0,1,8.2,4.138c0-.072.016-.143.016-.216,0-2.141-1.423-4.054-3.656-5.322-.022,0-.044,0-.067,0a4.764,4.764,0,0,1-3.21-1.243,14.35,14.35,0,0,0-3.013-.347,3.191,3.191,0,0,1-3,.276,12.686,12.686,0,0,0-2.521.778,12.259,12.259,0,0,0,1.264,1.6h.369a1.067,1.067,0,0,1,1.064,1.064Z" transform="translate(-6.52 -7.962)"/><path class="x" d="M11.821,8c-.566,0-1.056.492-1.34,1.229.079.426.171.843.285,1.244.049-1.086.5-1.94,1.055-1.94.589,0,1.064.953,1.064,2.128a4.013,4.013,0,0,1-.07.745c-.151.8-.536,1.383-.994,1.383a.555.555,0,0,1-.144-.029c.031.06.062.12.094.178.065.12.129.241.2.358a1.5,1.5,0,0,0,1.019-.827,3.221,3.221,0,0,0,.31-.8,4.057,4.057,0,0,0,.079-.426v-.01a4.382,4.382,0,0,0,.041-.575c0-1.468-.713-2.66-1.6-2.66Z" transform="translate(-4.906 -3.745)"/><path class="r" d="M16.676,22h-.369c.146.156.3.306.454.455a.786.786,0,0,1,.454.333.661.661,0,0,1,.06.136c.152.133.305.266.464.392v-.253A1.067,1.067,0,0,0,16.676,22Z" transform="translate(-7.633 -10.298)"/><path class="j" d="M21.6,23.532A.532.532,0,0,0,21.064,23h-.532a.532.532,0,0,0-.532.532v.661q.385.28.791.541a.229.229,0,0,1,0-.138c.047-.116.2-.139.337-.05a.339.339,0,0,1,.166.372.16.16,0,0,1-.073.078c.123.074.246.15.372.221V23.532Zm-.624.931a.677.677,0,0,1-.745-.333c-.178-.278-.133-.58.1-.674a.676.676,0,0,1,.745.332C21.249,24.066,21.2,24.369,20.971,24.463Z" transform="translate(-9.362 -10.766)"/><path class="aa" d="M33.921,26a5.309,5.309,0,0,0-8.2-4.138,5.385,5.385,0,0,0-.963.807l-.067.074c-.116.127-.226.261-.329.4-.023.031-.047.062-.07.094a5.446,5.446,0,0,0-.319.5l-.009.015a5.288,5.288,0,0,0-.266.56c-.016.04-.029.081-.045.121,0,.011-.007.023-.011.034.156.085.313.168.473.249a4.783,4.783,0,0,1,9.171,2.668l.355.048.175.022a5.335,5.335,0,0,0,.124-1.135c0-.106-.01-.213-.016-.316Z" transform="translate(-11.065 -9.83)"/><path class="y" d="M12.071,9c-.557,0-1.006.854-1.055,1.94a12.3,12.3,0,0,0,.541,1.506q.172.4.37.78a.555.555,0,0,0,.144.029c.457,0,.843-.578.994-1.383a4.013,4.013,0,0,0,.07-.745C13.135,9.953,12.66,9,12.071,9Zm.185,1.245a.338.338,0,0,1,.372-.166c.117.047.139.2.05.337a.338.338,0,0,1-.372.166C12.19,10.535,12.168,10.383,12.256,10.245Zm0,.532a.338.338,0,0,1,.372-.166c.117.047.139.2.05.337a.338.338,0,0,1-.372.166C12.19,11.066,12.168,10.915,12.256,10.777Zm0,.532a.338.338,0,0,1,.372-.166c.117.047.139.2.05.337a.338.338,0,0,1-.372.166C12.19,11.6,12.168,11.447,12.256,11.309Zm-.481-1.23a.337.337,0,0,1,.372.166c.089.139.067.29-.05.337a.339.339,0,0,1-.372-.166C11.636,10.277,11.658,10.125,11.775,10.078Zm0,.532a.337.337,0,0,1,.372.166c.089.139.067.29-.05.337a.339.339,0,0,1-.372-.166C11.636,10.809,11.658,10.657,11.775,10.61Zm0,.532a.337.337,0,0,1,.372.166c.089.139.067.29-.05.337a.339.339,0,0,1-.372-.166C11.636,11.34,11.658,11.189,11.775,11.142Zm0,.532a.337.337,0,0,1,.372.166c.089.139.067.29-.05.337a.339.339,0,0,1-.372-.166C11.636,11.872,11.658,11.721,11.775,11.674Zm.9.337a.338.338,0,0,1-.372.166.166.166,0,0,1-.036-.027.227.227,0,0,1-.015-.31.338.338,0,0,1,.372-.166c.113.045.135.188.056.323a.082.082,0,0,1-.006.014Z" transform="translate(-5.156 -4.213)"/><path class="s" d="M13.351,11.523a.338.338,0,0,0,.372-.166c.089-.139.067-.29-.05-.337a.338.338,0,0,0-.372.166C13.211,11.324,13.234,11.476,13.351,11.523Z" transform="translate(-6.2 -5.154)"/><path class="s" d="M12.351,11.019c-.117.047-.139.2-.051.337a.339.339,0,0,0,.372.166c.117-.047.139-.2.05-.337a.337.337,0,0,0-.372-.166Z" transform="translate(-5.732 -5.154)"/><path class="s" d="M13.674,12.019a.338.338,0,0,0-.372.166c-.089.139-.066.29.051.337a.338.338,0,0,0,.372-.166C13.813,12.218,13.791,12.066,13.674,12.019Z" transform="translate(-6.201 -5.622)"/><path class="s" d="M12.351,12.019c-.117.047-.139.2-.051.337a.339.339,0,0,0,.372.166c.117-.047.139-.2.05-.337a.337.337,0,0,0-.372-.166Z" transform="translate(-5.732 -5.622)"/><path class="s" d="M13.674,13.019a.338.338,0,0,0-.372.166c-.089.139-.066.29.051.337a.338.338,0,0,0,.372-.166C13.813,13.218,13.791,13.066,13.674,13.019Z" transform="translate(-6.201 -6.09)"/><path class="s" d="M12.351,13.019c-.117.047-.139.2-.051.337a.339.339,0,0,0,.372.166c.117-.047.139-.2.05-.337a.337.337,0,0,0-.372-.166Z" transform="translate(-5.732 -6.09)"/><path class="s" d="M13.674,14.019a.338.338,0,0,0-.372.166.227.227,0,0,0,.015.31.166.166,0,0,0,.036.027.338.338,0,0,0,.372-.166s0-.01.006-.014C13.807,14.207,13.787,14.065,13.674,14.019Z" transform="translate(-6.201 -6.558)"/><path class="s" d="M12.351,14.019c-.117.047-.139.2-.051.337a.339.339,0,0,0,.372.166c.117-.047.139-.2.05-.337a.337.337,0,0,0-.372-.166Z" transform="translate(-5.732 -6.558)"/><path class="j" d="M20.064,23h-.532a.532.532,0,0,0-.532.532v.253c.174.139.351.276.532.408v-.661A.532.532,0,0,1,20.064,23Z" transform="translate(-8.894 -10.766)"/><path class="r" d="M21.819,25.858c-.139-.089-.29-.066-.337.05a.229.229,0,0,0,0,.138c.141.09.288.176.433.263a.16.16,0,0,0,.073-.078.339.339,0,0,0-.166-.373Z" transform="translate(-10.05 -12.078)"/><path class="aa" d="M17.16,22.856c.166.16.339.316.514.469a.662.662,0,0,0-.06-.136.786.786,0,0,0-.454-.333Z" transform="translate(-8.032 -10.699)"/><path class="aa" d="M20.429,23.842c-.234.094-.279.4-.1.674a.677.677,0,0,0,.745.333c.234-.094.278-.4.1-.674a.676.676,0,0,0-.744-.332Z" transform="translate(-9.464 -11.152)"/><path class="j" d="M25.674,26.019a.338.338,0,0,0-.372.166c-.089.139-.066.29.053.337a.338.338,0,0,0,.372-.166C25.813,26.218,25.791,26.066,25.674,26.019Z" transform="translate(-11.818 -12.175)"/><path class="j" d="M32.351,24.523a.338.338,0,0,0,.372-.166c.089-.139.067-.29-.05-.337a.338.338,0,0,0-.372.166C32.211,24.324,32.234,24.476,32.351,24.523Z" transform="translate(-15.094 -11.239)"/><path class="j" d="M24.595,27.939a.194.194,0,0,0-.036.027c.1.049.2.1.3.146C24.813,27.972,24.7,27.894,24.595,27.939Z" transform="translate(-11.496 -13.072)"/><path class="j" d="M36.3,27.2c-.089.139-.066.29.051.337a.338.338,0,0,0,.372-.166.353.353,0,0,0,.041-.093,1.67,1.67,0,0,1-.266-.237A.4.4,0,0,0,36.3,27.2Z" transform="translate(-16.966 -12.658)"/><path class="j" d="M35.7,25.015a.177.177,0,0,0-.213-.073.339.339,0,0,0-.146.381c.036.16.16.252.274.2a.231.231,0,0,0,.106-.106,1.011,1.011,0,0,1-.021-.4Z" transform="translate(-16.535 -11.669)"/><path class="j" d="M29.648,28.5a.353.353,0,0,0,.111-.355c-.035-.16-.16-.253-.273-.2a.339.339,0,0,0-.146.381.26.26,0,0,0,.167.206.493.493,0,0,1,.139-.029Z" transform="translate(-13.727 -13.071)"/><path class="aa" d="M36.718,27.024a1.67,1.67,0,0,0,.266.237.188.188,0,0,0-.091-.245.245.245,0,0,0-.175.008Z" transform="translate(-17.187 -12.64)"/><path class="aa" d="M36.014,25.089a1.011,1.011,0,0,0,.02.406.39.39,0,0,0,.041-.276.323.323,0,0,0-.061-.13Z" transform="translate(-16.852 -11.744)"/><path class="aa" d="M39.486,26.94a.343.343,0,0,0-.121.445.649.649,0,0,0,.294-.416A.165.165,0,0,0,39.486,26.94Z" transform="translate(-18.408 -12.604)"/><path class="aa" d="M37.486,25.939a.339.339,0,0,0-.146.381c.036.16.16.252.274.2a.337.337,0,0,0,.146-.381C37.724,25.981,37.6,25.89,37.486,25.939Z" transform="translate(-17.472 -12.135)"/><path class="aa" d="M36.612,24.092c-.007,0-.014-.005-.021-.01s-.029.006-.043.011a.638.638,0,0,0-.271.2.4.4,0,0,0,.163.216c.139.089.29.066.337-.051a.337.337,0,0,0-.166-.372Z" transform="translate(-16.981 -11.272)"/><path class="aa" d="M38.6,25.052c-.139-.089-.29-.067-.337.05a.339.339,0,0,0,.166.372c.139.089.29.066.337-.051A.337.337,0,0,0,38.6,25.052Z" transform="translate(-17.907 -11.701)"/><path class="aa" d="M40.326,29.276c-.01.012-.021.021-.03.034-.089.139-.066.29.051.337a.276.276,0,0,0,.239-.04.7.7,0,0,0-.053-.116A.823.823,0,0,0,40.326,29.276Z" transform="translate(-18.837 -13.704)"/><path class="ab" d="M23.637,27.486c0-.011.007-.023.011-.034Z" transform="translate(-11.064 -12.85)"/><path class="ab" d="M26.7,22.626a5.363,5.363,0,0,0-.963.807,5.385,5.385,0,0,1,.963-.807Z" transform="translate(-12.047 -10.591)"/><path class="ab" d="M40.939,18.5l0,0Z" transform="translate(-19.162 -8.66)"/><path class="ab" d="M17.491,13.666c-.053.011-.106.028-.16.04.053-.012.106-.027.16-.038Z" transform="translate(-8.112 -6.397)"/><path class="ab" d="M23,24.432v.611c.111.063.226.123.339.185l.012-.034c.015-.04.028-.081.045-.121a5.286,5.286,0,0,1,.266-.56l.009-.015a5.447,5.447,0,0,1,.319-.5c.022-.032.046-.062.07-.094.106-.138.213-.272.329-.4l.067-.074a5.363,5.363,0,0,1,.963-.807A5.325,5.325,0,0,0,23,24.432Z" transform="translate(-10.766 -10.591)"/><path class="ab" d="M34.717,14.992h0a4.772,4.772,0,0,1-1.441.26c-.04,0-.08.006-.12.006a4.8,4.8,0,0,1-.512-.028c-.048-.005-.094-.015-.142-.022-.12-.016-.24-.034-.357-.06-.049-.011-.1-.025-.146-.037-.114-.029-.228-.059-.339-.1-.044-.014-.086-.031-.128-.047-.115-.041-.229-.086-.34-.136l-.1-.049c-.118-.056-.232-.117-.345-.183l-.075-.045c-.12-.073-.236-.151-.348-.235l-.047-.035q-.181-.137-.348-.29l-.021-.019c-.119-.111-.232-.226-.339-.348a4.8,4.8,0,0,1-.444-.589c-.01-.015-.019-.031-.028-.046a4.37,4.37,0,0,1-.546-1.248c-.011-.038-.02-.077-.03-.116A4.777,4.777,0,0,1,28.4,11v.532h-.031c0-.422-.005-.313-.016-.206-.006.064-.019.126-.029.188-.007.043-.011.086-.019.128-.018.087-.041.172-.066.256,0,.016-.007.033-.013.049-.03.1-.064.189-.1.281l0,.012a3.207,3.207,0,0,1-.174.344l-.022.038a3.135,3.135,0,0,1-.209.309c.053.119.106.236.169.35a4.83,4.83,0,0,0,4.21,2.507c.023,0,.045,0,.067,0A4.829,4.829,0,0,0,34.722,15Z" transform="translate(-12.971 -5.149)"/><path class="ab" d="M20.486,15.32a3.1,3.1,0,0,1-.387.082l-.065.01a3.219,3.219,0,0,1-.414.03,3.173,3.173,0,0,1-.577-.053l-.034-.005a3.153,3.153,0,0,1-.532-.155l-.029-.011a3.153,3.153,0,0,1-.5-.252l-.01-.006a3.206,3.206,0,0,1-1.171-1.287c-.053.012-.106.027-.16.038-.253.059-.5.122-.75.19a4.056,4.056,0,0,1-.079.426,3.173,3.173,0,0,0,4.532,1.121c.059-.04.117-.084.175-.128Z" transform="translate(-7.386 -6.4)"/><path class="j" d="M29.059,11a4.787,4.787,0,0,0,.116.629A4.787,4.787,0,0,1,29.059,11Z" transform="translate(-13.602 -5.149)"/><path class="j" d="M29.334,12.4a4.787,4.787,0,0,0,.205.6,4.7,4.7,0,0,1-.205-.6Z" transform="translate(-13.731 -5.804)"/><path class="j" d="M29.72,13.531a4.772,4.772,0,0,0,.341.644A4.681,4.681,0,0,1,29.72,13.531Z" transform="translate(-13.911 -6.334)"/><path class="j" d="M30.414,14.829a4.743,4.743,0,0,0,.444.589,4.894,4.894,0,0,1-.444-.589Z" transform="translate(-14.236 -6.941)"/><path class="j" d="M38.226,18.76a4.772,4.772,0,0,0,1.441-.26A4.772,4.772,0,0,1,38.226,18.76Z" transform="translate(-17.893 -8.66)"/><path class="j"/><path class="j" d="M36.455,18.854c-.12-.016-.24-.034-.357-.06C36.215,18.82,36.335,18.837,36.455,18.854Z" transform="translate(-16.897 -8.797)"/><path class="j" d="M35.524,18.64c-.114-.029-.228-.059-.339-.1C35.3,18.581,35.409,18.611,35.524,18.64Z" transform="translate(-16.47 -8.681)"/><path class="j" d="M34.644,18.336c-.115-.041-.229-.086-.34-.136C34.415,18.25,34.529,18.295,34.644,18.336Z" transform="translate(-16.057 -8.519)"/><path class="j" d="M33.808,17.946c-.118-.057-.233-.117-.345-.183C33.575,17.829,33.69,17.889,33.808,17.946Z" transform="translate(-15.664 -8.315)"/><path class="j" d="M38,18.995c.04,0,.08-.005.12-.006C38.08,18.99,38.04,18.995,38,18.995Z" transform="translate(-17.787 -8.888)"/><path class="j" d="M33.015,17.472c-.12-.073-.236-.151-.349-.235C32.779,17.321,32.9,17.4,33.015,17.472Z" transform="translate(-15.29 -8.068)"/><path class="j" d="M37.549,18.975a4.791,4.791,0,0,1-.512-.028A4.8,4.8,0,0,0,37.549,18.975Z" transform="translate(-17.336 -8.869)"/><path class="j" d="M32.273,16.916q-.181-.137-.348-.29Q32.092,16.779,32.273,16.916Z" transform="translate(-14.944 -7.782)"/><path class="j" d="M31.587,16.285c-.118-.111-.232-.226-.339-.348C31.355,16.059,31.468,16.174,31.587,16.285Z" transform="translate(-14.627 -7.46)"/><path class="j" d="M28.755,12.463c.024-.085.048-.169.065-.256C28.8,12.294,28.779,12.379,28.755,12.463Z" transform="translate(-13.46 -5.714)"/><path class="j" d="M28.915,11.8c.01-.062.022-.124.029-.188C28.937,11.677,28.925,11.739,28.915,11.8Z" transform="translate(-13.535 -5.436)"/><path class="j" d="M28.538,13.062c.038-.091.073-.185.1-.281C28.611,12.877,28.576,12.97,28.538,13.062Z" transform="translate(-13.358 -5.983)"/><path class="j" d="M27.769,14.359a3.13,3.13,0,0,0,.208-.309,3.365,3.365,0,0,1-.208.309Z" transform="translate(-12.998 -6.577)"/><path class="j" d="M28.2,13.676a3.207,3.207,0,0,0,.174-.344A2.978,2.978,0,0,1,28.2,13.676Z" transform="translate(-13.2 -6.241)"/><path class="j" d="M17.632,13.669a3.181,3.181,0,0,0,.315.507,3.178,3.178,0,0,1-.315-.507Z" transform="translate(-8.253 -6.398)"/><path class="j" d="M18.226,14.623a3.191,3.191,0,0,0,.4.439,3.186,3.186,0,0,1-.4-.439Z" transform="translate(-8.531 -6.845)"/><path class="j" d="M17.632,13.668v0Z" transform="translate(-8.253 -6.397)"/><path class="j" d="M23.9,16.852a3.1,3.1,0,0,0,.387-.082A3.328,3.328,0,0,1,23.9,16.852Z" transform="translate(-11.187 -7.85)"/><path class="j" d="M22.492,16.953a3.173,3.173,0,0,1-.577-.053,3.173,3.173,0,0,0,.577.053Z" transform="translate(-10.258 -7.911)"/><path class="j" d="M23.414,16.944a3.127,3.127,0,0,1-.414.03,3.22,3.22,0,0,0,.414-.03Z" transform="translate(-10.766 -7.931)"/><path class="j" d="M20.353,16.354a3.223,3.223,0,0,1-.5-.252,3.153,3.153,0,0,0,.5.252Z" transform="translate(-9.293 -7.537)"/><path class="j" d="M21.383,16.75a3.153,3.153,0,0,1-.532-.155,3.153,3.153,0,0,0,.532.155Z" transform="translate(-9.76 -7.768)"/><path class="j" d="M18.984,15.449a3.18,3.18,0,0,0,.453.341A3.252,3.252,0,0,1,18.984,15.449Z" transform="translate(-8.886 -7.231)"/><path class="m" d="M37.669,8.98a4.255,4.255,0,1,1-7.6-3.8c0-.021,0-.042,0-.064a4.8,4.8,0,0,1,.106-1,4.787,4.787,0,1,0,8.3,4.134,4.822,4.822,0,0,1-.8.732Z" transform="translate(-13.573 -1.926)"/><path class="ac" d="M34.24,11.908a3.714,3.714,0,0,1-3.584-4.722,4.778,4.778,0,0,1-.136-1.064,4.255,4.255,0,1,0,7.6,3.8,4.763,4.763,0,0,1-.941.54A3.713,3.713,0,0,1,34.24,11.908Z" transform="translate(-14.027 -2.866)"/><path class="k" d="M34.724,12.845A3.713,3.713,0,0,0,37.666,11.4a4.758,4.758,0,0,1-1.081.312c-.043.031-.085.061-.129.089l-.038.023a2.644,2.644,0,0,1-.25.142l-.08.039c-.074.035-.149.068-.226.1l-.1.038c-.073.026-.147.047-.223.067-.038.01-.075.021-.113.029-.079.018-.16.031-.239.043-.035,0-.07.012-.106.016a3.239,3.239,0,0,1-.353.021,3.191,3.191,0,0,1-3.188-3.126,4.761,4.761,0,0,1-.4-1.064,3.714,3.714,0,0,0,3.584,4.721Z" transform="translate(-14.511 -3.803)"/><path class="n" d="M40.365,15.417q-.111.053-.226.1C40.216,15.485,40.291,15.452,40.365,15.417Z" transform="translate(-18.788 -7.216)"/><path class="n" d="M39.1,15.851c-.078.018-.16.031-.239.043C38.944,15.882,39.024,15.869,39.1,15.851Z" transform="translate(-18.191 -7.42)"/><path class="n" d="M40.965,15.077a2.644,2.644,0,0,1-.25.142C40.8,15.175,40.884,15.128,40.965,15.077Z" transform="translate(-19.058 -7.057)"/><path class="n" d="M38.354,15.961a3.239,3.239,0,0,1-.354.021A3.239,3.239,0,0,0,38.354,15.961Z" transform="translate(-17.787 -7.471)"/><path class="n" d="M41.257,14.954c.044-.029.086-.059.129-.089h-.008C41.337,14.9,41.3,14.927,41.257,14.954Z" transform="translate(-19.312 -6.958)"/><path class="n" d="M39.749,15.67c-.073.026-.147.047-.223.067C39.6,15.717,39.676,15.7,39.749,15.67Z" transform="translate(-18.502 -7.335)"/><path class="o" d="M38.769,15.931c-.035,0-.07.012-.106.016C38.7,15.943,38.736,15.936,38.769,15.931Z" transform="translate(-18.098 -7.457)"/><path class="o" d="M39.426,15.8c-.038.01-.075.021-.113.029C39.351,15.819,39.389,15.808,39.426,15.8Z" transform="translate(-18.402 -7.396)"/><path class="o" d="M40.048,15.6l-.1.038Z" transform="translate(-18.698 -7.302)"/><path class="o" d="M40.644,15.344l-.08.039Z" transform="translate(-18.987 -7.182)"/><path class="o" d="M41.223,15.033l-.038.023Z" transform="translate(-19.278 -7.037)"/><path class="ad" d="M36.258,12.721c-.058,0-.114-.006-.171-.009a.227.227,0,0,1-.126-.005h-.038a4.756,4.756,0,0,1-2.287-.767,4.809,4.809,0,0,1-1.631-1.809,3.191,3.191,0,0,0,3.188,3.121,3.239,3.239,0,0,0,.354-.021c.036,0,.07-.011.106-.016.081-.012.16-.025.239-.043.038-.009.076-.019.113-.029.076-.02.15-.041.223-.067l.1-.038q.115-.044.226-.1l.08-.039c.086-.044.169-.091.25-.142l.038-.023c.041-.027.08-.059.121-.088a4.766,4.766,0,0,1-.79.071Z" transform="translate(-14.982 -4.743)"/><path class="q" d="M39.442,14.973a.227.227,0,0,0,.126.005c-.043,0-.085,0-.127-.006Z" transform="translate(-18.461 -7.008)"/><path class="aa" d="M39.4,14.963l-.032,0h.038Z" transform="translate(-18.428 -7.004)"/><path class="m" d="M22.673,10.36a2.654,2.654,0,0,1-5.145-.924,2.623,2.623,0,0,1,.119-.745,3.194,3.194,0,0,1-.119-.851c0-.062.006-.121.009-.182a3.191,3.191,0,1,0,5.833,1.96,3.2,3.2,0,0,1-.7.743Z" transform="translate(-7.954 -3.585)"/><path class="ac" d="M22.205,11.8c-.029.031-.059.061-.089.09a2.127,2.127,0,0,1-.248.2c-.023.016-.048.029-.072.045a2.181,2.181,0,0,1-.257.139l-.078.036a2.11,2.11,0,0,1-.338.106l-.08.015a2.153,2.153,0,0,1-.382.037,2.121,2.121,0,0,1-2.108-1.93,3.192,3.192,0,0,1-.433-.941,2.623,2.623,0,0,0-.119.744,2.654,2.654,0,0,0,5.145.924,3.191,3.191,0,0,1-.9.489c-.013.014-.027.027-.04.04Z" transform="translate(-8.426 -4.495)"/><path class="t" d="M23.8,14.9l-.08.015Z" transform="translate(-11.103 -6.974)"/><path class="t" d="M25.827,13.734c-.029.031-.059.061-.089.09A1.186,1.186,0,0,0,25.827,13.734Z" transform="translate(-12.048 -6.429)"/><path class="t" d="M24.583,14.634l-.078.036C24.532,14.659,24.556,14.646,24.583,14.634Z" transform="translate(-11.47 -6.85)"/><path class="t" d="M25.208,14.288c-.023.016-.048.029-.072.045C25.16,14.317,25.185,14.3,25.208,14.288Z" transform="translate(-11.766 -6.688)"/><path class="u" d="M25.906,13.7c.013-.014.028-.026.04-.04l-.01,0C25.926,13.673,25.917,13.687,25.906,13.7Z" transform="translate(-12.126 -6.393)"/><path class="u" d="M24.909,14.372a2.106,2.106,0,0,1-.257.139A2.181,2.181,0,0,0,24.909,14.372Z" transform="translate(-11.539 -6.727)"/><path class="u" d="M23.382,14.928a2.158,2.158,0,0,1-.382.038,2.153,2.153,0,0,0,.382-.038Z" transform="translate(-10.766 -6.988)"/><path class="u" d="M25.519,13.9a2.082,2.082,0,0,1-.248.2,2.128,2.128,0,0,0,.248-.2Z" transform="translate(-11.829 -6.506)"/><path class="u" d="M24.208,14.7a2.11,2.11,0,0,1-.338.106A2.11,2.11,0,0,0,24.208,14.7Z" transform="translate(-11.173 -6.881)"/><path class="u" d="M23,13.983a1.585,1.585,0,0,0,.189-.019A1.313,1.313,0,0,1,23,13.983Z" transform="translate(-10.766 -6.536)"/><path class="ae" d="M21.677,12.77a3.217,3.217,0,0,1-2.64-1.4,2.121,2.121,0,0,0,2.108,1.93,2.158,2.158,0,0,0,.382-.038l.08-.015a2.11,2.11,0,0,0,.338-.106c.027-.011.053-.024.078-.036a2.106,2.106,0,0,0,.257-.139c.023-.015.049-.029.072-.045a2.082,2.082,0,0,0,.248-.2c.03-.029.061-.059.089-.09.011-.012.02-.025.031-.037a3.188,3.188,0,0,1-1.045.18Z" transform="translate(-8.911 -5.323)"/><path class="aa" d="M23.432,13.95c-.026,0-.053,0-.077.007C23.381,13.955,23.408,13.954,23.432,13.95Z" transform="translate(-10.932 -6.53)"/><ellipse class="aa" cx="0.878" cy="1.222" rx="0.878" ry="1.222" transform="translate(12.876 9.869) rotate(-45)"/><ellipse class="aa" cx="0.439" cy="0.611" rx="0.439" ry="0.611" transform="translate(12.554 11.587) rotate(-45)"/></svg>