<svg xmlns="http://www.w3.org/2000/svg" width="24.5" height="24.5" viewBox="0 0 24.5 24.5"><defs><style>.a{fill:#ecf4ff;}.b{fill:#ddeafb;}.c{fill:#cbe2ff;}.d{fill:#bed8fb;}.e{fill:#ffe07d;}.f{fill:#ffd064;}.g{fill:#fbf4c6;}.h{fill:#e2dfe3;}.i{fill:#d3ced4;}.j{fill:#fff;}.k{fill:#b3e59f;}.l{fill:#95d6a4;}</style></defs><g transform="translate(0 0)"><g transform="translate(0.269 0)"><ellipse class="a" cx="12.115" cy="12.115" rx="12.115" ry="12.115" transform="translate(0 0.269)"/><path class="b" d="M241.278,0c-.246,0-.489.008-.731.023a12.115,12.115,0,0,1,0,24.186c.242.014.486.023.731.023a12.115,12.115,0,0,0,0-24.231Z" transform="translate(-229.432)"/><ellipse class="c" cx="8.84" cy="8.84" rx="8.84" ry="8.84" transform="translate(3.006 3.275)"/><path class="d" d="M241.278,69.206c-.246,0-.49.011-.731.03a8.84,8.84,0,0,1,0,17.62c.241.02.485.03.731.03a8.84,8.84,0,0,0,0-17.68Z" transform="translate(-229.432 -65.931)"/></g><g transform="translate(0 0)"><path class="e" d="M.137,19.086a.468.468,0,0,0-.072.568,9.158,9.158,0,0,0,3.292,3.291.468.468,0,0,0,.568-.072L22.872,3.925a.467.467,0,0,0,.072-.569,9.472,9.472,0,0,0-3.29-3.29.467.467,0,0,0-.569.072Z" transform="translate(0 -0.001)"/><path class="f" d="M70.118,3.356a9.471,9.471,0,0,0-3.29-3.29.467.467,0,0,0-.569.072L65.64.757a9.456,9.456,0,0,1,1.088,1l.019.021a2.4,2.4,0,0,1-.075,3.327L49.518,22.259a9.17,9.17,0,0,0,1.013.686.468.468,0,0,0,.568-.072L70.046,3.925a.467.467,0,0,0,.072-.569Z" transform="translate(-47.174 -0.001)"/><g transform="translate(6.769 6.767)"><circle class="g" cx="0.366" cy="0.366" r="0.366" transform="translate(0 7.282)"/><circle class="g" cx="0.366" cy="0.366" r="0.366" transform="translate(2.194 6.55)"/><circle class="g" cx="0.366" cy="0.366" r="0.366" transform="translate(2.194 8.744)"/><circle class="g" cx="0.366" cy="0.366" r="0.366" transform="translate(4.388 5.819)"/><circle class="g" cx="0.366" cy="0.366" r="0.366" transform="translate(2.925 4.356)"/><circle class="g" cx="0.366" cy="0.366" r="0.366" transform="translate(4.127 2.925)"/><circle class="g" cx="0.366" cy="0.366" r="0.366" transform="translate(6.321 2.194)"/><circle class="g" cx="0.366" cy="0.366" r="0.366" transform="translate(6.321 4.388)"/><circle class="g" cx="0.366" cy="0.366" r="0.366" transform="translate(8.515 1.463)"/><circle class="g" cx="0.366" cy="0.366" r="0.366" transform="translate(7.052)"/></g></g><g transform="translate(12.31 14.753)"><circle class="h" cx="3.34" cy="3.34" r="3.34" transform="translate(0 0)"/><path class="i" d="M315.966,311.742a3.349,3.349,0,0,0-.731.081,3.339,3.339,0,0,1,0,6.517,3.34,3.34,0,1,0,.731-6.6Z" transform="translate(-312.627 -311.742)"/><circle class="j" cx="1.877" cy="1.877" r="1.877" transform="translate(1.463 1.463)"/><g transform="translate(2.378 2.231)"><circle class="i" cx="0.366" cy="0.366" r="0.366" transform="translate(0.596)"/><g transform="translate(0 1.097)"><circle class="i" cx="0.366" cy="0.366" r="0.366"/><circle class="i" cx="0.366" cy="0.366" r="0.366" transform="translate(1.192)"/></g></g></g><circle class="k" cx="1.877" cy="1.877" r="1.877" transform="translate(18.671 10.238)"/><path class="l" d="M419.469,216.338a1.866,1.866,0,0,0-.731.148,1.877,1.877,0,0,1,0,3.457,1.877,1.877,0,1,0,.731-3.606Z" transform="translate(-398.921 -206.1)"/></g></svg>