<svg xmlns="http://www.w3.org/2000/svg" width="18" height="18" viewBox="0 0 18 18"><defs><style>.a{fill:#ffa451;}</style></defs><circle class="a" cx="0.5" cy="0.5" r="0.5" transform="translate(9.749 6.75)"/><circle class="a" cx="0.5" cy="0.5" r="0.5" transform="translate(9.749 9.75)"/><circle class="a" cx="0.5" cy="0.5" r="0.5" transform="translate(12.749 6.75)"/><path class="a" d="M17.3,8.789a.7.7,0,0,0,.7-.7V4.219a2.816,2.816,0,0,0-2.813-2.812h-.914V.7a.7.7,0,0,0-1.406,0v.7h-3.2V.7A.7.7,0,0,0,8.262.7v.7H5.1V.7A.7.7,0,1,0,3.691.7v.7H2.813A2.816,2.816,0,0,0,0,4.219V15.187A2.816,2.816,0,0,0,2.813,18h8.859a.706.706,0,0,0,.071,0c.023,0,.046,0,.07,0a.7.7,0,0,0,.507-.215l5.484-5.7A.7.7,0,0,0,17.3,10.9H13.922a2.816,2.816,0,0,0-2.812,2.813v2.883h-8.3a1.408,1.408,0,0,1-1.406-1.406V4.219A1.408,1.408,0,0,1,2.813,2.813h.879v.7a.7.7,0,1,0,1.406,0v-.7H8.262v.7a.7.7,0,0,0,1.406,0v-.7h3.2v.7a.7.7,0,1,0,1.406,0v-.7h.914a1.408,1.408,0,0,1,1.406,1.406V8.086A.7.7,0,0,0,17.3,8.789Zm-4.781,4.922A1.408,1.408,0,0,1,13.922,12.3h1.722l-3.128,3.248Z"/><circle class="a" cx="0.5" cy="0.5" r="0.5" transform="translate(3.749 6.75)"/><circle class="a" cx="0.5" cy="0.5" r="0.5" transform="translate(6.749 9.75)"/><circle class="a" cx="0.5" cy="0.5" r="0.5" transform="translate(3.749 12.75)"/><circle class="a" cx="0.5" cy="0.5" r="0.5" transform="translate(3.749 9.75)"/><circle class="a" cx="0.5" cy="0.5" r="0.5" transform="translate(6.749 12.75)"/><circle class="a" cx="0.5" cy="0.5" r="0.5" transform="translate(6.749 6.75)"/></svg>