<svg xmlns="http://www.w3.org/2000/svg" width="35" height="35" viewBox="0 0 35 35"><defs><style>.a{fill:#ffa451;}.b{fill:#fff;}</style></defs><g transform="translate(-313 -188)"><rect class="a" width="35" height="35" rx="17.5" transform="translate(313 188)"/><g transform="translate(322.333 196.556)"><g transform="translate(0 0)"><path class="b" d="M13.875,37.03a1.685,1.685,0,0,0-1.222-.561,1.743,1.743,0,0,0-1.237.557l-1.143,1.139c-.094-.051-.188-.1-.278-.145-.13-.065-.253-.127-.358-.192A12.421,12.421,0,0,1,6.66,35.117a7.328,7.328,0,0,1-.977-1.541c.3-.271.571-.553.839-.825.1-.1.2-.206.3-.307a1.659,1.659,0,0,0,0-2.5l-.987-.987c-.112-.112-.228-.228-.336-.344-.217-.224-.445-.456-.68-.673a1.712,1.712,0,0,0-1.212-.532,1.772,1.772,0,0,0-1.23.532l-.007.007-1.23,1.241a2.646,2.646,0,0,0-.785,1.682,6.34,6.34,0,0,0,.463,2.684,15.572,15.572,0,0,0,2.767,4.615A17.02,17.02,0,0,0,9.256,42.6a8.83,8.83,0,0,0,3.183.94c.076,0,.156.007.228.007a2.725,2.725,0,0,0,2.087-.9c0-.007.011-.011.014-.018a8.221,8.221,0,0,1,.633-.655c.156-.148.315-.3.47-.467a1.8,1.8,0,0,0,.546-1.251,1.738,1.738,0,0,0-.557-1.241Zm1.295,3.808s0,0,0,0c-.141.152-.286.289-.441.441a9.51,9.51,0,0,0-.7.723,1.744,1.744,0,0,1-1.36.575c-.054,0-.112,0-.166,0a7.844,7.844,0,0,1-2.821-.846,16.066,16.066,0,0,1-5.338-4.181,14.683,14.683,0,0,1-2.6-4.336,5.164,5.164,0,0,1-.405-2.264,1.66,1.66,0,0,1,.5-1.074l1.233-1.233a.822.822,0,0,1,.55-.257.774.774,0,0,1,.528.253l.011.011c.221.206.43.42.651.647.112.116.228.231.344.351l.987.987a.69.69,0,0,1,0,1.121c-.1.1-.206.21-.311.311-.3.311-.593.6-.908.882-.007.007-.014.011-.018.018a.738.738,0,0,0-.188.821l.011.033a7.927,7.927,0,0,0,1.168,1.906l0,0A13.274,13.274,0,0,0,9.108,38.65a4.939,4.939,0,0,0,.445.242c.13.065.253.127.358.192.014.007.029.018.043.025a.784.784,0,0,0,.358.09.773.773,0,0,0,.55-.25L12.1,37.714a.818.818,0,0,1,.546-.271.737.737,0,0,1,.521.264l.007.007,1.993,1.993A.715.715,0,0,1,15.17,40.838Z" transform="translate(-0.344 -26.415)"/><path class="b" d="M245.346,86.894a4.655,4.655,0,0,1,3.79,3.79.485.485,0,0,0,.481.405.647.647,0,0,0,.083-.007.489.489,0,0,0,.4-.564,5.628,5.628,0,0,0-4.586-4.586.491.491,0,0,0-.564.4A.483.483,0,0,0,245.346,86.894Z" transform="translate(-236.097 -82.818)"/><path class="b" d="M256.894,7.559A9.268,9.268,0,0,0,249.342.008a.488.488,0,1,0-.159.962,8.278,8.278,0,0,1,6.749,6.749.485.485,0,0,0,.481.405.646.646,0,0,0,.083-.007A.479.479,0,0,0,256.894,7.559Z" transform="translate(-239.79 0)"/></g></g></g></svg>