<svg xmlns="http://www.w3.org/2000/svg" width="22.725" height="25.605" viewBox="0 0 22.725 25.605"><defs><style>.a{fill:#e1e6e9;}.b,.e{fill:#d5d6db;}.c{fill:#a45211;}.d,.f{fill:#ebf0f3;}.d,.e{opacity:0.1;}.f{opacity:0.25;}</style></defs><path class="a" d="M227.883,4.946a2,2,0,0,0-.242-2.1,2.017,2.017,0,0,0-1.24-.735,1.393,1.393,0,0,1-1.049-.848,2.017,2.017,0,0,0-.977-1.058,2,2,0,0,0-2.851,2.2,3.368,3.368,0,0,1-.7,2.788L220,6.217l2.681,2.168.824-1.019a3.37,3.37,0,0,1,2.58-1.268,2,2,0,0,0,1.8-1.152Z" transform="translate(-205.351 0.001)"/><path class="b" d="M227.9,34.806a2.009,2.009,0,0,1-1.8,1.15,3.373,3.373,0,0,0-2.582,1.269l-.821,1.019-2.681-2.17,0,0,2.17,1.754.824-1.016a3.361,3.361,0,0,1,2.579-1.269,2.008,2.008,0,0,0,1.559-3.25c-.022-.026-.042-.051-.067-.077a2.081,2.081,0,0,1,.572.5A2,2,0,0,1,227.9,34.806Z" transform="translate(-205.366 -29.858)"/><path class="c" d="M38.258,67.55A13.885,13.885,0,0,0,35.3,75.795a10.07,10.07,0,0,1-2.314,5.873c-3.068,3.8-8.011,4.889-11.04,2.441a5.916,5.916,0,0,1-1.914-2.854A9.327,9.327,0,0,1,22.015,72.8a10.113,10.113,0,0,1,5.26-3.489,15.59,15.59,0,0,0,2.042-.674A14.69,14.69,0,0,0,31.381,67.6a13.036,13.036,0,0,0,3.336-2.908.426.426,0,0,1,.6-.064l.08.064,2.716,2.2.083.067a.426.426,0,0,1,.064.6Z" transform="translate(-19.693 -59.81)"/><path class="d" d="M34.5,70.256a14.619,14.619,0,0,1-7.224,4.363,10.113,10.113,0,0,0-5.26,3.489,9.327,9.327,0,0,0-1.988,8.455,7.52,7.52,0,0,0,5.723,2.687,7.913,7.913,0,0,0,7.695-8.113C33.446,78.012,36.953,71.611,34.5,70.256Z" transform="translate(-19.693 -65.118)"/><ellipse class="e" cx="4.701" cy="4.957" rx="4.701" ry="4.957" transform="translate(1.934 11.639)"/><ellipse class="e" cx="2.105" cy="2.22" rx="2.105" ry="2.22" transform="translate(4.061 13.179)"/><path class="f" d="M249.442,7.171a1.3,1.3,0,1,0,1.232,1.3A1.265,1.265,0,0,0,249.442,7.171Z" transform="translate(-231.498 -6.647)"/></svg>