<svg xmlns="http://www.w3.org/2000/svg" xmlns:xlink="http://www.w3.org/1999/xlink" width="382.523" height="648.75" viewBox="0 0 382.523 648.75"><defs><style>.a{fill:#ccc;}.b,.c,.k{fill:#bbccd5;}.b{opacity:0.3;}.aq,.ar,.au,.av,.ax,.bb,.d,.e,.f,.o{opacity:0.4;}.d{fill:url(#a);}.e{fill:url(#b);}.f{fill:url(#c);}.g{opacity:0.76;}.ag,.h,.i{fill:#fff;}.h{opacity:0.73;}.i{opacity:0.71;}.j{fill:#e4e4e4;}.ad,.al,.am,.ao,.as,.at,.k,.m,.q,.r,.t,.u{opacity:0.5;}.l{fill:#f29b6e;}.bc,.m{fill:#ce543d;}.bb,.n{fill:#233863;}.o{fill:#bee8ff;}.p,.r{fill:#fedf7c;}.q{fill:#f5c631;}.s{fill:#fefefe;}.t{fill:#dfe5f8;}.u{fill:url(#d);}.v{fill:#223ee2;}.w{fill:#002949;}.x{fill:#f9d256;}.y{fill:#f1c742;}.z{fill:#b8c9ff;}.aa{fill:#f29e70;}.ab{fill:#10207f;}.ac{fill:url(#e);}.ad{fill:url(#f);}.ae{fill:url(#g);}.af{fill:#4e77f7;}.ah{fill:#0f3351;}.ai{fill:#e48c5e;}.aj{fill:#ed8a80;}.ak{fill:#f29079;}.al{fill:url(#h);}.am{fill:#d4845f;}.an{fill:#cc6c39;}.ao{fill:#d1713e;}.ap,.az{opacity:0.2;}.ap{fill:url(#i);}.aq{fill:url(#j);}.ar{fill:url(#k);}.as,.au,.aw{fill:#d2daff;}.at{fill:url(#l);}.av{fill:#c9d3ef;}.ax{fill:url(#m);}.ay{fill:#f0f4ff;}.az{fill:url(#n);}.ba{fill:#617fa2;}</style><linearGradient id="a" x1="0.473" y1="-0.153" x2="0.522" y2="1.106" gradientUnits="objectBoundingBox"><stop offset="0.02" stop-color="#4e77f7"/><stop offset="0.98" stop-color="#4e77f7"/></linearGradient><linearGradient id="b" x1="0.437" y1="0.07" x2="0.586" y2="1.115" xlink:href="#a"/><linearGradient id="c" x1="0.514" y1="-0.043" x2="0.492" y2="0.827" xlink:href="#a"/><linearGradient id="d" x1="1" y1="0.501" x2="0" y2="0.501" gradientUnits="objectBoundingBox"><stop offset="0" stop-color="#fec8c0"/><stop offset="0.98" stop-color="#fdaea3"/></linearGradient><linearGradient id="e" x1="1" y1="0.501" x2="0" y2="0.501" gradientUnits="objectBoundingBox"><stop offset="0" stop-color="#9496ee"/><stop offset="1" stop-color="#82a7ff"/></linearGradient><linearGradient id="f" x1="1" y1="0.511" x2="0" y2="0.511" gradientUnits="objectBoundingBox"><stop offset="0.02" stop-color="#233fe2"/><stop offset="0.98" stop-color="#3a53e2"/></linearGradient><linearGradient id="g" x1="1.002" y1="0.513" x2="0.002" y2="0.513" gradientUnits="objectBoundingBox"><stop offset="0.02" stop-color="#ffbc47"/><stop offset="0.99" stop-color="#ffcc47"/></linearGradient><linearGradient id="h" y1="0.5" y2="0.5" xlink:href="#d"/><linearGradient id="i" x1="0.145" y1="0.168" x2="1.076" y2="1.038" gradientUnits="objectBoundingBox"><stop offset="0.02" stop-color="#fe931e"/><stop offset="0.97" stop-color="#fea31e"/></linearGradient><linearGradient id="j" x1="-0.612" y1="0.123" x2="1.428" y2="0.89" xlink:href="#i"/><linearGradient id="k" x1="0.235" y1="-0.243" x2="0.907" y2="1.28" xlink:href="#i"/><linearGradient id="l" x1="1.002" y1="0.499" y2="0.499" xlink:href="#d"/><linearGradient id="m" x1="0.434" y1="0.981" x2="0.493" y2="0.464" xlink:href="#a"/><linearGradient id="n" x1="0.412" y1="1.159" x2="0.512" y2="0.33" xlink:href="#a"/></defs><g transform="translate(0 6.49)"><path class="a" d="M0,68.33l3.111,42.209,62.567,2.941,139.133,6.5c.274-.686,5.077-37.322,5.077-37.322L52.963,71.951Z" transform="translate(165.191 250.704)"/><path class="b" d="M0,69.12l12.715,41.529,139.133,6.5c.274-.686,5.077-37.322,5.077-37.322Z" transform="translate(218.154 253.527)"/><path class="c" d="M1.1,290.107H14.593l17.7-182.536,1.1-10.93-18.342-.55-1,13.767Z" transform="translate(336.657 349.911)"/><path class="c" d="M10.16,291.215h16.6s6-129.847,8.142-177.369c.5-10.7.778-17.288.778-17.38l-22.4-.686-.32,20.764Z" transform="translate(292.928 348.802)"/><path class="c" d="M37.58,94.93l1.738,18.3L56.332,294.254H71.745L61,113.226l-1.052-17.6Z" transform="translate(131.454 345.764)"/><g transform="translate(350.702 446.001)"><path class="d" d="M2.1,96.09l-1,13.767,18.25-2.286,1.1-10.93Z" transform="translate(-1.1 -96.09)"/></g><g transform="translate(305.878 444.582)"><path class="e" d="M10.16,116.544l21.955-2.7c.5-10.7.778-17.288.778-17.38l-22.4-.686Z" transform="translate(-10.16 -95.78)"/></g><g transform="translate(169.034 440.694)"><path class="f" d="M39.93,94.93l1.738,18.3H63.347l-1.052-17.6Z" transform="translate(-39.93 -94.93)"/></g><g class="g" transform="translate(258.053 52.249)"><g transform="translate(0 0)"><path class="h" d="M75.4,121.861c-11.152,14.447-26.74,25.345-36.246,40.893a67.294,67.294,0,0,0,12.125,82.375A73.629,73.629,0,0,1,2.992,154.22c5.491-18.926,18.588-34.851,31.09-50.27s25.141-31.641,29.91-50.691S63.4,10.55,46.5.116C60.36-1.446,72.695,9.282,80.3,21.24A90.233,90.233,0,0,1,75.4,121.861Z" transform="translate(0.012 0.036)"/><path class="i" d="M2.3,69.787C7.159,56.352,19.2,47.228,29.55,37.308S49.32,14.025,46.448,0a52.211,52.211,0,0,1-1.056,57.366c-6.547,9.2-16.053,16.1-22.347,25.345a47.736,47.736,0,0,0-4.013,44.567A94.542,94.542,0,0,1,2.979,100.411,45.918,45.918,0,0,1,2.3,69.785Z" transform="matrix(0.927, 0.375, -0.375, 0.927, 73.925, 113.914)"/></g></g><path class="c" d="M172.393,127.51H4.63l1.646,12.761h164.2Z" transform="translate(181.509 462.197)"/><path class="j" d="M0,82.72l7.6,58.5,111.781,3.339,89.233,2.653L213.647,90.4l-28.082-1Z" transform="translate(161.44 302.13)"/><path class="k" d="M0,139.34l89.187,2.653L94.264,85.18l-28.082-1c-12.349,12.167-36.91,36.59-36.91,36.59Z" transform="translate(280.815 307.347)"/><path class="l" d="M64.346,166.16c3.979,9.148,26.205,20.764,26.39,20.948s0-.228,0-.732h0c-.686-2.24-3.157-9.148-5.031-14.4a271.373,271.373,0,0,1-8.462-32.007l-3.887-7.738-3.7-7.456C60.733,134.967,60.367,157.15,64.346,166.16Z" transform="translate(1.048 452.407)"/><g transform="translate(62.97 577.036)"><path class="m" d="M64.346,166.269c3.979,9.148,26.206,20.764,26.39,20.948s0-.228,0-.732h0c-5.535-6.815-17.792-22.457-18.936-28.86A80.177,80.177,0,0,1,73.354,132.2l-3.7-7.455C60.733,135.076,60.367,157.267,64.346,166.269Z" transform="translate(-61.922 -124.74)"/></g><path class="n" d="M67.579,121.358a869.327,869.327,0,0,0,9.514,101.4c.686,3.933,1.418,7.135,2.058,9.468a78.987,78.987,0,0,1,2.791,39.7c-.412,1.784-.96,3.933-1.51,6.311a92.019,92.019,0,0,0,0,46.744c4.163,14.361,14.727,44.319,21.725,64.031l6.129,16.924a16.19,16.19,0,0,1,7.868,1.83s-1.052-70.755,0-90.971c.686-12.075.548-28.082.32-39.06a206.464,206.464,0,0,1-21.45-11.022,557.551,557.551,0,0,1-12.4-81.183c-.686-10.062-1-20.308-.732-30.232A412.771,412.771,0,0,1,92.132,70.364c-8.324-8.05-8.416-13.173-8.416-13.173S66.893,88.886,67.579,121.358Z" transform="translate(-50.577 210.895)"/><g transform="translate(26.37 396.423)"><path class="o" d="M69.81,131.947a78.987,78.987,0,0,1,2.787,39.7c-.412,1.784-.96,3.933-1.51,6.311a343.042,343.042,0,0,1,9.148,41.163c3.065,19.666,8.37,48.572,12.349,69.567l6.129,16.924a16.19,16.19,0,0,1,7.868,1.83s-1.052-70.755,0-90.971c.686-12.075.548-28.082.32-39.06a206.447,206.447,0,0,1-21.222-10.976,557.53,557.53,0,0,1-12.4-81.183c-1.738,13.721-4.117,25.805-5.671,37.23C68.438,126.412,69.17,129.842,69.81,131.947Z" transform="translate(-67.604 -85.251)"/></g><path class="p" d="M58.161,256.563a206.467,206.467,0,0,0,21.269,10.8,258.83,258.83,0,0,0,27.122,9.97,315.577,315.577,0,0,0,49.35,10.8c5.351.732,8.416.96,8.416.96,1.83-2.881,15.185-31.055,17.334-44.409a73.959,73.959,0,0,0-.914-19.53h0A337.077,337.077,0,0,0,168.3,171.783c-1.464-4.253-3.2-10.2-5.077-16.924-6.541-23.327-14.955-56.714-20.672-67.92A112.24,112.24,0,0,1,78.057,75.855a85.335,85.335,0,0,1-7.776-4.573C67.949,69.728,66.669,69,65.112,67.9a72.543,72.543,0,0,1-9.7-7.868A405.867,405.867,0,0,0,45.354,139.7h0v5.213C43.754,196.785,58.161,256.563,58.161,256.563Z" transform="translate(-13.715 221.042)"/><g transform="translate(56.566 292.507)"><path class="q" d="M49.32,62.53C62.4,89.972,96.658,133.651,142.257,146c-6.539-23.317-14.961-56.714-20.672-67.926A112.239,112.239,0,0,1,57.1,67C54.213,65.5,51.652,63.994,49.32,62.53Z" transform="translate(-49.32 -62.53)"/></g><g transform="translate(31.513 360.851)"><path class="r" d="M58.161,194.229a206.455,206.455,0,0,0,21.268,10.8A258.82,258.82,0,0,0,106.551,215a315.586,315.586,0,0,0,49.35,10.8c5.351.732,8.416.96,8.416.96,1.83-2.881,15.185-31.055,17.334-44.409a73.959,73.959,0,0,0-.914-19.53c-25.7,8.782-75.97,10.7-88.364,4.985,0,0-33.389-46.56-36.956-55.526-1.692-4.2-6-19.622-10.062-34.807V82.69C43.754,134.451,58.161,194.229,58.161,194.229Z" transform="translate(-45.23 -77.477)"/></g><path class="s" d="M32.6,146.824s0,5.123,8.416,13.173a72.538,72.538,0,0,0,9.7,7.868c1.554,1.1,3.293,2.24,5.169,3.385h0c2.332,1.464,4.893,2.973,7.776,4.573A86.17,86.17,0,0,0,77.972,182a113.382,113.382,0,0,0,37.6,5.763h.548a86.487,86.487,0,0,0,12.029-.868l14.773-22.869,8.1-12.349a185.722,185.722,0,0,0,12.2-23.325h0c5.8-12.715,10.29-24.469,10.29-24.469l.686,1.188a257.734,257.734,0,0,0,22.275,32.747A109.768,109.768,0,0,0,225.272,162.7a24.7,24.7,0,0,1-6.723-17.06,78.668,78.668,0,0,1,4.117-26.115s-10.154-21.817-18.66-36.956-17.654-29.18-17.654-29.18a100.346,100.346,0,0,0-22.365-10.84c-10.656-3.979-21.451-7.226-25.205-8.278a71.12,71.12,0,0,0-25.109-1.738,155.506,155.506,0,0,0-43.633,11.3,14.955,14.955,0,0,0-8.05,8.782v.366c-1.326,2.927-2.653,6.449-4.849,10.6a97.466,97.466,0,0,0-4.573,12.3h0C45.087,99.714,32.6,146.824,32.6,146.824Z" transform="translate(0.685 121.259)"/><g transform="translate(114.378 153.366)"><path class="t" d="M46,32.528c3.751,5.213,14.955,10.108,25.339,11.3a59.458,59.458,0,0,0,24.973-1.28c-10.656-3.979-21.45-7.226-25.205-8.278A71.12,71.12,0,0,0,46,32.528Z" transform="translate(-46 -32.108)"/></g><g transform="translate(50.391 174.238)"><path class="t" d="M70.989,154.951h0c2.332,1.464,4.893,2.973,7.776,4.573A86.17,86.17,0,0,0,93.08,165.7l-3.521-17.29s-6.5-32.473-12.349-53.741a131.814,131.814,0,0,1,0-57.994c-1.326,2.927-2.653,6.449-4.849,10.6a97.46,97.46,0,0,0-4.573,12.3h0c-1.418,11.662-1.372,28.312-2.7,53.147S67.419,148.349,70.989,154.951Z" transform="translate(-64.812 -36.674)"/></g><path class="l" d="M25.1,141.514c2.1,5.535,5.9,7.868,11.022,4.573,12.989-8.188,24.561-29.866,29.134-45.738a330.091,330.091,0,0,0,8.188-54.517h0V42.859L71.161,36.41c-9.148,7.912-35.355,43.541-43.771,66.914C22.351,117.407,21.853,133.1,25.1,141.514Z" transform="translate(196.211 136.632)"/><g transform="translate(221.311 182.464)"><path class="u" d="M23.05,134.15c2.1,5.535,5.9,7.868,11.022,4.575,12.989-8.188,24.561-29.866,29.134-45.738A330.082,330.082,0,0,0,71.394,38.47C70.022,53.517,65.539,79.4,55.523,97.562S34.576,129.9,29,131.635a50.951,50.951,0,0,0-5.945,2.514Z" transform="translate(-23.05 -38.47)"/></g><path class="v" d="M6.622,77.147h0c2.471-.412,14.819-2.6,14.545-6.723S8.178,64.159,5.662,63.746a.741.741,0,0,0-.228,1.464c5.855.914,14.179,3.157,14.315,5.305s-6.859,4.161-13.355,5.213a.718.718,0,0,0,.228,1.418Z" transform="translate(331.867 234.295)"/><path class="c" d="M208.608,86.984l5.037,21.865L0,101.163l6.815-23.6Z" transform="translate(161.44 283.687)"/><path class="j" d="M209.888,93.224,0,78.955,3.843,65.37,204.857,80.555Z" transform="translate(165.191 240.125)"/><path class="l" d="M7.311,31.467a21.679,21.679,0,0,0,1.1,21.589,25.887,25.887,0,0,0,13.173,10.93c.778.32,1.6.6,2.471.868s1.784.548,2.791.778c23.6,5.535,33.709-5.305,36.59-11.572a40.02,40.02,0,0,0,1.6-14.179c0-3.979,0-8.232.366-12.3a44.316,44.316,0,0,1,.868-6.219A33.112,33.112,0,0,0,67,13.127s-1.372-4.573-2.745-8.1A10.474,10.474,0,0,0,59.68,0,80.771,80.771,0,0,1,40.79,5.4a20.17,20.17,0,0,1-12.9-1.1,5.123,5.123,0,0,1-1.554-1.1c-2.515,1.51-4.163,7.318-6.037,12.533a40.062,40.062,0,0,1-2.058,4.985,13.72,13.72,0,0,1-.824,1.464c-2.467,3.883-4.067,2.374-4.251-2.336a7.364,7.364,0,0,0-4.893-6.723,7.4,7.4,0,0,1,0-.96C4.111,10.748.726,17.2.042,23.281S7.311,31.467,7.311,31.467Z" transform="translate(97.826 100.911) rotate(-18)"/><path class="w" d="M.017,28.011A37.962,37.962,0,0,1,15.942,5.144a30.048,30.048,0,0,1,2.837-1.83c13.721-8.188,32.473.458,38.74,8a11.069,11.069,0,0,1,1.738,2.745,19.164,19.164,0,0,1-.5,14.955h0s-1.372-4.573-2.745-8.1a10.474,10.474,0,0,0-4.573-5.031,83.516,83.516,0,0,1-18.89,5.4c-11.034,1.782-14.465-2.156-14.465-2.156C14.652,21.1,12.87,31.026,9.987,36.6S5.094,40.95,4.91,35.737A7.364,7.364,0,0,0,.017,29.013a7.415,7.415,0,0,1,0-1Z" transform="translate(100.825 83.276) rotate(-18)"/><path class="w" d="M12.361,8.671c1.234-1.052-.686-7.043-6.037-8.278s-7,.686-6.083,2.332,4.573,2.15,7.6,3.8a46.567,46.567,0,0,0,4.529,2.15Z" transform="translate(151.575 93.662) rotate(-18)"/><path class="w" d="M17.7,2.036c.366,2.15-4.573,1.464-9.148,2.15A27.946,27.946,0,0,1,0,4.187,11.342,11.342,0,0,1,9.65.07C16.8-.106,17.344-.106,17.7,2.036Z" transform="translate(122.743 99.948) rotate(-18)"/><path class="w" d="M26.374,7.737c.732,1.052,4.573,6.357,6.311,5.351,0,0,1.1-3.567,3.247-1.784s-5.4,10.29-16.968,3.293c0,0-18.3-5.077-18.844-9.148S.989-.314,2.453.048s0,3.247,0,3.247a17.974,17.974,0,0,0,10.748,0,13.721,13.721,0,0,0,6.3,4.579,10.656,10.656,0,0,0,6.861-.138Z" transform="translate(129.568 129.157) rotate(-18)"/><path class="x" d="M96.037,75.808c.6-2.24-8.69-24.7-21.312-23.783,0,0,9.924,25.339,19.392,29.364Z" transform="translate(-62.75 192.328)"/><path class="y" d="M75.184,55.613c-.96,0,18.294,15.231,31.331,13.127C106.515,68.74,99.745,54.331,75.184,55.613Z" transform="translate(-75.15 204.969)"/><path class="z" d="M75.577,135.254a41.161,41.161,0,0,0-7.225,0l-.64-1.83a16.192,16.192,0,0,1,7.868,1.83Z" transform="translate(-10.183 483.313)"/><path class="z" d="M55.8,40.65c3.843,0,2.653-10.244-3.843-11.662s-7.73,2.837-10.108,13.447-21.907,87.4-21.907,87.4,3.247,2.927,3.247,5.305c0,0,13.721-53.923,18.3-71.259S47.75,33.6,51.135,33.238,53.147,40.512,55.8,40.65Z" transform="translate(225.884 109.157)"/><path class="aa" d="M6.037,1.681C8.188,5.568,6.951,15.4,0,15.906,0,11.928,0,7.675.366,3.6,2.012,1.5,3.889-2.161,6.037,1.681Z" transform="translate(167.128 103.605) rotate(-18)"/><path class="s" d="M0,71a25.114,25.114,0,0,1,2.837-1.83,21.451,21.451,0,0,1,5.625-2.424A35.675,35.675,0,0,1,41.393,77.178a15.185,15.185,0,0,1,1.738,2.745c3.431-7,22.321-47.886,28.036-55.754A38.876,38.876,0,0,0,43.725.8,32.006,32.006,0,0,0,34.577.066,39.426,39.426,0,0,0,9.1,13.1Z" transform="translate(95.701 15.5) rotate(-18)"/><path class="ab" d="M2.735,0S3.283,1,4.2,2.561a136.662,136.662,0,0,0,9.148,13.721l1,1.372A15.047,15.047,0,0,1,17.6,26.806,24.423,24.423,0,0,1,0,13.085Z" transform="translate(118.533 151.098) rotate(-18)"/><path class="l" d="M24.539,33.45c-2.837,1.784,1.51,12.715,5.9,11.16S28.153,31.209,24.539,33.45Z" transform="translate(235.1 125.047)"/><path class="x" d="M75.771,57.2c.64,6.037,8.37,13.127,8.37,13.127l-1.1,4.573A18.936,18.936,0,0,1,72.89,63Z" transform="translate(-42.439 210.93)"/><path class="p" d="M83.379,132.882h0a.778.778,0,0,0,.686-.778,523.546,523.546,0,0,0-6.585-59.184A100.621,100.621,0,0,0,62.34,36.97a.732.732,0,1,0-1.144.868A100.622,100.622,0,0,1,76.053,73.2a514.623,514.623,0,0,1,6.541,59,.732.732,0,0,0,.778.686Z" transform="translate(12.248 137.166)"/><path class="p" d="M79.676,131.3h0a.732.732,0,0,0,.458-.914A251.83,251.83,0,0,1,69.158,42.8a.732.732,0,0,0-.686-.778.778.778,0,0,0-.778.686,253.7,253.7,0,0,0,11.068,88.135.686.686,0,0,0,.914.458Z" transform="translate(-13.184 156.679)"/><path class="p" d="M42.063,82.3a.868.868,0,0,0,.732-.5c2.286-7.318,10.84-41.713,10.93-42.079a.727.727,0,1,0-1.418-.32c0,.32-8.6,34.669-10.93,41.941a.778.778,0,0,0,.5.914Z" transform="translate(132.184 145.262)"/><path class="p" d="M81.287,175.87a.686.686,0,0,0,.64-.412c.228-.458,22.137-46.56,30.186-68.614A297.747,297.747,0,0,0,124.05,51.632a.686.686,0,0,0-.548-.778c-.5,0-49.4-9.97-63.213-16.557a.778.778,0,0,0-.96.32c-.5.914-12.3,22.457-12.623,31.006a.733.733,0,0,0,1.464.046c.274-7.456,10.2-26.205,12.121-29.774C74.24,42.252,116.5,51.034,122.722,52.268A292.122,292.122,0,0,1,110.74,106.28c-8,21.863-29.912,67.874-30.14,68.376a.778.778,0,0,0,.366.96Z" transform="translate(37.39 128.895)"/><path class="p" d="M49.336,46.208c-.274,2.653.458,4.849,1.6,4.985s2.24-1.966,2.517-4.573-.5-4.849-1.646-4.985S49.564,43.6,49.336,46.208Z" transform="translate(96.189 155.282)"/><path class="p" d="M50.683,52.909c-.548,2.332,0,4.573,1.052,4.573s2.471-1.464,2.973-3.8,0-4.573-1-4.573S51.231,50.576,50.683,52.909Z" transform="translate(89.353 182.016)"/><path class="p" d="M54.089,60.8c-.548,2.332,0,4.573,1.052,4.573s2.425-1.464,2.973-3.8S58.114,57,57.062,57,54.637,58.464,54.089,60.8Z" transform="translate(70.351 210.213)"/><path class="p" d="M60.4,40.931c-.548,2.378,0,4.573,1,4.573s2.471-1.418,3.019-3.751,0-4.573-1.052-4.573S60.9,38.42,60.4,40.931Z" transform="translate(35.179 139.382)"/><path class="p" d="M61.723,47.149c-.548,2.332,0,4.573,1.052,4.573s2.471-1.464,2.973-3.8,0-4.573-1-4.573S62.271,44.816,61.723,47.149Z" transform="translate(27.82 161.43)"/><path class="ab" d="M89.14,57.2c-.732,0-23.647,7.958-30.406,19.118,0,0,6.585,17.38,12.853,21.038A31.651,31.651,0,0,1,99.993,74.992Z" transform="translate(6.484 210.93)"/><path class="ac" d="M196.667,86.112l3.339,11.3L1.69,91.783,7.453,78.61Z" transform="translate(167.344 287.442)"/><g transform="translate(235.123 366.62)"><path class="ad" d="M8.16,86.475c0,5.351,11.48,6.951,28.22,7.4h23.1c28.358,0,51.317,0,51.317-7.6,0-6.5-22.869-7.548-51.317-7.548-9.148,0-17.838,0-25.293.5C18.642,80.171,8.16,82.092,8.16,86.475Z" transform="translate(-8.16 -78.727)"/></g><path class="p" d="M7.45,64l6,69.979c0,4.573,9.148,7.548,22.321,9.148a239.552,239.552,0,0,0,25.659,1.188c6.357,0,12.349,0,17.7-.458,18.3-1.1,30.232-4.071,30.232-9.7L115.161,64c-.64,4.2-9.834,5.8-23.6,6.449-8.6.366-18.98.366-30.14.366-15.6,0-29.638,0-39.47-1.052C13.487,68.985,8.136,67.293,7.45,64Z" transform="translate(225.843 235.23)"/><path class="ae" d="M7.48,69.755c0,5.123,12.029,6.677,29.592,7.089h24.2c29.684,0,53.787,0,53.787-7.272,0-6.265-24.1-7.272-53.787-7.272-9.65,0-18.706,0-26.528.458C18.64,63.671,7.48,65.5,7.48,69.755Z" transform="translate(225.813 229.155)"/><circle class="ab" cx="11.068" cy="11.068" r="11.068" transform="translate(322.848 406.026)"/><path class="af" d="M8.321,101.554a2.6,2.6,0,0,0,2.6,2.561h0a2.561,2.561,0,0,0,2.561-2.561V90.714a2.6,2.6,0,0,0-2.563-2.6h0a2.653,2.653,0,0,0-2.6,2.6Z" transform="translate(323.537 321.394)"/><path class="ab" d="M56.137,97.835A11.068,11.068,0,1,0,45.068,108.9,11.068,11.068,0,0,0,56.137,97.835Z" transform="translate(163.436 316.601)"/><path class="af" d="M35.86,100.92a2.6,2.6,0,0,0,2.6,2.561h0a2.6,2.6,0,0,0,2.6-2.563V90.034a2.653,2.653,0,0,0-2.6-2.6h0a2.653,2.653,0,0,0-2.6,2.6Z" transform="translate(169.991 318.966)"/><path class="ag" d="M0,3.528A10.29,10.29,0,0,0,10.154,8.513a6.905,6.905,0,0,0,4.163-2.1c.686-.778,0-5.169-4.573-6.265A10.062,10.062,0,0,0,8.19.052,9.148,9.148,0,0,0,0,3.528Z" transform="translate(125.629 106.73) rotate(-18)"/><path class="ag" d="M0,3.418a9.422,9.422,0,0,0,5.8,4.3,9.148,9.148,0,0,0,5.213.412A7.318,7.318,0,0,0,13.443,6.8c.868-.64,0-5.671-4.573-6.769A2.882,2.882,0,0,0,8,.033,12.028,12.028,0,0,0,0,3.418Z" transform="translate(151.338 104.457) rotate(-18)"/><path class="ah" d="M0,3.556A4.573,4.573,0,0,0,4.574,8.129,7.318,7.318,0,0,0,7,6.8c.868-.64,0-5.671-4.573-6.769a2.883,2.883,0,0,0-.868,0A4.573,4.573,0,0,0,0,3.556Z" transform="translate(157.432 102.332) rotate(-18)"/><path class="ah" d="M0,4.125A4.573,4.573,0,0,0,2.981,8.37a6.905,6.905,0,0,0,4.163-2.1C7.83,5.487,7.144,1.1,2.571,0A4.573,4.573,0,0,0,0,4.125Z" transform="translate(132.502 104.641) rotate(-18)"/><path class="ai" d="M.016,21.218a.716.716,0,0,1,1.418.182h0a3.936,3.936,0,0,0,0,.686,5.259,5.259,0,0,0,.274.778,2.24,2.24,0,0,0,.458.686,3.7,3.7,0,0,0,.548.64l.64.548a2.561,2.561,0,0,0,.778.5l.824.5.824.32a5.81,5.81,0,0,0,.824.274l.868.228h4.393V24.055a24.182,24.182,0,0,0-.5-3.523l-.5-3.521V11.706a4.459,4.459,0,0,1,.274-1.874,13.032,13.032,0,0,1,.5-1.784,11.111,11.111,0,0,1,.6-1.738c.274-.548.458-1.144.778-1.692l.914-1.6,1.144-1.554,1.28-1.28a.778.778,0,0,1,1,0,.824.824,0,0,1,0,1.052h0L16.173,2.56l-.914,1.326L14.435,5.4c-.274.5-.412,1.052-.64,1.554a9.147,9.147,0,0,0-.5,1.6,7,7,0,0,0-.366,1.692,10.2,10.2,0,0,0,0,1.646v1.688a3.787,3.787,0,0,0,.228,1.6v1.692l.138,3.2a24.039,24.039,0,0,0,.6,3.477l.458,3.613a1.1,1.1,0,0,1-.686,1.188h0a5.215,5.215,0,0,1-1.144.274H11.466a8.83,8.83,0,0,1-1.1,0H8.2A4.574,4.574,0,0,1,7.151,28.4L6.1,28.122a8.647,8.647,0,0,1-.96-.412l-1.052-.5-.822-.544a4.573,4.573,0,0,1-.824-.6l-.868-.778-.686-.914a6.9,6.9,0,0,1-.5-1,4.985,4.985,0,0,1-.32-1.1,3.979,3.979,0,0,1-.046-1.052Z" transform="translate(136.02 106.345) rotate(-18)"/><path class="aj" d="M.719,9.5a.548.548,0,0,0,.458-.228,17.564,17.564,0,0,0,0-8.874.548.548,0,0,0-1.052,0,17.518,17.518,0,0,1,0,8.142.6.6,0,0,0,0,.732Z" transform="translate(111.151 115.404) rotate(-18)"/><path class="ai" d="M55.146,33.324a11.251,11.251,0,0,0,2.745-.274A.538.538,0,0,0,57.662,32a11.708,11.708,0,0,1-9.148-1.966.534.534,0,1,0-.732.778,11.114,11.114,0,0,0,7.364,2.515Z" transform="translate(98.977 113.326)"/><path class="ak" d="M0,5.838S4.985,1.721,9.148,2.911a7.6,7.6,0,0,1,4.573,5.8s1.6-6.357-3.7-8.37S0,5.838,0,5.838Z" transform="translate(150.594 102.153) rotate(-18)"/><path class="ak" d="M14.589,8.434a7.318,7.318,0,0,0-4.573-6.083C5.945,1.117,0,5.37,0,5.37A10.886,10.886,0,0,1,10.016.018C16.74.659,14.589,8.434,14.589,8.434Z" transform="translate(124.92 104.687) rotate(-18)"/><g transform="translate(118.129 97.684) rotate(-18)"><path class="al" d="M0,12.533A51.811,51.811,0,0,1,7.6,1.1,5.121,5.121,0,0,1,6.041,0C3.385,1.51,1.874,7.318,0,12.533Z" transform="translate(0 0)"/></g><g transform="translate(101.488 112.451) rotate(-18)"><path class="am" d="M7.4,19.362A21.679,21.679,0,0,0,8.5,40.951a25.887,25.887,0,0,0,13.173,10.93c.778.32,1.6.6,2.471.868C17.785,46.208,12.48,35,12.846,28.508a65.908,65.908,0,0,1,4.573-18.294c-2.471,3.887-4.071,2.379-4.253-2.332A7.364,7.364,0,0,0,8.273,1.158a7.411,7.411,0,0,1,0-.96C4.11-1.22.725,5.229.041,11.313S7.4,19.362,7.4,19.362Z" transform="translate(0 0)"/></g><path class="an" d="M0,4.893c1,1.692,2.425,4.071,4.025,6.541s3.339,5.077,4.985,7.181l1,1.372c1.188-.5,2.1-3.659,2.653-6.311.274-1.1.412-2.058.6-2.745A25.887,25.887,0,0,1,.092,0C.092,1.326.092,2.973,0,4.893Z" transform="translate(122.13 148.799) rotate(-18)"/><g transform="translate(122.138 148.801) rotate(-18)"><path class="ao" d="M0,4.893c1,1.692,2.425,4.071,4.025,6.541a51.591,51.591,0,0,0,8.644,2.24c.274-1.1.412-2.058.6-2.745A25.887,25.887,0,0,1,.092,0C.092,1.326.092,2.973,0,4.893Z" transform="translate(0 0)"/></g><g transform="translate(304.964 299.23)"><path class="ap" d="M7.45,143.675c18.294-1.1,30.232-4.071,30.232-9.7L43.492,64c-.64,4.2-9.834,5.8-23.6,6.449Z" transform="translate(-7.45 -64)"/></g><g transform="translate(233.293 299.23)"><path class="aq" d="M24.81,64l6,69.979c0,4.573,9.148,7.548,22.321,9.148L39.393,69.945C30.847,68.985,25.5,67.293,24.81,64Z" transform="translate(-24.81 -64)"/></g><g transform="translate(233.293 292.289)"><path class="ar" d="M24.53,69.116c0,5.123,12.029,6.677,29.592,7.089-7.912-6.037-6.541-10.656-2.332-13.721C35.69,63.023,24.53,64.854,24.53,69.116Z" transform="translate(-24.53 -62.485)"/></g><path class="v" d="M60.129,80.34h.366a.732.732,0,0,0,.228-1,50.31,50.31,0,0,0-7.958-10.748c-3.659-2.2-26.069-5.8-28.174-4.573a1.51,1.51,0,0,0-.6.824c-.548,2.2,3.751,9.514,5.077,11.708a.8.8,0,0,0,1.234-.96,33.571,33.571,0,0,1-4.893-10.566,101.489,101.489,0,0,1,26.624,4.567,48.754,48.754,0,0,1,7.456,10.29.778.778,0,0,0,.64.458Z" transform="translate(204.723 234.395)"/><g transform="translate(174.933 210.179)"><path class="t" d="M32.59,60.4A257.733,257.733,0,0,0,54.865,93.148a109.769,109.769,0,0,0,28.806,24.881,24.7,24.7,0,0,1-6.723-17.06C58.659,87.661,35.335,56.284,37.163,44.53Z" transform="translate(-32.59 -44.53)"/></g><g transform="translate(113.188 249.61)"><path class="as" d="M46.17,108.308s1.372,1.92,3.065,4.163a85.993,85.993,0,0,0,12.579-.868S74.574,91.844,84.682,76.477a185.732,185.732,0,0,0,12.2-23.325,248.4,248.4,0,0,1-25.7,29.954C57.6,96.643,46.17,108.308,46.17,108.308Z" transform="translate(-46.17 -53.152)"/></g><g transform="translate(91.509 220.242)"><path class="t" d="M54.727,94.616s-2.2,12.761-.274,17.746c1.052,2.791,12.075,13.721,21.45,22.869a86.478,86.478,0,0,0,12.029-.868L102.7,111.494C58.934,95.48,50.61,47.324,50.61,46.73Z" transform="translate(-50.61 -46.73)"/></g><path class="l" d="M40.575,83.736c16.6,28.312,72.905,53.1,72.905,53.1a25.205,25.205,0,0,0,18.294,9.148.372.372,0,0,0,.366-.32c.366-1.1-2.837-4.573-3.2-4.893.548.458,7.318,6.175,10.336,5.077,1.326-.5,1.144-1.372.458-2.2,1.92,1.418,4.573,2.837,5.763,1.874s-1.188-4.573-3.065-6.311c2.378,2.1,7,5.717,9.148,4.163,2.881-2.2-9.148-14-18.066-20.262s-12.761,1.738-13.949,1-9.15-9.64-20.728-22.859S71.4,67.316,68.789,61.045A26.205,26.205,0,0,0,53.6,65.39a23.738,23.738,0,0,0-7.272,6.265,36.268,36.268,0,0,0-5.757,12.081Z" transform="translate(37.488 224.64)"/><g transform="translate(78.063 296.76)"><path class="at" d="M44.92,75.076c16.6,28.312,72.905,53.1,72.905,53.1a25.205,25.205,0,0,0,18.294,9.148.372.372,0,0,0,.366-.32,147.417,147.417,0,0,1-17.93-10.474c-6.5-5.077-29.134-16.647-41.849-26.482C65,90.9,55.348,73.7,50.637,63.46A36.269,36.269,0,0,0,44.92,75.076Z" transform="translate(-44.92 -63.46)"/></g><g transform="translate(95.712 15.519) rotate(-18)"><path class="au" d="M0,70.985a25.114,25.114,0,0,1,2.837-1.83A21.451,21.451,0,0,1,8.462,66.73C13.035,44.593,23.829,13.173,34.805,0A39.426,39.426,0,0,0,9.322,13.035Z" transform="translate(0 0)"/></g><g transform="translate(138.105 7.755) rotate(-18)"><path class="av" d="M23.509,20.444C26.3,18.8,16.647,1.464,0,0A54.011,54.011,0,0,1,14.361,10.244C17.516,14.681,21.13,21.725,23.509,20.444Z"/></g><path class="aw" d="M27.471,66.646c.732,7,15.641,27.122,30.552,25.293a24,24,0,0,0,12.853-4.573c4.345-3.613,6.083-9.148,6.815-17.014,1.464-15.551.64-16.832,0-19.712.412,3.843-12.441,11.3-25.659,14.911a97.648,97.648,0,0,1-15,2.973C31.68,68.979,28.157,68.431,27.471,66.646Z" transform="translate(170.925 187.486)"/><g transform="translate(198.396 254.133)"><path class="ax" d="M29.14,54.14c.732,7,15.641,27.122,30.552,25.293a24.005,24.005,0,0,0,12.853-4.569A79.125,79.125,0,0,1,38.7,56.02C33.347,56.472,29.826,55.924,29.14,54.14Z" transform="translate(-29.14 -54.14)"/></g><path class="ay" d="M27.749,68.792c.686,1.83,4.573,2.378,10.108,1.738A91.793,91.793,0,0,0,52.31,67.6C65.529,63.991,78.38,56.536,77.97,52.693s-9.422-2.881-19.026-1.052a96.745,96.745,0,0,0-10.29,2.471C36.523,57.724,26.549,65.681,27.749,68.792Z" transform="translate(170.655 185.341)"/><g transform="translate(198.299 236.981)"><path class="az" d="M31.906,67.542c.686,1.83,4.573,2.378,10.108,1.738A82.325,82.325,0,0,1,63.1,50.39a96.725,96.725,0,0,0-10.29,2.471C40.688,56.473,30.718,64.431,31.906,67.542Z" transform="translate(-31.81 -50.39)"/></g><path class="ba" d="M50.93,186.1a16.74,16.74,0,0,0,2.973,9.148,40.012,40.012,0,0,0,4.573,6.037,278.99,278.99,0,0,1,20.216-30.324c8.6-11.2,27.716-33.709,37.642-45.325l6.265-7.272a315.591,315.591,0,0,1-49.35-10.8C63.233,126.692,51.2,180.113,50.93,186.1Z" transform="translate(19.539 390.932)"/><g transform="translate(70.469 498.684)"><path class="bb" d="M50.89,185.961a16.739,16.739,0,0,0,2.973,9.148c1.326-4.939,3.065-10.93,5.213-17.426,5.443-16.373,16.693-45.738,16.693-45.738s3.385-5.8,17.838-6.265h22.871l6.265-7.272a315.587,315.587,0,0,1-49.35-10.8C63.193,126.549,51.164,179.968,50.89,185.961Z" transform="translate(-50.89 -107.607)"/></g><path class="bc" d="M61.39,133.425l2.1,17.38c10.84,5.4,34.669,8.142,34.669,8.142l-.548-.6c-6.815-7-21.817-20.032-28.358-22.869A29.911,29.911,0,0,0,65.6,134.2h0a10.75,10.75,0,0,0-4.2-.778Z" transform="translate(-3.864 483.312)"/><g transform="translate(57.526 616.72)"><path class="r" d="M61.39,133.433l2.1,17.38c10.84,5.4,34.669,8.142,34.669,8.142l-.548-.6A152.984,152.984,0,0,1,75.753,149.8,91.835,91.835,0,0,1,65.6,134.067h0a10.746,10.746,0,0,0-4.2-.64Z" transform="translate(-61.39 -133.415)"/></g><path class="l" d="M20.6,51.634C18.9,49.034,30.385,34.3,32.169,37.914S22.885,55.057,20.6,51.634Z" transform="translate(249.286 139.977)"/><path class="l" d="M20.95,51.334c-2.24-1.966,10.336-17.884,12.487-14.819S23.693,53.849,20.95,51.334Z" transform="translate(246.784 135.612)"/><path class="l" d="M34.8,35.022c1.784,2.332-10.108,21.5-13.355,18.3S32.372,31.957,34.8,35.022Z" transform="translate(244.235 130.429)"/><path class="l" d="M32.888,33.686c2.1,2.378-7.272,20.4-10.6,16.968S29.825,30.255,32.888,33.686Z" transform="translate(242.848 125.269)"/></g></svg>