<svg xmlns="http://www.w3.org/2000/svg" width="227.178" height="163" viewBox="0 0 227.178 163"><defs><style>.a,.ci{opacity:0.72;}.b,.du,.dv,.dw{fill:#fff;}.b{opacity:0;}.c{fill:#fefeff;opacity:0.01;}.d{fill:#fdfefe;opacity:0.02;}.e{fill:#fcfdfe;}.e,.f{opacity:0.03;}.f{fill:#fbfdfd;}.g{fill:#fafcfd;opacity:0.04;}.h{fill:#f9fbfd;opacity:0.05;}.i{fill:#f8fbfc;opacity:0.06;}.j{fill:#f7fafc;opacity:0.07;}.k{fill:#f6fafb;}.k,.l{opacity:0.08;}.l{fill:#f5f9fb;}.m{fill:#f4f9fb;opacity:0.09;}.n{fill:#f3f8fa;}.dw,.n{opacity:0.1;}.o{fill:#f2f7fa;opacity:0.11;}.p{fill:#f1f7f9;opacity:0.12;}.q{fill:#f0f6f9;}.q,.r{opacity:0.13;}.r{fill:#eff6f9;}.s{fill:#eef5f8;opacity:0.14;}.t{fill:#edf4f8;opacity:0.15;}.u{fill:#ecf4f7;opacity:0.16;}.v{fill:#ebf3f7;opacity:0.17;}.w{fill:#eaf3f7;}.w,.x{opacity:0.18;}.x{fill:#e9f2f6;}.y{fill:#e8f1f6;opacity:0.19;}.z{fill:#e7f1f5;}.du,.z{opacity:0.2;}.aa{fill:#e6f0f5;opacity:0.21;}.ab{fill:#e5f0f5;opacity:0.22;}.ac{fill:#e4eff4;opacity:0.23;}.ad{fill:#e3eff4;}.ad,.ae{opacity:0.24;}.ae{fill:#e2eef3;}.af{fill:#e1edf3;opacity:0.25;}.ag{fill:#e0edf2;opacity:0.26;}.ah{fill:#dfecf2;opacity:0.27;}.ai{fill:#deecf2;opacity:0.28;}.aj{fill:#ddebf1;}.aj,.ak{opacity:0.29;}.ak{fill:#dceaf1;}.al{fill:#dbeaf0;opacity:0.3;}.am{fill:#dae9f0;opacity:0.31;}.an{fill:#d9e9f0;opacity:0.32;}.ao{fill:#d8e8ef;opacity:0.33;}.ap{fill:#d7e7ef;}.ap,.aq{opacity:0.34;}.aq{fill:#d6e7ee;}.ar{fill:#d5e6ee;opacity:0.35;}.as{fill:#d4e6ee;opacity:0.36;}.at{fill:#d3e5ed;opacity:0.37;}.au{fill:#d2e5ed;opacity:0.38;}.av{fill:#d1e4ec;}.av,.aw{opacity:0.39;}.aw{fill:#d0e3ec;}.ax{fill:#cfe3ec;}.ax,.dt{opacity:0.4;}.ay{fill:#cee2eb;opacity:0.41;}.az{fill:#cde2eb;opacity:0.42;}.ba{fill:#cce1ea;opacity:0.43;}.bb{fill:#cbe0ea;opacity:0.44;}.bc{fill:#cae0ea;}.bc,.bd{opacity:0.45;}.bd{fill:#c9dfe9;}.be{fill:#c8dfe9;opacity:0.46;}.bf{fill:#c7dee8;opacity:0.47;}.bg{fill:#c6dde8;opacity:0.48;}.bh{fill:#c5dde8;opacity:0.49;}.bi{fill:#c4dce7;opacity:0.5;}.bj{fill:#c3dbe6;opacity:0.51;}.bk{fill:#c2dbe6;opacity:0.52;}.bl{fill:#c1dae6;opacity:0.53;}.bm{fill:#c0d9e5;opacity:0.54;}.bn{fill:#e5e0bf;}.bn,.bo{opacity:0.55;}.bo{fill:#bed8e4;}.bp{fill:#bdd8e4;}.bp,.dv{opacity:0.56;}.bq{fill:#bcd7e4;opacity:0.57;}.br{fill:#bbd6e3;opacity:0.58;}.bs{fill:#bad6e3;opacity:0.59;}.bt{fill:#b9d5e2;opacity:0.6;}.bu{fill:#b8d5e2;}.bu,.bv{opacity:0.61;}.bv{fill:#b7d4e2;}.bw{fill:#b6d3e1;opacity:0.62;}.bx{fill:#b5d3e1;opacity:0.63;}.by{fill:#b4d2e0;opacity:0.64;}.bz{fill:#b3d2e0;opacity:0.65;}.ca{fill:#b2d1e0;}.ca,.cb{opacity:0.66;}.cb{fill:#b1d1df;}.cc{fill:#b0d0df;opacity:0.67;}.cd{fill:#afcfde;opacity:0.68;}.ce{fill:#aecfde;opacity:0.69;}.cf{fill:#adcede;opacity:0.7;}.cg{fill:#accedd;}.cg,.ch{opacity:0.71;}.ch{fill:#abcddd;}.ci{fill:#aaccdc;}.cj{fill:#a9ccdc;opacity:0.73;}.ck{fill:#a8cbdc;opacity:0.74;}.cl{fill:#a7cbdb;opacity:0.75;}.cm{fill:#a6cadb;}.cm,.cn{opacity:0.76;}.cn{fill:#a5c9da;}.co{fill:#a4c9da;opacity:0.77;}.cp{fill:#a3c8d9;opacity:0.78;}.cq{fill:#a2c8d9;opacity:0.79;}.cr{fill:#a1c7d9;opacity:0.8;}.cs{fill:#a0c7d8;opacity:0.81;}.ct{fill:#9fc6d8;}.ct,.cu{opacity:0.82;}.cu{fill:#9ec5d7;}.cv{fill:#9dc5d7;opacity:0.83;}.cw{fill:#9cc4d7;opacity:0.84;}.cx{fill:#9bc4d6;opacity:0.85;}.cy{fill:#9ac3d6;opacity:0.86;}.cz{fill:#99c2d5;}.cz,.da{opacity:0.87;}.da{fill:#98c2d5;}.db{fill:#97c1d5;opacity:0.88;}.dc{fill:#96c1d4;opacity:0.89;}.dd{fill:#95c0d4;opacity:0.9;}.de{fill:#94bfd3;opacity:0.91;}.df{fill:#93bfd3;}.df,.dg{opacity:0.92;}.dg{fill:#92bed3;}.dh{fill:#91bed2;opacity:0.93;}.di{fill:#90bdd2;opacity:0.94;}.dj{fill:#8fbdd1;opacity:0.95;}.dk{fill:#8ebcd1;opacity:0.96;}.dl{fill:#8dbbd1;}.dl,.dm{opacity:0.97;}.dm{fill:#8cbbd0;}.dn{fill:#8bbad0;opacity:0.98;}.do{fill:#8abacf;opacity:0.99;}.dp{fill:#89b9cf;}.dq{fill:#7c1800;}.dr{fill:#8e4803;}.ds{fill:#600902;}.dt{fill:#e57800;}.dx{fill:#f2860f;}.dy{fill:#470603;}</style></defs><g transform="translate(-0.001 0.008)"><g transform="translate(0.001 -0.008)"><g class="a" transform="translate(8.679 75.798)"><path class="b" d="M222.27,76.522c0,24.063-48.909,43.589-109.261,43.589S3.77,100.585,3.77,76.522,52.655,32.91,113.008,32.91,222.27,52.437,222.27,76.522Z" transform="translate(-3.77 -32.91)"/><path class="c" d="M220.9,76.327c0,23.879-48.517,43.221-108.386,43.221S4.15,100.206,4.15,76.327,52.667,33.06,112.513,33.06,220.9,52.425,220.9,76.327Z" transform="translate(-3.275 -32.715)"/><path class="d" d="M219.493,76.119c0,23.671-48.1,42.876-107.488,42.876S4.54,99.79,4.54,76.119s48.1-42.9,107.465-42.9S219.493,52.424,219.493,76.119Z" transform="translate(-2.767 -32.506)"/><path class="e" d="M218.123,75.923c0,23.487-47.711,42.53-106.613,42.53S4.92,99.41,4.92,75.923,52.631,33.37,111.51,33.37,218.123,52.413,218.123,75.923Z" transform="translate(-2.272 -32.311)"/><path class="f" d="M216.753,75.728c0,23.28-47.343,42.162-105.738,42.162S5.3,99.1,5.3,75.728,52.643,33.52,111.015,33.52,216.753,52.425,216.753,75.728Z" transform="translate(-1.777 -32.115)"/><path class="g" d="M215.36,75.519c0,23.027-46.928,41.816-104.84,41.816S5.68,98.615,5.68,75.519,52.631,33.68,110.52,33.68,215.36,52.4,215.36,75.519Z" transform="translate(-1.282 -31.907)"/><path class="h" d="M213.977,75.3c0,22.888-46.537,41.448-103.965,41.448S6.07,98.163,6.07,75.3,52.607,33.85,110.012,33.85,213.977,52.386,213.977,75.3Z" transform="translate(-0.774 -31.686)"/><path class="i" d="M212.627,75.1c0,22.7-46.053,41.126-103.09,41.126S6.47,97.807,6.47,75.1,52.569,34,109.491,34,212.627,52.421,212.627,75.1Z" transform="translate(-0.253 -31.49)"/><path class="j" d="M211.237,74.933c0,22.5-45.754,40.757-102.215,40.757S6.83,97.43,6.83,74.933s45.754-40.8,102.192-40.8S211.237,52.39,211.237,74.933Z" transform="translate(0.216 -31.321)"/><path class="k" d="M209.844,74.725c0,22.313-45.339,40.412-101.317,40.412S7.21,97.037,7.21,74.725,52.549,34.29,108.527,34.29,209.844,52.389,209.844,74.725Z" transform="translate(0.711 -31.112)"/><path class="l" d="M208.461,74.529c0,22.129-44.971,40.066-100.442,40.066S7.6,96.658,7.6,74.529,52.548,34.44,108.019,34.44,208.461,52.378,208.461,74.529Z" transform="translate(1.219 -30.917)"/><path class="m" d="M207.065,74.334c0,21.921-44.58,39.7-99.567,39.7S8,96.255,8,74.334,52.533,34.59,107.5,34.59,207.065,52.39,207.065,74.334Z" transform="translate(1.74 -30.722)"/><path class="n" d="M205.685,74.126c0,21.737-44.165,39.352-98.669,39.352S8.37,95.863,8.37,74.126,52.535,34.75,107.016,34.75,205.685,52.365,205.685,74.126Z" transform="translate(2.222 -30.513)"/><path class="o" d="M204.315,74c0,21.53-43.751,39.007-97.794,39.007S8.75,95.525,8.75,74,52.5,34.85,106.521,34.85,204.315,52.442,204.315,74Z" transform="translate(2.717 -30.383)"/><path class="p" d="M202.945,73.735c0,21.346-43.382,38.662-96.919,38.662S9.13,95.08,9.13,73.735s43.451-38.685,96.9-38.685S202.945,52.366,202.945,73.735Z" transform="translate(3.212 -30.122)"/><path class="q" d="M201.539,73.539c0,21.138-42.968,38.293-96.021,38.293s-96-17.224-96-38.293,42.968-38.339,96-38.339S201.539,52.378,201.539,73.539Z" transform="translate(3.72 -29.927)"/><path class="r" d="M200.169,73.331c0,20.954-42.6,37.948-95.146,37.948S9.9,94.4,9.9,73.331,52.476,35.36,105.023,35.36,200.169,52.354,200.169,73.331Z" transform="translate(4.215 -29.718)"/><path class="s" d="M198.8,73.135c0,20.724-42.208,37.6-94.271,37.6S10.28,93.882,10.28,73.135,52.488,35.51,104.528,35.51,198.8,52.342,198.8,73.135Z" transform="translate(4.71 -29.523)"/><path class="t" d="M197.393,72.94c0,20.563-41.793,37.188-93.373,37.188S10.67,93.5,10.67,72.94s41.793-37.28,93.35-37.28S197.393,52.354,197.393,72.94Z" transform="translate(5.218 -29.328)"/><path class="u" d="M196.023,72.693c0,20.379-41.448,36.843-92.5,36.843S11.05,93.025,11.05,72.693,52.5,35.85,103.525,35.85,196.023,52.314,196.023,72.693Z" transform="translate(5.713 -29.08)"/><path class="v" d="M194.653,72.5c0,20.171-41.01,36.543-91.623,36.543S11.43,92.668,11.43,72.5,52.44,36,103.03,36,194.653,52.3,194.653,72.5Z" transform="translate(6.208 -28.885)"/><path class="w" d="M193.247,72.341c0,19.987-40.6,36.175-90.725,36.175S11.82,92.4,11.82,72.341s40.6-36.221,90.7-36.221S193.247,52.331,193.247,72.341Z" transform="translate(6.716 -28.728)"/><path class="x" d="M191.838,72.145c0,19.78-40.227,35.829-89.8,35.829s-89.8-16.119-89.8-35.829,40.2-35.875,89.8-35.875S191.838,52.343,191.838,72.145Z" transform="translate(7.251 -28.533)"/><path class="y" d="M190.507,71.937c0,19.6-39.836,35.484-88.975,35.484S12.58,91.533,12.58,71.937,52.416,36.43,101.532,36.43,190.507,52.318,190.507,71.937Z" transform="translate(7.706 -28.325)"/><path class="z" d="M189.061,71.742c0,19.388-39.422,35.139-88.077,35.139S13,91.13,13,71.742,52.352,36.58,100.985,36.58,189.061,52.33,189.061,71.742Z" transform="translate(8.254 -28.129)"/><path class="aa" d="M187.731,71.546c0,19.2-39.145,34.77-87.2,34.77S13.35,90.75,13.35,71.546,52.5,36.73,100.529,36.73,187.731,52.319,187.731,71.546Z" transform="translate(8.709 -27.934)"/><path class="ab" d="M186.36,71.39c0,19-38.639,34.425-86.327,34.425S13.73,90.387,13.73,71.39s38.639-34.54,86.3-34.54S186.36,52.347,186.36,71.39Z" transform="translate(9.204 -27.778)"/><path class="ac" d="M184.954,71.195c0,18.813-38.224,34.079-85.429,34.079S14.12,89.961,14.12,71.195,52.344,37,99.526,37,184.954,52.359,184.954,71.195Z" transform="translate(9.713 -27.582)"/><path class="ad" d="M183.584,70.947c0,18.629-37.856,33.711-84.554,33.711S14.5,89.576,14.5,70.947,52.333,37.19,99.031,37.19,183.584,52.3,183.584,70.947Z" transform="translate(10.208 -27.335)"/><path class="ae" d="M182.214,70.739c0,18.421-37.464,33.366-83.679,33.366S14.88,89.16,14.88,70.739,52.344,37.35,98.536,37.35,182.214,52.294,182.214,70.739Z" transform="translate(10.703 -27.126)"/><path class="af" d="M180.808,70.543c0,18.237-37.05,33.02-82.781,33.02S15.27,88.78,15.27,70.543,52.32,37.5,98.028,37.5,180.808,52.283,180.808,70.543Z" transform="translate(11.211 -26.931)"/><path class="ag" d="M179.438,70.348c0,18.03-36.658,32.583-81.906,32.583S15.65,88.378,15.65,70.348s36.658-32.7,81.883-32.7S179.438,52.272,179.438,70.348Z" transform="translate(11.706 -26.735)"/><path class="ah" d="M178.107,70.152c0,17.846-36.267,32.237-81.031,32.237S16,88,16,70.152,52.336,37.8,97.077,37.8,178.107,52.284,178.107,70.152Z" transform="translate(12.162 -26.54)"/><path class="ai" d="M176.678,69.892c0,17.638-35.875,31.961-80.156,31.961S16.39,87.53,16.39,69.892,52.335,38,96.569,38,176.678,52.23,176.678,69.892Z" transform="translate(12.67 -26.279)"/><path class="aj" d="M175.292,69.749c0,17.454-35.484,31.616-79.258,31.616S16.8,87.2,16.8,69.749,52.261,38.11,96.035,38.11,175.292,52.271,175.292,69.749Z" transform="translate(13.204 -26.136)"/><path class="ak" d="M173.831,69.553c0,17.247-35.093,31.247-78.29,31.247s-78.29-14-78.29-31.247S52.343,38.26,95.54,38.26,173.831,52.26,173.831,69.553Z" transform="translate(13.79 -25.941)"/><path class="al" d="M172.552,69.345c0,17.063-34.7,30.9-77.508,30.9S17.56,86.43,17.56,69.345,52.261,38.42,95.045,38.42,172.552,52.259,172.552,69.345Z" transform="translate(14.194 -25.732)"/><path class="am" d="M171.081,69.149c0,16.879-34.287,30.556-76.61,30.556S18,86.028,18,69.149,52.171,38.57,94.471,38.57,171.081,52.248,171.081,69.149Z" transform="translate(14.767 -25.537)"/><path class="an" d="M169.776,68.954c0,16.671-33.9,30.28-75.735,30.28S18.33,85.625,18.33,68.954,52.225,38.72,94.041,38.72,169.776,52.26,169.776,68.954Z" transform="translate(15.197 -25.342)"/><path class="ao" d="M168.406,68.785c0,16.487-33.5,29.935-74.86,29.935S18.71,85.364,18.71,68.785,52.214,38.85,93.546,38.85,168.406,52.275,168.406,68.785Z" transform="translate(15.692 -25.172)"/><path class="ap" d="M167,68.589c0,16.28-33.112,29.5-73.961,29.5S19.1,84.869,19.1,68.589,52.189,39,93.038,39,167,52.286,167,68.589Z" transform="translate(16.2 -24.977)"/><path class="aq" d="M165.745,68.355c0,16.119-32.721,29.152-73.086,29.152S19.48,84.45,19.48,68.355,52.2,39.18,92.543,39.18,165.745,52.236,165.745,68.355Z" transform="translate(16.695 -24.742)"/><path class="ar" d="M164.26,68.159c0,15.888-32.237,28.783-72.211,28.783S19.86,84.048,19.86,68.159,52.1,39.33,92.048,39.33,164.26,52.248,164.26,68.159Z" transform="translate(17.19 -24.547)"/><path class="as" d="M162.945,67.951c0,15.7-31.915,28.438-71.382,28.438S20.18,83.655,20.18,67.951,52.095,39.49,91.562,39.49,162.945,52.178,162.945,67.951Z" transform="translate(17.607 -24.338)"/><path class="at" d="M161.484,67.755c0,15.5-31.523,28.092-70.438,28.092S20.63,83.252,20.63,67.755,52.153,39.64,91.045,39.64,161.484,52.213,161.484,67.755Z" transform="translate(18.193 -24.143)"/><path class="au" d="M160.127,67.56c0,15.313-31.132,27.632-69.563,27.632S21,82.873,21,67.56,52.132,39.79,90.54,39.79,160.127,52.224,160.127,67.56Z" transform="translate(18.675 -23.948)"/><path class="av" d="M158.639,67.365c0,15.128-30.741,27.379-68.665,27.379S21.4,82.493,21.4,67.365,52.118,39.94,90.042,39.94,158.639,52.213,158.639,67.365Z" transform="translate(19.196 -23.752)"/><path class="aw" d="M157.338,67.156c0,14.921-30.349,27.033-67.79,27.033S21.78,82.078,21.78,67.156,52.221,40.1,89.547,40.1,157.338,52.212,157.338,67.156Z" transform="translate(19.691 -23.544)"/><path class="ax" d="M155.9,66.961c0,14.737-29.935,26.688-66.915,26.688S22.21,81.7,22.21,66.961,52.145,40.25,89.1,40.25,155.9,52.2,155.9,66.961Z" transform="translate(20.251 -23.348)"/><path class="ay" d="M154.562,66.765c0,14.53-29.543,26.319-66.017,26.319S22.55,81.3,22.55,66.765,52.093,40.4,88.544,40.4,154.562,52.213,154.562,66.765Z" transform="translate(20.694 -23.153)"/><path class="az" d="M153.192,66.557c0,14.346-29.152,25.974-65.142,25.974S22.93,80.9,22.93,66.557s29.152-26,65.119-26S153.192,52.188,153.192,66.557Z" transform="translate(21.189 -22.945)"/><path class="ba" d="M151.822,66.362c0,14.161-28.76,25.675-64.267,25.675S23.31,80.523,23.31,66.408s28.76-25.7,64.244-25.7S151.822,52.2,151.822,66.362Z" transform="translate(21.684 -22.749)"/><path class="bb" d="M150.415,66.179c0,13.954-28.369,25.329-63.369,25.329S23.7,80.2,23.7,66.179,52.046,40.85,87.046,40.85,150.415,52.2,150.415,66.179Z" transform="translate(22.192 -22.567)"/><path class="bc" d="M149.045,65.984c0,13.816-27.977,24.915-62.494,24.915S24.08,79.731,24.08,65.984,52.057,41,86.551,41,149.045,52.191,149.045,65.984Z" transform="translate(22.687 -22.371)"/><path class="bd" d="M147.744,65.762c0,13.563-27.632,24.569-61.619,24.569S24.46,79.325,24.46,65.762,52.092,41.17,86.056,41.17,147.744,52.292,147.744,65.762Z" transform="translate(23.182 -22.15)"/><path class="be" d="M146.269,65.567c0,13.378-27.171,24.224-60.721,24.224s-60.7-10.846-60.7-24.224S52.021,41.32,85.548,41.32,146.269,52.1,146.269,65.567Z" transform="translate(23.69 -21.955)"/><path class="bf" d="M144.938,65.372c0,13.171-26.78,23.856-59.869,23.856S25.2,78.543,25.2,65.372s26.78-23.9,59.869-23.9S144.938,52.177,144.938,65.372Z" transform="translate(24.146 -21.759)"/><path class="bg" d="M143.529,65.163c0,12.987-26.388,23.51-58.971,23.51S25.61,78.15,25.61,65.163,52,41.63,84.558,41.63,143.529,52.153,143.529,65.163Z" transform="translate(24.68 -21.551)"/><path class="bh" d="M142.123,64.968c0,12.78-26,23.165-58.073,23.165S26,77.748,26,64.968,51.974,41.78,84.05,41.78,142.123,52.165,142.123,64.968Z" transform="translate(25.188 -21.355)"/><path class="bi" d="M140.753,64.772c0,12.6-25.606,22.8-57.2,22.8s-57.175-10.2-57.175-22.8S51.986,41.93,83.555,41.93,140.753,52.154,140.753,64.772Z" transform="translate(25.683 -21.16)"/><path class="bi" d="M139.383,64.564c0,12.388-25.329,22.451-56.323,22.451s-56.3-10.063-56.3-22.451S52.089,42.09,83.06,42.09,139.383,52.153,139.383,64.564Z" transform="translate(26.178 -20.952)"/><path class="bj" d="M138.013,64.369c0,12.2-24.823,22.106-55.448,22.106S27.14,76.573,27.14,64.369,51.963,42.24,82.565,42.24,138.013,52.141,138.013,64.369Z" transform="translate(26.673 -20.756)"/><path class="bk" d="M136.607,64.173c0,12-24.408,21.76-54.55,21.76S27.53,76.17,27.53,64.173,51.938,42.39,82.057,42.39,136.607,52.13,136.607,64.173Z" transform="translate(27.181 -20.561)"/><path class="bl" d="M135.237,63.978c0,11.813-24.017,21.392-53.675,21.392S27.91,75.836,27.91,63.978,51.927,42.54,81.562,42.54,135.237,52.142,135.237,63.978Z" transform="translate(27.676 -20.365)"/><path class="bm" d="M133.867,63.769c0,11.513-23.648,21.046-52.8,21.046S28.29,75.4,28.29,63.769,51.915,42.7,81.067,42.7,133.867,52.118,133.867,63.769Z" transform="translate(28.171 -20.157)"/><path class="bn" d="M132.461,63.574c0,11.513-23.234,20.724-51.9,20.724S28.68,75.087,28.68,63.574,51.914,42.85,80.559,42.85,132.461,52.13,132.461,63.574Z" transform="translate(28.679 -19.962)"/><path class="bo" d="M131.091,63.379c0,11.237-22.842,20.333-51.027,20.333s-51-9.211-51-20.333S51.948,43,80.064,43,131.091,52.211,131.091,63.379Z" transform="translate(29.174 -19.766)"/><path class="bp" d="M129.731,63.17c0,11.03-22.451,19.987-50.152,19.987S29.45,74.2,29.45,63.17,51.9,43.16,79.579,43.16,129.731,52.117,129.731,63.17Z" transform="translate(29.682 -19.558)"/><path class="bq" d="M128.315,62.975c0,10.846-22.036,19.642-49.254,19.642S29.83,73.82,29.83,62.975,51.866,43.31,79.061,43.31,128.315,52.106,128.315,62.975Z" transform="translate(30.177 -19.362)"/><path class="br" d="M126.932,62.779c0,10.638-21.645,19.3-48.356,19.3S30.22,73.418,30.22,62.779,51.865,43.46,78.576,43.46,126.932,52.118,126.932,62.779Z" transform="translate(30.685 -19.167)"/><path class="bs" d="M125.575,62.584c0,10.454-21.277,18.928-47.5,18.928S30.59,73.038,30.59,62.584,51.844,43.61,78.071,43.61,125.575,52.107,125.575,62.584Z" transform="translate(31.167 -18.972)"/><path class="bt" d="M124.143,62.375c0,10.247-20.862,18.582-46.606,18.582S31,72.622,31,62.375,51.724,43.77,77.537,43.77,124.143,52.083,124.143,62.375Z" transform="translate(31.701 -18.763)"/><path class="bu" d="M122.8,62.18c0,10.063-20.471,18.237-45.731,18.237S31.36,72.243,31.36,62.18,51.831,43.92,77.068,43.92,122.8,52.094,122.8,62.18Z" transform="translate(32.17 -18.568)"/><path class="bv" d="M121.429,61.985c0,9.878-20.079,17.869-44.856,17.869S31.74,71.863,31.74,61.985,51.819,44.07,76.573,44.07,121.429,52.083,121.429,61.985Z" transform="translate(32.665 -18.372)"/><path class="bw" d="M120.023,61.776c0,9.671-19.665,17.523-43.958,17.523S32.13,71.447,32.13,61.776,51.795,44.23,76.065,44.23,120.023,52.082,120.023,61.776Z" transform="translate(33.173 -18.164)"/><path class="bx" d="M118.653,61.581c0,9.487-19.273,17.178-43.083,17.178S32.51,71.137,32.51,61.581s19.273-17.2,43.06-17.2S118.653,52.071,118.653,61.581Z" transform="translate(33.668 -17.968)"/><path class="by" d="M117.283,61.385c0,9.211-18.9,16.809-42.208,16.809S32.89,70.665,32.89,61.385,51.772,44.53,75.075,44.53,117.283,52.083,117.283,61.385Z" transform="translate(34.163 -17.773)"/><path class="bz" d="M115.876,61.19c0,9.1-18.421,16.464-41.31,16.464S33.28,70.286,33.28,61.19,51.7,44.68,74.567,44.68,115.876,52.072,115.876,61.19Z" transform="translate(34.672 -17.578)"/><path class="ca" d="M114.506,60.969c0,8.888-18.1,16.119-40.435,16.119S33.66,69.857,33.66,60.969,51.759,44.85,74.072,44.85,114.506,52.1,114.506,60.969Z" transform="translate(35.167 -17.356)"/><path class="cb" d="M113.189,60.773c0,8.7-17.707,15.773-39.56,15.773S34,69.477,34,60.773,51.8,45,73.629,45,113.189,52.046,113.189,60.773Z" transform="translate(35.609 -17.161)"/><path class="cc" d="M111.73,60.591c0,8.5-17.293,15.4-38.662,15.4S34.43,69.088,34.43,60.591,51.723,45.14,73.069,45.14,111.73,52.048,111.73,60.591Z" transform="translate(36.17 -16.978)"/><path class="cd" d="M110.36,60.382c0,8.313-16.9,15.059-37.787,15.059S34.81,68.7,34.81,60.382,51.712,45.3,72.574,45.3,110.36,52.047,110.36,60.382Z" transform="translate(36.665 -16.77)"/><path class="ce" d="M108.925,60.187c0,8.128-16.533,14.714-36.843,14.714S35.24,68.315,35.24,60.187,51.75,45.45,72.083,45.45,108.925,52.036,108.925,60.187Z" transform="translate(37.225 -16.575)"/><path class="cf" d="M107.584,59.992c0,7.921-16.119,14.346-36.014,14.346S35.58,67.913,35.58,59.992,51.7,45.6,71.571,45.6,107.584,52.047,107.584,59.992Z" transform="translate(37.668 -16.379)"/><path class="cg" d="M106.162,59.783c0,7.737-15.727,14-35.139,14S36,67.52,36,59.783,51.727,45.76,71.116,45.76,106.162,52.023,106.162,59.783Z" transform="translate(38.215 -16.171)"/><path class="ch" d="M104.844,59.588c0,7.53-15.336,13.655-34.264,13.655S36.34,67.118,36.34,59.588,51.676,45.91,70.581,45.91,104.844,52.035,104.844,59.588Z" transform="translate(38.658 -15.975)"/><path class="ci" d="M103.461,59.392c0,7.345-14.944,13.309-33.389,13.309S36.73,66.646,36.73,59.392,51.651,46.06,70.073,46.06,103.461,52.024,103.461,59.392Z" transform="translate(39.166 -15.78)"/><path class="cj" d="M102.068,59.2c0,7.138-14.53,12.941-32.491,12.941S37.11,66.45,37.11,59.2,51.64,46.21,69.578,46.21,102.068,52.036,102.068,59.2Z" transform="translate(39.661 -15.585)"/><path class="ck" d="M100.7,58.989c0,6.908-14.161,12.6-31.616,12.6S37.49,65.943,37.49,58.989,51.628,46.37,69.083,46.37,100.7,52.012,100.7,58.989Z" transform="translate(40.156 -15.376)"/><path class="cl" d="M99.315,58.793c0,6.747-13.816,12.25-30.741,12.25S37.88,65.54,37.88,58.793,51.7,46.52,68.574,46.52,99.315,52,99.315,58.793Z" transform="translate(40.664 -15.181)"/><path class="cm" d="M98.039,58.6c0,6.563-13.355,11.882-29.935,11.882S38.17,65.16,38.17,58.6,51.525,46.67,68.1,46.67,98.039,52.035,98.039,58.6Z" transform="translate(41.042 -14.985)"/><path class="cn" d="M96.552,58.363c0,6.378-12.964,11.513-28.967,11.513S38.64,64.719,38.64,58.363,51.6,46.85,67.584,46.85,96.552,51.962,96.552,58.363Z" transform="translate(41.654 -14.751)"/><path class="co" d="M95.208,58.168c0,6.171-12.573,11.191-28.092,11.191S39,64.339,39,58.168,51.619,47,67.115,47,95.208,51.974,95.208,58.168Z" transform="translate(42.123 -14.556)"/><path class="cp" d="M93.756,58c0,5.987-12.158,10.846-27.194,10.846S39.39,63.985,39.39,58,51.548,47.13,66.561,47.13,93.756,51.989,93.756,58Z" transform="translate(42.631 -14.386)"/><path class="cq" d="M92.406,57.8c0,5.78-11.79,10.477-26.319,10.477S39.79,63.675,39.79,57.8,51.557,47.28,66.086,47.28,92.406,52,92.406,57.8Z" transform="translate(43.152 -14.191)"/><path class="cr" d="M90.919,57.595c0,5.6-11.4,10.132-25.329,10.132S40.26,63.121,40.26,57.595,51.658,47.44,65.589,47.44,90.919,51.976,90.919,57.595Z" transform="translate(43.764 -13.982)"/><path class="cs" d="M89.63,57.4c0,5.388-10.984,9.786-24.546,9.786S40.56,62.788,40.56,57.4,51.544,47.59,65.083,47.59,89.63,51.988,89.63,57.4Z" transform="translate(44.155 -13.787)"/><path class="ct" d="M88.26,57.2c0,5.2-10.592,9.418-23.671,9.418S40.94,62.408,40.94,57.2,51.532,47.74,64.588,47.74,88.26,51.977,88.26,57.2Z" transform="translate(44.65 -13.592)"/><path class="cu" d="M86.89,57.061c0,5-10.2,9.072-22.8,9.072S41.32,62.011,41.32,57.061s10.2-9.211,22.773-9.211S86.89,52.018,86.89,57.061Z" transform="translate(45.145 -13.448)"/><path class="cv" d="M85.484,56.8c0,4.813-9.786,8.727-21.9,8.727S41.71,61.613,41.71,56.8s9.786-8.75,21.875-8.75S85.484,51.965,85.484,56.8Z" transform="translate(45.653 -13.188)"/><path class="cw" d="M84.114,56.6c0,4.605-9.418,8.382-21.023,8.382s-21-3.753-21-8.382,9.395-8.4,21-8.4S84.114,51.953,84.114,56.6Z" transform="translate(46.148 -12.992)"/><path class="cx" d="M82.784,56.409c0,4.421-9.026,8.013-20.148,8.013S42.51,60.83,42.51,56.409s9.026-8.059,20.125-8.059S82.784,51.965,82.784,56.409Z" transform="translate(46.695 -12.797)"/><path class="cy" d="M81.337,56.2c0,4.237-8.612,7.668-19.25,7.668S42.86,60.438,42.86,56.2s8.612-7.691,19.227-7.691S81.337,51.941,81.337,56.2Z" transform="translate(47.151 -12.588)"/><path class="cz" d="M80.033,56.005c0,4.03-8.221,7.322-18.421,7.322S43.19,60.035,43.19,56.005s8.22-7.345,18.421-7.345S80.033,51.953,80.033,56.005Z" transform="translate(47.581 -12.393)"/><path class="da" d="M78.6,55.758c0,3.845-7.829,6.908-17.5,6.908S43.62,59.557,43.62,55.758,51.449,48.85,61.1,48.85,78.6,51.89,78.6,55.758Z" transform="translate(48.141 -12.146)"/><path class="db" d="M77.2,55.563c0,3.638-7.415,6.609-16.6,6.609S44,59.2,44,55.563,51.438,49,60.6,49,77.2,51.9,77.2,55.563Z" transform="translate(48.636 -11.95)"/><path class="dc" d="M75.781,55.406c0,3.454-6.908,6.263-15.727,6.263s-15.7-2.809-15.7-6.263,6.908-6.286,15.7-6.286S75.781,51.929,75.781,55.406Z" transform="translate(49.092 -11.794)"/><path class="dd" d="M74.451,55.211c0,3.247-6.655,5.895-14.852,5.895S44.77,58.458,44.77,55.211,51.425,49.27,59.6,49.27,74.451,51.918,74.451,55.211Z" transform="translate(49.639 -11.598)"/><path class="de" d="M73.045,55c0,3.063-6.24,5.549-13.954,5.549S45.16,58.065,45.16,55,51.4,49.43,59.091,49.43,73.045,51.917,73.045,55Z" transform="translate(50.147 -11.39)"/><path class="df" d="M71.675,54.807c0,2.878-5.849,5.2-13.079,5.2s-13.056-2.3-13.056-5.2S51.389,49.58,58.6,49.58,71.675,51.906,71.675,54.807Z" transform="translate(50.642 -11.195)"/><path class="dg" d="M70.305,54.612c0,2.671-5.457,4.859-12.2,4.859s-12.181-2.3-12.181-4.859S51.377,49.73,58.1,49.73,70.305,51.918,70.305,54.612Z" transform="translate(51.137 -10.999)"/><path class="dh" d="M68.922,54.455c0,2.487-5.066,4.49-11.329,4.49s-11.283-2-11.283-4.49,5.043-4.605,11.283-4.605S68.922,51.945,68.922,54.455Z" transform="translate(51.645 -10.843)"/><path class="di" d="M67.529,54.208c0,2.3-4.605,4.145-10.431,4.145S46.69,56.487,46.69,54.208,51.3,50.04,57.1,50.04,67.529,51.905,67.529,54.208Z" transform="translate(52.14 -10.595)"/><path class="dj" d="M66.159,54.012c0,2.1-4.283,3.8-9.556,3.8s-9.533-1.7-9.533-3.8S51.353,50.19,56.6,50.19,66.159,51.894,66.159,54.012Z" transform="translate(52.635 -10.4)"/><path class="dk" d="M64.8,53.817c0,1.888-3.891,3.431-8.681,3.431s-8.635-1.543-8.635-3.431,3.868-3.477,8.635-3.477S64.8,51.86,64.8,53.817Z" transform="translate(53.169 -10.205)"/><path class="dl" d="M63.383,53.609c0,1.7-3.477,3.086-7.783,3.086s-7.76-1.382-7.76-3.086S51.317,50.5,55.6,50.5,63.383,51.882,63.383,53.609Z" transform="translate(53.638 -9.996)"/><path class="dm" d="M62.026,53.413c0,1.5-3.086,2.74-6.908,2.74s-6.908-1.243-6.908-2.74S51.3,50.65,55.118,50.65,62.026,51.87,62.026,53.413Z" transform="translate(54.12 -9.801)"/><path class="dn" d="M60.63,53.218c0,1.313-2.694,2.3-6.033,2.3s-5.987-1.082-5.987-2.3S51.281,50.8,54.6,50.8,60.63,51.882,60.63,53.218Z" transform="translate(54.641 -9.605)"/><path class="do" d="M59.224,53.022c0,1.128-2.3,2.026-5.135,2.026S49,54.151,49,53.022s2.3-2.072,5.112-2.072S59.224,51.871,59.224,53.022Z" transform="translate(55.149 -9.41)"/><path class="dp" d="M57.867,52.814c0,.921-1.911,1.681-4.26,1.681s-4.237-.76-4.237-1.681,1.888-1.7,4.237-1.7S57.867,51.87,57.867,52.814Z" transform="translate(55.631 -9.202)"/></g><path class="dq" d="M163.309,30.446c-.23-12.987-32.237-22.865-71.382-22.059C60.38,9.054,33.761,16.445,24.689,26.07a3.707,3.707,0,0,1-1.22.507,8.951,8.951,0,0,1-.23,1.289,9.211,9.211,0,0,0-1.888,5.549,8.474,8.474,0,0,0,.829,3.477V41.36c.438,38.132,32.491,68.389,71.382,67.514s69.748-32.237,69.149-70.438a29.048,29.048,0,0,0-.23-4.49,8.5,8.5,0,0,0,.829-3.5Z" transform="translate(27.81 10.882)"/><path class="dr" d="M158.246,26.463a4.467,4.467,0,0,1-2.3,0c-15.681-4.329-31.017-10.892-47.135-12.411a52.732,52.732,0,0,1-7.184-.322A5.02,5.02,0,0,1,97.134,9.4C76.272,11.449,55.525,22.295,34.34,17.436h-.115a4.1,4.1,0,0,1-3.868,1.451c-2.072,1.336-4.168,2.671-6.286,3.961a4.605,4.605,0,0,1-1.313.576,66.778,66.778,0,0,0-1.382,14.783c.691,38.132,32.767,68.389,71.636,67.583s69.84-32.4,69.08-70.531a71.383,71.383,0,0,0-.691-8.336,4.053,4.053,0,0,1-3.155-.461Z" transform="translate(27.829 12.263)"/><path class="dr" d="M163.063,29.727c.23,13.01-31.385,24.224-70.6,25.03S21.265,45.707,21.08,32.7,52.4,8.5,91.611,7.667,162.832,16.717,163.063,29.727Z" transform="translate(27.457 9.943)"/><path class="ds" d="M154.484,27.13c.184,10.892-28.944,20.332-65.1,21.092S23.808,40.761,23.6,29.8,52.545,9.537,88.674,8.777,154.277,16.261,154.484,27.13Z" transform="translate(30.74 11.389)"/><path class="dt" d="M116.8,29.672a59.408,59.408,0,0,1-6.908,16.119A89.436,89.436,0,0,1,94.671,65.985C86.036,73.975,77.631,82.1,66.9,87.031A28.807,28.807,0,0,1,57,89.863c-2.3.184-8.359-.829-9.809.207,3.73-.484,7.553,1.98,11.513,1.911s7.737.138,11.513-.253a49.554,49.554,0,0,0,24.27-8.8c15.7-11.191,27.632-25.329,31.063-45.109.553-3.224,1.059-6.563,1.474-9.832.322-2.648,1.22-6.908.3-9.441a26.5,26.5,0,0,1-4.306,7.207,18.168,18.168,0,0,1-6.678,4.375Z" transform="translate(61.47 24.182)"/><path class="dt" d="M61.506,34.7c0,3.431,2.3,7.023,3.822,9.878a119.744,119.744,0,0,0,7.921,12.25,89.022,89.022,0,0,0,14.76,15.8A101.315,101.315,0,0,0,102.654,82a14.53,14.53,0,0,0,5.572,2.1,14.3,14.3,0,0,1,5.089.806c-3.086,2.165-7.507,2.188-11.076,3.362a22.267,22.267,0,0,1-5.8.368,34.907,34.907,0,0,1-5.8.852c-8.5-.576-14.6,3.155-46.422-18.421-3.339-2.3-5.3-6.747-7.668-10.063a91.968,91.968,0,0,1-7.3-11.306,53.721,53.721,0,0,1-5.227-15.175c-.6-3.293-2.625-10.155-.921-13.286h0c1.151.23.576,1.842,1.543,2.533A54.941,54.941,0,0,0,34.5,29.5a116.421,116.421,0,0,0,18.836,6.056c2.3.461,3.569-.207,5.342.944,0-.368.944,3.086,1.336-.507Z" transform="translate(29.217 27.673)"/><path class="dt" d="M41.291,32.312c.875,2.51,1.289,5.549,2.049,8.244A134.378,134.378,0,0,0,48.407,53.22c2.855,7.23,7.276,12.757,11.744,18.859A52.247,52.247,0,0,0,79.469,89.05C62.89,86.125,45.666,76.638,36,62.247A92.659,92.659,0,0,1,23.538,38,37.649,37.649,0,0,1,21.6,25.381c.184-6.056,4.605-2.3,7.875-.161,4.237,2.947,9.441,4.1,13.632,7.092a6.054,6.054,0,0,0-.207-.691Z" transform="translate(28.132 28.795)"/><path class="dt" d="M84.952,32.994a46.053,46.053,0,0,1-3.109,18.421A64.866,64.866,0,0,1,71.367,66.751a28.415,28.415,0,0,1-13.655,9,25.329,25.329,0,0,1-7.438.691c-2.3,0-4.1.691-6.194.875C46.613,81,53.521,84.113,57.9,84.412c6.263.414,13.033.99,19.181-.668a55.909,55.909,0,0,0,34.54-24.27c5.964-9.142,12.872-25.444,9.395-36.474-4.26,4.375-11.352,4.605-16.809,6.01-6.908,1.635-12.526,4.1-19.481,4.26Z" transform="translate(57.419 29.979)"/><path class="du" d="M39.783,29.3c-2.717-.345,2,7.161,2.648,8.013C45.908,41.914,49.339,46.7,54.4,49.536c9.211,5.227,22.819,5.227,32.468.99,9.211-4.1,16.648-9.395,21.829-18.421,3.845-6.7-1.819-5.526-6.309-4.352a123.332,123.332,0,0,1-17.408,2.74A133.556,133.556,0,0,1,66.31,32.312a164.04,164.04,0,0,1-17.178-.645c-3.155-.414-8.059-1.957-10.063-2.165Z" transform="translate(50.732 34.989)"/><path class="dv" d="M90.16,23.5c-2.832-.3-3.016,6.332-3.109,8.4a45.615,45.615,0,0,1-3.178,14.207A101.311,101.311,0,0,1,78.693,58.16c-1.934,3.569-4.605,6.447-6.793,9.786A23.556,23.556,0,0,0,78,62.42,46.442,46.442,0,0,0,83.989,55.3a63.6,63.6,0,0,0,6.678-14.346,53.722,53.722,0,0,0,2.3-11.79c0-1.243.391-10.684-2.3-6.908Z" transform="translate(93.659 27.862)"/><path class="ds" d="M83.478,51.439c-5.365,1.566-5.941,5.918-5.526,10.408s-6.332,14.276-3.915,18.421c4.421,7.345,11.145-11.283,12.388-14.3,8.221-20.056,32.1-27.632,42.3-47.158,2.3-4.605,4.605-15.336-2.878-16.119-5.319-.53-3.316,4.467-3.661,8.359a38.04,38.04,0,0,1-4.813,14.944A62.77,62.77,0,0,1,99.965,45.406a34.309,34.309,0,0,1-8.428,5.365c-2.51.852-5.5.184-7.921,1.082Z" transform="translate(95.759 3.474)"/><path class="ds" d="M48.953,48.9c5.411,1.336,6.125,5.665,5.895,10.178s6.908,14,4.605,18.122c-4.145,7.53-11.513-10.8-12.872-13.816-9-19.642-33.135-26.112-44.027-45.224C.045,13.738-2.511,3.008,4.857,2.041c5.3-.737,3.477,4.329,3.961,8.22A37.626,37.626,0,0,0,14.16,24.837,62.034,62.034,0,0,0,32.374,43.489a34.24,34.24,0,0,0,8.612,5.066c2.533.76,5.526,0,7.967.76Z" transform="translate(-0.001 2.582)"/><path class="ds" d="M17.588,32.163C14.756,28.226,9.344,21.94,8.4,16.9c-1.336-7.369,7.253-9.855,12.688-6.7,7.438,4.352,18.744,34.148,23.234,37.119,7.415,5.066,4.79,1.543,5.457-3.454-1.543-2.51-5.25-4.122-7.576-5.8a23.027,23.027,0,0,1-6.793-8.543c-3.04-5.895-4.214-12.02-7.9-17.569C24.1,6.972,18.808,1.469,12.338,1.331,6.512,1.216.525,1.446.111,7.064-.028,8.7.571,16.137,2.828,16.275c1.911,0,2.924-3.362,3.845-4.605Z" transform="translate(0.117 1.726)"/><path class="ds" d="M116.587,10.533c-.6-6.125-5.711-10.869-10.961-10.523C99.732.425,95.057,6.665,92.179,12.26c-3.224,6.171-4.076,13.079-6.632,19.573-.3.806-.645,1.543-.967,2.3a13.378,13.378,0,0,1,.806,2.993c.576-1.151,1.082-2.3,1.474-3.109,3.293-7.691,4.444-18.859,11.1-23.925,4.352-3.316,11.168-1.75,11.859,4.467l1.4-3.5c.875,1.313,1.934,5.089,3.684,4.9S116.748,12.329,116.587,10.533Z" transform="translate(110.177 0.008)"/><path class="ds" d="M99.972,8.633a9.881,9.881,0,0,0,0-2.3L92.12,25.741C94.561,21.182,99.327,14.205,99.972,8.633Z" transform="translate(119.999 8.264)"/><path class="dw" d="M77.226,28c-5.158,1.98-11.928,4.191-15.888,8.5-5.711,6.24,1.7,8.911,6.77,6.1,2.3-1.313,16.441-11.513,7.944-13.816Z" transform="translate(77.211 36.492)"/><path class="dx" d="M63.587,17.808a12.941,12.941,0,0,1-3.316-1.013,13.816,13.816,0,0,1-3.2-1.4,13.654,13.654,0,0,1,3.316.99,13.355,13.355,0,0,1,3.2,1.428Z" transform="translate(74.341 20.066)"/><path class="dy" d="M89.391,13.835c-1.036,1.243-1.681,3.753-2.671,5.25a8.289,8.289,0,0,1-3.845,3.592c.553,1.474-.276,2.694-.437,4.145a15.522,15.522,0,0,0,.322,3.8A44.58,44.58,0,0,0,89.252,19.66,23.4,23.4,0,0,0,91.3,13.535c.438-3.845-1.842.852-2.3,1.658Z" transform="translate(107.37 15.703)"/><path class="dy" d="M96.517,23.37c-2.671.276-6.056,4.421-7.53,6.609-1.151,1.681-3.892,8.29-6.47,7.253-3.362-1.359,2.3-10.938-.253-11.882-1.243-.461-2.855,2.3-3.2,3.385a12.5,12.5,0,0,0,0,5.388,14.438,14.438,0,0,1-1.036,7.046c-.829,1.865-2.3,3.362-3.016,5.25a8.589,8.589,0,0,0-1.2,5.273c.484,1.98,1.888,2.3,3.431,1.22,3.961-2.763,5.987-9.026,8.128-13.332A60.859,60.859,0,0,1,96.494,23.462l-.368.138Z" transform="translate(96.098 30.461)"/></g></g></svg>