<svg xmlns="http://www.w3.org/2000/svg" width="50.529" height="50.529" viewBox="0 0 50.529 50.529"><defs><style>.a{fill:#ffa451;}.b{fill:#fedf7c;}.c{fill:#6fc991;}.d{fill:#ffda44;}.e{fill:#a4dec2;}.f{fill:#fcad65;}.g{fill:#eb9a43;}.h{fill:#f6cc4f;}.i{fill:#ff5023;}.j{fill:#aa6100;}.k{fill:#e5862f;}.l{fill:#af5f16;}</style></defs><g transform="translate(-3 -3)"><path class="a" d="M60.485,16V55.2L57,49.977V16Z" transform="translate(-6.955 -1.674)"/><path class="b" d="M13,16H47.848V55.2H13Z" transform="translate(-1.288 -1.674)"/><path class="c" d="M3,41H34.363V58.424H3Z" transform="translate(0 -4.895)"/><circle class="d" cx="6" cy="6" r="6" transform="translate(12.529 38.529)"/><path class="e" d="M7.356,60.356H3V56A4.356,4.356,0,0,1,7.356,60.356Z" transform="translate(0 -6.827)"/><path class="e" d="M38.356,56v4.356H34A4.356,4.356,0,0,1,38.356,56Z" transform="translate(-3.993 -6.827)"/><path class="e" d="M38.356,41v4.356A4.356,4.356,0,0,1,34,41Z" transform="translate(-3.993 -4.895)"/><path class="e" d="M3,41H7.356A4.356,4.356,0,0,1,3,45.356Z" transform="translate(0 -4.895)"/><path class="a" d="M59.97,60.227H53L56.485,55Z" transform="translate(-6.44 -6.698)"/><path class="f" d="M56.485,16V49.977L53,55.2V16Z" transform="translate(-6.44 -1.674)"/><path class="g" d="M44.393,26.97v1.742H20V26.97A6.97,6.97,0,0,1,26.97,20H37.424A6.97,6.97,0,0,1,44.393,26.97Z" transform="translate(-2.19 -2.19)"/><path class="a" d="M27,8h3.485v6.97H27Z" transform="translate(-3.091 -0.644)"/><path class="f" d="M20,8h3.485v6.97H20Z" transform="translate(-2.19 -0.644)"/><path class="a" d="M53.485,8v6.97H50V8Z" transform="translate(-6.054 -0.644)"/><path class="f" d="M42,8h3.485v6.97H42Z" transform="translate(-5.023 -0.644)"/><path class="f" d="M52.326,7.356h-6.97L41,3h6.97Z" transform="translate(-4.895)"/><path class="b" d="M42.651,7.356H20L24.356,3H38.3Z" transform="translate(-2.19)"/><path class="g" d="M44.393,34v.871A5.227,5.227,0,0,1,39.166,40.1H25.227A5.227,5.227,0,0,1,20,34.871V34Z" transform="translate(-2.19 -3.993)"/><path class="h" d="M43.651,31.742a1.748,1.748,0,0,1-1.742,1.742H39.3v1.742a1.742,1.742,0,0,1-3.485,0V33.485H22.742a1.742,1.742,0,0,1,0-3.485H41.909A1.748,1.748,0,0,1,43.651,31.742Z" transform="translate(-2.318 -3.478)"/><path class="i" d="M9,50h2.614v1.742H9Z" transform="translate(-0.773 -6.054)"/><path class="i" d="M30,50h2.614v1.742H30Z" transform="translate(-3.478 -6.054)"/><path class="i" d="M20.178,48.614h.871a.436.436,0,0,1,.436.436h1.742a2.178,2.178,0,0,0-1.742-2.133V46H19.742v.916a2.178,2.178,0,0,0,.436,4.312h.871a.436.436,0,0,1,0,.871h-.871a.436.436,0,0,1-.436-.436H18A2.178,2.178,0,0,0,19.742,53.8v.916h1.742V53.8a2.178,2.178,0,0,0-.436-4.312h-.871a.436.436,0,1,1,0-.871Z" transform="translate(-1.932 -5.539)"/><g transform="translate(23.037 20.424)"><path class="j" d="M26,23h1.742v1.742H26Z" transform="translate(-26 -23)"/><path class="j" d="M29,25h1.742v1.742H29Z" transform="translate(-26.386 -23.258)"/><path class="j" d="M33,23h1.742v1.742H33Z" transform="translate(-26.902 -23)"/><path class="j" d="M36,25h1.742v1.742H36Z" transform="translate(-27.288 -23.258)"/><path class="j" d="M40,23h1.742v1.742H40Z" transform="translate(-27.803 -23)"/></g><path class="k" d="M20,8h3.485V9.742H20Z" transform="translate(-2.19 -0.644)"/><path class="k" d="M42,8h3.485V9.742H42Z" transform="translate(-5.023 -0.644)"/><path class="l" d="M27,8h3.485V9.742H27Z" transform="translate(-3.091 -0.644)"/><path class="l" d="M50,8h3.485V9.742H50Z" transform="translate(-6.054 -0.644)"/></g></svg>