<svg xmlns="http://www.w3.org/2000/svg" width="181" height="181" viewBox="0 0 181 181"><defs><style>.a,.b,.d{fill:none;}.a{stroke:#cfcfcf;stroke-width:15px;opacity:0.4;}.b{stroke-linecap:round;stroke-dasharray:149 834;}.c,.e{stroke:none;}.e{fill:#7edabf;}</style></defs><g transform="translate(0)"><g class="a" transform="translate(6.864 6.864)"><ellipse class="c" cx="83.517" cy="83.518" rx="83.517" ry="83.518"/><ellipse class="d" cx="83.517" cy="83.518" rx="76.017" ry="76.018"/></g><g class="b" transform="translate(14.561 0) rotate(5)"><path class="c" d="M83.537,0A83.537,83.537,0,1,1,0,83.537,83.537,83.537,0,0,1,83.537,0Z"/><path class="e" d="M 83.537109375 0 C 129.6734008789063 0 167.07421875 37.40086364746094 167.07421875 83.53714752197266 C 167.07421875 83.54896545410156 167.07421875 83.56039428710938 167.0742034912109 83.57220458984375 C 167.0742034912109 83.57501983642578 167.0742034912109 83.57521820068359 167.0742034912109 83.57803344726563 C 167.0742034912109 83.58763122558594 167.0741882324219 83.59709930419922 167.0741882324219 83.60669708251953 C 167.0741882324219 83.61232757568359 167.0741882324219 83.61191558837891 167.0741729736328 83.61754608154297 C 167.0741729736328 83.62529754638672 167.0741577148438 83.63392639160156 167.0741577148438 83.64167785644531 C 167.0741424560547 83.64730834960938 167.0741424560547 83.64801788330078 167.0741424560547 83.65364837646484 C 167.0741271972656 83.66102600097656 167.0741119384766 83.66829681396484 167.0740966796875 83.67568206787109 C 167.0740966796875 83.68131256103516 167.0740814208984 83.68592071533203 167.0740814208984 83.69155120849609 C 167.0740661621094 83.69782257080078 167.0740509033203 83.70391082763672 167.0740356445313 83.71018218994141 C 167.0740356445313 83.71581268310547 167.0740203857422 83.72006225585938 167.0740051269531 83.72569274902344 C 167.0739898681641 83.73233795166016 167.073974609375 83.73854064941406 167.0739593505859 83.74518585205078 C 167.0739440917969 83.75080871582031 167.0739288330078 83.75543212890625 167.0739135742188 83.76106262207031 C 167.0738983154297 83.767333984375 167.0738830566406 83.77301025390625 167.0738677978516 83.77928161621094 C 167.0738525390625 83.784912109375 167.0738372802734 83.79009246826172 167.0738220214844 83.79572296142578 C 167.0738067626953 83.80162811279297 167.0737915039063 83.80815124511719 167.0737609863281 83.81404876708984 C 167.0737457275391 83.81967926025391 167.07373046875 83.82534790039063 167.0737152099609 83.83097839355469 C 167.0736846923828 83.83688354492188 167.0736694335938 83.84291076660156 167.0736389160156 83.84881591796875 C 167.0736236572266 83.85443878173828 167.0736083984375 83.85890960693359 167.0735931396484 83.86453247070313 C 167.0735626220703 83.87080383300781 167.0735321044922 83.87750244140625 167.0735168457031 83.88377380371094 C 167.073486328125 83.889404296875 167.0734710693359 83.89425659179688 167.0734405517578 83.89988708496094 C 167.0734252929688 83.90578460693359 167.0733947753906 83.91201019287109 167.0733642578125 83.91791534423828 C 167.0733337402344 83.92353820800781 167.0733184814453 83.92893981933594 167.0732879638672 83.93456268310547 C 167.0732574462891 83.94046783447266 167.0732269287109 83.94634246826172 167.0732116699219 83.95223999023438 C 167.0731811523438 83.95786285400391 167.0731506347656 83.96387481689453 167.0731201171875 83.96950531005859 C 167.0730895996094 83.97503662109375 167.0730590820313 83.98143768310547 167.0730285644531 83.98696899414063 C 167.072998046875 83.99259948730469 167.0729675292969 83.99826049804688 167.0729370117188 84.00388336181641 C 167.0729064941406 84.00978088378906 167.0728759765625 84.01577758789063 167.0728454589844 84.02168273925781 C 167.0727996826172 84.02730560302734 167.0727691650391 84.03297424316406 167.0727386474609 84.03859710693359 C 167.0727081298828 84.04486083984375 167.0726623535156 84.05084228515625 167.0726318359375 84.05711364746094 C 167.0726165771484 84.05992126464844 167.0725555419922 84.06966400146484 167.0725402832031 84.07247924804688 C 167.0724945068359 84.07837677001953 167.0724487304688 84.08513641357422 167.0724182128906 84.09103393554688 C 167.0723876953125 84.09665679931641 167.0723419189453 84.10267639160156 167.0723114013672 84.10829925537109 C 167.072265625 84.11345672607422 167.0722351074219 84.11859130859375 167.0722045898438 84.12375640869141 C 167.0721435546875 84.13218688964844 167.0721282958984 84.13409423828125 167.0720672607422 84.14252471923828 C 167.072021484375 84.14842987060547 167.0719757080078 84.15487670898438 167.0719299316406 84.16077423095703 C 167.0718994140625 84.16639709472656 167.0718688964844 84.17098236083984 167.0718231201172 84.17660522460938 C 167.0717620849609 84.18434906005859 167.0717010498047 84.19255828857422 167.0716400146484 84.20030212402344 C 167.0716094970703 84.20310974121094 167.0715789794922 84.20811462402344 167.0715484619141 84.21092987060547 C 167.0714874267578 84.21977233886719 167.0714111328125 84.22917938232422 167.0713348388672 84.23802185058594 C 167.0713195800781 84.24082946777344 167.0712890625 84.24301147460938 167.0712738037109 84.24582672119141 C 167.0711822509766 84.25761413574219 167.0710754394531 84.26862335205078 167.0709838867188 84.28041076660156 C 167.0709533691406 84.28322601318359 167.0709381103516 84.28545379638672 167.0709075927734 84.28826141357422 C 167.0708312988281 84.29710388183594 167.0707550048828 84.30612182617188 167.0706634521484 84.31496429443359 C 167.0706481933594 84.31777954101563 167.0705871582031 84.32304382324219 167.0705718994141 84.32585144042969 C 167.0704956054688 84.33396148681641 167.0704193115234 84.34192657470703 167.0703430175781 84.35002899169922 C 167.0702819824219 84.35565185546875 167.0702819824219 84.35577392578125 167.0702362060547 84.36139678955078 C 167.0701599121094 84.36875915527344 167.0700836181641 84.37677001953125 167.0700073242188 84.38414001464844 C 167.0699615478516 84.38975524902344 167.0699310302734 84.39199829101563 167.0698699951172 84.39762115478516 C 167.0698089599609 84.40461730957031 167.0697174072266 84.41251373291016 167.0696563720703 84.41951751708984 C 167.0696258544922 84.42232513427734 167.0695495605469 84.42868804931641 167.0695190429688 84.43149566650391 C 167.0694427490234 84.43885803222656 167.0693664550781 84.44631195068359 167.0692901611328 84.45368194580078 C 167.0692596435547 84.45648956298828 167.0691680908203 84.46443939208984 167.0691375732422 84.46724700927734 C 167.0690612792969 84.4742431640625 167.0689849853516 84.48157501220703 167.0689086914063 84.48857116699219 C 167.0688781738281 84.49137878417969 167.0687866210938 84.49964141845703 167.0687561035156 84.50244903564453 C 167.0686798095703 84.50907897949219 167.068603515625 84.51591491699219 167.0685272216797 84.52254486083984 C 167.0684509277344 84.52816009521484 167.0684051513672 84.53208923339844 167.0683441162109 84.53770446777344 C 167.0682678222656 84.54433441162109 167.0681915283203 84.55080413818359 167.068115234375 84.55743408203125 C 167.0680389404297 84.56304931640625 167.0680084228516 84.56668090820313 167.0679321289063 84.57229614257813 C 167.0678558349609 84.57892608642578 167.0677795410156 84.58526611328125 167.0676879882813 84.59188842773438 C 167.067626953125 84.59750366210938 167.0675811767578 84.60106658935547 167.0675048828125 84.60668182373047 C 167.0674285888672 84.61331176757813 167.0673370361328 84.62037658691406 167.0672454833984 84.62699890136719 C 167.0671844482422 84.63261413574219 167.067138671875 84.63618469238281 167.0670623779297 84.64179992675781 C 167.0669860839844 84.64768981933594 167.06689453125 84.65420532226563 167.0668182373047 84.66009521484375 C 167.0667419433594 84.66571044921875 167.0666656494141 84.67170715332031 167.0665893554688 84.67732238769531 C 167.0665130615234 84.68321228027344 167.0664367675781 84.68875122070313 167.0663604736328 84.69464111328125 C 167.0662841796875 84.70025634765625 167.0662078857422 84.70591735839844 167.0661315917969 84.71153259277344 C 167.0660400390625 84.71742248535156 167.0659637451172 84.72357940673828 167.0658721923828 84.72946929931641 C 167.0657958984375 84.73508453369141 167.0657348632813 84.74028015136719 167.0656433105469 84.74588775634766 C 167.0655670166016 84.75214385986328 167.0654754638672 84.75824737548828 167.0653839111328 84.76450347900391 C 167.0653381347656 84.76731109619141 167.065185546875 84.77773284912109 167.0651550292969 84.78054046630859 C 167.0650634765625 84.78679656982422 167.0649719238281 84.79290008544922 167.0648803710938 84.79915618896484 C 167.0648345947266 84.80196380615234 167.0646820068359 84.81188201904297 167.0646514892578 84.81468963623047 C 167.0645294189453 84.82204437255859 167.0644226074219 84.82933807373047 167.0643157958984 84.83670043945313 C 167.0642242431641 84.84231567382813 167.064208984375 84.84304809570313 167.0641326904297 84.84866333007813 C 167.0640106201172 84.85675811767578 167.0638732910156 84.86477661132813 167.0637512207031 84.87287139892578 C 167.0636596679688 84.87848663330078 167.0636749267578 84.87764739990234 167.0635833740234 84.88325500488281 C 167.0634460449219 84.89208984375 167.0633087158203 84.90052795410156 167.0631713867188 84.90935516357422 C 167.0631256103516 84.91215515136719 167.0630798339844 84.91522216796875 167.0630340576172 84.91802215576172 C 167.0628967285156 84.92648315429688 167.0627593994141 84.93456268310547 167.0626220703125 84.94302368164063 C 167.0625762939453 84.94582366943359 167.0625 84.95021057128906 167.0624542236328 84.95301818847656 C 167.0620727539063 84.97618865966797 167.0616760253906 84.99937438964844 167.061279296875 85.02253723144531 C 167.0612335205078 85.02534484863281 167.0612335205078 85.02462005615234 167.0611877441406 85.02742767333984 C 167.0610198974609 85.037353515625 167.0608367919922 85.04716491699219 167.0606689453125 85.05709075927734 C 167.0606231689453 85.05989837646484 167.0605316162109 85.06421661376953 167.0604858398438 85.06702423095703 C 167.0603485107422 85.07511138916016 167.0601959228516 85.0830078125 167.06005859375 85.09110260009766 C 167.0599517822266 85.09671020507813 167.0599212646484 85.09834289550781 167.059814453125 85.10395050048828 C 167.0596771240234 85.11167144775391 167.0595397949219 85.11869049072266 167.0594024658203 85.12641143798828 C 167.0593414306641 85.12921142578125 167.0592498779297 85.13449859619141 167.0591888427734 85.13729858398438 C 167.0590515136719 85.14501953125 167.0588989257813 85.15296173095703 167.0587615966797 85.16068267822266 C 167.0587005615234 85.16348266601563 167.0585479736328 85.17108917236328 167.0585021972656 85.17389678955078 C 167.0583648681641 85.18087768554688 167.0582275390625 85.18811798095703 167.0580902099609 85.19510650634766 C 167.0580291748047 85.19790649414063 167.0578765869141 85.20634460449219 167.0578155517578 85.20914459228516 C 167.0576782226563 85.21575927734375 167.0575561523438 85.22234344482422 167.0574188232422 85.22895812988281 C 167.0573120117188 85.23456573486328 167.0572204589844 85.23897552490234 167.0571136474609 85.24458312988281 C 167.0569763183594 85.25119781494141 167.0568542480469 85.25755310058594 167.0567169189453 85.26416778564453 C 167.0566101074219 85.269775390625 167.0565490722656 85.27265930175781 167.0564270019531 85.27826690673828 C 167.0562896728516 85.28488159179688 167.05615234375 85.29176330566406 167.0560150146484 85.29837799072266 C 167.055908203125 85.30397796630859 167.0558166503906 85.30818939208984 167.0556945800781 85.31378936767578 C 167.0555725097656 85.32003784179688 167.0554351806641 85.32661437988281 167.0552978515625 85.33285522460938 C 167.05517578125 85.33846282958984 167.0550994873047 85.34223175048828 167.0549774169922 85.34783172607422 C 167.0548400878906 85.35444641113281 167.0547027587891 85.36095428466797 167.0545501708984 85.36756896972656 C 167.054443359375 85.3731689453125 167.0543518066406 85.37698364257813 167.0542297363281 85.38259124755859 C 167.0540771484375 85.38957214355469 167.0539398193359 85.39601135253906 167.0537872314453 85.40299224853516 C 167.0536651611328 85.40859222412109 167.0536193847656 85.41046905517578 167.0534973144531 85.41606903076172 C 167.0533447265625 85.42341613769531 167.0531768798828 85.4310302734375 167.0530090332031 85.43837738037109 C 167.0529479980469 85.44117736816406 167.0527954101563 85.44806671142578 167.0527191162109 85.45087432861328 C 167.0525665283203 85.45821380615234 167.0523834228516 85.46578979492188 167.0522155761719 85.47313690185547 C 167.0521545410156 85.47593688964844 167.052001953125 85.48255920410156 167.0519409179688 85.48535919189453 C 167.0517730712891 85.49270629882813 167.0516052246094 85.50003814697266 167.0514373779297 85.50738525390625 C 167.0513763427734 85.51018524169922 167.0512084960938 85.51747131347656 167.0511322021484 85.52027130126953 C 167.0509490966797 85.52835083007813 167.0507507324219 85.53672790527344 167.0505676269531 85.54480743408203 C 167.0504913330078 85.547607421875 167.0504150390625 85.55106353759766 167.0503540039063 85.55386352539063 C 167.0501556396484 85.56230926513672 167.0499420166016 85.571044921875 167.0497436523438 85.57949066162109 C 167.0496063232422 85.58509063720703 167.0496368408203 85.58353424072266 167.0494995117188 85.58913421630859 C 167.0492858886719 85.59831237792969 167.0490417480469 85.60831451416016 167.0488128662109 85.61749267578125 C 167.0487518310547 85.62029266357422 167.0487518310547 85.62040710449219 167.0486755371094 85.62320709228516 C 167.0475463867188 85.66945648193359 167.0463562011719 85.71649932861328 167.0451507568359 85.76273345947266 C 167.0450744628906 85.76553344726563 167.0450134277344 85.76763916015625 167.0449371337891 85.77043914794922 C 167.0447082519531 85.77924346923828 167.0444793701172 85.78791046142578 167.0442504882813 85.79671478271484 C 167.0440979003906 85.80231475830078 167.0440826416016 85.80264282226563 167.0439453125 85.80823516845703 C 167.0437316894531 85.81594085693359 167.0435180664063 85.82427215576172 167.0433044433594 85.83197784423828 C 167.0432281494141 85.83477020263672 167.0431213378906 85.83888244628906 167.0430450439453 85.8416748046875 C 167.0428161621094 85.84974670410156 167.0425872802734 85.85831451416016 167.0423736572266 85.86638641357422 C 167.0422973632813 85.86918640136719 167.0421600341797 85.87425231933594 167.0420684814453 85.87705230712891 C 167.0418548583984 85.88512420654297 167.0416259765625 85.89332580566406 167.0413970947266 85.90139770507813 C 167.0413208007813 85.90419006347656 167.0411987304688 85.90887451171875 167.0411224365234 85.91166687011719 C 167.0409088134766 85.91937255859375 167.0406646728516 85.92770385742188 167.0404510498047 85.93540954589844 C 167.0403747558594 85.93820953369141 167.0401916503906 85.94435882568359 167.0401153564453 85.94715118408203 C 167.0399017333984 85.95485687255859 167.0396728515625 85.96305847167969 167.0394439697266 85.97076416015625 C 167.0393676757813 85.97355651855469 167.0392150878906 85.97859954833984 167.0391387939453 85.98139953613281 C 167.0389251708984 85.98909759521484 167.0387115478516 85.99659729003906 167.0384826660156 86.00429534912109 C 167.0383148193359 86.0098876953125 167.0382537841797 86.01191711425781 167.0381011962891 86.01750946044922 C 167.0378875732422 86.02447509765625 167.0376739501953 86.03189086914063 167.0374755859375 86.03885650634766 C 167.0373077392578 86.04444885253906 167.0372467041016 86.04644775390625 167.0370788574219 86.05203247070313 C 167.0368804931641 86.05900573730469 167.0366668701172 86.06591033935547 167.0364685058594 86.0728759765625 C 167.0363006591797 86.07846832275391 167.0362091064453 86.08127593994141 167.0360412597656 86.08686828613281 C 167.0358276367188 86.09420013427734 167.0356140136719 86.10127258300781 167.0353851318359 86.10860443115234 C 167.0352172851563 86.11418914794922 167.0352020263672 86.11491394042969 167.0350341796875 86.12050628662109 C 167.0347900390625 86.12857055664063 167.0345764160156 86.13557434082031 167.0343322753906 86.14363098144531 C 167.0342407226563 86.14643096923828 167.0340728759766 86.152099609375 167.0339813232422 86.15489196777344 C 167.0337219238281 86.16332244873047 167.0334625244141 86.17177581787109 167.033203125 86.18020629882813 C 167.0331115722656 86.18300628662109 167.0330200195313 86.18588256835938 167.0329284667969 86.18868255615234 C 167.0326538085938 86.19747924804688 167.0323944091797 86.20612335205078 167.0321044921875 86.21492004394531 C 167.0320281982422 86.21771240234375 167.0319213867188 86.22080230712891 167.0318298339844 86.22359466552734 C 167.0315399169922 86.23275756835938 167.0312652587891 86.24139404296875 167.0309753417969 86.25055694580078 C 167.0308837890625 86.25334930419922 167.0308227539063 86.25534057617188 167.0307312011719 86.25813293457031 C 167.0304412841797 86.26729583740234 167.0301208496094 86.27721405029297 167.0298309326172 86.28636932373047 C 167.0298309326172 86.28636932373047 167.0296325683594 86.29265594482422 167.0296325683594 86.29265594482422 C 167.029296875 86.30291748046875 167.0289611816406 86.31300354003906 167.0286254882813 86.32325744628906 C 167.0285339355469 86.3260498046875 167.0285949707031 86.32444763183594 167.0285034179688 86.32723999023438 C 167.0281677246094 86.33713531494141 167.02783203125 86.34754943847656 167.0274963378906 86.35743713378906 C 167.0274047851563 86.3602294921875 167.0274353027344 86.35955810546875 167.02734375 86.36235046386719 C 167.0261688232422 86.39751434326172 167.0250091552734 86.43193817138672 167.0237884521484 86.46709442138672 C 167.0236968994141 86.46988677978516 167.0238189697266 86.46636962890625 167.0237274169922 86.46916198730469 C 167.0233612060547 86.47978210449219 167.0229644775391 86.49092864990234 167.0225982666016 86.50154113769531 C 167.0225067138672 86.50433349609375 167.0224609375 86.50554656982422 167.0223541259766 86.50833892822266 C 167.0220489501953 86.51749420166016 167.0217132568359 86.52677917480469 167.0213928222656 86.53593444824219 C 167.0213012695313 86.53872680664063 167.0211944580078 86.54144287109375 167.0211029052734 86.54423522949219 C 167.0207824707031 86.55302429199219 167.0204620361328 86.56204986572266 167.0201568603516 86.57083892822266 C 167.0200500488281 86.57363128662109 167.0199584960938 86.57635498046875 167.0198516845703 86.57914733886719 C 167.0195465087891 86.58793640136719 167.0192413330078 86.59651184082031 167.0189208984375 86.60530090332031 C 167.0188140869141 86.60808563232422 167.0186767578125 86.61204528808594 167.0185699462891 86.61483764648438 C 167.0182800292969 86.62288665771484 167.0179901123047 86.63097381591797 167.0176849365234 86.63903045654297 C 167.0175933837891 86.64182281494141 167.0173492431641 86.64856719970703 167.0172424316406 86.65135955810547 C 167.0169677734375 86.65867614746094 167.0166778564453 86.66658020019531 167.0164184570313 86.67390441894531 C 167.0163116455078 86.67669677734375 167.01611328125 86.6820068359375 167.0160064697266 86.68479919433594 C 167.0157165527344 86.69284820556641 167.0153961181641 86.70114135742188 167.0151062011719 86.70919036865234 C 167.0149993896484 86.71198272705078 167.0148468017578 86.71598815917969 167.0147399902344 86.71878051757813 C 167.0144195556641 86.72756195068359 167.0140991210938 86.73586273193359 167.0137634277344 86.74464416503906 C 167.013671875 86.74742889404297 167.0135803222656 86.74970245361328 167.0134735107422 86.75249481201172 C 167.0131378173828 86.76127624511719 167.0127868652344 86.77060699462891 167.012451171875 86.77938842773438 C 167.0123443603516 86.78218078613281 167.0122528076172 86.78478240966797 167.0121459960938 86.78757476806641 C 167.0118103027344 86.79635620117188 167.0114593505859 86.80537414550781 167.0111236572266 86.81414794921875 C 167.0110168457031 86.81694030761719 167.0109100341797 86.81947326660156 167.0108032226563 86.822265625 C 167.0104827880859 86.83068084716797 167.0101470947266 86.83930969238281 167.0098114013672 86.84772491455078 C 167.0097045898438 86.85051727294922 167.009521484375 86.85518646240234 167.0094146728516 86.85797882080078 C 167.0091094970703 86.86602020263672 167.0087738037109 86.87445068359375 167.0084533691406 86.88249969482422 C 167.0083465576172 86.88528442382813 167.0081787109375 86.88935852050781 167.0080718994141 86.89214324951172 C 167.0077514648438 86.90019226074219 167.0074310302734 86.90851593017578 167.0071105957031 86.91655731201172 C 167.0069885253906 86.91934967041016 167.0067901611328 86.924560546875 167.0066833496094 86.92734527587891 C 167.0063323974609 86.93611907958984 167.0059967041016 86.94451141357422 167.0056304931641 86.95328521728516 C 167.0055236816406 86.95607757568359 167.0054473876953 86.95809173583984 167.0053253173828 86.96088409423828 C 167.0049438476563 86.97039031982422 167.0045471191406 86.98017883300781 167.0041656494141 86.98968505859375 C 167.0041656494141 86.98968505859375 167.0039367675781 86.995361328125 167.0039367675781 86.995361328125 C 167.0006103515625 87.07688903808594 166.9971923828125 87.15793609619141 166.9936370849609 87.23940277099609 C 166.9936370849609 87.23940277099609 166.9935455322266 87.24174499511719 166.9935455322266 87.24174499511719 C 166.9930725097656 87.25233459472656 166.9926147460938 87.26303863525391 166.9921417236328 87.27363586425781 C 166.9921417236328 87.27363586425781 166.9919128417969 87.27872467041016 166.9919128417969 87.27872467041016 C 166.9914855957031 87.28858184814453 166.9910125732422 87.29922485351563 166.9905700683594 87.30908203125 C 166.9905700683594 87.30908203125 166.9904327392578 87.31246185302734 166.9904327392578 87.31246185302734 C 166.9899749755859 87.32268524169922 166.9895172119141 87.33278656005859 166.9890594482422 87.34300994873047 C 166.9889373779297 87.34579467773438 166.9889068603516 87.34634399414063 166.9887847900391 87.34912872314453 C 166.9883575439453 87.35861968994141 166.9878997802734 87.36885070800781 166.9874725341797 87.37834167480469 C 166.9873504638672 87.38112640380859 166.9873657226563 87.38053131103516 166.9872436523438 87.38331604003906 C 166.98681640625 87.39281463623047 166.9863739013672 87.40249633789063 166.9859466552734 87.4119873046875 C 166.9858093261719 87.41477203369141 166.9857177734375 87.41674041748047 166.985595703125 87.41952514648438 C 166.9851684570313 87.42901611328125 166.9847412109375 87.43804931640625 166.9843139648438 87.44754028320313 C 166.9841766357422 87.45032501220703 166.9841613769531 87.45069122314453 166.9840393066406 87.45347595214844 C 166.9836120605469 87.46260070800781 166.9831848144531 87.47196960449219 166.9827575683594 87.48110198974609 C 166.9826202392578 87.48388671875 166.9824981689453 87.48651885986328 166.9823760986328 87.48930358886719 C 166.9819488525391 87.49842834472656 166.9815216064453 87.50772857666016 166.9810943603516 87.51686096191406 C 166.98095703125 87.51963806152344 166.9809265136719 87.52030944824219 166.9807891845703 87.52309417724609 C 166.9803466796875 87.53258514404297 166.9798889160156 87.54227447509766 166.9794464111328 87.5517578125 C 166.9793090820313 87.55454254150391 166.9792938232422 87.55484771728516 166.9791717529297 87.55763244628906 C 166.9786987304688 87.56748962402344 166.9782409667969 87.57724761962891 166.9777679443359 87.58709716796875 C 166.9776306152344 87.58988189697266 166.9776458740234 87.58948516845703 166.9775238037109 87.59226989746094 C 166.97705078125 87.60211944580078 166.9765930175781 87.61167144775391 166.9761199951172 87.62152099609375 C 166.9759826660156 87.62430572509766 166.9759826660156 87.62432098388672 166.9758453369141 87.62709808349609 C 166.9753570556641 87.63731384277344 166.9748382568359 87.64781188964844 166.9743499755859 87.65802764892578 C 166.9743499755859 87.65802764892578 166.9741973876953 87.66126251220703 166.9741973876953 87.66126251220703 C 166.9736633300781 87.67221069335938 166.9731292724609 87.68290710449219 166.9725952148438 87.69385528564453 C 166.9725952148438 87.69385528564453 166.9725036621094 87.69583892822266 166.9725036621094 87.69583892822266 C 166.9679260253906 87.78923034667969 166.9632263183594 87.88201141357422 166.9583435058594 87.97532653808594 C 166.9583435058594 87.97532653808594 166.9582977294922 87.97609710693359 166.9582977294922 87.97609710693359 C 166.9577178955078 87.98703002929688 166.9571228027344 87.99842834472656 166.95654296875 88.00936126708984 C 166.95654296875 88.00936126708984 166.956298828125 88.01418304443359 166.956298828125 88.01418304443359 C 166.9557800292969 88.02402496337891 166.9552917480469 88.03300476074219 166.9547729492188 88.0428466796875 C 166.9546203613281 88.04562377929688 166.9544525146484 88.04885864257813 166.9542999267578 88.0516357421875 C 166.9538421630859 88.06038665771484 166.953369140625 88.06932067871094 166.9528961181641 88.07806396484375 C 166.9527435302734 88.08084106445313 166.9526977539063 88.08181762695313 166.9525451660156 88.0845947265625 C 166.9520416259766 88.09407043457031 166.9515228271484 88.10367584228516 166.9510040283203 88.11315155029297 C 166.9508666992188 88.11592864990234 166.9508209228516 88.11650085449219 166.95068359375 88.11927795410156 C 166.9501800537109 88.12838745117188 166.9496459960938 88.13822174072266 166.9491577148438 88.14733123779297 C 166.9490051269531 88.15010833740234 166.9489288330078 88.15161895751953 166.9487762451172 88.15439605712891 C 166.9483032226563 88.16313934326172 166.9477691650391 88.17271423339844 166.9472961425781 88.18144989013672 C 166.9471435546875 88.18423461914063 166.9469909667969 88.18688201904297 166.9468383789063 88.18965911865234 C 166.9463500976563 88.19876098632813 166.9458465576172 88.20789337158203 166.9453430175781 88.21699523925781 C 166.9453430175781 88.21699523925781 166.9449920654297 88.22315979003906 166.9449920654297 88.22315979003906 C 166.9444732666016 88.23262786865234 166.9439392089844 88.24234008789063 166.9434051513672 88.25181579589844 C 166.9432525634766 88.25459289550781 166.9432220458984 88.25518798828125 166.9430694580078 88.25796508789063 C 166.9425201416016 88.26779937744141 166.9420013427734 88.277099609375 166.9414520263672 88.28693389892578 C 166.9412994384766 88.28971099853516 166.9412994384766 88.28953552246094 166.9411468505859 88.29231262207031 C 166.9406127929688 88.30178070068359 166.9400482177734 88.31180572509766 166.9395141601563 88.32127380371094 C 166.9393615722656 88.32405090332031 166.9393310546875 88.32442474365234 166.9391784667969 88.32720184326172 C 166.9385833740234 88.33776092529297 166.9379577636719 88.34883117675781 166.9373626708984 88.35938262939453 C 166.9373626708984 88.35938262939453 166.9373016357422 88.36043548583984 166.9373016357422 88.36043548583984 C 166.9366607666016 88.37171936035156 166.9360504150391 88.38237762451172 166.9353942871094 88.39366149902344 C 166.9353942871094 88.39366149902344 166.9352874755859 88.3956298828125 166.9352874755859 88.3956298828125 C 166.9286193847656 88.51175689697266 166.9217376708984 88.62766265869141 166.9146118164063 88.74365997314453 C 166.9146118164063 88.74365997314453 166.9144592285156 88.74613189697266 166.9144592285156 88.74613189697266 C 166.9137878417969 88.75704193115234 166.9131011962891 88.76796722412109 166.9124298095703 88.77887725830078 C 166.9124298095703 88.77887725830078 166.912353515625 88.78021240234375 166.912353515625 88.78021240234375 C 166.9116668701172 88.79112243652344 166.9109954833984 88.80207824707031 166.9103088378906 88.81298065185547 C 166.9101409912109 88.81575775146484 166.9102783203125 88.81353759765625 166.9101104736328 88.81630706787109 C 166.9094696044922 88.82648468017578 166.9087982177734 88.83713531494141 166.9081726074219 88.84731292724609 C 166.9079895019531 88.85009002685547 166.9080657958984 88.84891510009766 166.9078979492188 88.85169219970703 C 166.9072570800781 88.86186981201172 166.9066314697266 88.87176513671875 166.9059906005859 88.88193511962891 C 166.9059906005859 88.88193511962891 166.9057159423828 88.88613891601563 166.9057159423828 88.88613891601563 C 166.905029296875 88.89704895019531 166.9043731689453 88.90755462646484 166.9036712646484 88.91845703125 C 166.9036712646484 88.91845703125 166.9036254882813 88.91929626464844 166.9036254882813 88.91929626464844 C 166.9029083251953 88.93056488037109 166.9022064208984 88.94145965576172 166.9014892578125 88.95272827148438 C 166.9014892578125 88.95272827148438 166.9013671875 88.95459747314453 166.9013671875 88.95459747314453 C 166.9006500244141 88.96585845947266 166.8999328613281 88.97707366943359 166.8992004394531 88.98833465576172 C 166.8992004394531 88.98833465576172 166.899169921875 88.98886871337891 166.899169921875 88.98886871337891 C 166.8984375 89.00012969970703 166.8977508544922 89.01076507568359 166.8970184326172 89.02202606201172 C 166.8968505859375 89.02479553222656 166.8970489501953 89.02158355712891 166.8968811035156 89.02435302734375 C 166.8961639404297 89.03525543212891 166.8954162597656 89.046875 166.8946990966797 89.05777740478516 C 166.8946990966797 89.05777740478516 166.8946380615234 89.05869293212891 166.8946380615234 89.05869293212891 C 166.8847808837891 89.20980834960938 166.8745727539063 89.35999298095703 166.8639068603516 89.51089477539063 C 166.8639068603516 89.51089477539063 166.8638000488281 89.51248168945313 166.8638000488281 89.51248168945313 C 166.863037109375 89.52336120605469 166.8622283935547 89.53472137451172 166.8614501953125 89.54560852050781 C 166.8612518310547 89.54837036132813 166.8615264892578 89.54445648193359 166.8613433837891 89.54722595214844 C 166.8605651855469 89.55810546875 166.8598022460938 89.56875610351563 166.8590240478516 89.57963562011719 C 166.8590240478516 89.57963562011719 166.8587951660156 89.58289337158203 166.8587951660156 89.58289337158203 C 166.8580169677734 89.59377288818359 166.8572387695313 89.60465240478516 166.8564605712891 89.61553192138672 C 166.8564605712891 89.61553192138672 166.8563995361328 89.61622619628906 166.8563995361328 89.61622619628906 C 166.8555908203125 89.62746429443359 166.8547821044922 89.63872528076172 166.8539733886719 89.64996337890625 C 166.8539733886719 89.64996337890625 166.8538665771484 89.65135192871094 166.8538665771484 89.65135192871094 C 166.8530883789063 89.6622314453125 166.8522338867188 89.67384338378906 166.8514556884766 89.68472290039063 C 166.8514556884766 89.68472290039063 166.8513488769531 89.68604278564453 166.8513488769531 89.68604278564453 C 166.8505554199219 89.69691467285156 166.8497467041016 89.70806121826172 166.8489532470703 89.71894073486328 C 166.8487548828125 89.72170257568359 166.8489990234375 89.71836853027344 166.8487854003906 89.72113800048828 C 166.8369293212891 89.88317108154297 166.8246307373047 90.04499816894531 166.8118438720703 90.20677185058594 C 166.8118438720703 90.20677185058594 166.811767578125 90.20771026611328 166.811767578125 90.20771026611328 C 166.8108825683594 90.21893310546875 166.8099822998047 90.23025512695313 166.8090972900391 90.24147033691406 C 166.8088836669922 90.24423217773438 166.8092346191406 90.23974609375 166.8090209960938 90.24250793457031 C 166.8081817626953 90.25300598144531 166.8072967529297 90.26412963867188 166.8064575195313 90.27462005615234 C 166.8062438964844 90.27738189697266 166.8063049316406 90.27646636962891 166.8060913085938 90.27922821044922 C 166.8052520751953 90.28971862792969 166.8044891357422 90.29927062988281 166.8036499023438 90.30976104736328 C 166.8036499023438 90.30976104736328 166.8033905029297 90.31301116943359 166.8033905029297 90.31301116943359 C 166.8025360107422 90.32350158691406 166.8016815185547 90.33424377441406 166.8008270263672 90.34473419189453 C 166.8008270263672 90.34473419189453 166.8006286621094 90.34717559814453 166.8006286621094 90.34717559814453 C 166.7801208496094 90.60147857666016 166.7584838867188 90.85517120361328 166.7357025146484 91.10883331298828 C 166.7357025146484 91.10883331298828 166.7356567382813 91.1092529296875 166.7356567382813 91.1092529296875 C 166.6962432861328 91.54801177978516 166.6534576416016 91.98548126220703 166.6072845458984 92.42225646972656 C 166.6072845458984 92.42225646972656 166.6072387695313 92.42256164550781 166.6072387695313 92.42256164550781 C 166.6060638427734 92.43370056152344 166.6048583984375 92.44517517089844 166.6036682128906 92.45630645751953 C 166.6036682128906 92.45630645751953 166.6035461425781 92.45741271972656 166.6035461425781 92.45741271972656 C 166.6023712158203 92.46854400634766 166.6013031005859 92.47864532470703 166.6001129150391 92.48977661132813 C 166.6001129150391 92.48977661132813 166.5997924804688 92.49271392822266 166.5997924804688 92.49271392822266 C 166.5986480712891 92.50348663330078 166.5975036621094 92.51419067382813 166.5963592529297 92.52496337890625 C 166.5963592529297 92.52496337890625 166.5962066650391 92.52635192871094 166.5962066650391 92.52635192871094 C 166.5950164794922 92.53748321533203 166.5938262939453 92.54861450195313 166.5926208496094 92.55974578857422 C 166.5926208496094 92.55974578857422 166.592529296875 92.56059265136719 166.592529296875 92.56059265136719 C 166.5764923095703 92.70994567871094 166.5601043701172 92.85877227783203 166.5432739257813 93.00788116455078 C 166.5432739257813 93.00788116455078 166.5432434082031 93.00827026367188 166.5432434082031 93.00827026367188 C 166.5419769287109 93.01937866210938 166.540771484375 93.03009033203125 166.5395202636719 93.04119873046875 C 166.5391998291016 93.04393005371094 166.5394592285156 93.04168701171875 166.5391540527344 93.04442596435547 C 166.5379333496094 93.05517578125 166.5367431640625 93.06570434570313 166.5355072021484 93.07645416259766 C 166.5355072021484 93.07645416259766 166.5354156494141 93.07734680175781 166.5354156494141 93.07734680175781 C 166.5341949462891 93.08809661865234 166.5328521728516 93.09982299804688 166.5316314697266 93.11057281494141 C 166.5316314697266 93.11057281494141 166.5314788818359 93.11193084716797 166.5314788818359 93.11193084716797 C 166.5302124023438 93.12303924560547 166.5289306640625 93.13423919677734 166.5276489257813 93.14534759521484 C 166.5276489257813 93.14534759521484 166.527587890625 93.14590454101563 166.527587890625 93.14590454101563 C 166.5263519287109 93.15665435791016 166.5251312255859 93.16737365722656 166.5238952636719 93.17811584472656 C 166.5238952636719 93.17811584472656 166.5234985351563 93.18158721923828 166.5234985351563 93.18158721923828 C 166.5222625732422 93.19233703613281 166.5211029052734 93.20233917236328 166.5198669433594 93.21308135986328 C 166.5198669433594 93.21308135986328 166.5196075439453 93.21533203125 166.5196075439453 93.21533203125 C 166.5183715820313 93.22607421875 166.51708984375 93.23709106445313 166.5158538818359 93.24783325195313 C 166.5155334472656 93.25056457519531 166.5160064697266 93.24655151367188 166.5156860351563 93.24928283691406 C 166.514404296875 93.26038360595703 166.5131988525391 93.27079772949219 166.5119018554688 93.28189849853516 C 166.5119018554688 93.28189849853516 166.5116882324219 93.28380584716797 166.5116882324219 93.28380584716797 C 166.5104675292969 93.294189453125 166.5091552734375 93.30547332763672 166.5079498291016 93.31585693359375 C 166.5079498291016 93.31585693359375 166.5076904296875 93.31813812255859 166.5076904296875 93.31813812255859 C 166.4930725097656 93.44345092773438 166.4780578613281 93.56961822509766 166.462890625 93.69477081298828 C 166.462890625 93.69477081298828 166.462646484375 93.69684600830078 166.462646484375 93.69684600830078 C 166.4613800048828 93.70721435546875 166.4601287841797 93.71762847900391 166.4588623046875 93.72799682617188 C 166.4585266113281 93.73072052001953 166.4585418701172 93.73057556152344 166.4582214355469 93.73329925537109 C 166.4570465087891 93.74295806884766 166.4558868408203 93.75241088867188 166.4547119140625 93.76206970214844 C 166.4543762207031 93.76479339599609 166.4544525146484 93.76418304443359 166.4541168212891 93.76690673828125 C 166.4529418945313 93.77655792236328 166.4517059326172 93.78671264648438 166.4505157470703 93.79636383056641 C 166.4501800537109 93.79908752441406 166.4502716064453 93.79833984375 166.4499359130859 93.80106353759766 C 166.4487609863281 93.81071472167969 166.4475402832031 93.82061004638672 166.4463653564453 93.83026123046875 C 166.4463653564453 93.83026123046875 166.4457397460938 93.83528137207031 166.4457397460938 93.83528137207031 C 166.4445495605469 93.84493255615234 166.4434356689453 93.85402679443359 166.4422454833984 93.86367034912109 C 166.4422454833984 93.86367034912109 166.4414672851563 93.86997222900391 166.4414672851563 93.86997222900391 C 166.4402770996094 93.87962341308594 166.4389953613281 93.88995361328125 166.4378051757813 93.89960479736328 C 166.4378051757813 93.89960479736328 166.4374694824219 93.90237426757813 166.4374694824219 93.90237426757813 C 166.4361877441406 93.91273498535156 166.4349060058594 93.92310333251953 166.4336090087891 93.93346405029297 C 166.4332733154297 93.93618774414063 166.4335174560547 93.93423461914063 166.4331817626953 93.93696594238281 C 166.4318542480469 93.94767761230469 166.4305877685547 93.95787048339844 166.4292449951172 93.96858215332031 C 166.4292449951172 93.96858215332031 166.4290161132813 93.97046661376953 166.4290161132813 93.97046661376953 C 166.4277191162109 93.98082733154297 166.4263763427734 93.99160003662109 166.4250793457031 94.00196075439453 C 166.4250793457031 94.00196075439453 166.4246978759766 94.00507354736328 166.4246978759766 94.00507354736328 C 166.4090576171875 94.13008117675781 166.3931274414063 94.25531768798828 166.3769378662109 94.38014984130859 C 166.3769378662109 94.38014984130859 166.3764801025391 94.38372802734375 166.3764801025391 94.38372802734375 C 166.3752288818359 94.39335632324219 166.3739318847656 94.40336608886719 166.3726806640625 94.41299438476563 C 166.3723297119141 94.41571044921875 166.3721618652344 94.41693878173828 166.3718109130859 94.41966247558594 C 166.3705596923828 94.42929077148438 166.3693695068359 94.43843078613281 166.3681182861328 94.44805145263672 C 166.3677520751953 94.45077514648438 166.3679351806641 94.44943237304688 166.3675842285156 94.4521484375 C 166.3663177490234 94.46177673339844 166.3650665283203 94.47138977050781 166.3638000488281 94.48101806640625 C 166.3634490966797 94.48373413085938 166.3632659912109 94.48508453369141 166.3629150390625 94.48780059814453 C 166.3617553710938 94.49671173095703 166.360595703125 94.50556182861328 166.3594207763672 94.51447296142578 C 166.3590698242188 94.51719665527344 166.3587341308594 94.51971435546875 166.3583679199219 94.52243804931641 C 166.3572998046875 94.53063201904297 166.3561859130859 94.53910827636719 166.3551025390625 94.54730224609375 C 166.3543853759766 94.55274200439453 166.3545837402344 94.55121612548828 166.3538665771484 94.55664825439453 C 166.3527526855469 94.56520843505859 166.3515930175781 94.57399749755859 166.3504486083984 94.58255004882813 C 166.35009765625 94.58527374267578 166.3498840332031 94.58690643310547 166.3495178222656 94.58962249755859 C 166.348388671875 94.59817504882813 166.3471984863281 94.60718536376953 166.3460693359375 94.61573791503906 C 166.345703125 94.61845397949219 166.3453369140625 94.62126159667969 166.344970703125 94.62397766113281 C 166.3438873291016 94.63217926025391 166.3427581787109 94.64066314697266 166.3416748046875 94.64885711669922 C 166.34130859375 94.65157318115234 166.3407592773438 94.65573120117188 166.3403930664063 94.658447265625 C 166.33935546875 94.66628265380859 166.3383483886719 94.67386627197266 166.3372955322266 94.68170166015625 C 166.3369293212891 94.68441772460938 166.3362731933594 94.68940734863281 166.3359069824219 94.69212341308594 C 166.3347625732422 94.70066833496094 166.3336791992188 94.7088623046875 166.3325347900391 94.71741485595703 C 166.3321685791016 94.72013092041016 166.3318328857422 94.72261810302734 166.3314666748047 94.72533416748047 C 166.3302764892578 94.73424530029297 166.3291320800781 94.74272918701172 166.3279418945313 94.75164031982422 C 166.3275756835938 94.75435638427734 166.3273315429688 94.75625610351563 166.3269653320313 94.75897216796875 C 166.3257141113281 94.76823425292969 166.3245239257813 94.77706909179688 166.3232879638672 94.78633117675781 C 166.3229217529297 94.78904724121094 166.3227844238281 94.79006958007813 166.3224182128906 94.79278564453125 C 166.3211212158203 94.80239868164063 166.31982421875 94.81204223632813 166.3185272216797 94.8216552734375 C 166.3181610107422 94.82437133789063 166.3182525634766 94.82363891601563 166.3178863525391 94.82635498046875 C 166.3117828369141 94.87157440185547 166.3056030273438 94.91698455810547 166.2994232177734 94.96218109130859 C 166.2990570068359 94.96489715576172 166.2994384765625 94.96204376220703 166.299072265625 94.96475982666016 C 166.2976531982422 94.97508239746094 166.2962036132813 94.98567962646484 166.2947845458984 94.99600219726563 C 166.2944183349609 94.99871063232422 166.2945556640625 94.99767303466797 166.294189453125 95.00038909912109 C 166.2929229736328 95.00963592529297 166.2915344238281 95.01971435546875 166.2902679443359 95.02896881103516 C 166.2898864746094 95.03167724609375 166.2893676757813 95.03540802001953 166.2890014648438 95.03812408447266 C 166.2878723144531 95.04630279541016 166.2867584228516 95.05441284179688 166.2856292724609 95.06259155273438 C 166.2852478027344 95.0653076171875 166.2847442626953 95.06903839111328 166.2843627929688 95.07174682617188 C 166.2832336425781 95.07993316650391 166.2821502685547 95.08776092529297 166.2810211181641 95.095947265625 C 166.2806396484375 95.09865570068359 166.2798767089844 95.10414123535156 166.2795104980469 95.10685729980469 C 166.2784729003906 95.11432647705078 166.2774047851563 95.12202453613281 166.2763671875 95.12949371337891 C 166.2759857177734 95.1322021484375 166.2752532958984 95.1375732421875 166.2748718261719 95.14028167724609 C 166.2738342285156 95.14775085449219 166.2727508544922 95.15550994873047 166.2717132568359 95.16297912597656 C 166.2713317871094 95.16568756103516 166.2705383300781 95.17145538330078 166.2701568603516 95.17417144775391 C 166.2690582275391 95.18199157714844 166.26806640625 95.18910980224609 166.2669830322266 95.19693756103516 C 166.2666015625 95.19964599609375 166.2658843994141 95.20480346679688 166.2655029296875 95.20751190185547 C 166.2644500732422 95.21498107910156 166.263427734375 95.22234344482422 166.2623748779297 95.22981262207031 C 166.2616271972656 95.23523712158203 166.2614288330078 95.23659515380859 166.2606658935547 95.24201965332031 C 166.2596740722656 95.24913024902344 166.2586364746094 95.25649261474609 166.2576446533203 95.26360321044922 C 166.2568817138672 95.26902770996094 166.2567443847656 95.26998901367188 166.2559814453125 95.27541351318359 C 166.2549743652344 95.28252410888672 166.2540893554688 95.28882598876953 166.2530975341797 95.29592895507813 C 166.2523345947266 95.30135345458984 166.2518615722656 95.30467224121094 166.2510986328125 95.31009674072266 C 166.2501983642578 95.31649017333984 166.2492218017578 95.32342529296875 166.2483062744141 95.32981872558594 C 166.2479248046875 95.33253479003906 166.2468872070313 95.33992004394531 166.2465057373047 95.34262847900391 C 166.2455444335938 95.34938049316406 166.2445678710938 95.35625457763672 166.2436218261719 95.36300659179688 C 166.2432250976563 95.36572265625 166.2420043945313 95.37431335449219 166.2416229248047 95.37702941894531 C 166.24072265625 95.3834228515625 166.2397613525391 95.39015960693359 166.2388610839844 95.39655303955078 C 166.2384643554688 95.39926147460938 166.2373504638672 95.40714263916016 166.2369689941406 95.40985107421875 C 166.2359466552734 95.41695404052734 166.2350311279297 95.42346954345703 166.2340087890625 95.43058013916016 C 166.2336273193359 95.43328857421875 166.2325592041016 95.44076538085938 166.232177734375 95.44347381591797 C 166.2311096191406 95.45093536376953 166.2300415039063 95.45835876464844 166.2289733886719 95.46581268310547 C 166.2282104492188 95.47123718261719 166.2282562255859 95.47091674804688 166.2274780273438 95.47633361816406 C 166.2265167236328 95.48307800292969 166.2255096435547 95.49002838134766 166.2245483398438 95.49678039550781 C 166.2237701416016 95.502197265625 166.2232818603516 95.50566101074219 166.2225036621094 95.51107788085938 C 166.2217254638672 95.51641082763672 166.2209625244141 95.52178192138672 166.2201995849609 95.52710723876953 C 166.2194213867188 95.53252410888672 166.2185211181641 95.53878784179688 166.2177429199219 95.54420471191406 C 166.2169647216797 95.54953002929688 166.2162475585938 95.55458831787109 166.2154693603516 95.55991363525391 C 166.2142944335938 95.56803131103516 166.213134765625 95.57610321044922 166.2119598388672 95.584228515625 C 166.2106781005859 95.59310150146484 166.2094573974609 95.60162353515625 166.2081604003906 95.61050415039063 C 166.2073822021484 95.61591339111328 166.2064514160156 95.62237548828125 166.2056579589844 95.62778472900391 C 166.2049407958984 95.63275909423828 166.2041931152344 95.63789367675781 166.2034759521484 95.64286804199219 C 166.2023010253906 95.65098571777344 166.2016143798828 95.65564727783203 166.200439453125 95.66377258300781 C 166.1998138427734 95.66802978515625 166.19921875 95.67211151123047 166.1986083984375 95.67636871337891 C 166.1974182128906 95.68449401855469 166.1969909667969 95.68740844726563 166.1958160400391 95.69552612304688 C 166.1951446533203 95.70013427734375 166.1944427490234 95.70489501953125 166.1937713623047 95.70951080322266 C 166.1929779052734 95.71492004394531 166.1919708251953 95.72180938720703 166.1911773681641 95.72721862792969 C 166.1903991699219 95.7325439453125 166.1896057128906 95.73805999755859 166.1888275146484 95.74338531494141 C 166.1876373291016 95.75150299072266 166.1873931884766 95.75312042236328 166.1862030029297 95.76123809814453 C 166.1854705810547 95.76620483398438 166.1848297119141 95.77058410644531 166.1841125488281 95.77555084228516 C 166.1829071044922 95.78366851806641 166.1823120117188 95.7877197265625 166.1811218261719 95.79583740234375 C 166.1804962158203 95.80009460449219 166.1798400878906 95.80461120605469 166.17919921875 95.80886840820313 C 166.1780090332031 95.81698608398438 166.177490234375 95.820556640625 166.1762847900391 95.82867431640625 C 166.1756591796875 95.83292388916016 166.1749877929688 95.8375244140625 166.1743621826172 95.84178161621094 C 166.1735534667969 95.84719085693359 166.1722717285156 95.85591125488281 166.1714630126953 95.86132049560547 C 166.1707305908203 95.86628723144531 166.1700897216797 95.87063598632813 166.1693572998047 95.87560272216797 C 166.1685485839844 95.88101196289063 166.1673126220703 95.88934326171875 166.1665191650391 95.89475250244141 C 166.1658935546875 95.89900207519531 166.1652221679688 95.90351867675781 166.1645812988281 95.90776824951172 C 166.1637878417969 95.91317749023438 166.162353515625 95.92279815673828 166.1615447998047 95.92820739746094 C 166.1608581542969 95.93282318115234 166.1602478027344 95.93700408935547 166.1595611572266 95.94161224365234 C 166.1587524414063 95.947021484375 166.1575775146484 95.95491790771484 166.1567687988281 95.96031951904297 C 166.1560211181641 95.96528625488281 166.1552886962891 95.97026824951172 166.154541015625 95.97523498535156 C 166.1537322998047 95.98064422607422 166.1526489257813 95.98790740966797 166.1518402099609 95.99331665039063 C 166.1510467529297 95.99863433837891 166.1503448486328 96.00332641601563 166.1495513916016 96.00864410400391 C 166.1487426757813 96.01405334472656 166.1475830078125 96.02172088623047 166.1467742919922 96.02713012695313 C 166.1461486816406 96.03137969970703 166.1455230712891 96.03555297851563 166.1448822021484 96.03980255126953 C 166.1436614990234 96.04791259765625 166.1428985595703 96.05299377441406 166.1416778564453 96.06110382080078 C 166.1410980224609 96.06500244140625 166.1405639648438 96.06854248046875 166.1399688720703 96.07244110107422 C 166.1387481689453 96.08055114746094 166.1379852294922 96.08560943603516 166.1367645263672 96.09371185302734 C 166.1361236572266 96.09796905517578 166.135498046875 96.10212707519531 166.1348571777344 96.10637664794922 C 166.1336364746094 96.11448669433594 166.1330718994141 96.11826324462891 166.1318359375 96.12636566162109 C 166.1311950683594 96.13062286376953 166.1304321289063 96.13565826416016 166.1297912597656 96.13990783691406 C 166.1285705566406 96.14801025390625 166.1279907226563 96.15186309814453 166.1267547607422 96.15996551513672 C 166.126220703125 96.16351318359375 166.125732421875 96.16667938232422 166.1251983642578 96.17021942138672 C 166.1239776611328 96.17832946777344 166.1229248046875 96.18525695800781 166.1216888427734 96.19336700439453 C 166.1213073730469 96.19584655761719 166.1208190917969 96.19903564453125 166.1204528808594 96.20151519775391 C 166.1192169189453 96.20961761474609 166.1179351806641 96.21798706054688 166.1167144775391 96.22608947753906 C 166.1163330078125 96.22856903076172 166.1159973144531 96.23069763183594 166.1156311035156 96.23317718505859 C 166.1078033447266 96.28449249267578 166.1001586914063 96.3343505859375 166.0922393798828 96.38563537597656 C 166.0920715332031 96.38669586181641 166.0918731689453 96.38797760009766 166.0917053222656 96.3890380859375 C 166.0900421142578 96.39983367919922 166.0888671875 96.40747833251953 166.0871887207031 96.41827392578125 C 166.0870208740234 96.41933441162109 166.0868530273438 96.42048645019531 166.0866851806641 96.42155456542969 C 166.0850067138672 96.43235015869141 166.0838165283203 96.44010925292969 166.0821380615234 96.45090484619141 C 166.0819702148438 96.45196533203125 166.0818023681641 96.4530029296875 166.0816497802734 96.45406341552734 C 166.0799713134766 96.46485900878906 166.0789642333984 96.47134399414063 166.0772857666016 96.48213195800781 C 166.0770111083984 96.48390197753906 166.0767517089844 96.48549652099609 166.0764770507813 96.48726654052734 C 166.0752258300781 96.495361328125 166.0738067626953 96.50449371337891 166.0725402832031 96.51258850097656 C 166.0720977783203 96.51541900634766 166.0716857910156 96.51801300048828 166.0712432861328 96.52084350585938 C 166.0699920654297 96.52893829345703 166.0686798095703 96.53726196289063 166.0674285888672 96.54535675048828 C 166.0669860839844 96.54818725585938 166.0665740966797 96.55074310302734 166.0661315917969 96.55357360839844 C 166.064453125 96.56436920166016 166.0637817382813 96.568603515625 166.0620880126953 96.57939147949219 C 166.0618133544922 96.58116149902344 166.0614624023438 96.58336639404297 166.0611877441406 96.58513641357422 C 166.0594940185547 96.59592437744141 166.0585784912109 96.60183715820313 166.0568695068359 96.61262512207031 C 166.0565948486328 96.61439514160156 166.0563507080078 96.61599731445313 166.0560607910156 96.61776733398438 C 166.0543670654297 96.62855529785156 166.0535736083984 96.63360595703125 166.0518798828125 96.64439392089844 C 166.0514831542969 96.64686584472656 166.0512237548828 96.64849090576172 166.0508422851563 96.65096282958984 C 166.0491333007813 96.66175079345703 166.0482330322266 96.66749572753906 166.0465240478516 96.67827606201172 C 166.0463104248047 96.67969512939453 166.046142578125 96.68074035644531 166.0459136962891 96.68215179443359 C 166.0442047119141 96.69293975830078 166.0430450439453 96.70036315917969 166.0413360595703 96.71114349365234 C 166.0411682128906 96.71220397949219 166.041015625 96.71310424804688 166.0408477783203 96.71416473388672 C 166.0391387939453 96.72494506835938 166.0377960205078 96.73340606689453 166.0360870361328 96.74418640136719 C 166.0359802246094 96.74489593505859 166.0359649658203 96.7449951171875 166.0358428955078 96.74570465087891 C 166.0341339111328 96.75648498535156 166.0326538085938 96.76576995849609 166.0309448242188 96.77655029296875 C 166.0308837890625 96.77690124511719 166.03076171875 96.77771759033203 166.0307006835938 96.778076171875 C 165.7946624755859 98.26038360595703 165.5194549560547 99.73019409179688 165.2065124511719 101.1854248046875 C 164.4453735351563 104.6969451904297 161.3389587402344 107.0976257324219 157.8842010498047 107.0976257324219 C 157.3622589111328 107.0976257324219 156.8320770263672 107.0427703857422 156.3011474609375 106.9286804199219 C 152.2514343261719 106.0584335327148 149.6739959716797 102.0700378417969 150.5442504882813 98.02036285400391 C 151.5594635009766 93.29596710205078 152.07421875 88.42311096191406 152.07421875 83.53714752197266 C 152.07421875 45.74565124511719 121.32861328125 15 83.537109375 15 C 79.39496612548828 15 76.037109375 11.64215087890625 76.037109375 7.5 C 76.037109375 3.357864379882813 79.39496612548828 0 83.537109375 0 C 83.537109375 0 83.537109375 0 83.537109375 0 Z"/></g></g></svg>