<svg xmlns="http://www.w3.org/2000/svg" width="100.899" height="100.899" viewBox="0 0 100.899 100.899"><defs><style>.a{fill:#fcc647;}.b{fill:#253238;}.c{fill:#e4d6d4;}.d{fill:#ffb74d;}</style></defs><g transform="translate(-16 -16)"><path class="a" d="M24,128h97.536v72.311a3.363,3.363,0,0,1-3.363,3.363H27.363A3.363,3.363,0,0,1,24,200.311Z" transform="translate(-6.318 -88.457)"/><path class="a" d="M27.363,56h90.809a3.363,3.363,0,0,1,3.363,3.363V72.816H24V59.363A3.363,3.363,0,0,1,27.363,56Z" transform="translate(-6.318 -31.592)"/><g transform="translate(27.74 17.587)"><rect class="b" width="6" height="13" rx="3" transform="translate(0.26 0.414)"/><rect class="b" width="7" height="13" rx="3.5" transform="translate(47.26 0.414)"/><rect class="b" width="7" height="13" rx="3.5" transform="translate(23.26 0.414)"/><rect class="b" width="7" height="13" rx="3.5" transform="translate(70.26 0.414)"/></g><rect class="c" width="75" height="47" rx="8" transform="translate(29 55)"/><path class="d" d="M120,240h15.135v10.09H120Z" transform="translate(-82.139 -176.914)"/><path d="M111.854,22.727h-5.045V21.045a5.045,5.045,0,0,0-10.09,0v1.682H83.266V21.045a5.045,5.045,0,1,0-10.09,0v1.682H59.723V21.045a5.045,5.045,0,0,0-10.09,0v1.682H36.18V21.045a5.045,5.045,0,0,0-10.09,0v1.682H21.045A5.051,5.051,0,0,0,16,27.772v84.082a5.051,5.051,0,0,0,5.045,5.045h90.809a5.051,5.051,0,0,0,5.045-5.045V27.772a5.051,5.051,0,0,0-5.045-5.045Zm-11.772-1.682a1.682,1.682,0,0,1,3.363,0v6.727a1.682,1.682,0,0,1-3.363,0Zm-23.543,0a1.682,1.682,0,1,1,3.363,0v6.727a1.682,1.682,0,1,1-3.363,0ZM53,21.045a1.682,1.682,0,1,1,3.363,0v6.727a1.682,1.682,0,1,1-3.363,0Zm-23.543,0a1.682,1.682,0,1,1,3.363,0v6.727a1.682,1.682,0,1,1-3.363,0Zm-10.09,6.727a1.684,1.684,0,0,1,1.682-1.682H26.09v1.682a5.045,5.045,0,0,0,10.09,0V26.09H49.633v1.682a5.045,5.045,0,0,0,10.09,0V26.09H73.176v1.682a5.045,5.045,0,1,0,10.09,0V26.09H96.719v1.682a5.045,5.045,0,0,0,10.09,0V26.09h5.045a1.684,1.684,0,0,1,1.682,1.682V39.543H19.363Zm94.172,84.082a1.684,1.684,0,0,1-1.682,1.682H21.045a1.684,1.684,0,0,1-1.682-1.682V42.906h94.172Z"/><path d="M78.727,242.449h63.9a6.734,6.734,0,0,0,6.727-6.727v-37A6.734,6.734,0,0,0,142.629,192h-63.9A6.734,6.734,0,0,0,72,198.727v37a6.734,6.734,0,0,0,6.727,6.727Zm-3.363-43.723a3.367,3.367,0,0,1,3.363-3.363h63.9a3.367,3.367,0,0,1,3.363,3.363v37a3.367,3.367,0,0,1-3.363,3.363h-63.9a3.367,3.367,0,0,1-3.363-3.363Z" transform="translate(-44.228 -139.004)"/><path d="M113.682,245.453h15.135a1.682,1.682,0,0,0,1.682-1.682v-10.09A1.682,1.682,0,0,0,128.816,232H113.682A1.682,1.682,0,0,0,112,233.682v10.09A1.682,1.682,0,0,0,113.682,245.453Zm1.682-10.09h11.772v6.727H115.363Z" transform="translate(-75.82 -170.596)"/><path d="M320,376h16.816v3.363H320Z" transform="translate(-240.097 -284.326)"/><path d="M352,328h10.09v3.363H352Z" transform="translate(-265.371 -246.416)"/><path d="M272,328h10.09v3.363H272Z" transform="translate(-202.187 -246.416)"/><path d="M192,328h10.09v3.363H192Z" transform="translate(-139.004 -246.416)"/><path d="M112,328h10.09v3.363H112Z" transform="translate(-75.82 -246.416)"/><path d="M112,376h10.09v3.363H112Z" transform="translate(-75.82 -284.326)"/><path d="M176,376h10.09v3.363H176Z" transform="translate(-126.367 -284.326)"/></g></svg>