<svg xmlns="http://www.w3.org/2000/svg" width="51.612" height="51" viewBox="0 0 51.612 51"><defs><style>.a{fill:#8acce7;}.b{fill:#c4d4e0;}.c{fill:#2f4054;}.d{fill:#e44042;}.e{fill:#2d80b3;}.f{fill:#8ec737;}.g{fill:#eebe33;}.h{fill:#e88604;}.i{fill:#68b840;}</style></defs><g transform="translate(-18.34 -24)"><circle class="a" cx="12.966" cy="12.966" r="12.966" transform="translate(18.951 24)"/><path class="b" d="M68.746,58.373q0,.436-.037.864a10.277,10.277,0,0,1-1.816,5.052,10.382,10.382,0,0,1-2.6,2.6,10.277,10.277,0,0,1-5.052,1.816q-.428.037-.864.037t-.864-.037a10.277,10.277,0,0,1-5.052-1.816,10.382,10.382,0,0,1-2.6-2.6,10.277,10.277,0,0,1-1.816-5.052Q48,58.809,48,58.373t.037-.864a10.277,10.277,0,0,1,1.816-5.052,10.382,10.382,0,0,1,2.6-2.6,10.278,10.278,0,0,1,5.052-1.816q.428-.037.864-.037t.864.037a10.278,10.278,0,0,1,5.052,1.816,10.382,10.382,0,0,1,2.6,2.6,10.277,10.277,0,0,1,1.816,5.052Q68.746,57.936,68.746,58.373Z" transform="translate(-26.455 -21.407)"/><g transform="translate(21.545 26.593)"><path class="c" d="M137.729,48.037v2.556H136V48.037q.428-.037.864-.037T137.729,48.037Z" transform="translate(-126.492 -48)"/><path class="c" d="M92.016,59.347l-1.5.864L89.24,58a10.221,10.221,0,0,1,1.5-.867Z" transform="translate(-84.784 -56.143)"/><path class="c" d="M60.212,90.518l-.864,1.5-2.217-1.28A10.223,10.223,0,0,1,58,89.24Z" transform="translate(-56.143 -84.784)"/><path class="c" d="M50.593,136v1.729H48.037Q48,137.3,48,136.864t.037-.864Z" transform="translate(-48 -126.492)"/><path class="c" d="M60.212,174.568,58,175.846a10.224,10.224,0,0,1-.867-1.5l2.217-1.28Z" transform="translate(-56.143 -159.556)"/><path class="c" d="M92.016,203.214l-1.28,2.217a10.221,10.221,0,0,1-1.5-.867l1.278-2.215Z" transform="translate(-84.784 -185.672)"/><path class="c" d="M137.729,216v2.556q-.428.037-.864.037t-.864-.037V216Z" transform="translate(-126.492 -197.847)"/><path class="c" d="M175.846,204.565a10.221,10.221,0,0,1-1.5.867l-1.28-2.217,1.5-.864Z" transform="translate(-159.556 -185.672)"/><path class="c" d="M205.432,174.351a10.222,10.222,0,0,1-.867,1.5l-2.215-1.278.864-1.5Z" transform="translate(-185.672 -159.556)"/><path class="c" d="M218.593,136.864q0,.436-.037.864H216V136h2.556Q218.594,136.428,218.593,136.864Z" transform="translate(-197.847 -126.492)"/><path class="c" d="M205.432,90.735l-2.217,1.28-.864-1.5,2.215-1.278a10.222,10.222,0,0,1,.867,1.5Z" transform="translate(-185.672 -84.784)"/><path class="c" d="M175.846,58l-1.278,2.215-1.5-.864,1.28-2.217a10.223,10.223,0,0,1,1.5.867Z" transform="translate(-159.556 -56.143)"/></g><path class="d" d="M107.565,98.12,106.342,96.9l3.2-3.2V88h1.729v6.051a.864.864,0,0,1-.253.611Z" transform="translate(-78.494 -57.085)"/><circle class="e" cx="1.729" cy="1.729" r="1.729" transform="translate(30.189 35.237)"/><path class="f" d="M376,288h12.1v22.475H376Z" transform="translate(-319.015 -235.475)"/><path class="g" d="M0,0H12.1V19.017H0Z" transform="translate(44.884 75) rotate(180)"/><path class="h" d="M0,0H12.1V12.1H0Z" transform="translate(56.985 75) rotate(180)"/><path class="d" d="M40,416H52.1v8.644H40Z" transform="translate(-19.32 -349.644)"/><path class="f" d="M69.7,139.563l-3.2,3.2L51.546,157.716a.866.866,0,0,1-1.223,0l-11.49-11.491L19.563,165.5l-1.223-1.223,19.881-19.881a.866.866,0,0,1,1.223,0l11.49,11.491,14.336-14.337,3.2-3.2Z" transform="translate(0 -101.986)"/><path class="i" d="M453.9,142.768v-1.223H452.68l3.2-3.2,1.223,1.223Z" transform="translate(-387.409 -101.985)"/><path class="f" d="M438.915,142.915h-1.729v-5.186H432V136h6.051a.864.864,0,0,1,.864.864Z" transform="translate(-368.964 -99.898)"/></g></svg>