<svg xmlns="http://www.w3.org/2000/svg" width="94.172" height="100.899" viewBox="0 0 94.172 100.899"><defs><style>.a{fill:#ffddce;}.b{fill:#fcc647;}.c{fill:#d77d41;}.d{fill:#d69c7a;}.e{fill:#ffe5a7;}.f{fill:#ff9811;}.g{fill:#2488ff;}.h{fill:#f79e5f;}.i{fill:none;}.j{fill:#fff;}.k{fill:#ffcbbe;}.l{fill:#9e2849;}.m{fill:#5bcbfa;}</style></defs><g transform="translate(-4 -2)"><path class="a" d="M38.135,40.225A15.135,15.135,0,0,1,23,25.09V15H53.27V25.09A15.135,15.135,0,0,1,38.135,40.225Z" transform="translate(12.951 8.861)"/><path class="b" d="M63.816,60.225H52.045L47,35h5.045Z" transform="translate(29.311 22.494)"/><path class="b" d="M7,60.225H18.772L23.816,35H18.772Z" transform="translate(2.045 22.494)"/><path class="b" d="M74.539,81.449H14V34.363L44.27,31l30.27,3.363Z" transform="translate(6.816 19.768)"/><path class="c" d="M44.906,45,43.225,55.09H19.682L18,45Z" transform="translate(9.543 29.311)"/><path class="d" d="M24,45h6.727v5.045H24Z" transform="translate(13.633 29.311)"/><path class="e" d="M14,51H74.539V61.09H14Z" transform="translate(6.816 33.401)"/><path class="f" d="M41.453,52.682a3.373,3.373,0,0,1-3.363,3.363H31.363A3.373,3.373,0,0,1,28,52.682V51H41.453Z" transform="translate(16.36 33.401)"/><path class="g" d="M36,38H59.543v5.045H36Z" transform="translate(21.813 24.539)"/><path class="h" d="M44.906,48.408H18L19.682,40H43.225Z" transform="translate(9.543 25.903)"/><path class="i" d="M14,51H74.539V61.09H14Z" transform="translate(6.816 33.401)"/><path class="i" d="M44.906,48.408H18L19.682,40H43.225Z" transform="translate(9.543 25.903)"/><path class="i" d="M44.906,45H18l1.682,10.09H43.225Z" transform="translate(9.543 29.311)"/><path class="j" d="M24,45h6.727v5.045H24Z" transform="translate(13.633 29.311)"/><path class="i" d="M53.648,57.816H38.85L37,41H55.5Z" transform="translate(22.494 26.584)"/><path class="i" d="M36,38H57.861v5.045H36Z" transform="translate(21.813 24.539)"/><path class="k" d="M41.453,34.408l-6.727,6.727L29.682,36.09,28,26H41.453Z" transform="translate(16.36 16.36)"/><path class="b" d="M38.816,41.135l-8.408-3.363L22,39.453,32.09,26Z" transform="translate(12.27 16.36)"/><path class="b" d="M32,41.135l8.408-3.363,8.408,1.682L38.727,26Z" transform="translate(19.086 16.36)"/><path class="l" d="M21,11H58v6.727H21Z" transform="translate(11.588 6.135)"/><path class="b" d="M27.045,3H50.588a5.045,5.045,0,0,1,5.045,5.045v8.408H22V8.045A5.045,5.045,0,0,1,27.045,3Z" transform="translate(12.27 0.682)"/><g transform="translate(5.682 23.861)"><path class="k" d="M15.09,56.727H26.021a5.886,5.886,0,1,1,0,11.772H10.045A5.045,5.045,0,0,1,5,63.453v-.646a5.045,5.045,0,0,1,.409-1.988L10.045,50h10.09v6.727Z" transform="translate(-5 8.858)"/><path class="k" d="M59.816,56.727H48.886a5.886,5.886,0,0,0,0,11.772H64.861a5.045,5.045,0,0,0,5.045-5.045v-.646A5.045,5.045,0,0,0,69.5,60.82L64.861,50H54.772v6.727Z" transform="translate(20.903 8.858)"/><path class="k" d="M22.363,15h3.363v8.408H22.363A3.363,3.363,0,0,1,19,20.045V18.363A3.363,3.363,0,0,1,22.363,15Z" transform="translate(4.543 -15)"/><path class="k" d="M3.363,0H6.727V8.408H3.363A3.363,3.363,0,0,1,0,5.045V3.363A3.363,3.363,0,0,1,3.363,0Z" transform="translate(67.266 8.408) rotate(180)"/></g><path class="m" d="M51.232,26.045A5.045,5.045,0,0,1,46.187,21H29.37a5.045,5.045,0,0,1-5.045,5.045h-.8a15.115,15.115,0,0,0,28.511,0Z" transform="translate(13.308 12.951)"/><path d="M97.634,92.876,93.918,84.2a1.566,1.566,0,0,0,.622-.572,1.682,1.682,0,0,0,.118-1.614L83.037,57.124V54.131a1.663,1.663,0,0,0-1.5-1.665L66.2,50.751l-3.5-4.675a16.758,16.758,0,0,0,5.2-12.125h1.682a5.06,5.06,0,0,0,5.045-5.045V27.225a5.062,5.062,0,0,0-3.363-4.742V17.135a1.682,1.682,0,0,0-1.682-1.682V8.727A6.727,6.727,0,0,0,62.858,2H39.315a6.727,6.727,0,0,0-6.727,6.727v6.727a1.682,1.682,0,0,0-1.682,1.682v5.348a5.062,5.062,0,0,0-3.363,4.742v1.682a5.06,5.06,0,0,0,5.045,5.045H34.27a16.758,16.758,0,0,0,5.2,12.125l-3.5,4.675L20.632,52.466a1.663,1.663,0,0,0-1.5,1.665v2.993L7.515,82.013a1.682,1.682,0,0,0,.118,1.614,1.566,1.566,0,0,0,.622.572L4.538,92.876A6.821,6.821,0,0,0,4,95.533v.639a6.727,6.727,0,0,0,6.727,6.727H91.446a6.727,6.727,0,0,0,6.727-6.727v-.639a6.823,6.823,0,0,0-.539-2.658Zm-14.6-27.8,7.45,15.959h-7.45ZM63.917,53.307l-4.086-.824a1.682,1.682,0,0,0-.959.084L54.3,54.4l1.984-4.473a15.754,15.754,0,0,0,3.767-1.766Zm.622-19.356a13.453,13.453,0,0,1-.437,3.313,3.32,3.32,0,0,1-2.876-2.876l3.313-4.978ZM58.586,32.27h-15L39.1,25.543h23.98Zm12.68-5.045v1.682a1.682,1.682,0,0,1-1.682,1.682H67.9V25.543h1.682A1.682,1.682,0,0,1,71.266,27.225ZM35.951,8.727a3.373,3.373,0,0,1,3.363-3.363H62.858a3.373,3.373,0,0,1,3.363,3.363v6.727H35.951ZM34.27,30.588H32.588a1.682,1.682,0,0,1-1.682-1.682V27.225a1.682,1.682,0,0,1,1.682-1.682H34.27Zm0-8.408V18.816H67.9V22.18Zm3.363,11.772v-4.54l3.313,4.978a3.32,3.32,0,0,1-2.876,2.876A13.453,13.453,0,0,1,37.633,33.951Zm1.682,6.491a6.727,6.727,0,0,0,4.826-4.81h13.89a6.727,6.727,0,0,0,4.826,4.81,13.433,13.433,0,0,1-23.543,0ZM52.263,50.7l-1.177,2.657L49.909,50.7c.387.034.774.067,1.177.067s.79-.034,1.177-.067Zm-10.14-2.539a16.48,16.48,0,0,0,3.767,1.783L47.874,54.4,43.3,52.567a1.7,1.7,0,0,0-.959-.084l-4.086.824ZM22.5,55.645l10.7-1.194-.269.353a1.682,1.682,0,0,0-.084,1.9,1.717,1.717,0,0,0,1.766.757l7.9-1.581,7.954,3.178a1.7,1.7,0,0,0,1.244,0l7.954-3.178,7.9,1.581a1.705,1.705,0,0,0,1.766-.757,1.682,1.682,0,0,0-.084-1.9l-.269-.353,10.7,1.194v5.213H76.311V57.494H72.948v3.363H57.813a1.682,1.682,0,0,0-1.682,1.682v5.045a1.682,1.682,0,0,0,1.682,1.682h.168l1.48,13.453H54.752l1.362-8.139a1.359,1.359,0,0,0,.017-.269,2.522,2.522,0,0,0-.034-.336l-1.682-8.408a1.682,1.682,0,0,0-1.648-1.345H29.225a1.682,1.682,0,0,0-1.648,1.346L25.9,73.941a2.279,2.279,0,0,0-.034.336v.034a2.06,2.06,0,0,0,.034.32l1.345,8.089H22.5ZM79.674,69.266V82.719H78.026l1.48-13.453ZM59.494,65.9V64.221h18.5V65.9Zm16.615,3.363-1.48,13.453H62.858l-1.48-13.453ZM29.595,72.629,30.6,67.584H51.389L52.4,72.629Zm13.083,3.363v1.682H39.315V75.993Zm-6.727,0v3.363a1.682,1.682,0,0,0,1.682,1.682H44.36a1.682,1.682,0,0,0,1.682-1.682V75.993h6.424l-1.127,6.727H30.654l-1.127-6.727Zm10.09,10.09h10.09v1.682H46.041Zm-26.906-21V81.037h-7.45ZM26.7,99.536H10.727a3.373,3.373,0,0,1-3.363-3.363v-.639A3.237,3.237,0,0,1,7.632,94.2l4.2-9.8h7.3v3.363H15.772v3.363H26.7a4.2,4.2,0,0,1,0,8.408Zm6.289,0a7.482,7.482,0,0,0,1.194-3.363h33.8a7.482,7.482,0,0,0,1.194,3.363Zm35.382-6.727H33.8a7.556,7.556,0,0,0-7.1-5.045H22.5V86.082h20.18v1.682a3.373,3.373,0,0,0,3.363,3.363h10.09a3.373,3.373,0,0,0,3.363-3.363V86.082h20.18v1.682h-4.2a7.556,7.556,0,0,0-7.1,5.045Zm26.436,3.363a3.373,3.373,0,0,1-3.363,3.363H75.47a4.2,4.2,0,1,1,0-8.408H86.4V87.764H83.037V84.4h7.3l4.2,9.8a3.237,3.237,0,0,1,.269,1.328Z" transform="translate(0)"/></g></svg>