<svg xmlns="http://www.w3.org/2000/svg" xmlns:xlink="http://www.w3.org/1999/xlink" width="67" height="67" viewBox="0 0 67 67"><defs><style>.a{fill:#fff;}.b{fill:#7edabf;stroke:#7edabf;}.c{filter:url(#a);}</style><filter id="a" x="0" y="0" width="67" height="67" filterUnits="userSpaceOnUse"><feOffset dy="3" input="SourceAlpha"/><feGaussianBlur stdDeviation="3" result="b"/><feFlood flood-color="#4c4d41" flood-opacity="0.129"/><feComposite operator="in" in2="b"/><feComposite in="SourceGraphic"/></filter></defs><g transform="translate(-1403 -856)"><g class="c" transform="matrix(1, 0, 0, 1, 1403, 856)"><rect class="a" width="49" height="49" rx="12" transform="translate(9 6)"/></g><g transform="translate(1426 876)"><path class="b" d="M3.593,6.222A2.8,2.8,0,0,0,6.156,3.556H20.63A.412.412,0,0,0,21,3.111a.412.412,0,0,0-.37-.444H6.156A2.8,2.8,0,0,0,3.593,0,2.891,2.891,0,0,0,1,3.111,2.891,2.891,0,0,0,3.593,6.222Zm0-5.333A2.065,2.065,0,0,1,5.444,3.111,2.065,2.065,0,0,1,3.593,5.333,2.065,2.065,0,0,1,1.741,3.111,2.065,2.065,0,0,1,3.593.889Z"/><path class="b" d="M18.407,42a2.8,2.8,0,0,0-2.563,2.667H1.37a.452.452,0,0,0,0,.889H15.844a2.8,2.8,0,0,0,2.563,2.667A2.891,2.891,0,0,0,21,45.111,2.891,2.891,0,0,0,18.407,42Zm0,5.333a2.259,2.259,0,0,1,0-4.444,2.259,2.259,0,0,1,0,4.444Z" transform="translate(0 -27.481)"/><path class="b" d="M20.63,23.437h-6.9a2.907,2.907,0,0,0-2.652-2.851,2.907,2.907,0,0,0-2.652,2.851H1.37a.452.452,0,0,0,0,.889H8.448a2.869,2.869,0,0,0,2.629,2.667,2.868,2.868,0,0,0,2.629-2.667H20.63a.452.452,0,0,0,0-.889ZM11.077,26.1a2.15,2.15,0,0,1-1.929-2.314,2.15,2.15,0,0,1,1.929-2.314,2.15,2.15,0,0,1,1.929,2.314A2.15,2.15,0,0,1,11.077,26.1Z" transform="translate(0 -13.49)"/></g></g></svg>