<svg xmlns="http://www.w3.org/2000/svg" width="92.94" height="106.899" viewBox="0 0 92.94 106.899"><defs><style>.a{fill:#878787;}.b{fill:#13bf6d;}.c{fill:#fc5d3d;}.d{fill:#f0ab20;}.e{fill:#f2e1d6;}.f{fill:#fff;}.g{fill:#f0c020;}.h{fill:#fcc647;}.i{fill:#ffe5a7;}</style></defs><g transform="translate(-18.377 -1.914)"><path class="a" d="M120.735,234.454V239.6a2.12,2.12,0,0,1-2.12,2.12H82.371a2.12,2.12,0,0,1-2.12-2.12v-5.142c.593.038,1.191.059,1.793.059h36.9C119.544,234.513,120.141,234.492,120.735,234.454Z" transform="translate(-35.645 -133.963)"/><path class="b" d="M171.573,27.289c.348,3.156,3.26,4.605,6.85,3.389,2.671,2.515,6.3,3.02,8.223,1.1s1.413-5.552-1.1-8.223c1.225-3.616-.257-6.5-3.389-6.85a5.88,5.88,0,0,0-1.23-5.509c-2.651-2.651-8.127-1.474-12.231,2.63s-5.282,9.58-2.63,12.231a5.876,5.876,0,0,0,5.508,1.23Z" transform="translate(-84.265 -4.532)"/><path class="b" d="M54.225,83.633c3.379-.373,4.93-3.49,3.628-7.332,2.692-2.859,3.233-6.749,1.179-8.8s-5.943-1.513-8.8,1.179c-3.87-1.311-6.963.275-7.332,3.628-2.343-.488-4.491-.089-5.9,1.316-2.838,2.838-1.577,8.7,2.816,13.092s10.254,5.653,13.092,2.816C54.314,88.124,54.713,85.977,54.225,83.633Z" transform="translate(-9.856 -37.064)"/><path class="c" d="M66.878,23.053a6,6,0,0,0,8.481,0l-8.481-8.481A6,6,0,0,0,66.878,23.053Z" transform="translate(-26.929 -7.292)"/><circle class="b" cx="2.56" cy="2.56" r="2.56" transform="translate(57.899 35.031) rotate(-13.3)"/><circle class="c" cx="2.56" cy="2.56" r="2.56" transform="translate(73.262 29.041) rotate(-13.3)"/><path class="d" d="M110.759,6.457c-2.959,2.959-2.429,8.293-.141,10.582,1.816,1.816,4.29,1.254,6.714-.541a17.531,17.531,0,0,0,3.468-3.468c1.794-2.424,2.358-4.9.541-6.714-2.289-2.289-7.623-2.819-10.582.141Z" transform="translate(-52.044 -1.442)"/><path class="e" d="M136.653,32.351a3.034,3.034,0,0,1-4.522-.259L129.039,28.2a17.531,17.531,0,0,0,3.468-3.468l3.887,3.092a3.034,3.034,0,0,1,.259,4.522Z" transform="translate(-63.751 -13.148)"/><path class="f" d="M182.2,75.311a12.32,12.32,0,1,1-17.422,17.422l3.633-3.633,10.157-10.157Z" transform="translate(-84.34 -42.283)"/><path class="g" d="M183.5,83.881a7.182,7.182,0,1,1-10.157,10.157Z" transform="translate(-89.277 -47.22)"/><path class="g" d="M183.5,83.881a7.182,7.182,0,1,1-10.157,10.157Z" transform="translate(-89.277 -47.22)"/><path class="e" d="M115.255,142.194H34.711c0-5.769,3.726-11.335,10.449-11.335a10.424,10.424,0,0,1,8.885,4.968,7.658,7.658,0,0,1,8.177-3.455,9.032,9.032,0,1,1,17.635-3.887A7.671,7.671,0,0,1,90.4,132.711a5.227,5.227,0,0,1,8.911,1.611C105.67,129.2,115.255,133.941,115.255,142.194Z" transform="translate(-9.41 -68.699)"/><path class="h" d="M109.577,170.774H23.006a2.121,2.121,0,0,0-2.115,2.293,27.048,27.048,0,0,0,25.159,24.7c.593.038,1.191.059,1.793.059h36.9c.6,0,1.2-.021,1.793-.059a27.051,27.051,0,0,0,25.159-24.7,2.122,2.122,0,0,0-2.115-2.3Z" transform="translate(-1.443 -97.278)"/><path class="i" d="M119.938,199.273H89.968a1.06,1.06,0,1,1,0-2.12h29.969a20.834,20.834,0,0,0,20.339-16.065,1.06,1.06,0,0,1,2.062.49A22.948,22.948,0,0,1,119.938,199.273Zm-34.209,0H83.04a1.06,1.06,0,1,1,0-2.12h2.689a1.06,1.06,0,0,1,0,2.12Z" transform="translate(-36.641 -102.75)"/><path d="M185.266,21.835c.983-3.63-.5-6.556-3.375-7.425a6.5,6.5,0,0,0-1.682-5.425c-3.112-3.112-9.143-1.956-13.73,2.631s-5.743,10.618-2.63,13.73a6.5,6.5,0,0,0,5.424,1.682c.873,2.888,3.811,4.354,7.426,3.374,3.059,2.556,7.02,2.877,9.231.665S187.823,24.9,185.266,21.835Zm-.834,7.733c-1.485,1.485-4.512.981-6.747-1.124a1.059,1.059,0,0,0-1.067-.232c-2.629.891-5.159.21-5.457-2.5a1.06,1.06,0,0,0-1.27-.921,4.845,4.845,0,0,1-4.544-.942c-2.042-2.042-1.14-6.436,1.91-9.954l2.025,2.025-.15,6.4a1.06,1.06,0,1,0,2.119.05l.1-4.382,4.641,4.639-.052,3.471a1.06,1.06,0,0,0,2.12.031l.021-1.414,3.456,3.456a1.06,1.06,0,0,0,1.5-1.5l-3.456-3.456,1.614-.024a1.06,1.06,0,1,0-.031-2.119l-3.672.055-4.64-4.64,4.485-.106a1.06,1.06,0,0,0-.05-2.119l-6.508.153-2.025-2.025c3.518-3.05,7.912-3.953,9.955-1.91a4.843,4.843,0,0,1,.942,4.544,1.06,1.06,0,0,0,.921,1.27c2.612.288,3.437,2.7,2.5,5.457a1.06,1.06,0,0,0,.232,1.067c2.105,2.236,2.609,5.262,1.124,6.747Z" transform="translate(-82.799 -3.069)"/><path d="M52.19,88.842a6.9,6.9,0,0,0,1.772-5.807c3.119-.908,4.669-4.061,3.611-7.912,2.734-3.25,3.087-7.464.741-9.811s-6.56-1.994-9.811.741c-3.881-1.068-7.011.519-7.912,3.611a6.9,6.9,0,0,0-5.807,1.772c-3.3,3.3-2.065,9.711,2.816,14.591S48.888,92.144,52.19,88.842ZM36.283,72.934a5.318,5.318,0,0,1,4.931-1.028,1.061,1.061,0,0,0,1.27-.922c.323-2.934,3.052-3.719,5.939-2.74a1.062,1.062,0,0,0,1.067-.232c2.423-2.28,5.709-2.819,7.326-1.2s1.078,4.9-1.2,7.326a1.06,1.06,0,0,0-.232,1.067c.967,2.855.217,5.613-2.74,5.939a1.061,1.061,0,0,0-.922,1.27c.434,2.083.069,3.834-1.028,4.931-2.225,2.225-7.013,1.24-10.819-2.092L42.121,83l6.912.162a1.06,1.06,0,0,0,.025-2.119l-4.865-.114L49.3,75.821l3.764.056a1.06,1.06,0,0,0,.016-2.12l-1.69-.025,3.824-3.824a1.06,1.06,0,0,0-1.5-1.5L49.9,72.234l-.028-1.9a1.06,1.06,0,0,0-1.059-1.044h-.016a1.059,1.059,0,0,0-1.044,1.075l.059,3.961-5.113,5.111-.117-4.975a1.06,1.06,0,1,0-2.119.05l.164,7-2.248,2.248c-3.332-3.805-4.317-8.594-2.092-10.819Z" transform="translate(-8.388 -35.626)"/><path d="M64.687,12.383a7.057,7.057,0,0,0,9.98,9.98,1.06,1.06,0,0,0,0-1.5l-8.481-8.48a1.06,1.06,0,0,0-1.5,0Zm1.5,8.482a4.938,4.938,0,0,1-.669-6.153l6.821,6.821A4.947,4.947,0,0,1,66.185,20.864Z" transform="translate(-25.487 -5.852)"/><path d="M110.344,79.655a3.62,3.62,0,1,0,3.62-3.62A3.624,3.624,0,0,0,110.344,79.655Zm5.12,0a1.5,1.5,0,1,1-1.5-1.5A1.5,1.5,0,0,1,115.464,79.655Z" transform="translate(-52.981 -42.7)"/><path d="M153.837,65.53a3.62,3.62,0,1,0-3.62,3.62A3.624,3.624,0,0,0,153.837,65.53Zm-5.12,0a1.5,1.5,0,1,1,1.5,1.5A1.5,1.5,0,0,1,148.718,65.53Z" transform="translate(-73.866 -34.563)"/><path d="M118.148,19.6a4.094,4.094,0,1,0,5.753-5.751l-3.117-2.479c2.371-3.77.97-6.136-.14-7.247-2.684-2.685-8.686-3.254-12.081.141s-2.845,9.377-.141,12.081c2.082,2.083,4.762,1.7,7.245.138Zm4.6-1.149a1.972,1.972,0,0,1-2.944-.17l-2.432-3.058a19.87,19.87,0,0,0,2.148-2.148l3.059,2.433A1.972,1.972,0,0,1,122.75,18.454Zm-12.83-3.606c-1.971-1.971-2.3-6.643.141-9.084s7.087-2.137,9.083-.141c1.26,1.261,1.044,3.055-.645,5.337a16.6,16.6,0,0,1-3.244,3.244C112.976,15.892,111.181,16.108,109.921,14.848Z" transform="translate(-50.598 0)"/><path d="M118.668,21.346l-.383-.077a1.06,1.06,0,1,0-.418,2.078l.383.077a1.06,1.06,0,1,0,.418-2.078Z" transform="translate(-56.824 -11.138)"/><path d="M126.9,15.2a1.06,1.06,0,0,0,.83-1.248l-.077-.383a1.06,1.06,0,0,0-2.078.418l.077.383A1.06,1.06,0,0,0,126.9,15.2Z" transform="translate(-61.741 -6.222)"/><path d="M147.419,99.277l.837-.837a1.06,1.06,0,0,0-1.5-1.5l-.837.837a1.06,1.06,0,0,0,1.5,1.5Z" transform="translate(-73.297 -54.566)"/><path d="M51.824,50.389l.837.837a1.06,1.06,0,0,0,1.5-1.5l-.837-.837a1.06,1.06,0,1,0-1.5,1.5Z" transform="translate(-19.09 -26.884)"/><path d="M185.391,83.6a13.3,13.3,0,0,0-3.883-10.462,1.086,1.086,0,0,0-1.5,0L162.589,90.557a1.063,1.063,0,0,0,0,1.5,13.362,13.362,0,0,0,19.131-.216,1.059,1.059,0,0,0-.034-1.5,1.086,1.086,0,0,0-1.5.034,11.259,11.259,0,0,1-15.316.9l2.153-2.153a8.233,8.233,0,0,0,11.547-11.55l2.151-2.152a11.252,11.252,0,0,1,2.552,8.016,1.061,1.061,0,0,0,2.115.161Zm-8.328-4.516a6.123,6.123,0,0,1-8.527,8.529Z" transform="translate(-82.9 -40.857)"/><path d="M210.873,105.281a1.079,1.079,0,0,0-1.4.534,1.061,1.061,0,1,0,1.4-.534Z" transform="translate(-110.036 -59.498)"/><path d="M20.786,152.353a1.082,1.082,0,0,0,1.4.526,1.062,1.062,0,0,0,.526-1.4,26.079,26.079,0,0,1-2.217-8.533,1.069,1.069,0,0,1,1.064-1.132h86.572a1.068,1.068,0,0,1,1.06,1.153,25.993,25.993,0,0,1-25.9,23.782H46.4a25.859,25.859,0,0,1-19.22-8.5,1.091,1.091,0,0,0-1.5-.068,1.063,1.063,0,0,0-.072,1.5,0,0,0,0,1,0,0,28,28,0,0,0,17.932,9.034v4.173a3.183,3.183,0,0,0,3.179,3.179H82.97a3.183,3.183,0,0,0,3.179-3.179v-4.172A28.1,28.1,0,0,0,111.3,143.142a3.186,3.186,0,0,0-3.171-3.451h-1.279c-.742-8.055-9.839-12.605-16.551-8.4a6.3,6.3,0,0,0-8.974-1.772,8.743,8.743,0,0,0-10.157-3.9,10.106,10.106,0,0,0-12.756-6.452,1.06,1.06,0,0,0,.661,2.014,7.986,7.986,0,0,1,10.331,6.066,1.057,1.057,0,0,0,1.5.75A6.622,6.622,0,0,1,80,131.641a1.06,1.06,0,0,0,1.8.314,4.167,4.167,0,0,1,7.1,1.284,1.06,1.06,0,0,0,1.662.466c5.42-4.357,13.4-.689,14.152,5.986H26.409c.442-5.031,3.814-9.2,9.341-9.216a9.334,9.334,0,0,1,7.982,4.468,1.061,1.061,0,0,0,1.8,0,6.576,6.576,0,0,1,7.05-2.976,1.064,1.064,0,0,0,1.259-1.289,7.932,7.932,0,0,1,.144-4.387,1.056,1.056,0,0,0-.678-1.335,1.072,1.072,0,0,0-1.335.678,9.958,9.958,0,0,0-.445,4.061,8.706,8.706,0,0,0-6.867,2.9,11.46,11.46,0,0,0-8.911-4.239h-.03c-6.559,0-10.981,5.037-11.439,11.335H21.562a3.186,3.186,0,0,0-3.171,3.455,27.733,27.733,0,0,0,2.4,9.207ZM84.03,172.889a1.061,1.061,0,0,1-1.06,1.06H46.726a1.061,1.061,0,0,1-1.06-1.06v-4.033c.248.007.493.01.733.01H83.3c.24,0,.485,0,.733-.01Z" transform="translate(0 -67.257)"/><path d="M29.14,203.536a1.061,1.061,0,1,0,1.467.305A1.084,1.084,0,0,0,29.14,203.536Z" transform="translate(-5.924 -116.057)"/><path d="M104.492,125.262a1.087,1.087,0,0,0-1.5,0,1.061,1.061,0,1,0,1.5,0Z" transform="translate(-48.568 -70.886)"/><path d="M118.5,139.156v-.849a1.06,1.06,0,1,0-2.12,0v.849a1.06,1.06,0,1,0,2.12,0Z" transform="translate(-56.46 -77.964)"/><path d="M147.312,148.069a1.059,1.059,0,0,0,0-1.5l-.6-.6a1.06,1.06,0,0,0-1.5,1.5l.6.6A1.059,1.059,0,0,0,147.312,148.069Z" transform="translate(-72.889 -82.81)"/><path d="M107.318,153.051l.6-.6a1.06,1.06,0,1,0-1.5-1.5l-.6.6a1.06,1.06,0,0,0,1.5,1.5Z" transform="translate(-50.196 -85.68)"/><path d="M56.477,152.144a1.06,1.06,0,0,0,0,1.5l.6.6a1.06,1.06,0,0,0,1.5-1.5l-.6-.6A1.06,1.06,0,0,0,56.477,152.144Z" transform="translate(-21.77 -86.367)"/><path d="M156.8,154.244l.6-.6a1.06,1.06,0,1,0-1.5-1.5l-.6.6a1.06,1.06,0,1,0,1.5,1.5Z" transform="translate(-78.703 -86.367)"/><path d="M203.7,158.684l.6-.6a1.06,1.06,0,0,0-1.5-1.5l-.6.6a1.06,1.06,0,0,0,1.5,1.5Z" transform="translate(-105.721 -88.925)"/></g></svg>