<svg xmlns="http://www.w3.org/2000/svg" width="26" height="26.607" viewBox="0 0 26 26.607"><defs><style>.a{fill:#ecf4ff;}.b{fill:#ddeafb;}.c{fill:#cbe2ff;}.d{fill:#bed8fb;}.e{fill:#f2d59c;}.f{fill:#ffe07d;}.g{fill:#ffd064;}.h{fill:#f7f6f7;}.i{fill:#95d6a4;}.j{fill:#b3e59f;}.k{fill:#ecc372;}.l{fill:#c6855b;}.m{fill:#fdf9ce;}</style></defs><g transform="translate(0 0)"><g transform="translate(0 0)"><ellipse class="a" cx="13" cy="13" rx="13" ry="13" transform="translate(0 0.334)"/><path class="b" d="M241.35,0c-.27,0-.537.009-.8.025a13.3,13.3,0,0,1,0,26.557c.266.016.533.025.8.025A13.3,13.3,0,0,0,241.35,0Z" transform="translate(-228.853 0)"/><ellipse class="c" cx="9.707" cy="9.707" rx="9.707" ry="9.707" transform="translate(2.79 3.596)"/><path class="d" d="M241.35,69.206c-.27,0-.538.012-.8.033a9.707,9.707,0,0,1,0,19.348c.265.022.533.033.8.033a9.707,9.707,0,1,0,0-19.414Z" transform="translate(-228.853 -65.61)"/></g><path class="e" d="M6.1,12.543a.942.942,0,0,1-1.2.786A6.8,6.8,0,0,1,6.534,0,.942.942,0,0,1,7.51,1.055Z" transform="translate(15.163 3.063) rotate(70)"/><g transform="translate(4.446 13.576)"><circle class="f" cx="3.344" cy="3.344" r="3.344" transform="translate(0.401 0.401)"/><path class="g" d="M158.5,328.461a3.351,3.351,0,0,0-.8.1,3.344,3.344,0,0,1,0,6.492,3.344,3.344,0,1,0,.8-6.59Z" transform="translate(-154.756 -328.06)"/><path class="h" d="M104.822,328.227a3.745,3.745,0,1,1,3.745-3.745A3.75,3.75,0,0,1,104.822,328.227Zm0-6.688a2.942,2.942,0,1,0,2.942,2.942A2.946,2.946,0,0,0,104.822,321.539Z" transform="translate(-101.077 -320.736)"/></g><g transform="translate(13.057 13.886)"><g transform="translate(4.412)"><path class="i" d="M352.083,269.621a.4.4,0,0,1-.343-.609l.973-1.612a.4.4,0,1,1,.688.415l-.973,1.612A.4.4,0,0,1,352.083,269.621Z" transform="translate(-351.681 -267.206)"/></g><path class="j" d="M266.881,297.557a.208.208,0,0,1,.07-.379A3.3,3.3,0,0,0,268.9,296.1c.8-.986.48-2.072,1.408-2.667a1.54,1.54,0,0,1,1.588-.12c.686.468.447,1.743.42,1.888a3.763,3.763,0,0,1-3.416,2.937A3.566,3.566,0,0,1,266.881,297.557Z" transform="translate(-266.785 -291.789)"/></g><g transform="translate(14.205 0.43) rotate(70)"><path class="k" d="M6.315.978A.938.938,0,0,0,5.751,0a6.805,6.805,0,0,0-5.7,5.891h0A6.8,6.8,0,0,0,4.5,13.124a.931.931,0,0,0,.4-.658Z" transform="translate(2.801 0.077)"/><path class="e" d="M6.1,12.543a.942.942,0,0,1-1.2.786A6.8,6.8,0,0,1,6.534,0,.942.942,0,0,1,7.51,1.055Z" transform="translate(0 0)"/><g transform="translate(1.442 1.378)"><circle class="l" cx="0.401" cy="0.401" r="0.401" transform="translate(3.614 0)"/><circle class="l" cx="0.401" cy="0.401" r="0.401" transform="translate(1.205 1.606)"/><circle class="l" cx="0.401" cy="0.401" r="0.401" transform="translate(2.317 3.725)"/><circle class="l" cx="0.401" cy="0.401" r="0.401" transform="translate(0 5.306)"/><circle class="l" cx="0.401" cy="0.401" r="0.401" transform="translate(2.22 6.826)"/><circle class="l" cx="0.401" cy="0.401" r="0.401" transform="translate(2.719 9.636)"/></g></g><g transform="translate(17.542 3.904)"><path class="m" d="M360.823,83.114a.269.269,0,0,1,.287-.267,4.279,4.279,0,0,1,0,8.539.269.269,0,0,1-.287-.267Z" transform="translate(-360.421 -82.445)"/><path class="f" d="M353.768,84.463a.67.67,0,0,1-.671-.669v-8a.67.67,0,0,1,.715-.668,4.681,4.681,0,0,1,0,9.34Zm.132-8.529v7.714a3.878,3.878,0,0,0,0-7.714Z" transform="translate(-353.097 -75.12)"/><g transform="translate(0 4.27)"><path class="f" d="M357.778,158.095H353.5a.4.4,0,0,1,0-.8h4.279a.4.4,0,0,1,0,.8Z" transform="translate(-353.097 -157.292)"/></g><g transform="translate(0 4.27)"><path class="f" d="M356.34,161.3a.4.4,0,0,1-.3-.135l-2.841-3.2a.4.4,0,1,1,.6-.533l2.841,3.2a.4.4,0,0,1-.3.668Z" transform="translate(-353.097 -157.294)"/></g><g transform="translate(0 1.071)"><path class="f" d="M353.5,99.729a.4.4,0,0,1-.3-.668l2.841-3.2a.4.4,0,0,1,.6.533l-2.841,3.2A.4.4,0,0,1,353.5,99.729Z" transform="translate(-353.097 -95.727)"/></g></g></g></svg>