<svg xmlns="http://www.w3.org/2000/svg" width="130.11" height="129.219" viewBox="0 0 130.11 129.219"><defs><style>.a,.i{opacity:0.1;}.b{fill:#e09461;}.c{fill:#c17948;}.d{fill:#efab7d;}.e{fill:#f7f7f7;}.f{fill:#512502;}.g{fill:#6c3a00;}.h{fill:#9f6132;}.j{fill:#cecece;}.k{fill:#d9dcdd;}.l{fill:#fff;}.m{fill:#ecf6ff;}.n{fill:#f7b32b;}.o{fill:#f9d256;}.p{fill:#615a8e;}.q{fill:#ffaa83;}.r{fill:#484475;}.s{fill:#d4dbe0;}.t{fill:#f8fcff;}.u{fill:#10207f;}.v{fill:#eef1fa;}.w{fill:#fefefe;}.x{fill:#fdd303;}.y{fill:#b4bbbf;}.z{fill:#cf6f3b;}.aa{fill:#f29b6e;}.ab{fill:#002949;}.ac{fill:#fedf7c;}.ad{fill:#eeeeef;}.ae{fill:#f4f4f4;}.af{fill:#e8e8e6;}.ag{fill:#d5d5d5;}.ah{fill:#e3e3e3;}.ai{fill:#8f8f8f;}.aj{fill:#c6c6c6;}.ak{fill:#cd9049;}.al{fill:#ecc672;}.am{fill:#f29c79;}.an{fill:#7b4b27;}.ao{fill:#89542b;}.ap{fill:#55341b;}.aq{fill:#777;}.ar{fill:#f89f29;}.as{fill:#ea7d24;}.at{fill:#c4c6c6;}.au{fill:#a8acad;}.av{fill:#e2e2e2;}.aw{fill:#786812;}.ax{fill:#998017;}.ay{fill:#937b14;}.az{fill:#ff362e;}.ba{fill:#2d2d2d;}</style></defs><g transform="translate(0 0)"><path class="a" d="M0,79.36,44.33,53.77l1.41.81,36.1-20.97,41.9,24.19L87.5,78.86l.88.5-.01.01,41.74,24.26L85.77,129.22,43.31,104.55l-.65.38L.76,80.73l.79-.46Z" transform="translate(0 0)"/><path class="b" d="M62.23,25.31,62.12,60.7,37.49,75.01l.11-35.39Z" transform="translate(30.39 0)"/><path class="c" d="M59.5,30.02,59.41,58.7,39.45,70.31l.08-28.69Z" transform="translate(31.16 0)"/><path class="d" d="M87.01,39.62,86.9,75.01,62.12,60.7l.1-35.38Z" transform="translate(-19.02 0)"/><path class="e" d="M86.91,25.31,62.28,39.62,37.49,25.32,62.12,11Z" transform="translate(5.71 0)"/><g transform="translate(41.76 8.13)"><path class="f" d="M62.04,23.32v1.52L35.9,40.03l.01-1.52Z" transform="translate(-9.59 -8.13)"/><path class="g" d="M88.35,38.51l-.01,1.52L62.03,24.84V23.32Z" transform="translate(-62.03 -8.13)"/><path class="h" d="M88.35,23.32,62.22,38.51,35.9,23.32,62.04,8.13Z" transform="translate(-35.9 -8.13)"/></g><path class="f" d="M39.53,70.31,59.49,58.7l.01-1.05L39.54,69.25Z" transform="translate(31.08 0)"/><path class="h" d="M39.53,69.25l19.96-11.6v-.09L39.59,46.07Z" transform="translate(31.09 0)"/><path class="f" d="M59.47,48.33,39.51,59.93v1.52L59.47,49.84Z" transform="translate(31.13 0)"/><path class="h" d="M59.47,48.27,43.75,39.19l-4.19,2.43-.05,18.31,19.96-11.6Z" transform="translate(31.13 0)"/><path class="f" d="M59.44,37.77,39.48,49.37v1.51l19.96-11.6Z" transform="translate(31.19 0)"/><path class="h" d="M59.44,37.74,52.79,33.9,39.5,41.62l-.02,7.75,19.96-11.6Z" transform="translate(31.19 0)"/><g class="i" transform="translate(54.751 18.595)"><path d="M62.217,20.24c-2.67,2.07-2.29,5.28.84,7.17s7.85,1.75,10.52-.31,2.3-5.27-.84-7.17S64.9,18.18,62.217,20.24Z" transform="translate(-60.438 -18.595)"/></g><path class="j" d="M63.794,21.27c-2.25,1.36-2.27,3.56,0,4.92a8.57,8.57,0,0,0,8.11,0c2.25-1.36,2.26-3.56,0-4.92a8.6,8.6,0,0,0-8.11,0Z" transform="translate(-5.584 0)"/><path class="k" d="M62.39,19c-3,1.75-3,4.57,0,6.32a12,12,0,0,0,10.9,0c3-1.74,3-4.57,0-6.31A12,12,0,0,0,62.39,19Z" transform="translate(-5.57 0)"/><path class="l" d="M62.607,18.92c-2.93,1.69-2.95,4.43,0,6.12A11.63,11.63,0,0,0,73.128,25c2.92-1.69,2.94-4.43,0-6.12a11.63,11.63,0,0,0-10.52.04Z" transform="translate(-5.617 0)"/><path class="l" d="M62.607,18.92c-2.93,1.69-2.95,4.43,0,6.12A11.63,11.63,0,0,0,73.128,25c2.92-1.69,2.94-4.43,0-6.12a11.63,11.63,0,0,0-10.52.04Z" transform="translate(-5.617 0)"/><path class="k" d="M64.131,20c-2,1.18-2.06,3.1,0,4.28a8.16,8.16,0,0,0,7.39,0c2.05-1.18,2.06-3.1,0-4.28A8.16,8.16,0,0,0,64.131,20Z" transform="translate(-5.561 0)"/><path class="j" d="M63.794,19.09c-2.25,1.36-2.27,3.56,0,4.92a8.63,8.63,0,0,0,8.11,0c2.25-1.36,2.26-3.56,0-4.92a8.57,8.57,0,0,0-8.11,0Z" transform="translate(-5.584 0)"/><path class="k" d="M62.39,16.78c-3,1.75-3,4.57,0,6.31a12,12,0,0,0,10.9,0c3-1.74,3-4.57,0-6.31a12,12,0,0,0-10.9,0Z" transform="translate(-5.57 0)"/><path class="l" d="M62.567,16.74c-2.93,1.69-2.95,4.43,0,6.12a11.63,11.63,0,0,0,10.56,0c2.92-1.69,2.94-4.43,0-6.12a11.63,11.63,0,0,0-10.56,0Z" transform="translate(-5.577 0)"/><path class="l" d="M62.567,16.74c-2.93,1.69-2.95,4.43,0,6.12a11.63,11.63,0,0,0,10.56,0c2.92-1.69,2.94-4.43,0-6.12a11.63,11.63,0,0,0-10.56,0Z" transform="translate(-5.577 0)"/><path class="k" d="M64.131,17.8c-2,1.18-2.06,3.09,0,4.28a8.16,8.16,0,0,0,7.39,0c2.05-1.19,2.06-3.1,0-4.28a8.13,8.13,0,0,0-7.39,0Z" transform="translate(-5.561 0)"/><path class="j" d="M63.794,16.91c-2.25,1.36-2.27,3.56,0,4.92a8.6,8.6,0,0,0,8.11,0c2.25-1.35,2.26-3.56,0-4.91a8.57,8.57,0,0,0-8.11-.01Z" transform="translate(-5.584 0)"/><path class="k" d="M62.39,14.6c-3,1.74-3,4.57,0,6.31a12,12,0,0,0,10.9,0c3-1.74,3-4.57,0-6.31a12,12,0,0,0-10.9,0Z" transform="translate(-5.57 0)"/><path class="l" d="M62.567,14.56c-2.93,1.69-2.95,4.43,0,6.12a11.6,11.6,0,0,0,10.56,0c2.92-1.68,2.94-4.42,0-6.11A11.63,11.63,0,0,0,62.567,14.56Z" transform="translate(-5.577 0)"/><path class="l" d="M62.567,14.56c-2.93,1.69-2.95,4.43,0,6.12a11.6,11.6,0,0,0,10.56,0c2.92-1.68,2.94-4.42,0-6.11A11.63,11.63,0,0,0,62.567,14.56Z" transform="translate(-5.577 0)"/><path class="k" d="M64.131,15.61c-2,1.19-2.06,3.1,0,4.29a8.13,8.13,0,0,0,7.39,0c2.05-1.18,2.06-3.09,0-4.28a8.16,8.16,0,0,0-7.39-.01Z" transform="translate(-5.561 0)"/><path class="j" d="M63.794,14.73c-2.25,1.36-2.27,3.56,0,4.91a8.57,8.57,0,0,0,8.11,0c2.25-1.35,2.26-3.56,0-4.91a8.57,8.57,0,0,0-8.11,0Z" transform="translate(-5.584 0)"/><path class="k" d="M62.39,12.42c-3,1.74-3,4.57,0,6.31a12,12,0,0,0,10.9,0c3-1.74,3-4.57,0-6.31a12,12,0,0,0-10.9,0Z" transform="translate(-5.57 0)"/><path class="l" d="M62.567,12.38c-2.93,1.69-2.95,4.42,0,6.12a11.66,11.66,0,0,0,10.56,0c2.92-1.69,2.94-4.43,0-6.11a11.6,11.6,0,0,0-10.56-.01Z" transform="translate(-5.577 0)"/><path class="l" d="M62.567,12.38c-2.93,1.69-2.95,4.42,0,6.12a11.66,11.66,0,0,0,10.56,0c2.92-1.69,2.94-4.43,0-6.11a11.6,11.6,0,0,0-10.56-.01Z" transform="translate(-5.577 0)"/><path class="k" d="M64.131,13.43c-2,1.19-2.06,3.1,0,4.28a8.16,8.16,0,0,0,7.39,0c2.05-1.18,2.06-3.1,0-4.28a8.16,8.16,0,0,0-7.39,0Z" transform="translate(-5.561 0)"/><path class="m" d="M44.882,20.66s-1.65-.4-5.34,7.91c-2.44,5.48-5.88,17.76-5.88,17.76s0,.51,1.89.51c.48,0,1.93.2,1.93.2a66.619,66.619,0,0,1,4.3-9.3C43.082,35.49,47.9,21.4,44.882,20.66Z" transform="translate(50.588 0)"/><path class="n" d="M17.547,46.25A6.82,6.82,0,0,1,20.887,52S17.357,50.88,17.547,46.25Z" transform="translate(91.683 0)"/><path class="o" d="M15.56,46a6.79,6.79,0,0,1,6.28,2.13S18.46,49.57,15.56,46Z" transform="translate(92.71 0)"/><path class="p" d="M42.122,94.3s1.35,2.21-.17,2.89-1.52-.38-4.34,2.06-5.41,1.44-5.78.92c-.89-1.24.61-2.51,6.88-5.87Z" transform="translate(55.838 0)"/><path class="q" d="M29.778,52.71s-1.61,16.37-1,19.89,2,21.76,2,21.76a1.76,1.76,0,0,0,1.34.61c1.85.16,2.1-.43,2.1-.43s3.33-15,1.32-20.25l2.17-17.45V54.41S31.848,53.68,29.778,52.71Z" transform="translate(63.762 0)"/><path class="p" d="M31.816,94.63a4.53,4.53,0,0,0,.15-1.63s2.47,1,4.08.07a4.53,4.53,0,0,0,.09,1.9C36.426,95.78,32.166,95.68,31.816,94.63Z" transform="translate(62.144 0)"/><path class="r" d="M41.706,97.19c-1.46.81-1.53-.38-4.35,2.06s-5.37,1.41-5.78.92a.63.63,0,0,1-.09-.3c2.64,1,4.07-.4,5.23-1.34a8.57,8.57,0,0,1,4-1.76c1.81-.41,1.15-1.88,1.15-1.88,0-.29,0-1.77.25-1.79C42.126,94.82,43.3,96.3,41.706,97.19Z" transform="translate(56.084 0)"/><path class="s" d="M27.919,49s-1.52,14.54-.65,22.89,1.71,17.64,1.51,22.38c-.07,1.57,5.87,3.32,6.28,0,.5-4,2.24-15-.16-20l3.88-21.35S31.779,51.85,27.919,49Z" transform="translate(64.331 0)"/><path class="q" d="M21.595,54s-1.54,17.36-1,21.09,2,23.28,2,23.28h3.17s3.41-16.85,1.26-21.48l2.15-18.52V55.8S23.565,55,21.595,54Z" transform="translate(80.455 0)"/><path class="p" d="M33.54,97.56s1.35,2.21-.16,2.9-1.53-.38-4.35,2.06-5.4,1.44-5.78.92c-.89-1.24.61-3.24,6.88-6.59Z" transform="translate(73 0)"/><path class="p" d="M23.221,97.9a4.66,4.66,0,0,0,.17-1.6s2.47,1,4.08.07a4.36,4.36,0,0,0,.09,1.9C27.791,99.05,23.581,99,23.221,97.9Z" transform="translate(79.319 0)"/><path class="r" d="M33.112,100.46c-1.45.81-1.52-.38-4.34,2.06s-5.37,1.41-5.78.92a.46.46,0,0,1-.09-.3c2.64,1,4.07-.4,5.22-1.34a8.6,8.6,0,0,1,4-1.76c1.81-.41,1.15-1.88,1.15-1.88,0-.29,0-1.77.25-1.79C33.532,98.09,34.712,99.57,33.112,100.46Z" transform="translate(73.258 0)"/><path class="t" d="M36.4,51.28s2.77,4.15.73,14-2.75,12.81-2.75,12.81.48,1.25,0,9.18c-.46,7.44-.47,7-.64,10.55-.06,1.42-5.82,2.08-6.06-.91C27.18,90.59,26.62,74,26.62,74L25.23,58.16l-7-9.14S32.64,53.89,36.4,51.28Z" transform="translate(74 0)"/><path class="u" d="M22.166,20.26s2.29.75,3.34,4.65-3.6.28-3.6.28Z" transform="translate(82.544 0)"/><path class="v" d="M36.189,25.05c-.35-.24-13.16-5.45-14.59-4.39s-4.11,5.88-2,12.87c3,10.2-.67,15.5-.67,15.5s9.52,6.48,18.15,2.25c0,0,0,.49-.84-5.38C34.529,34.77,40.809,28.37,36.189,25.05Z" transform="translate(73.371 0)"/><path class="w" d="M34.6,21.35s-5.7,7.09-3.05,12.88c2.11,4.6,1.76,7,1.65,8.2a48.11,48.11,0,0,1-1.7,6.6s8.21-8.03,6.86-9.52-2.8-12.11-2.8-12.33S34.6,21.35,34.6,21.35Z" transform="translate(60.747 0)"/><path class="u" d="M24.474,27.58s-3.41-7,3-7.67,5.33,3.93,4.79,4.5S27.134,28.5,24.474,27.58Z" transform="translate(73.857 0)"/><path class="x" d="M29.53,33.37a.69.69,0,1,1-.69-.69.69.69,0,0,1,.69.69Z" transform="translate(72.43 0)"/><path class="x" d="M35.069,31.92a.69.69,0,1,1-.69-.72.7.7,0,0,1,.69.72Z" transform="translate(61.351 0)"/><path class="x" d="M29.529,37.74a.69.69,0,1,1-.69-.72.7.7,0,0,1,.69.72Z" transform="translate(72.431 0)"/><path class="x" d="M35.07,36.28a.69.69,0,1,1-.69-.71A.7.7,0,0,1,35.07,36.28Z" transform="translate(61.35 0)"/><path class="y" d="M29.53,43.19a.69.69,0,1,1-.69-.69.69.69,0,0,1,.69.69Z" transform="translate(72.43 0)"/><path class="x" d="M35.069,41.74a.69.69,0,1,1-.69-.72.7.7,0,0,1,.69.72Z" transform="translate(61.351 0)"/><path class="z" d="M26.5,19.26s.67,3,0,4.65,1.77,2.09,2.93,1.72,3-1.21,2.74-2.24-1.28-4.39-.59-5.62S26.5,19.26,26.5,19.26Z" transform="translate(71.53 0)"/><path class="aa" d="M32.83,9.87s3.49,3.46,2.55,7.13c-.52,2-2.575,1.97-4.16,4.36s-6.194,3.27-7.554.89c-.581-1.016.341-2.76,0-5.092-.361-2.426-.165-5.473,1.554-7.249C28.22,6.81,32.83,9.87,32.83,9.87Z" transform="translate(71.1 0)"/><path class="ab" d="M22.723,11.37s2.2.21,5,3.11c.91.95,1.06,4.17,2.08,3.16.39-.38,1.41-1.13,1.53-.56.58,2.73-3.57,3.65-2.72,5.35.25.51,7-1.91,6.13-9.53-.42-3.82-3-6.49-8.45-6a5,5,0,0,0-4.58,4.57S21.8,11.27,22.723,11.37Z" transform="translate(73.577 0)"/><path class="u" d="M26.244,24.19l-3.52,1.57c-1.76.79,2.17-3.1,2.17-3.1Z" transform="translate(81.597 0)"/><path class="ac" d="M37.22,46.33a15,15,0,0,1-16.56,0s-4.33,6.79-2.45,20.89c0,0,11.75,6.25,21.5,1.34C39.7,68.56,41.15,55,37.22,46.33Z" transform="translate(72.41 0)"/><path class="o" d="M19.99,45.5a18.51,18.51,0,0,0,16.6.34l1.17,2.55s-12.2,3.2-18.53-.43Z" transform="translate(73.12 0)"/><path class="ad" d="M35.79,10.29a14.09,14.09,0,0,1-13.13,1.5l-.74-3.12s7.28,2.19,13.12-1.34Z" transform="translate(72.4 0)"/><path class="ae" d="M22.021,2.74c1.35-.15,2.05.47,2.79.22,1.63-.55,1-2.81,3.79-2.95,3.13-.15,2.72,1.51,4.28,1.78.56.09,1-.55,1.64-.61a3.613,3.613,0,1,1,.73,7.19,4,4,0,0,1-.69,0,10.57,10.57,0,0,1-4.53,1.32c-2.82.08-6.69.54-6.78-.09a3.63,3.63,0,0,1-4-3.23C19.091,4.38,19.881,3,22.021,2.74Z" transform="translate(72.379 0)"/><path class="af" d="M35.243,8.37a4,4,0,0,1-.69,0,10.57,10.57,0,0,1-4.53,1.32c-2.82.08-6.69.54-6.78-.09a3.63,3.63,0,0,1-4-3.23,4.3,4.3,0,0,1,0-.62c1,1.32,2.72,1.57,4.82,1.26a10.22,10.22,0,0,0,5.46-2.17c1.66-1,4.75.31,6.7-.27,1.08-.31,1.25-1.41,1.2-2.34a3.6,3.6,0,0,1-2.18,6.14Z" transform="translate(72.387 0)"/><path class="d" d="M12.41,84.96l.11,39.66,30.24-17.46L42.65,67.5Z" transform="translate(74.94 0)"/><path class="b" d="M42.65,41.3l.11,39.66,75.12,43.66-.11-39.66Z" transform="translate(-30.42 0)"/><path class="c" d="M48.87,62.73l.07,25.48L97.2,116.26l-.07-25.48Z" transform="translate(-15.96 0)"/><path class="d" d="M12.52,41.3,87.64,84.96,117.88,67.5,71.5,40.54,42.76,23.84Z" transform="translate(-0.29 0)"/><path class="g" d="M11.09,86.04l.01,1.74L42.16,69.85V68.1Z" transform="translate(76.86 0)"/><path class="f" d="M42.15,41.2v1.75l77.16,44.83-.01-1.74Z" transform="translate(-31.35 0)"/><path class="h" d="M11.09,41.2,88.24,86.04,119.31,68.1,71.67,40.42,42.15,23.27Z" transform="translate(-0.29 0)"/><path class="f" d="M97.06,114.51l.06,1.75L48.87,88.22V86.46Z" transform="translate(-15.88 0)"/><path class="h" d="M48.93,86.46l20.44-11.8L97.11,90.78l.01,3.25v20.48Z" transform="translate(-15.94 0)"/><path class="f" d="M48.9,74.33l48.19,28.05.03.71v1.02L48.9,76.08Z" transform="translate(-15.91 0)"/><path class="h" d="M48.93,74.33l9.97-5.76L97.11,90.78,97.12,94v8.38Z" transform="translate(-15.94 0)"/><g class="i" transform="translate(23.481 37.472)"><path d="M93.482,39.11c-2.67,2.06-2.29,5.27.84,7.16s7.85,1.73,10.52-.27,2.31-5.27-.83-7.16S96.162,37,93.482,39.11Z" transform="translate(-91.703 -37.473)"/></g><path class="ag" d="M102.962,32.29a1.22,1.22,0,0,0,0,2.32l.47.28.6-.35-.29-.17a.952.952,0,0,1,0-1.8l1-.58a3.41,3.41,0,0,1,3.16.01l.29.17.59-.35-.47-.27a4.43,4.43,0,0,0-4,0Z" transform="translate(-80.792 0)"/><path class="l" d="M107.74,31.81l-.59.35L106.9,32l-.21-.1h-.06l-.17-.07h-2.15l-.23.08h0a2.09,2.09,0,0,0-.3.14l-1,.58a1.11,1.11,0,0,0-.65.91V34a1.09,1.09,0,0,1,.64-.91l1-.58a2.09,2.09,0,0,1,.3-.14h0l.24-.08h2.14l.17.06h.06l.21.1.29.17.59-.34Z" transform="translate(-79.79 0)"/><path class="l" d="M108.124,34.89l-.47-.28-.11-.07-.1-.07-.08-.06-.09-.07-.12-.12h0a.36.36,0,0,1-.07-.1l-.07-.09v-.07a.589.589,0,0,0,0-.08V33.8a917.568,917.568,0,0,0,0-.15v.37a.28.28,0,0,0,0,.09h0v.09h0a.591.591,0,0,0,0,.08h0l.07.1h0v.06h0l.1.11h0l.09.07.08.07.1.06h.07l.47.28.6-.35v-.46Z" transform="translate(-85.494 0)"/><path class="ah" d="M107.466,34.31a.41.41,0,0,0,0,.11v.2a.29.29,0,0,1,0,.09.3.3,0,0,1,0,.1v.4a.36.36,0,0,0,0,.09l-.06.1a.41.41,0,0,1,0,.09.83.83,0,0,1-.08.12v.08l-.11.14a.1.1,0,0,1,0,.05,1.921,1.921,0,0,1-.18.22h0c0,.06-.11.11-.16.16l-.08.07-.1.09a.39.39,0,0,1-.1.08l-.11.09-.1.08-.12.08-.12.08-.12.08-.16.1-.48.25-.13.06-.45.19h-.06l-.51.17-.36.1-.28.08-.4.08-.27.06h-.13l-.48.07h-.14a5.67,5.67,0,0,1-.58,0h-2.23L98.9,38h-1.15c-.19-.05-.36-.09-.53-.15h-.15l-.44-.15h-.11l-.39-.16-.17-.08-.52-.27a3.53,3.53,0,0,1-2.08-2.91v7.71a3.51,3.51,0,0,0,2.08,2.91l.52.27.18.08.32.14h.13l.42.15h.25l.44.11H98l.36.07h0l.3.05h3.17l.49-.07h.17l.24-.05.38-.08.28-.08.36-.1h.08l.43-.15h.05l.52-.16.1-.08c.16-.08.32-.16.47-.25l.09-.05h.08l.12-.08.14-.11.12-.08a.39.39,0,0,1,.1-.08l.11-.09.1-.08.1-.09h0c0-.05.11-.1.16-.16h0l.31-.34h0v-.06a1.129,1.129,0,0,1,.1-.13.35.35,0,0,1,.05-.08l.07-.12h0l.06-.1v-.09a.54.54,0,0,0,0-.11.08.08,0,0,0,0-.05h0a.42.42,0,0,0,0-.1v-.2a.08.08,0,0,1,0-.05h0v-.2a.31.31,0,0,1,0-.1V34.19Z" transform="translate(-70.716 0)"/><path class="e" d="M105.44,31.28c2.76,1.6,2.78,4.18,0,5.78a11,11,0,0,1-10,0c-2.76-1.6-2.78-4.18,0-5.78a11,11,0,0,1,10,0Z" transform="translate(-70.77 0)"/><path class="ai" d="M94.226,37.44h.12l.07.07h0v.06h0a.14.14,0,0,0,0,.06h0v.05h0v.66a.13.13,0,0,0,0-.06q0-.045,0-.09v-.05h0v-.06h0l-.07-.08h-.12l-.07-.05h-.09V37.3Z" transform="translate(-58.376 0)"/><path class="l" d="M92.88,40l.22.12h.07l.19.07h2.27l.26-.09h.18l.17-.1,1.42-.82a1.21,1.21,0,0,0,.71-1v.65a1.19,1.19,0,0,1-.7,1l-1.43.82-.17.09H95.9l-.26.08H93.53l-.19-.07h-.06l-.23-.11-.34-.2V39.8Z" transform="translate(-60.97 0)"/><path class="ag" d="M92.692,39.8l.34.2a3.69,3.69,0,0,0,3.36,0l1.42-.82c.94-.54,1-1.41,0-2l-.34-.19-.61.35.09.06a.76.76,0,0,1,0,1.44l-1,.62a2.78,2.78,0,0,1-2.51,0l-.09-.06Z" transform="translate(-61.122 0)"/><path class="aj" d="M99.155,32.9a.86.86,0,0,0-.37-.8l-.39-.23a.88.88,0,0,1,.36.8v.09l.4.23Z" transform="translate(-67.445 0)"/><path class="aj" d="M101.057,31.28h.73l.1.05h0l-.1-.06-.29-.17h-.77l-.19.1-1.41.81-.15.09h0l-.1.08h0l-.09.08v.05h0l-.1.11h0l-.06.07v.05h0v.06h0l-.05.07h0a.57.57,0,0,0-.08.13h0a.47.47,0,0,1,0,.1h0v.05a.471.471,0,0,0,0,.1h0l-.06.14h0a.643.643,0,0,0,0,.07s0,0,0,.05v.06h0a.64.64,0,0,1,0,.07.19.19,0,0,1,0,.08h0a.13.13,0,0,0,0,.06v.19a1.231,1.231,0,0,0,0,.27v.14a2.661,2.661,0,0,0,0,.3l.4.23a2.64,2.64,0,0,1,0-.29v-.15a2.454,2.454,0,0,1,0-.27v-.7a.184.184,0,0,1,.07-.17h0a1,1,0,0,1,.07-.15h0a1.09,1.09,0,0,1,.08-.15h0s.07-.11.1-.16v-.05l.08-.11h0a.859.859,0,0,1,.07-.1l.06-.07.06-.06.1-.11.07-.07h0l.09-.07v-.05l.1-.07h0l.15-.09,1.41-.81.19-.1Z" transform="translate(-70.207 0)"/><path class="ah" d="M100.864,31.4c.85-.5,1.55-.1,1.55.88v.47l-.41.24V32.9c0-.79-.56-1.11-1.25-.71l-1.14.65A2.77,2.77,0,0,0,98.384,35v.09l-.41.23a2.64,2.64,0,0,1,0-.29v-.15a3.43,3.43,0,0,1,1.54-2.67Z" transform="translate(-70.274 0)"/><g class="i" transform="translate(64.129 49.015)"><path d="M33.593,50.11c-1.81,1-1.82,2.74,0,3.79l.94.55-.84.48c-1.81,1-1.82,2.74,0,3.78l15.52,9.06a7.19,7.19,0,0,0,6.53,0l8.87-5.12c1.82-1,1.83-2.75,0-3.79L49.083,49.8a7.19,7.19,0,0,0-6.53,0l-1.15.66-.94-.55a7.21,7.21,0,0,0-6.54,0Z" transform="translate(-32.231 -49.016)"/></g><path class="ak" d="M63.1,49.3v.05a1.94,1.94,0,0,0,.22.43v.08a2.28,2.28,0,0,0,.37.4c.09.08.21.16.32.24a2.11,2.11,0,0,0,.29.2l.94.55v1.51l-1-.55h-.06c-.09-.06-.15-.12-.23-.18s-.23-.15-.32-.23h0a2.56,2.56,0,0,1-.28-.3l-.06-.08v-.07l-.08-.13a1.51,1.51,0,0,1-.12-.26h0a1.088,1.088,0,0,1,0-.17,1.24,1.24,0,0,1,0-.27V48.83a1.55,1.55,0,0,0,.01.47Z" transform="translate(1.787 0)"/><path class="ak" d="M31.51,54.17a2.12,2.12,0,0,0,.22.42v.08a2.79,2.79,0,0,0,.37.4,2.671,2.671,0,0,0,.32.24l.29.21,15.6,9.06a4.721,4.721,0,0,0,.91.4l.35.11.46.11a4.862,4.862,0,0,0,.55.1h.15a6.621,6.621,0,0,0,.77,0h.14a3.885,3.885,0,0,0,.76-.05h.12a6,6,0,0,0,.74-.13h.13l.68-.12h.12a5,5,0,0,0,.7-.34l8.88-5.12a2.31,2.31,0,0,0,1.36-1.91v1.51A2.3,2.3,0,0,1,63.77,61L54.9,66.12a4.6,4.6,0,0,1-.67.32h-.11l-.41.14-.24.06h-.24l-.46.08H50.68a.886.886,0,0,1-.39-.06h-.16l-.49-.06a2.1,2.1,0,0,0-.24-.06l-.11-.05a5.33,5.33,0,0,1-.91-.4L32.77,57h-.06a2,2,0,0,1-.23-.17,4,4,0,0,1-.33-.24h0a2.7,2.7,0,0,1-.28-.31v-.07a.35.35,0,0,1-.05-.08L31.64,56a1.23,1.23,0,0,1-.12-.26h0v-2.1a1.61,1.61,0,0,0,.08.48.43.43,0,0,1-.09.05Z" transform="translate(33.47 0)"/><path class="al" d="M32.828,46.92c-1.82,1-1.83,2.74,0,3.78l.94.55-.84.49c-1.81,1-1.82,2.73,0,3.78l15.6,9.06a7.16,7.16,0,0,0,6.53,0l8.88-5.12c1.81-1,1.82-2.74,0-3.79l-15.6-9.06a7.19,7.19,0,0,0-6.53,0l-1.15.67-.94-.55a7.18,7.18,0,0,0-6.54,0Z" transform="translate(33.353 0)"/><path class="ak" d="M59.092,48.63a.49.49,0,0,0,0,.93,1.75,1.75,0,0,0,1.59,0l2-1.15a.484.484,0,0,0,0-.92,1.74,1.74,0,0,0-1.6,0Z" transform="translate(8.338 0)"/><path class="h" d="M60.55,49.55a1.75,1.75,0,0,1-1.59,0l-.06-.05a.78.78,0,0,1,.23-.21l2-1.15a1.82,1.82,0,0,1,1.61,0v.05a.82.82,0,0,1-.24.2Z" transform="translate(8.47 0)"/><path class="aa" d="M43.115,49.7a5.07,5.07,0,0,0-2.37.82,4.74,4.74,0,0,0-2.13,2.28c-.56.88-.9,1.59-.46,1.87s2.68-.36,3.56-1.4c.55-.65,2.87-.94,3.25-1.22S43.685,49.63,43.115,49.7Z" transform="translate(47.135 0)"/><path class="am" d="M44.025,52.05c-.38.28-2.7.57-3.25,1.22a5.26,5.26,0,0,1-2.83,1.43v-.07c0-.35.68-.6,1-1s1.46-1.1,2.08-1.75a5.35,5.35,0,0,1,2.54-.81h.18C44.025,51.54,44.165,51.94,44.025,52.05Z" transform="translate(48.085 0)"/><path class="w" d="M39.427,25.21s3.1,1.21,1.26,6.41C38.8,37,32.9,46.1,32.9,46.1l-10.74,6.23s-.64-2.9-3.35-2.41l10.1-7.37S35.9,23.67,39.427,25.21Z" transform="translate(70.034 0)"/><g transform="translate(81.91 47.67)"><path class="an" d="M48.2,50.64l-.42-.24v1.14l.42.25Z" transform="translate(-47.78 -47.67)"/><path class="ao" d="M48.2,47.92l-.42-.25L43.06,50.4l.42.24Z" transform="translate(-43.06 -47.67)"/><path class="ap" d="M43.06,50.64v1.15l4.72-2.73V47.92Z" transform="translate(-42.64 -47.67)"/></g><path class="aq" d="M53.84,51.58l-6,4A4.17,4.17,0,0,1,48.94,54a34,34,0,0,1,4.84-3.27v-.18Z" transform="translate(28.43 0)"/><path class="q" d="M45.256,45.81s-.68,2.45-1,3.37S41.966,51,42.1,50.4a11.32,11.32,0,0,1,1.25-2.92C43.736,47.09,45.256,45.81,45.256,45.81Z" transform="translate(42.764 0)"/><path class="aa" d="M45.365,43.75a9.62,9.62,0,0,1-2.37,4c-1.78,1.75-2,3.2-1,2.28s2.49-.83,3.58-1.49,2.72-3.17,2.51-3.81S45.365,43.75,45.365,43.75Z" transform="translate(40.605 0)"/><path class="m" d="M46,38.35,42.43,47a3.47,3.47,0,0,0-4-.24l3-9.86Z" transform="translate(45.68 0)"/><path class="ar" d="M57.256,50.69s-1.48-2.74-3.54-1.14-1.55,4.58-1.55,4.58a21.75,21.75,0,0,0,5.09-3.44Z" transform="translate(20.744 0)"/><path class="ar" d="M53.02,61.33l-13-7.2s1.82-4.5,2.84-5.07,14.39,8,14.39,8Z" transform="translate(32.84 0)"/><path class="as" d="M47.15,56.64s1.46-4.19,5.19-4.31l.34.19s-4.24,1.19-5.17,4.32Z" transform="translate(30.28 0)"/><path class="n" d="M41.76,57.13a5.16,5.16,0,0,0-2.34,4v.1l4.68-2.7v-.11C44.11,57,43.06,56.38,41.76,57.13Z" transform="translate(46.59 0)"/><g class="i" transform="translate(93.328 65.125)"><path d="M23.64,66.77c-2.67,2.06-2.3,5.27.84,7.16s7.85,1.76,10.52-.31,2.3-5.27-.84-7.16S26.35,64.7,23.64,66.77Z" transform="translate(-21.858 -65.125)"/></g><path class="j" d="M24.667,66.75c-2.51,1.51-2.52,4,0,5.47a9.5,9.5,0,0,0,9,0c2.5-1.5,2.51-3.95,0-5.46a9.55,9.55,0,0,0-9-.01Z" transform="translate(71.783 0)"/><path class="k" d="M23.1,64.18c-3.35,1.94-3.37,5.08,0,7a13.31,13.31,0,0,0,12.1,0c3.35-1.94,3.38-5.08.05-7A13.38,13.38,0,0,0,23.1,64.18Z" transform="translate(71.8 0)"/><path class="l" d="M23.264,64.14c-3.26,1.88-3.27,4.92,0,6.8a12.92,12.92,0,0,0,11.74,0c3.25-1.88,3.27-4.93,0-6.8a12.92,12.92,0,0,0-11.74,0Z" transform="translate(71.846 0)"/><path class="l" d="M23.264,64.14c-3.26,1.88-3.27,4.92,0,6.8a12.92,12.92,0,0,0,11.74,0c3.25-1.88,3.27-4.93,0-6.8a12.92,12.92,0,0,0-11.74,0Z" transform="translate(71.846 0)"/><path class="k" d="M25.054,65.31c-2.28,1.32-2.29,3.45,0,4.76a9.07,9.07,0,0,0,8.21,0c2.27-1.31,2.29-3.44,0-4.76a9.07,9.07,0,0,0-8.21,0Z" transform="translate(71.796 0)"/><path class="ar" d="M29.63,67.89a.41.41,0,0,1,0-.11v-.55a.52.52,0,0,1,0-.11v-.21h0v-.33a.49.49,0,0,0,0-.11V66.4h0a.54.54,0,0,1,0-.11l.05-.11a.16.16,0,0,1,.07-.13,1,1,0,0,1,.08-.14h0a2.26,2.26,0,0,1,.16-.26,2.428,2.428,0,0,1,.14-.2h0l.5-.22.09-.11.11-.12.09-.09h0l.06-.06.1-.1.09-.08.1-.09h.05l.09-.07.1-.07.12-.15.09-.06h1.36l.18.08.76.44a1.19,1.19,0,0,0-.69-.14h0l-.4.09h0a1.89,1.89,0,0,0-.44.2,2.8,2.8,0,0,0-.43.3h0a4.85,4.85,0,0,0-1.09,1.31h0a5.15,5.15,0,0,0-.46,1h0a3.53,3.53,0,0,0-.13.54h0a4.909,4.909,0,0,0,0,.53v.1l-.77-.44v-.2Z" transform="translate(66.48 0)"/><path class="n" d="M31.07,64.67a4.8,4.8,0,0,0-2.17,3.76v.1L33.25,66v-.11C33.26,64.53,32.28,64,31.07,64.67Z" transform="translate(67.96 0)"/><path class="ar" d="M26.994,69.12a.41.41,0,0,1,0-.11v-.55a.52.52,0,0,1,0-.11v-.21h0v-.22a.49.49,0,0,1,0-.11s0-.07,0-.11v-.07h0a.54.54,0,0,1,.05-.11l.42-.16a.83.83,0,0,1,.07-.13s.05-.09.07-.14h0l.16-.26.13-.19h0l.09-.12a.76.76,0,0,0,.08-.11l.09-.09.08-.1h0l.06-.07.17-.15.09-.09.1-.09h.05l.1-.07.1-.07.09-.06h1.54l.17.08.77.45a1.07,1.07,0,0,0-.69-.14h0a2,2,0,0,0-.4.08h0a2.41,2.41,0,0,0-.44.2,3,3,0,0,0-.43.3h0a4.82,4.82,0,0,0-1.09,1.31h0a4.86,4.86,0,0,0-.46,1h0a4.54,4.54,0,0,0-.12.53h0a3.23,3.23,0,0,0,0,.53v.1l-.76-.44v-.2Z" transform="translate(71.646 0)"/><path class="n" d="M28.52,65.9a4.79,4.79,0,0,0-2.17,3.76v.1l4.35-2.51v-.1C30.7,65.76,29.73,65.2,28.52,65.9Z" transform="translate(73.06 0)"/><path class="ar" d="M24.923,70.42v-.1a.41.41,0,0,0,0-.11v-.1a.52.52,0,0,0,0-.11s0-.08,0-.12a.36.36,0,0,0,0-.11v-.32h0v-.23a.42.42,0,0,1,0-.1s0-.07,0-.11v-.07h0v-.11l.45-.16a.54.54,0,0,1,.07-.13.14.14,0,0,1,.07-.14h0l.17-.25.13-.2h0l.1-.12a.76.76,0,0,0,.08-.11l.09-.1.08-.09h0l.06-.06.09-.1.1-.08.1-.09h.05l.1-.07.1-.07.09-.06.09-.06h1.57l.17.08.77.44a1.19,1.19,0,0,0-.69-.14h0l-.4.09h0a1.89,1.89,0,0,0-.44.2,2.38,2.38,0,0,0-.43.3h0a4.85,4.85,0,0,0-1.09,1.31h0a4.65,4.65,0,0,0-.46,1h0a5.23,5.23,0,0,0-.12.54h0a3.23,3.23,0,0,0,0,.53v.1l-.77-.45v-.2Z" transform="translate(75.737 0)"/><path class="n" d="M26.5,67.21A4.77,4.77,0,0,0,24.33,71v.1l4.35-2.51v-.11C28.68,67.07,27.71,66.51,26.5,67.21Z" transform="translate(77.1 0)"/><g class="i" transform="translate(76.946 71.898)"><path d="M45.1,72.91c-1.64,1.26-1.41,3.24.51,4.4a6.19,6.19,0,0,0,6.46-.19c1.64-1.27,1.42-3.24-.51-4.4a6.17,6.17,0,0,0-6.46.19Z" transform="translate(-44.002 -71.899)"/></g><path class="at" d="M46.61,73.7c-1.29.75-1.3,2,0,2.7a5.15,5.15,0,0,0,4.65,0c1.29-.75,1.3-2,0-2.7a5.15,5.15,0,0,0-4.65,0Z" transform="translate(32.24 0)"/><path class="at" d="M54.02,72.01,52,75.79l-6.23-.33-1.86-3.45Z" transform="translate(32.18 0)"/><path class="k" d="M45.289,70.63c-2.05,1.18-2.06,3.1,0,4.28a8.14,8.14,0,0,0,7.38,0c2-1.18,2.06-3.1,0-4.28A8.13,8.13,0,0,0,45.289,70.63Z" transform="translate(32.171 0)"/><path class="t" d="M45.794,71c-1.74,1-1.76,2.63,0,3.64a6.92,6.92,0,0,0,6.28,0c1.74-1,1.75-2.63,0-3.63a7,7,0,0,0-6.28-.01Z" transform="translate(32.246 0)"/><path class="k" d="M46.324,71.63c-1.45.84-1.46,2.19,0,3a5.74,5.74,0,0,0,5.23,0c1.44-.84,1.46-2.19,0-3A5.8,5.8,0,0,0,46.324,71.63Z" transform="translate(32.236 0)"/><g class="i" transform="translate(65.116 65.421)"><path d="M56.931,66.43c-1.64,1.27-1.41,3.24.51,4.4a6.14,6.14,0,0,0,6.46-.19c1.64-1.27,1.41-3.23-.52-4.4a6.17,6.17,0,0,0-6.45.19Z" transform="translate(-55.837 -65.422)"/></g><path class="at" d="M58.454,67.23c-1.29.74-1.29,2,0,2.69a5.09,5.09,0,0,0,4.65,0c1.28-.74,1.29-2,0-2.69A5.12,5.12,0,0,0,58.454,67.23Z" transform="translate(8.556 0)"/><path class="at" d="M65.85,65.53l-2.02,3.79-6.23-.33-1.86-3.46Z" transform="translate(8.52 0)"/><path class="k" d="M57.09,64.15c-2,1.19-2.06,3.1,0,4.28a8.16,8.16,0,0,0,7.39,0c2-1.18,2.06-3.1,0-4.28A8.16,8.16,0,0,0,57.09,64.15Z" transform="translate(8.54 0)"/><path class="t" d="M57.634,64.47c-1.74,1-1.75,2.63,0,3.64a7,7,0,0,0,6.28,0c1.73-1,1.75-2.63,0-3.64a7,7,0,0,0-6.28,0Z" transform="translate(8.566 0)"/><path class="k" d="M58.164,65.16c-1.46.83-1.46,2.19,0,3a5.72,5.72,0,0,0,5.22,0c1.45-.83,1.46-2.19,0-3a5.72,5.72,0,0,0-5.22,0Z" transform="translate(8.566 0)"/><g class="i" transform="translate(54.666 59.248)"><path d="M67.38,60.26c-1.64,1.27-1.41,3.24.51,4.4a6.19,6.19,0,0,0,6.46-.19c1.64-1.27,1.41-3.24-.51-4.4A6.17,6.17,0,0,0,67.38,60.26Z" transform="translate(-66.286 -59.249)"/></g><path class="at" d="M68.909,61.05c-1.29.75-1.29,2,0,2.7a5.15,5.15,0,0,0,4.65,0,1.43,1.43,0,0,0,0-2.7A5.17,5.17,0,0,0,68.909,61.05Z" transform="translate(-12.349 0)"/><path class="at" d="M76.3,59.36l-2.02,3.79-6.23-.34-1.86-3.45Z" transform="translate(-12.38 0)"/><path class="k" d="M67.54,58c-2,1.18-2.06,3.1,0,4.28a8.16,8.16,0,0,0,7.39,0c2-1.18,2.06-3.1,0-4.28a8.16,8.16,0,0,0-7.39,0Z" transform="translate(-12.36 0)"/><path class="t" d="M68.084,58.3c-1.74,1-1.75,2.63,0,3.64a7,7,0,0,0,6.28,0c1.73-1,1.75-2.64,0-3.64a7,7,0,0,0-6.28,0Z" transform="translate(-12.334 0)"/><path class="k" d="M68.614,59c-1.46.84-1.46,2.19,0,3a5.72,5.72,0,0,0,5.22,0c1.45-.84,1.46-2.19,0-3A5.78,5.78,0,0,0,68.614,59Z" transform="translate(-12.334 0)"/><g class="i" transform="translate(44.409 38.724)"><path d="M69.007,40.4c-3.82,2.19-3.81,5.67,0,7.79a15.63,15.63,0,0,0,13.84-.13c3.81-2.18,3.8-5.66,0-7.78a15.63,15.63,0,0,0-13.84.12Z" transform="translate(-66.146 -38.724)"/></g><path class="j" d="M68.46,38.07c-3.58,2.17-3.59,5.66,0,7.83a13.68,13.68,0,0,0,12.9,0c3.57-2.16,3.6-5.66,0-7.82A13.7,13.7,0,0,0,68.46,38.07Z" transform="translate(-19.71 0)"/><path class="au" d="M66.289,34.4c-4.81,2.77-4.83,7.27-.06,10s12.52,2.77,17.33,0,4.83-7.27.07-10S71.079,31.63,66.289,34.4Z" transform="translate(-19.739 0)"/><path class="l" d="M66.585,34.33c-4.71,2.67-4.71,7.05-.06,9.74s12.13,2.68,16.79,0,4.69-7,.07-9.73S71.225,31.65,66.585,34.33Z" transform="translate(-19.765 0)"/><path class="av" d="M66.585,34.33c-4.71,2.67-4.71,7.05-.06,9.74s12.13,2.68,16.79,0,4.69-7,.07-9.73S71.225,31.65,66.585,34.33Z" transform="translate(-19.765 0)"/><path class="au" d="M69.034,36c-3.26,1.89-3.28,4.93,0,6.81a12.94,12.94,0,0,0,11.75,0c3.25-1.88,3.28-4.93,0-6.81a13,13,0,0,0-11.75,0Z" transform="translate(-19.704 0)"/><path class="aw" d="M74.541,38.49a11.91,11.91,0,0,0,.17-3c-.17-1.27,1.09-1.44-.59-2.72s-.76-1.24-1.91.33-1.87,3.13-2.31,3.7S70.911,40,74.541,38.49Z" transform="translate(-14.721 0)"/><path class="ax" d="M81.176,39.42s1.52-2.7,0-3.76-1.51-2.17-2.72-2.82-2.17-.59-3.55,1.29-2.18,2.66-2.42,3.71.89,3,3.55,2.71S79.546,40.76,81.176,39.42Z" transform="translate(-24.196 0)"/><path class="ay" d="M72.512,36.32c1.09,1.12,2,1.73.82,3.1s-1,2.13-2.82,2.21-3.35,1.53-4,0-1.89-.94-.89-2.43a6.51,6.51,0,0,1,4.43-2.41A9.64,9.64,0,0,0,72.512,36.32Z" transform="translate(-9.022 0)"/><path class="aw" d="M83.689,42.33s0-1.58-2-1.78-2.65-1-6-.53-4-.49-5.51.24-3,.79-1.39,1.72,3.9,2.67,7.79,2.25S85.019,45,83.689,42.33Z" transform="translate(-21.909 0)"/><path class="az" d="M78.221,40.57l-3.07-2.87S73.7,41.09,78.221,40.57Z" transform="translate(-23.041 0)"/><path class="az" d="M71.714,35.15l-2.94,3S72.134,39.68,71.714,35.15Z" transform="translate(-10.414 0)"/><path class="az" d="M70.825,39l-2.94,3S71.235,43.52,70.825,39Z" transform="translate(-8.635 0)"/><path class="az" d="M83.565,36.07l-2.94,3S83.975,40.59,83.565,36.07Z" transform="translate(-34.115 0)"/><path class="ba" d="M70.26,39.25c0,.25.29.45.64.45s.64-.2.64-.45-.29-.44-.64-.44S70.26,39,70.26,39.25Z" transform="translate(-11.69 0)"/><path class="ba" d="M80.83,40.13c0,.24.28.44.64.44s.64-.2.64-.44-.29-.44-.64-.44S80.83,39.88,80.83,40.13Z" transform="translate(-32.83 0)"/><path class="ba" d="M76.18,42c0,.25.29.45.64.45s.64-.2.64-.45-.29-.44-.64-.44S76.18,41.74,76.18,42Z" transform="translate(-23.53 0)"/><path class="ba" d="M75,35.84c0,.25.28.45.64.45s.64-.2.64-.45-.29-.44-.64-.44S75,35.6,75,35.84Z" transform="translate(-21.17 0)"/><path class="ab" d="M3.358,1.22c.093-.134.582-.81.8-.681,0,0,.14.454.413.227S3.888-.545,2.415.346c0,0-2.33.646-2.4,1.165s.111.734.3.687,0-.413,0-.413a2.289,2.289,0,0,1,1.369,0,1.747,1.747,0,0,1,.8-.582,1.357,1.357,0,0,1,.874.017Z" transform="translate(97.771 22.189) rotate(-149)"/></g></svg>