<svg xmlns="http://www.w3.org/2000/svg" width="148.138" height="42.333" viewBox="0 0 148.138 42.333"><defs><style>.a{fill:#5e310e;}.b{fill:#fff;}</style></defs><g transform="translate(0 0)"><path class="a" d="M3824.085,2582.693l4.826-35.984a2.536,2.536,0,0,1,2.455-2.2h9.229a2.514,2.514,0,0,1,2.54,2.37l.593,3.9.508-4.064a2.556,2.556,0,0,1,2.54-2.2h7.958a2.494,2.494,0,0,1,2.54,2.54h0a11.83,11.83,0,0,1,4.064-2.2,16.822,16.822,0,0,1,5.588-.846,15.671,15.671,0,0,1,5.5.846,9.767,9.767,0,0,1,3.9,2.54l.084-.677a2.555,2.555,0,0,1,2.54-2.2h8.213a2.465,2.465,0,0,1,2.37,1.693,2.547,2.547,0,0,1,2.371-1.693h8.213a2.613,2.613,0,0,1,.846.084,2.352,2.352,0,0,1,.763-.084h8.128a2.567,2.567,0,0,1,2.54,1.947,2.454,2.454,0,0,1,2.455-1.947h8.128a2.613,2.613,0,0,1,.847.084,2.348,2.348,0,0,1,.762-.084h9.144a2.516,2.516,0,0,1,2.541,2.37l.677,3.9.508-4.064a2.556,2.556,0,0,1,2.54-2.2h7.958a2.547,2.547,0,0,1,2.541,2.54h0a11.821,11.821,0,0,1,4.064-2.2,16.824,16.824,0,0,1,5.587-.846,15.992,15.992,0,0,1,5.5.846,8.589,8.589,0,0,1,4.148,2.879h0a9.146,9.146,0,0,1,2.117,4.572,18.618,18.618,0,0,1,0,5.758l-.169,1.693a2.7,2.7,0,0,1-1.186,1.778,2.365,2.365,0,0,1,.677,1.693,1.075,1.075,0,0,1-.084.508l-2.624,19.9a2.556,2.556,0,0,1-2.54,2.2h-7.535a2.69,2.69,0,0,1-1.694-.677l-.085.085a13.21,13.21,0,0,1-2.371.846,12.923,12.923,0,0,1-2.539.254,8.574,8.574,0,0,1-4.318-1.016,6.432,6.432,0,0,1-1.863-1.439,2.541,2.541,0,0,1-2.455,1.948h-8.89a2.568,2.568,0,0,1-2.541-2.286l-.846-4.91-.593,5a2.556,2.556,0,0,1-2.54,2.2h-7.959a2.547,2.547,0,0,1-2.54-2.54v-.17a12.183,12.183,0,0,1-4.233,2.371,16.5,16.5,0,0,1-5.589.847,15.5,15.5,0,0,1-5.419-.847,9.925,9.925,0,0,1-4.064-2.878l-.085,1.016a2.555,2.555,0,0,1-2.539,2.2h-8.128a2.61,2.61,0,0,1-2.457-1.694,2.577,2.577,0,0,1-2.369,1.694h-8.213a2.589,2.589,0,0,1-2.54-2.455,12.794,12.794,0,0,1-3.979,2.116,16.827,16.827,0,0,1-5.588.847,15.668,15.668,0,0,1-5.5-.847,9.531,9.531,0,0,1-3.979-2.709l-.085.846a2.556,2.556,0,0,1-2.54,2.2h-8.89a2.63,2.63,0,0,1-2.54-2.286l-.762-4.91-.677,5a2.557,2.557,0,0,1-2.54,2.2h-7.959a2.6,2.6,0,0,1-2.54-2.54C3824,2583.116,3824.085,2582.862,3824.085,2582.693Z" transform="translate(-3824 -2544)"/><path class="b" d="M3854,2610.745l4.826-36.237h9.229l2.286,14.647c.253,1.609.508,3.3.678,5.081.253,1.693.423,3.471.592,5.418,0-1.778,0-3.641.169-5.418.085-1.863.34-3.895.678-6.351l1.778-13.377h7.958l-4.826,36.237h-8.891l-2.624-15.579c-.254-1.693-.509-3.387-.677-5.08-.169-1.778-.339-3.556-.423-5.5-.169,2.71-.254,5.334-.508,7.7-.17,2.371-.424,4.657-.677,6.688l-1.609,11.769Zm36.577-26.923-2.372,17.61a3.869,3.869,0,0,0,.255,2.541,2.044,2.044,0,0,0,1.863.761,2.748,2.748,0,0,0,2.032-.761,5.518,5.518,0,0,0,.931-2.541l2.285-17.61a3.787,3.787,0,0,0-.253-2.541,1.85,1.85,0,0,0-1.779-.847,2.4,2.4,0,0,0-2.032.847A4.443,4.443,0,0,0,3890.577,2583.822Zm-8.468,1.354q.763-5.588,3.811-8.382a12.3,12.3,0,0,1,8.466-2.794c3.641,0,6.18.931,7.7,2.794,1.608,1.862,2.117,4.657,1.608,8.382l-1.947,14.9q-.762,5.588-3.81,8.382a12.306,12.306,0,0,1-8.467,2.794c-3.556,0-6.18-.931-7.7-2.794-1.609-1.862-2.117-4.741-1.609-8.382Zm19.474,25.569,4.825-36.237h8.213l-1.778,13.377h4.741l1.778-13.377h8.213l-4.826,36.237h-8.129l2.033-15.832h-4.742l-2.117,15.832Zm35.729-36.237-3.556,26.924a3.782,3.782,0,0,0,.254,2.541,1.977,1.977,0,0,0,1.778.761,2.43,2.43,0,0,0,1.948-.761,4.346,4.346,0,0,0,.931-2.541l3.642-26.924h8.128l-3.387,25.57c-.509,3.725-1.694,6.52-3.726,8.382a12.3,12.3,0,0,1-8.466,2.794c-3.471,0-6.012-.931-7.535-2.794s-2.032-4.741-1.524-8.382l3.385-25.57Zm9.906,36.237,4.825-36.237h9.145l2.286,14.647c.339,1.609.509,3.3.762,5.081.169,1.693.339,3.471.508,5.418,0-1.778.085-3.641.254-5.418.085-1.863.339-3.895.677-6.351l1.779-13.377h7.959l-4.826,36.237h-8.89l-2.624-15.579c-.255-1.693-.508-3.387-.678-5.08-.255-1.778-.339-3.556-.507-5.5-.085,2.71-.255,5.334-.424,7.7s-.423,4.657-.677,6.688l-1.609,11.769Zm38.693,0,.339-2.793a11.244,11.244,0,0,1-3.217,2.456,8.372,8.372,0,0,1-3.81.846,5.372,5.372,0,0,1-5.165-2.794q-1.4-2.921-.762-8.382l2.032-14.9q.762-5.588,3.81-8.382c2.032-1.863,4.911-2.794,8.467-2.794s6.18.931,7.7,2.794,2.033,4.657,1.609,8.382l-.254,1.694h-8.3l.423-3.048a3.774,3.774,0,0,0-.255-2.541,1.905,1.905,0,0,0-1.862-.847,2.238,2.238,0,0,0-1.947.847,3.92,3.92,0,0,0-.931,2.541l-2.371,17.61a3.861,3.861,0,0,0,.254,2.541,2.044,2.044,0,0,0,1.863.761,2.427,2.427,0,0,0,1.946-.761,4.71,4.71,0,0,0,.933-2.541l.593-4.064h-2.795l.847-6.688h11.091l-2.71,20.065Z" transform="translate(-3851.46 -2571.46)"/></g></svg>