<svg xmlns="http://www.w3.org/2000/svg" width="90" height="90.5" viewBox="0 0 90 90.5"><defs><style>.a{fill:#fcc647;}.b{fill:#fff;stroke:#fff;}</style></defs><g transform="translate(-771 -1058)"><circle class="a" cx="45" cy="45" r="45" transform="translate(771 1058)"/><g transform="translate(747.74 1089)"><g transform="translate(44.532)"><path class="b" d="M87.54,120.338H65.562a6.65,6.65,0,1,0-10.033,0H50.282a5.756,5.756,0,0,0-5.75,5.75v6.785a1.15,1.15,0,1,0,2.3,0v-6.785a3.454,3.454,0,0,1,3.45-3.45h32.2a3.454,3.454,0,0,1,3.45,3.45v6.21H73.971a5.75,5.75,0,1,0,0,11.5H85.93v6.21a3.454,3.454,0,0,1-3.45,3.45h-32.2a3.454,3.454,0,0,1-3.45-3.45v-6.794a1.15,1.15,0,0,0-2.3,0v6.794a5.756,5.756,0,0,0,5.75,5.75H87.54a5.756,5.756,0,0,0,5.75-5.75V126.088A5.756,5.756,0,0,0,87.54,120.338Zm-27-8.709a4.351,4.351,0,1,1-4.351,4.351A4.355,4.355,0,0,1,60.545,111.629Zm26.532,11.009h.463a3.454,3.454,0,0,1,3.45,3.45v6.21H88.23v-6.21A5.72,5.72,0,0,0,87.077,122.638ZM70.521,138.047a3.454,3.454,0,0,1,3.45-3.45H90.99v6.9H73.971A3.454,3.454,0,0,1,70.521,138.047ZM87.54,153.457h-.463a5.72,5.72,0,0,0,1.153-3.45V143.8h2.76v6.21A3.454,3.454,0,0,1,87.54,153.457Z" transform="translate(-44.532 -96.757)"/><path class="b" d="M289.122,349.062a1.15,1.15,0,1,0,.813.337A1.159,1.159,0,0,0,289.122,349.062Z" transform="translate(-259.977 -308.921)"/><path class="b" d="M278.1,35.3a6.65,6.65,0,1,0-6.65-6.65A6.658,6.658,0,0,0,278.1,35.3Zm0-11a4.351,4.351,0,1,1-4.351,4.351A4.355,4.355,0,0,1,278.1,24.3Z" transform="translate(-245.356 -19.467)"/><path class="b" d="M222.763,11.336a1.15,1.15,0,0,0,1.15-1.15V1.15a1.15,1.15,0,0,0-2.3,0v9.036A1.15,1.15,0,0,0,222.763,11.336Z" transform="translate(-201.249)"/><path class="b" d="M174.763,7.36a1.15,1.15,0,0,0,1.15-1.15V1.15a1.15,1.15,0,1,0-2.3,0V6.21A1.15,1.15,0,0,0,174.763,7.36Z" transform="translate(-158.769)"/><path class="b" d="M45.682,351.362a1.15,1.15,0,1,0-.813-.337,1.159,1.159,0,0,0,.813.337Z" transform="translate(-44.532 -308.921)"/></g></g></g></svg>