<svg xmlns="http://www.w3.org/2000/svg" width="90.293" height="90" viewBox="0 0 90.293 90"><defs><style>.a{fill:#fcc647;}.b{fill:#fff;}</style></defs><g transform="translate(-1200.707 -1058)"><circle class="a" cx="45" cy="45" r="45" transform="translate(1201 1058)"/><g transform="translate(1200.707 1007.532)"><g transform="translate(0 98.253)"><path class="b" d="M42.283,184.151h3.34a1.69,1.69,0,1,0,0-3.38h-3.34a1.69,1.69,0,1,0,0,3.38Z" transform="translate(-33.732 -180.771)"/><path class="b" d="M4.9,232.881a1.69,1.69,0,1,0,0-3.38H1.69a1.69,1.69,0,1,0,0,3.38Z" transform="translate(0 -221.264)"/></g><g transform="translate(66.533 88.847)"><path class="b" d="M399.943,137.753a6.314,6.314,0,1,1,6.314-6.314A6.321,6.321,0,0,1,399.943,137.753Zm0-9.248a2.933,2.933,0,1,0,2.933,2.933A2.937,2.937,0,0,0,399.943,128.505Z" transform="translate(-393.629 -125.125)"/></g><g transform="translate(1.351 81.468)"><path class="b" d="M190.421,191.827a25.493,25.493,0,0,0-18.489,7.987,1.69,1.69,0,0,0,2.461,2.317,21.8,21.8,0,0,1,16.028-6.924,1.69,1.69,0,1,0,0-3.38Z" transform="translate(-143.841 -173.174)"/><path class="b" d="M162.791,363.5h-.01a1.695,1.695,0,1,0,.01,0Z" transform="translate(-135.218 -315.831)"/><path class="b" d="M393.579,363.5h0a1.69,1.69,0,1,0,1.695,1.69A1.688,1.688,0,0,0,393.574,363.5Z" transform="translate(-326.999 -315.831)"/><path class="b" d="M87.06,123.806h-.054a32.19,32.19,0,0,0-2.466-10.847s1.671-2.056,2.015-2.506c3.443-4.519,6.7-8.787,6.627-15.3a13.691,13.691,0,0,0-27.381-.14,32.011,32.011,0,0,0-4.394-1.273,7.116,7.116,0,1,0-13.667.007,32.306,32.306,0,0,0-10.822,4.507H27.6a1.69,1.69,0,1,0,0,3.38h4.973a32.759,32.759,0,0,0-4.313,4.856H19.228a1.69,1.69,0,0,0,0,3.38h6.886a32.338,32.338,0,0,0-2.176,4.856H9.684a1.69,1.69,0,0,0,0,3.38H22.949a32.371,32.371,0,0,0-.809,5.779,5.532,5.532,0,0,0,.931,10.986h3.744a9.634,9.634,0,0,0,17.494,0h3.169a1.69,1.69,0,1,0,0-3.38h-2.3c.015-.219.025-.439.025-.662a9.585,9.585,0,0,0-.717-3.643H65.652a9.586,9.586,0,0,0-.717,3.643c0,.223.01.443.025.662h-2.3a1.69,1.69,0,1,0,0,3.38h3.169a9.634,9.634,0,0,0,17.494,0H87.06a5.533,5.533,0,0,0,0-11.066ZM69.177,95.161a10.312,10.312,0,1,1,20.624,0v.019c.059,5.357-2.719,9-5.936,13.224q-.505.663-1.017,1.341l-2.6,3.006a.833.833,0,0,1-1.526,0l-2.6-3.009q-.51-.679-1.017-1.341c-3.217-4.221-5.995-7.867-5.936-13.224C69.177,95.173,69.177,95.167,69.177,95.161Zm-14.6-7.15a3.737,3.737,0,0,1,3.44,5.189,33.069,33.069,0,0,0-3.44-.18,32.651,32.651,0,0,0-3.444.183,3.737,3.737,0,0,1,3.444-5.192Zm-28.626,43.48H23.071a2.153,2.153,0,0,1,0-4.305H26.64a9.586,9.586,0,0,0-.717,3.643C25.923,131.052,25.934,131.272,25.949,131.491Zm9.614,5.6a6.259,6.259,0,1,1,6.259-6.259A6.266,6.266,0,0,1,35.562,137.088Zm39.011,0a6.259,6.259,0,1,1,6.259-6.259A6.266,6.266,0,0,1,74.574,137.088Zm6.592-13.282a9.613,9.613,0,0,0-13.184,0H42.154a9.613,9.613,0,0,0-13.184,0h-3.44A29.131,29.131,0,0,1,54.574,96.4a28.833,28.833,0,0,1,11.552,2.383c.9,4.585,3.539,8.047,6.3,11.669.343.451,3.747,4.512,3.747,4.512a4.431,4.431,0,0,0,3.318,1.666,4.115,4.115,0,0,0,2.5-.9,28.841,28.841,0,0,1,1.628,8.071H81.166Zm5.894,7.686H84.187c.015-.219.025-.439.025-.662a9.585,9.585,0,0,0-.717-3.643H87.06a2.153,2.153,0,0,1,0,4.305Z" transform="translate(-7.994 -81.468)"/><path class="b" d="M278.189,377.421a1.69,1.69,0,1,0,0,3.38h0a1.69,1.69,0,1,0,0-3.38Z" transform="translate(-231.115 -327.398)"/></g></g></g></svg>