<svg xmlns="http://www.w3.org/2000/svg" width="45.333" height="45.333" viewBox="0 0 45.333 45.333"><defs><style>.a{fill:#2f3443;}</style></defs><g transform="translate(0 24.083)"><path class="a" d="M9.063,278.641H1.328A1.329,1.329,0,0,1,0,277.313v-3.984A1.329,1.329,0,0,1,1.328,272H2.423Z" transform="translate(0 -272)"/><path class="a" d="M418.7,273.328v3.984a1.329,1.329,0,0,1-1.328,1.328H409.64L416.281,272h1.094A1.329,1.329,0,0,1,418.7,273.328Z" transform="translate(-373.37 -272)"/></g><g transform="translate(3.351 33.38)"><path class="a" d="M76.481,377l-2.13,8.771a3.991,3.991,0,0,1-3.9,3.182H43.884a3.991,3.991,0,0,1-3.9-3.182L37.85,377h8.368l8.13,8.13a3.982,3.982,0,0,0,5.635,0l8.13-8.13Z" transform="translate(-37.85 -377)"/></g><path class="a" d="M102.757,272,87.208,287.549a1.329,1.329,0,0,1-1.879,0L69.78,272Z" transform="translate(-63.602 -247.917)"/><g transform="translate(2.745)"><path class="a" d="M70.844,19.922v1.505H68.188V19.922a17.266,17.266,0,0,0-34.531,0v1.505H31V19.922a19.922,19.922,0,1,1,39.844,0Z" transform="translate(-31)"/></g></svg>