<svg xmlns="http://www.w3.org/2000/svg" width="155.999" height="159.545" viewBox="0 0 155.999 159.545"><defs><style>.a{fill:#94d4ff;}.b{fill:#3256c1;}.c{fill:#fcc647;}.d{fill:#fff;}.e{fill:#07cc66;}.f{fill:#d0dce7;}</style></defs><g transform="translate(-31.93 -25.5)"><g transform="translate(31.93 25.5)"><path class="a" d="M455.475,115.5a3.545,3.545,0,1,1-3.545,3.545A3.547,3.547,0,0,1,455.475,115.5Z" transform="translate(-303.022 -83.591)"/><path class="a" d="M455.475,375.5a3.545,3.545,0,1,1-3.545,3.545A3.547,3.547,0,0,1,455.475,375.5Z" transform="translate(-303.022 -251.41)"/><path class="b" d="M399.021,435.5a7.091,7.091,0,1,1-7.091,7.091A7.089,7.089,0,0,1,399.021,435.5Z" transform="translate(-264.294 -290.137)"/><path class="a" d="M385.475,25.5a3.545,3.545,0,1,1-3.545,3.545A3.547,3.547,0,0,1,385.475,25.5Z" transform="translate(-257.84 -25.5)"/><path class="c" d="M122.839,55.5a70.909,70.909,0,1,0,70.909,70.909A70.907,70.907,0,0,0,122.839,55.5Z" transform="translate(-44.839 -44.864)"/><path class="d" d="M155.112,211.863a53.182,53.182,0,1,1,53.182-53.182A53.183,53.183,0,0,1,155.112,211.863Z" transform="translate(-77.112 -77.136)"/><path class="e" d="M226.654,204.438a7.089,7.089,0,0,1,0,10.026l-25.07,25.073-10.026,10.027-10.03-10.027-7.52-7.523a7.09,7.09,0,1,1,10.027-10.027l7.523,7.52,25.07-25.069a7.087,7.087,0,0,1,10.026,0Z" transform="translate(-122.294 -139.655)"/><path class="a" d="M95.475,455.5a3.545,3.545,0,1,1-3.545,3.545A3.547,3.547,0,0,1,95.475,455.5Z" transform="translate(-70.657 -303.046)"/><path class="b" d="M60.794,45.5a8.864,8.864,0,1,1-8.864,8.864A8.862,8.862,0,0,1,60.794,45.5Z" transform="translate(-44.839 -38.409)"/><path class="a" d="M35.475,125.5a3.545,3.545,0,1,1-3.545,3.545A3.547,3.547,0,0,1,35.475,125.5Z" transform="translate(-31.93 -90.046)"/><path class="a" d="M35.475,375.5a3.545,3.545,0,1,1-3.545,3.545A3.547,3.547,0,0,1,35.475,375.5Z" transform="translate(-31.93 -251.41)"/><g transform="translate(35.454 28.364)"><path class="f" d="M288.021,249.045a3.545,3.545,0,1,0-7.091,0A35.494,35.494,0,0,1,245.475,284.5a3.546,3.546,0,0,0-3.545,3.545v14.061c1.172.077,2.354.121,3.545.121s2.373-.043,3.545-.121V291.444A42.6,42.6,0,0,0,288.021,249.045Z" transform="translate(-202.93 -195.864)"/><path class="f" d="M131.93,158.682a3.545,3.545,0,0,0,7.091,0,35.494,35.494,0,0,1,35.454-35.454,3.546,3.546,0,0,0,3.545-3.545V105.621c-1.172-.077-2.354-.121-3.545-.121s-2.373.043-3.545.121v10.662A42.6,42.6,0,0,0,131.93,158.682Z" transform="translate(-131.93 -105.5)"/></g></g></g></svg>