<svg xmlns="http://www.w3.org/2000/svg" width="140" height="140" viewBox="0 0 140 140"><defs><style>.a,.h{fill:#fff;}.a{stroke:#cfcfcf;}.b{fill:#eba58e;}.c{fill:#dd8c76;}.d{fill:#5297f4;}.e{fill:#3985d8;}.f{fill:#5dabff;}.g,.t{fill:#422c4f;}.i{fill:#ffc400;}.j{fill:#fff700;}.k{fill:#495375;}.l{fill:#c7d2d7;}.m{fill:#99a3b0;}.n{fill:#ffe600;}.o{fill:#fffdb7;}.p{fill:#a34262;}.q{fill:#454f6b;}.r{fill:#f2c9ad;}.s{fill:#81d3cf;}.t{opacity:0.3;}.u{fill:#6bc5ff;}.v{stroke:none;}.w{fill:none;}</style></defs><g transform="translate(-915 -450)"><g class="a" transform="translate(915 450)"><rect class="v" width="140" height="140" rx="14"/><rect class="w" x="0.5" y="0.5" width="139" height="139" rx="13.5"/></g><g transform="translate(896.079 471.159)"><g transform="translate(74.278 32.117)"><g transform="translate(5.466 0)"><path class="b" d="M245.09,220.05h3.975a1.339,1.339,0,0,1,1.339,1.339v2.485a1.339,1.339,0,0,1-1.339,1.339h-3.217v-.988h0a3.659,3.659,0,0,1-2.586-1.07l-.483-.483Z" transform="translate(-214.033 -201.826)"/><path class="b" d="M273.948,211.448l-2.311,2.619-9.927-2.308,1.373-3.669Z" transform="translate(-242.89 -193.223)"/><path class="c" d="M299.493,208.09l.486.149.157,3.989-2.016-.469Z" transform="translate(-279.3 -193.223)"/><path class="d" d="M310.732,155.8h0a3.117,3.117,0,0,1,4.281.415l10.295,11.943,1.861.626-1.729,4.624-.977-.211a7.88,7.88,0,0,1-4.043-2.271L310.4,160.395A3.113,3.113,0,0,1,310.732,155.8Z" transform="translate(-309.54 -155.135)"/><path class="e" d="M299.408,206.513l.056-.146,1.729-4.624.171-.458a.507.507,0,0,1,.651-.3l1.7.637a.507.507,0,0,1,.3.651l-.138.371-1.617,4.323-.2.533a.507.507,0,0,1-.651.3l-1.7-.637A.5.5,0,0,1,299.408,206.513Z" transform="translate(-283.564 -188.092)"/><path class="f" d="M313.389,156.714a3.136,3.136,0,0,0-3.849-.721c.07-.067.143-.132.222-.194h0a3.117,3.117,0,0,1,4.281.415l10.295,11.943,1.861.626-.278.741-2.089-.7Z" transform="translate(-308.57 -155.135)"/></g><g transform="translate(0 25.513)"><path class="g" d="M273.858,246.01l21.457,5.71a5.771,5.771,0,0,1,3.464,8.546l-12.507,20.856-6.965-3.091L289.315,259l-20.382-4.259a6.681,6.681,0,0,1-4.944-8.731h9.868Z" transform="translate(-263.617 -246.01)"/><g transform="translate(13.166 32.653)"><path class="b" d="M317.612,363.112l.522-.792,3.958,1.755-.932,1.7-4.41-1.238C317.022,364.052,317.306,363.575,317.612,363.112Z" transform="translate(-314.187 -362.32)"/><path class="h" d="M323.159,372.2l.368.938-.491-.345a1.149,1.149,0,0,0-.665-.211h-2.31a22.024,22.024,0,0,1,1.151-2.375l4.41,1.238-.267.486h-2.01A.2.2,0,0,0,323.159,372.2Z" transform="translate(-318.645 -367.995)"/><path class="g" d="M304.409,380.659H295.06l.171-.66a22.407,22.407,0,0,1,1.008-3h2.311a1.149,1.149,0,0,1,.665.211l.491.345-.368-.938a.2.2,0,0,1,.185-.269h2.01l1.485,1.4a3.633,3.633,0,0,0,2.485.985h1.013a2.623,2.623,0,0,1,2.3,1.37l-1.929.343A14.437,14.437,0,0,1,304.409,380.659Z" transform="translate(-294.824 -372.411)"/><path class="h" d="M303.515,390.262a14.132,14.132,0,0,0,2.479-.219l1.929-.343a2.648,2.648,0,0,1,.32,1.159l-2.945.267c-.466.042-.932.065-1.4.065H293.93l.239-.929Z" transform="translate(-293.93 -382.013)"/><path class="g" d="M317.531,362.33l3.956,1.755-.427.778-4.309-1.345Z" transform="translate(-313.58 -362.327)"/></g></g></g><g transform="translate(117.624 55.709)"><path class="i" d="M220.6,239.17h1.013l2.608,9.222a29.123,29.123,0,0,1-2.294,21.558l-1.272.48Z" transform="translate(-220.6 -239.17)"/><path class="j" d="M198.978,248.392l-2.608-9.222h.949l5.351,19.863a4.1,4.1,0,0,0,3.956,3.032.252.252,0,0,1,.253.253v3.79l-10.2,3.843A29.109,29.109,0,0,0,198.978,248.392Z" transform="translate(-195.357 -239.17)"/></g><g transform="translate(115.6 88.351)"><circle class="g" cx="14.245" cy="14.245" r="14.245"/><circle class="k" cx="10.258" cy="10.258" r="10.258" transform="translate(3.987 3.987)"/><ellipse class="l" cx="8.375" cy="8.375" rx="8.375" ry="8.375" transform="translate(5.87 5.87)"/><path class="m" d="M186.855,376.35a8.33,8.33,0,0,1,4.323,1.2,7.478,7.478,0,0,0-1.819-.227,7.4,7.4,0,1,0,1.819,14.573,8.375,8.375,0,1,1-4.323-15.547Z" transform="translate(-172.61 -370.48)"/><ellipse class="m" cx="3.695" cy="3.695" rx="3.695" ry="3.695" transform="translate(10.55 10.55)"/><circle class="n" cx="2.501" cy="2.501" r="2.501" transform="translate(14.246 17.782) rotate(-135)"/></g><g transform="translate(42.424 88.351)"><circle class="g" cx="14.245" cy="14.245" r="14.245"/><circle class="k" cx="10.258" cy="10.258" r="10.258" transform="translate(3.987 3.987)"/><ellipse class="l" cx="8.375" cy="8.375" rx="8.375" ry="8.375" transform="translate(5.87 5.87)"/><path class="m" d="M447.5,376.35a8.33,8.33,0,0,1,4.323,1.2,7.478,7.478,0,0,0-1.819-.227,7.4,7.4,0,1,0,1.819,14.573A8.375,8.375,0,1,1,447.5,376.35Z" transform="translate(-433.26 -370.48)"/><ellipse class="m" cx="3.695" cy="3.695" rx="3.695" ry="3.695" transform="translate(10.55 10.55)"/><circle class="n" cx="2.501" cy="2.501" r="2.501" transform="translate(14.247 17.782) rotate(-135)"/></g><g transform="translate(112.242 82.641)"><g transform="translate(0.691)"><path class="i" d="M178.987,336.187a16.828,16.828,0,0,0-15.564,12.443l-.317,1.151-.345.168.663-2.4a16.828,16.828,0,0,1,15.564-12.443c.188-.006.379-.008.57-.008a17.638,17.638,0,0,1,8.852,2.361l-.486.809a17.645,17.645,0,0,0-8.366-2.091C179.366,336.178,179.175,336.181,178.987,336.187Z" transform="translate(-162.76 -335.1)"/><path class="n" d="M179.042,345.394,164.5,352.542l.317-1.151a16.828,16.828,0,0,1,15.564-12.442c.188-.006.379-.008.57-.008a17.644,17.644,0,0,1,8.366,2.092l-2.611,4.363Z" transform="translate(-164.157 -337.862)"/></g><path class="n" d="M145.62,356.222h6.8a11.521,11.521,0,0,0,8.147-3.375h0a11.522,11.522,0,0,1,8.147-3.375h8.06l-2.549-2.549a15.718,15.718,0,0,0-11.115-4.6h0a15.723,15.723,0,0,0-13.257,7.268Z" transform="translate(-145.62 -340.293)"/></g><path class="j" d="M307.91,239.17l2.608,9.222a29.115,29.115,0,0,1-2.552,22.038l-1.3,2.35a20.915,20.915,0,0,1-18.29,10.775H224.206l2.3-8.344a33.845,33.845,0,0,1,14.82-19.792l4.155-2.572h35.7v1.558a2.407,2.407,0,0,1-1.642,2.285h0a10.47,10.47,0,0,0-7.049,8.652h0a10.473,10.473,0,0,0,10.4,11.743H288.1a14.616,14.616,0,0,0,12.341-6.783l2.42-3.81a19,19,0,0,0,2.544-14.152L302.6,239.17Z" transform="translate(-190.285 -183.461)"/><path class="g" d="M322.35,276.159h38.582V271.58H330.169a7.943,7.943,0,0,0-5.682,2.395Z" transform="translate(-267.155 -206.772)"/><g transform="translate(76.995 56.484)"><path class="o" d="M233.72,286.171h17.322a21.548,21.548,0,0,0,18.843-11.1l1.3-2.35a29.565,29.565,0,0,0,2.608-22.516,9.659,9.659,0,0,1,.882-7.333.632.632,0,1,0-1.1-.623,10.928,10.928,0,0,0-1,8.3,28.312,28.312,0,0,1-2.5,21.558l-1.3,2.35a20.284,20.284,0,0,1-17.737,10.449H233.723a.634.634,0,0,0-.634.635A.627.627,0,0,0,233.72,286.171Z" transform="translate(-233.088 -241.929)"/></g><path class="i" d="M421.809,388.44H382.12l.606.606a5.177,5.177,0,0,0,3.661,1.516h31.241a5.176,5.176,0,0,0,4.18-2.122Z" transform="translate(-344.811 -290.824)"/><g transform="translate(51.08 86.967)"><ellipse class="m" cx="8.585" cy="8.585" rx="8.585" ry="8.585"/><g transform="translate(1.982 1.982)"><path class="k" d="M426.943,370.776a6.6,6.6,0,1,0-6.6-6.6A6.61,6.61,0,0,0,426.943,370.776Zm0-12.5a5.9,5.9,0,1,1-5.9,5.9A5.908,5.908,0,0,1,426.943,358.272Z" transform="translate(-420.34 -357.57)"/></g><g transform="translate(3.947 4.02)"><g transform="translate(0 4.214)"><path class="k" d="M427.691,380.542h8.574a.351.351,0,1,0,0-.7h-8.574a.351.351,0,1,0,0,.7Z" transform="translate(-427.34 -379.84)"/></g><g transform="translate(0.738 2.81)"><path class="k" d="M430.311,375.542h7.1a.351.351,0,0,0,0-.7h-7.1a.351.351,0,0,0,0,.7Z" transform="translate(-429.96 -374.84)"/></g><g transform="translate(1.729 1.404)"><path class="k" d="M433.851,370.532h5.115a.351.351,0,1,0,0-.7h-5.115a.351.351,0,1,0,0,.7Z" transform="translate(-433.5 -369.83)"/></g><g transform="translate(2.911)"><path class="k" d="M438.041,365.532H440.8a.351.351,0,1,0,0-.7h-2.757a.351.351,0,0,0-.351.351A.347.347,0,0,0,438.041,365.532Z" transform="translate(-437.69 -364.83)"/></g><g transform="translate(0.738 5.62)"><path class="k" d="M430.311,385.552h7.1a.351.351,0,0,0,0-.7h-7.1a.351.351,0,0,0,0,.7Z" transform="translate(-429.96 -384.85)"/></g><g transform="translate(1.729 7.024)"><path class="k" d="M433.851,390.552h5.115a.351.351,0,1,0,0-.7h-5.115a.351.351,0,1,0,0,.7Z" transform="translate(-433.5 -389.85)"/></g><g transform="translate(2.911 8.428)"><path class="k" d="M438.041,395.552H440.8a.351.351,0,1,0,0-.7h-2.757a.351.351,0,0,0-.351.351A.347.347,0,0,0,438.041,395.552Z" transform="translate(-437.69 -394.85)"/></g></g></g><g transform="translate(37.307 73.163)"><path class="n" d="M382.4,305.136h0a26.1,26.1,0,0,1,13.551-3.8h1.6a15.045,15.045,0,0,1,15.039,14.8,14.722,14.722,0,0,1-3.6,9.649H369.31l1.522-5.413A26.126,26.126,0,0,1,382.4,305.136Z" transform="translate(-369.31 -301.34)"/><path class="j" d="M399.525,327.439h0a19.117,19.117,0,0,1,9.924-2.779h1.174A11.018,11.018,0,0,1,421.636,335.5,10.781,10.781,0,0,1,419,342.566H389.94l1.115-3.964A19.088,19.088,0,0,1,399.525,327.439Z" transform="translate(-384.14 -318.113)"/></g><g transform="translate(52.13 88.654)"><g transform="translate(0 6.016)"><path class="k" d="M420.789,378.708H434.15a.379.379,0,1,0,0-.758H420.789a.379.379,0,1,0,0,.758Z" transform="translate(-420.41 -377.95)"/></g><g transform="translate(0.41 4.512)"><path class="k" d="M419.332,373.348h13.358a.379.379,0,1,0,0-.758h-13.36a.379.379,0,1,0,0,.758Z" transform="translate(-418.95 -372.59)"/></g><g transform="translate(0.823 3.007)"><path class="k" d="M417.859,367.988H431.22a.379.379,0,0,0,0-.758H417.859a.379.379,0,1,0,0,.758Z" transform="translate(-417.48 -367.23)"/></g><g transform="translate(1.235 1.505)"><path class="k" d="M416.389,362.638H429.75a.379.379,0,1,0,0-.758H416.389a.379.379,0,0,0,0,.758Z" transform="translate(-416.01 -361.88)"/></g><g transform="translate(1.645)"><path class="k" d="M414.929,357.278H428.29a.379.379,0,1,0,0-.758H414.929a.379.379,0,0,0,0,.758Z" transform="translate(-414.55 -356.52)"/></g></g><path class="p" d="M368.326,287.89h-35.7a4.216,4.216,0,0,0,2.979,1.235h29.413a5.057,5.057,0,0,0,3.3-1.235Z" transform="translate(-277.434 -218.503)"/><path class="j" d="M219.026,221.706h10.637V214.89h-2.311a13.588,13.588,0,0,0-5.736,1.272l-1.71.8a2.5,2.5,0,0,0-1.364,2.909Z" transform="translate(-106.719 -165.997)"/><g transform="translate(122.944 48.893)"><rect class="n" width="1.117" height="6.816" transform="translate(0)"/><rect class="h" width="0.57" height="6.816" transform="translate(1.117)"/></g><path class="i" d="M242.147,239.17H236.83l.124.576h5.357Z" transform="translate(-124.523 -183.461)"/><g transform="translate(69.485 10.841)"><g transform="translate(1.629 46.789)"><path class="q" d="M288.89,246.01l17.895,5.348a6.332,6.332,0,0,1,3.616,9.323l-12.26,20.441-6.965-3.091L301.184,259,280.8,254.741a6.681,6.681,0,0,1-4.944-8.731H288.89Z" transform="translate(-275.486 -246.01)"/><g transform="translate(13.169 32.653)"><path class="r" d="M328.872,363.112l.522-.792,3.958,1.755-.932,1.7-4.41-1.238C328.279,364.052,328.566,363.575,328.872,363.112Z" transform="translate(-325.447 -362.32)"/><path class="h" d="M334.419,372.2l.368.938-.491-.345a1.148,1.148,0,0,0-.665-.211h-2.31a22.047,22.047,0,0,1,1.151-2.375l4.41,1.238-.267.486H334.6A.2.2,0,0,0,334.419,372.2Z" transform="translate(-329.905 -367.995)"/><path class="g" d="M315.669,380.659H306.32l.171-.66a22.394,22.394,0,0,1,1.008-3h2.31a1.149,1.149,0,0,1,.665.211l.491.345-.368-.938a.2.2,0,0,1,.185-.269h2.01l1.485,1.4a3.633,3.633,0,0,0,2.485.985h1.013a2.623,2.623,0,0,1,2.3,1.37l-1.929.343A14.463,14.463,0,0,1,315.669,380.659Z" transform="translate(-306.084 -372.411)"/><path class="h" d="M314.774,390.262a14.132,14.132,0,0,0,2.479-.219l1.929-.343a2.649,2.649,0,0,1,.32,1.159l-2.945.267c-.466.042-.932.065-1.4.065H305.19l.239-.929Z" transform="translate(-305.19 -382.013)"/><path class="g" d="M328.788,362.33l3.958,1.755-.427.778-4.309-1.345Z" transform="translate(-324.84 -362.327)"/></g></g><g transform="translate(9.722 0)"><path class="r" d="M326.64,120.8l.542-3.074a2.155,2.155,0,0,1,2.12-1.78h3.083l-.275,1.46a7.887,7.887,0,0,0,.056,3.192l.135.6a.405.405,0,0,1-.393.494h-.623a4.28,4.28,0,0,1-6.729,2.24l-3.824-2.937,2.03,1.418A2.49,2.49,0,0,0,326.64,120.8Z" transform="translate(-317.358 -105.675)"/><path class="b" d="M331.873,112.21l-.2,1.053h-3.082a2.151,2.151,0,0,0-2.12,1.78l-.542,3.074a2.492,2.492,0,0,1-3.88,1.611l-2.03-1.418h0v-6.1h11.853Z" transform="translate(-316.648 -102.985)"/><g transform="translate(0.693 15.323)"><path class="g" d="M348.62,133.93l3.824,2.937-.508,1.46Z" transform="translate(-345.942 -133.93)"/><path class="r" d="M350.43,137.987l2.678-4.057,3.316,4.4-.868,2.49Z" transform="translate(-350.43 -133.93)"/></g><path class="g" d="M326.428,123.1c-.059.351.048.663.239.693s.39-.227.449-.581-.048-.663-.239-.693S326.487,122.751,326.428,123.1Z" transform="translate(-313.702 -110.401)"/><g transform="translate(12.255 10.793)"><path class="g" d="M325.589,118.468a.907.907,0,0,0-.974.045c-.3.2-.573-.281-.278-.477a1.463,1.463,0,0,1,1.533-.045c.309.174.031.651-.281.477Z" transform="translate(-324.211 -117.796)"/></g><g transform="translate(6.356 13.551)"><path class="h" d="M325.843,128.92l-.618.213a4.71,4.71,0,0,1-2.8.084l-1.541-.435.362-.722,1.179.328a4.732,4.732,0,0,0,2.8-.084l.618-.213a10.8,10.8,0,0,1,1.676-.432l.222-.039.2.8-.424.065A10.8,10.8,0,0,0,325.843,128.92Z" transform="translate(-319.316 -127.62)"/><path class="s" d="M321.957,130.839l1.541.435a4.732,4.732,0,0,0,2.8-.084l.618-.213a10.8,10.8,0,0,1,1.676-.432l.424-.065.067.264a2.384,2.384,0,0,1-.07,1.387l-.345.955a4.446,4.446,0,0,1-3.933,2.923h0a4.445,4.445,0,0,1-3.057-1l-1.286-1.05Z" transform="translate(-320.396 -129.677)"/><path class="t" d="M343.413,129.5l-.143.82a2.486,2.486,0,0,1-2.6,2.052l1.6-3.192Z" transform="translate(-340.342 -128.742)"/></g><path class="q" d="M347,135.28l1.168,3.327a.157.157,0,0,1-.168.208h0a2.794,2.794,0,0,1-2.086-1.376l-1.482-2.569Z" transform="translate(-339.8 -119.283)"/><path class="j" d="M322.445,90.26l-.643,3.647a1.014,1.014,0,0,1-1.35.775l-6.342-2.347v-4.54a8.446,8.446,0,0,1,8.445-8.445h0a8.441,8.441,0,0,1,8.436,8.189h-5.3A3.294,3.294,0,0,0,322.445,90.26Z" transform="translate(-314.107 -79.35)"/><g transform="translate(2.065 1.392)"><g transform="translate(0)"><path class="h" d="M341.238,89.773a1.137,1.137,0,0,0,1.011-.612,4.765,4.765,0,0,1,4.234-2.572,1.14,1.14,0,1,0,0-2.28,7.034,7.034,0,0,0-6.252,3.8,1.139,1.139,0,0,0,.483,1.538A1.125,1.125,0,0,0,341.238,89.773Z" transform="translate(-340.1 -84.31)"/></g><g transform="translate(8.686 1.094)"><path class="h" d="M328.861,90.519a1.139,1.139,0,0,0,.674-2.058l-.053-.039a1.14,1.14,0,0,0-1.328,1.853l.036.025A1.128,1.128,0,0,0,328.861,90.519Z" transform="translate(-327.678 -88.208)"/></g></g><path class="p" d="M320.425,115.662a1.014,1.014,0,0,0,1.35-.775l.643-3.647a3.294,3.294,0,0,1,3.243-2.72h5.306c0,.084.006.168.006.255v.78h-5.031a2.53,2.53,0,0,0-2.493,2.092l-.64,3.619a2.026,2.026,0,0,1-2.81,1.5l-5.312-2.33a1.014,1.014,0,0,1-.606-.926v-.2Z" transform="translate(-314.08 -100.331)"/></g><g transform="translate(0 17.833)"><g transform="translate(0 1.318)"><path class="n" d="M363.775,173.256l-1.553-6.791,2.229-12.212a3.439,3.439,0,0,0-1.721-3.63l-5.124-2.83a1.835,1.835,0,0,0-2.083.213h0a21.316,21.316,0,0,0-7.361,14.281l-.966,10.73a2.007,2.007,0,0,0,2,2.187h13.029A1.6,1.6,0,0,0,363.775,173.256Z" transform="translate(-347.189 -147.564)"/><path class="j" d="M351.888,166.46l-.042.166a7.347,7.347,0,0,0,1.081,6.042l5.138,7.389,1.044-5.724Z" transform="translate(-343.03 -161.155)"/></g><g transform="translate(9.587)"><g transform="translate(5.955 2.998)"><path class="f" d="M347.28,153.55l1.407.727L347.28,155.8l-.48-.867Z" transform="translate(-346.8 -153.55)"/><path class="d" d="M346.791,156.14l.32,2.6-1.451-1.376Z" transform="translate(-344.905 -155.413)"/></g><path class="u" d="M350.43,144.187l1.494-1.317,5.328,2.914-.73,3.08Z" transform="translate(-350.43 -142.87)"/></g></g><g transform="translate(8.615 22.545)"><path class="r" d="M250.94,224.57h3.975a1.339,1.339,0,0,1,1.339,1.339v2.485a1.339,1.339,0,0,1-1.339,1.339H251.7v-.988h0a3.659,3.659,0,0,1-2.586-1.07l-.483-.483Z" transform="translate(-219.881 -206.346)"/><path class="r" d="M279.8,215.968l-2.313,2.622-9.924-2.308,1.373-3.672Z" transform="translate(-248.738 -197.743)"/><path class="b" d="M305.343,212.61l.486.149.157,3.992-2.016-.469Z" transform="translate(-285.148 -197.743)"/><path class="f" d="M316.591,160.329h0a3.117,3.117,0,0,1,4.281.415l10.295,11.943,1.861.626-1.729,4.624-.977-.211a7.881,7.881,0,0,1-4.043-2.271l-10.022-10.531A3.115,3.115,0,0,1,316.591,160.329Z" transform="translate(-315.4 -159.662)"/><path class="d" d="M305.258,211.033l.056-.146,1.729-4.624.171-.458a.507.507,0,0,1,.651-.3l1.7.637a.507.507,0,0,1,.3.651l-.138.371-1.617,4.323-.2.533a.507.507,0,0,1-.651.3l-1.7-.637A.5.5,0,0,1,305.258,211.033Z" transform="translate(-289.412 -192.612)"/><path class="u" d="M319.239,161.234a3.136,3.136,0,0,0-3.849-.722c.07-.067.143-.132.222-.194h0a3.117,3.117,0,0,1,4.281.415l10.295,11.943,1.861.626-.278.741-2.089-.7Z" transform="translate(-314.418 -159.655)"/><g transform="translate(28.436 20.363)"><path class="g" d="M261.258,234.218a1.138,1.138,0,0,0-1.547-.452l0,0a.562.562,0,0,1,.067-.045l2.549-1.4a1.14,1.14,0,0,1,1.095,2l-2.544,1.4A1.142,1.142,0,0,0,261.258,234.218Z" transform="translate(-259.184 -232.188)"/><path class="k" d="M270.163,239.546a1.137,1.137,0,0,1-.615-2.094l0,0a1.137,1.137,0,0,1,1.162,1.954l-.006,0A1.117,1.117,0,0,1,270.163,239.546Z" transform="translate(-269.024 -235.871)"/></g></g></g></g></g></svg>