<svg xmlns="http://www.w3.org/2000/svg" width="90" height="90.5" viewBox="0 0 90 90.5"><defs><style>.a{fill:#fcc647;}.b{fill:#fff;stroke:#fff;}</style></defs><g transform="translate(-322 -1058)"><g transform="translate(16)"><circle class="a" cx="45" cy="45" r="45" transform="translate(306 1058)"/></g><g transform="translate(325.999 1020.728)"><g transform="translate(0 68.272)"><g transform="translate(0 0)"><path class="b" d="M239.672,87.186a1.341,1.341,0,0,0,1.2,2.4c.139-.071,3.423-1.753,3.423-5.223a4.777,4.777,0,0,0-1.734-3.63c-.657-.657-.948-.98-.948-1.734s.291-1.077.948-1.734a4.778,4.778,0,0,0,1.734-3.63c0-3.47-3.284-5.152-3.423-5.222a1.341,1.341,0,0,0-1.207,2.395c.019.009,1.948,1.027,1.948,2.827,0,.754-.291,1.077-.948,1.734a4.667,4.667,0,0,0,0,7.26c.657.657.948.98.948,1.734C241.612,86.161,239.683,87.179,239.672,87.186Z" transform="translate(-201.384 -68.272)"/><path class="b" d="M173.346,130.184c0,1.787-1.9,2.8-1.948,2.827a1.342,1.342,0,0,0,1.207,2.4c.139-.071,3.424-1.753,3.424-5.223a4.777,4.777,0,0,0-1.734-3.63c-.657-.657-.948-.98-.948-1.734,0-1.8,1.928-2.817,1.94-2.823a1.341,1.341,0,0,0-1.2-2.4c-.139.07-3.423,1.751-3.423,5.222a4.777,4.777,0,0,0,1.734,3.63C173.055,129.107,173.346,129.43,173.346,130.184Z" transform="translate(-143.845 -111.412)"/><path class="b" d="M309.881,130.19c0,1.787-1.9,2.8-1.947,2.827a1.341,1.341,0,0,0,1.206,2.4c.141-.071,3.423-1.753,3.423-5.223a4.777,4.777,0,0,0-1.734-3.63c-.657-.657-.948-.98-.948-1.734,0-1.8,1.928-2.817,1.94-2.823a1.341,1.341,0,0,0-1.2-2.4c-.141.07-3.423,1.751-3.423,5.222a4.777,4.777,0,0,0,1.734,3.63C309.59,129.113,309.881,129.437,309.881,130.19Z" transform="translate(-258.925 -111.419)"/><path class="b" d="M112.279,244.294a2.669,2.669,0,0,1,2.26,1.255,1.343,1.343,0,0,0,1.794.448,2.624,2.624,0,0,1,3.112.353,1.341,1.341,0,0,0,2.245-.9,2.667,2.667,0,0,1,4.892-1.3,1.391,1.391,0,0,0,2.235,0,2.743,2.743,0,0,1,4.194-.337,1.342,1.342,0,0,0,2.242-.448,2.672,2.672,0,0,1,5.184.888c0,.028-.019.157-.022.185a1.342,1.342,0,0,0,1.793,1.364,2.532,2.532,0,0,1,2.871.693,1.342,1.342,0,0,0,2.242-.448,2.661,2.661,0,0,1,5.078.225,1.341,1.341,0,0,0,1.794.894,2.668,2.668,0,0,1,3.254,1.055,1.338,1.338,0,0,0,1.793.449,2.661,2.661,0,0,1,3.307.528,1.341,1.341,0,0,0,2-1.791,5.391,5.391,0,0,0-5.56-1.537,5.344,5.344,0,0,0-4.5-1.537,5.332,5.332,0,0,0-8.813-.735,5.293,5.293,0,0,0-2.717-.652,5.351,5.351,0,0,0-9.348-2.036,5.488,5.488,0,0,0-5.9.53,5.341,5.341,0,0,0-8.164,1.854,5.278,5.278,0,0,0-3.461-.109,5.326,5.326,0,0,0-3.8-1.584,1.341,1.341,0,0,0,0,2.682Z" transform="translate(-93.505 -212.113)"/><path class="b" d="M79.118,324.262H1.343A1.341,1.341,0,0,0,0,325.6a6.712,6.712,0,0,0,6.7,6.7H8.122a12.086,12.086,0,0,0,11.995,10.728H60.345a12.084,12.084,0,0,0,11.993-10.728h1.416a6.712,6.712,0,0,0,6.7-6.7A1.341,1.341,0,0,0,79.118,324.262Zm-5.364,5.364H71.072a1.341,1.341,0,0,0-1.341,1.341,9.4,9.4,0,0,1-9.387,9.387H20.116a9.4,9.4,0,0,1-9.291-8.046H65.708a1.341,1.341,0,1,0,0-2.682h-59a4.03,4.03,0,0,1-3.794-2.682H77.547A4.03,4.03,0,0,1,73.754,329.626Z" transform="translate(-0.002 -284.035)"/><path class="b" d="M.813,241.5l18.773,8.046a1.341,1.341,0,1,0,1.057-2.465L1.87,239.036A1.341,1.341,0,0,0,.813,241.5Z" transform="translate(0 -212.11)"/></g></g></g></g></svg>