<svg xmlns="http://www.w3.org/2000/svg" width="31.5" height="26.393" viewBox="0 0 31.5 26.393"><defs><style>.a{fill:#fff;stroke:#fff;stroke-width:0.5px;}</style></defs><g transform="translate(0.25 0.25)"><g transform="translate(0)"><path class="a" d="M106.362,246.314a.586.586,0,1,0,.964.665l.011-.017a11,11,0,0,1,9.175-4.934.586.586,0,1,0,0-1.171A12.163,12.163,0,0,0,106.362,246.314Z" transform="translate(-99.857 -227.228)"/><path class="a" d="M31.455,201.84H30.123v-.707a14.334,14.334,0,0,0-3.981-10.046.519.519,0,0,0-.771,0,.617.617,0,0,0,0,.828l.02.02a13.132,13.132,0,0,1,3.647,9.2v.707H3.967v-.707c.007-7.045,5.32-12.755,11.875-12.762h1.317a11.145,11.145,0,0,1,3,.41.54.54,0,0,0,.678-.393.594.594,0,0,0-.366-.729l-.04-.011a12.136,12.136,0,0,0-2.3-.4v-1.8a.566.566,0,0,0-.545-.586H15.41a.566.566,0,0,0-.545.586v1.8c-6.758.556-11.979,6.606-11.988,13.89v.707H1.545a.587.587,0,0,0,0,1.171h29.91a.587.587,0,0,0,0-1.171Zm-15.5-15.812h1.09V187.2h-1.09Z" transform="translate(-1 -177.117)"/><path class="a" d="M321.367,86.439a1.894,1.894,0,0,1,0,3.313A3.2,3.2,0,0,0,320,92.279a.586.586,0,0,0,1.171,0,2.1,2.1,0,0,1,.976-1.655,3.023,3.023,0,0,0,0-5.058,1.89,1.89,0,0,1,0-3.308,3.2,3.2,0,0,0,1.367-2.528.586.586,0,0,0-1.171,0,2.1,2.1,0,0,1-.976,1.653,3.022,3.022,0,0,0,0,5.056Z" transform="translate(-300.304 -79.144)"/><path class="a" d="M369.367,86.439a1.892,1.892,0,0,1,0,3.311A3.2,3.2,0,0,0,368,92.279a.586.586,0,0,0,1.171,0,2.1,2.1,0,0,1,.976-1.655,3.023,3.023,0,0,0,0-5.058,1.89,1.89,0,0,1,0-3.308,3.2,3.2,0,0,0,1.367-2.528.586.586,0,0,0-1.171,0,2.1,2.1,0,0,1-.976,1.653,3.022,3.022,0,0,0,0,5.056Z" transform="translate(-345.057 -79.144)"/><path class="a" d="M417.367,86.439a1.892,1.892,0,0,1,0,3.311A3.2,3.2,0,0,0,416,92.279a.586.586,0,0,0,1.171,0,2.1,2.1,0,0,1,.976-1.655,3.023,3.023,0,0,0,0-5.058,1.89,1.89,0,0,1,0-3.308,3.2,3.2,0,0,0,1.367-2.528.586.586,0,0,0-1.171,0,2.1,2.1,0,0,1-.976,1.653,3.022,3.022,0,0,0,0,5.056Z" transform="translate(-390.184 -79.144)"/></g></g></svg>