<svg xmlns="http://www.w3.org/2000/svg" width="103.756" height="87.111" viewBox="0 0 103.756 87.111"><defs><style>.a{fill:#d2d2d7;}.b{fill:#b9b9be;}.c{fill:#f9b20a;}.d{fill:#fcc647;}.e{fill:#5a5f64;}.f{fill:#7d8287;}.g{fill:#0bd5ff;}.h{fill:#2476ed;}</style></defs><g transform="translate(0 0)"><path class="a" d="M238.43,35.7h7.122V53.267H238.43Zm0,0" transform="translate(-190.112 -28.464)"/><path class="b" d="M221.3,16.369H209.431a4.392,4.392,0,1,1,0-8.784H221.3a4.392,4.392,0,1,1,0,8.784Zm0,0" transform="translate(-163.488 -6.048)"/><path class="c" d="M120.625,136.067v13.881H28.364V136.067a46.131,46.131,0,0,1,92.261,0Zm0,0" transform="translate(-22.616 -71.881)"/><path class="d" d="M181.809,138.615V152.5H105.1V138.615a45.9,45.9,0,0,1,38.355-45.268,45.894,45.894,0,0,1,38.355,45.268Zm0,0" transform="translate(-83.8 -74.43)"/><path class="e" d="M108.263,370.719v.184a5.71,5.71,0,0,1-5.711,5.711H13.289A5.71,5.71,0,0,1,7.578,370.9v-.184a5.71,5.71,0,0,1,5.711-5.711h89.262a5.712,5.712,0,0,1,5.509,4.2A5.627,5.627,0,0,1,108.263,370.719Zm0,0" transform="translate(-6.042 -291.039)"/><path class="f" d="M124.8,369.212H34.454a6.312,6.312,0,0,1-5.879-4.016,5.7,5.7,0,0,1,1.457-.188h89.262a5.712,5.712,0,0,1,5.509,4.2Zm0,0" transform="translate(-22.783 -291.039)"/><path class="g" d="M240.423,154.9v10.9a8.543,8.543,0,0,1-8.521,8.522h-16.8a4.025,4.025,0,0,1-4.013-4.013V151.835a4.026,4.026,0,0,1,4.013-4.013h3.657a1.179,1.179,0,0,0,.914-.431L228.286,137a4.494,4.494,0,0,1,6.012-.9,4.439,4.439,0,0,1,.887,6.446l-2.763,3.35a1.183,1.183,0,0,0,.924,1.923,7.076,7.076,0,0,1,7.077,7.077Zm0,0" transform="translate(-168.315 -107.901)"/><path class="h" d="M156.172,221.353V201.166a2.518,2.518,0,0,1,2.519-2.518h5.631a2.989,2.989,0,0,1,2.98,2.98v19.264a2.989,2.989,0,0,1-2.98,2.98h-5.631a2.518,2.518,0,0,1-2.519-2.518Zm0,0" transform="translate(-124.524 -158.392)"/><path d="M187.533,132.485a6.074,6.074,0,0,0-10.744-2.957l-8.475,10.231c-2.3.216-4.95-.711-7.337,1.56a4.6,4.6,0,0,0-3.1-1.2h-5.631a4.161,4.161,0,0,0-4.157,4.157v20.187a4.161,4.161,0,0,0,4.157,4.157h5.631a4.6,4.6,0,0,0,2.8-.95,5.637,5.637,0,0,0,4.191,1.866h16.795a10.172,10.172,0,0,0,10.161-10.16v-10.9a8.728,8.728,0,0,0-7.791-8.666l2.178-2.643A6.085,6.085,0,0,0,187.533,132.485ZM159.219,164a1.343,1.343,0,0,1-1.342,1.341h-5.631a.881.881,0,0,1-.88-.88V144.277a.881.881,0,0,1,.88-.88h5.631a1.343,1.343,0,0,1,1.342,1.341Zm21.688-25.552a2.821,2.821,0,0,0,2.2,4.584,5.445,5.445,0,0,1,5.439,5.439v10.9a6.892,6.892,0,0,1-6.884,6.884h-16.8a2.377,2.377,0,0,1-2.375-2.374V145.41a2.377,2.377,0,0,1,2.375-2.375h3.658a2.812,2.812,0,0,0,2.175-1.024l8.613-10.4a2.8,2.8,0,0,1,4.972,1.316C184.522,134.647,183.476,135.24,180.907,138.451Zm0,0" transform="translate(-118.079 -101.476)"/><path d="M114.684,28.576A43.894,43.894,0,0,1,136.27,20.1a44.5,44.5,0,0,1,49.6,41.185,1.537,1.537,0,0,0,1.532,1.438c.032,0,.066,0,.1,0a1.536,1.536,0,0,0,1.433-1.632,47.426,47.426,0,0,0-42.469-44.072V11.857h.838A5.928,5.928,0,0,0,147.3,0H135.432a5.928,5.928,0,1,0,0,11.857h.838V17.01a46.97,46.97,0,0,0-23.419,9.1,1.537,1.537,0,1,0,1.834,2.466ZM143.391,16.8c-1.187-.05-2.885-.047-4.05,0V11.857h4.05Zm-7.959-8.017a2.856,2.856,0,1,1,0-5.713H147.3a2.856,2.856,0,1,1,0,5.713Zm0,0" transform="translate(-89.487)"/><path d="M99.545,190.314v-5.777a1.536,1.536,0,1,0-3.071,0v5.108H7.284V181.4a44.007,44.007,0,0,1,13.4-31.76,1.536,1.536,0,1,0-2.144-2.2A47.048,47.048,0,0,0,4.212,181.4v8.916A7.257,7.257,0,0,0,0,196.892v.184a7.255,7.255,0,0,0,7.247,7.247h4.612a1.536,1.536,0,1,0,0-3.071H7.247a4.181,4.181,0,0,1-4.176-4.176v-.184a4.181,4.181,0,0,1,4.165-4.176H96.52a4.181,4.181,0,0,1,4.165,4.176v.184a4.181,4.181,0,0,1-4.176,4.176H18a1.536,1.536,0,1,0,0,3.071H96.51a7.255,7.255,0,0,0,7.247-7.247v-.184a7.257,7.257,0,0,0-4.212-6.579Zm0,0" transform="translate(0 -117.212)"/></g></svg>