<svg xmlns="http://www.w3.org/2000/svg" width="32.742" height="20.391" viewBox="0 0 32.742 20.391"><defs><style>.a{fill:#7edabf;}</style></defs><g transform="translate(0)"><path class="a" d="M10.9,106.057l9.461,9.461a26.15,26.15,0,0,0-.237-4.912,16.572,16.572,0,0,0-4.267-9.506,16.573,16.573,0,0,0-9.506-4.267,24.963,24.963,0,0,0-5.392-.2,1,1,0,0,0-.9.9,24.973,24.973,0,0,0,.2,5.392,16.572,16.572,0,0,0,4.267,9.506,16.573,16.573,0,0,0,9.506,4.267,26.68,26.68,0,0,0,3.746.266c.487,0,.883-.014,1.166-.029l-9.461-9.461a1,1,0,1,1,1.412-1.412Z" transform="translate(0 -96.567)"/></g><g transform="translate(21.137 6.043)"><path class="a" d="M342.09,192a1,1,0,0,0-.9-.9c-.267-.025-6.577-.582-10.252,3.092q-.215.215-.41.441a23.592,23.592,0,0,1,.964,4.135c.067.469.12.922.16,1.355l2.608-2.608a1,1,0,0,1,1.412,1.412l-3.893,3.893c0,1.018-.059,1.681-.072,1.813a2.982,2.982,0,0,1-.145.676,12.086,12.086,0,0,0,7.433-3.06C342.672,198.578,342.116,192.268,342.09,192Z" transform="translate(-330.53 -191.058)"/></g></svg>