<svg id="visa" xmlns="http://www.w3.org/2000/svg" width="47.458" height="14.602" viewBox="0 0 47.458 14.602">
  <g id="Group_10363" data-name="Group 10363" transform="translate(4.217 0)">
    <path id="Path_7034" data-name="Path 7034" d="M175.483,189.519l2.4-14.146h3.879l-2.4,14.146Z" transform="translate(-162.701 -175.145)" fill="#293688"/>
    <path id="Path_7035" data-name="Path 7035" d="M232.882,174.241a10.073,10.073,0,0,0-3.477-.594c-3.833,0-6.533,1.919-6.557,4.669-.021,2.032,1.927,3.166,3.4,3.843,1.51.692,2.017,1.136,2.01,1.755-.009.948-1.206,1.382-2.321,1.382a8.185,8.185,0,0,1-3.651-.743l-.5-.225-.545,3.167a12.338,12.338,0,0,0,4.322.755c4.077,0,6.725-1.9,6.754-4.833.015-1.609-1.019-2.834-3.257-3.844-1.356-.654-2.187-1.09-2.178-1.753,0-.588.7-1.217,2.222-1.217a7.194,7.194,0,0,1,2.9.542l.347.163.527-3.066Z" transform="translate(-202.414 -173.647)" fill="#293688"/>
    <path id="Path_7036" data-name="Path 7036" d="M308.446,175.373a1.928,1.928,0,0,0-2.009,1.2l-5.748,12.942H304.8l.8-2.168H310.5l.456,2.168h3.651l-3.194-14.146h-2.967Zm-1.763,9.148c.32-.815,1.545-3.954,1.545-3.954-.022.037.319-.819.515-1.35l.263,1.219.9,4.085h-3.22Z" transform="translate(-271.365 -175.145)" fill="#293688"/>
    <path id="Path_7037" data-name="Path 7037" d="M84.447,185.07l-.342-1.939a11.051,11.051,0,0,0-5.367-5.932l3.427,12.321h4.108l6.16-14.146H88.327Z" transform="translate(-78.739 -175.145)" fill="#293688"/>
  </g>
  <g id="Group_10364" data-name="Group 10364" transform="translate(0 0.228)">
    <path id="Path_7038" data-name="Path 7038" d="M46.823,175.373v.228c4.867,1.171,8.246,4.13,9.584,7.529L55,176.58a1.667,1.667,0,0,0-1.788-1.207Z" transform="translate(-46.823 -175.373)" fill="#f7981d"/>
  </g>
</svg>
